<?xml version="1.0" encoding="utf-8"?>
<!-- Generator: Adobe Illustrator 21.0.0, SVG Export Plug-In . SVG Version: 6.00 Build 0)  -->
<svg version="1.1" id="Слой_1" xmlns="http://www.w3.org/2000/svg" xmlns:xlink="http://www.w3.org/1999/xlink" x="0px" y="0px"
	 viewBox="0 0 142.6 103.4" style="enable-background:new 0 0 142.6 103.4;" xml:space="preserve">
	<style type="text/css">
		.st0{fill:#9DACB9;stroke:#9DACB9;stroke-miterlimit:10;}
	</style>
	<g>
		<path class="st0" d="M135.7,102.9H6.9c-3.5,0-6.4-2.9-6.4-6.4V6.9c0-3.5,2.9-6.4,6.4-6.4h128.7c3.5,0,6.4,2.9,6.4,6.4v89.6
			C142.1,100,139.2,102.9,135.7,102.9L135.7,102.9z M6.9,4.5c-1.3,0-2.4,1.1-2.4,2.4v89.6c0,1.3,1.1,2.4,2.4,2.4h128.7
			c1.3,0,2.4-1.1,2.4-2.4V6.9c0-1.3-1.1-2.4-2.4-2.4H6.9z M127,85.1H92.1c-1.1,0-2-0.9-2-2c0-1.1,0.9-2,2-2H127c1.1,0,2,0.9,2,2
			C129,84.2,128.1,85.1,127,85.1L127,85.1z M47,85.1c-18.4,0-33.4-15-33.4-33.4s15-33.4,33.4-33.4c18.4,0,33.4,15,33.4,33.4
			S65.4,85.1,47,85.1L47,85.1z M47,22.3c-16.2,0-29.4,13.2-29.4,29.4c0,16.2,13.2,29.4,29.4,29.4c16.2,0,29.4-13.2,29.4-29.4
			C76.4,35.5,63.2,22.3,47,22.3L47,22.3z M55.8,76.8L55.8,76.8c-3.4,0-6.6-1.6-8.9-4.5c-3.2-4-2.9-10.5-2.6-13.4
			c-0.7-0.3-1.4-0.6-2-1.1c-0.7,0.1-2.6,0.5-4.2,2.3c-1,1.1-1.1,2.1-1.2,3.4c-0.1,1.5-0.3,3.6-2.5,5.3c-1.7,1.4-3.8,1.9-5.8,1.4
			c-2.8-0.6-5.1-2.9-7-6.9c-3.5-7.1-2.7-11.9-1.4-14.6c1.4-3.1,4.2-5.3,7.7-6.2c5.3-1.4,11.6,2.1,13.8,3.5c0.4-0.4,0.9-0.8,1.5-1.1
			c0,0,0,0,0,0c0-0.1,1-2.2,0-5c-0.5-1.4-1.3-1.9-2.4-2.6c-1.3-0.8-3.1-2-3.6-4.7c-0.4-2.1,0.2-4.3,1.5-5.8c1.9-2.1,5-3.2,9.4-3
			c7.9,0.3,11.7,3.2,13.5,5.6c2,2.7,2.7,6.2,1.9,9.7c-1.2,5-6.6,8.7-9.1,10.2c0.2,0.7,0.3,1.5,0.3,2.3c0,0.3,0,0.6-0.1,0.9
			c0,0,0,0,0,0c0,0.1,1.1,2.2,4,3.1c1.4,0.5,2.3,0.1,3.6-0.3c1.4-0.5,3.4-1.2,5.9,0c1.9,1,3.3,2.7,3.7,4.7c0.6,2.8-0.5,5.9-3.3,9.3
			C63.4,75.5,58.8,76.8,55.8,76.8L55.8,76.8z M48.3,59.3c-0.3,2.8-0.4,7.9,1.7,10.5c0.9,1.1,2.9,3,5.8,3h0c3,0,6.3-2,9.5-5.9
			c1.9-2.3,2.8-4.4,2.5-5.9c-0.2-1.1-1.1-1.7-1.6-2c-0.9-0.4-1.4-0.3-2.7,0.2c-1.4,0.5-3.4,1.2-6.2,0.4c-2.1-0.7-3.6-1.8-4.6-2.8
			C51.6,58.1,50.1,59,48.3,59.3L48.3,59.3z M30.5,46.3c-0.5,0-1.1,0.1-1.6,0.2c-1.4,0.4-3.9,1.4-5.1,4c-1.3,2.8-0.8,6.6,1.4,11.1
			c1.3,2.7,2.9,4.4,4.3,4.7c1.1,0.3,2-0.3,2.5-0.6c0.8-0.6,0.8-1.1,1-2.5c0.1-1.5,0.3-3.6,2.2-5.8c1.5-1.7,3.2-2.6,4.6-3.1
			c-0.3-0.8-0.5-1.8-0.5-2.7c0-0.8,0.1-1.5,0.3-2.2C37.7,48.3,33.7,46.3,30.5,46.3L30.5,46.3z M47,48c-2,0-3.7,1.7-3.7,3.7
			s1.7,3.7,3.7,3.7s3.7-1.7,3.7-3.7S49,48,47,48L47,48z M47.5,44c1.8,0.1,3.5,0.9,4.7,2c2.4-1.4,6.6-4.5,7.4-7.8
			c0.3-1.4,0.6-4.1-1.1-6.4c-1.8-2.4-5.5-3.8-10.5-4c-3-0.1-5.2,0.5-6.2,1.6c-0.8,0.9-0.7,1.9-0.6,2.5c0.2,1,0.6,1.3,1.8,2
			c1.3,0.8,3.1,2,4,4.7C47.7,40.7,47.7,42.6,47.5,44L47.5,44z M127,72.5H92.1c-1.1,0-2-0.9-2-2c0-1.1,0.9-2,2-2H127c1.1,0,2,0.9,2,2
			C129,71.7,128.1,72.5,127,72.5L127,72.5z M127,60H92.1c-1.1,0-2-0.9-2-2c0-1.1,0.9-2,2-2H127c1.1,0,2,0.9,2,2
			C129,59.1,128.1,60,127,60L127,60z M127,47.4H92.1c-1.1,0-2-0.9-2-2c0-1.1,0.9-2,2-2H127c1.1,0,2,0.9,2,2
			C129,46.5,128.1,47.4,127,47.4L127,47.4z M127,34.9H92.1c-1.1,0-2-0.9-2-2c0-1.1,0.9-2,2-2H127c1.1,0,2,0.9,2,2
			C129,34,128.1,34.9,127,34.9L127,34.9z M127,22.3H92.1c-1.1,0-2-0.9-2-2c0-1.1,0.9-2,2-2H127c1.1,0,2,0.9,2,2
			C129,21.4,128.1,22.3,127,22.3L127,22.3z M127,22.3"/>
	</g>
</svg>
