<?xml version="1.0" encoding="utf-8"?>
<!-- Generator: Adobe Illustrator 21.0.0, SVG Export Plug-In . SVG Version: 6.00 Build 0)  -->
<svg version="1.1" id="Capa_1" xmlns="http://www.w3.org/2000/svg" xmlns:xlink="http://www.w3.org/1999/xlink" x="0px" y="0px"
	 viewBox="-49 141 512 512" style="enable-background:new -49 141 512 512;" xml:space="preserve">
	<style type="text/css">
		.st0{fill:#9DACB9;stroke:#9DACB9;stroke-miterlimit:10;}
	</style>
	<path class="st0" d="M427.2,653H-13.2c-20.1,0-35.8-15.7-35.8-35.8V176.8c0-20.1,15.7-35.8,35.8-35.8h440.4 c20.1,0,35.8,15.7,35.8,35.8v440.4C463,637.3,447.3,653,427.2,653z M-13.2,157.5c-10.8,0-19.3,8.5-19.3,19.3v440.4 c0,10.8,8.5,19.3,19.3,19.3h440.4c10.8,0,19.3-8.5,19.3-19.3V176.8c0-10.8-8.5-19.3-19.3-19.3H-13.2z"/>
	<path class="st0" d="M96.9,377.7c-50.1,0-90.8-40.8-90.8-90.8s40.8-90.8,90.8-90.8s90.8,40.8,90.8,90.8S147,377.7,96.9,377.7z M96.9,212.6c-41,0-74.3,33.3-74.3,74.3c0,41,33.3,74.3,74.3,74.3s74.3-33.3,74.3-74.3C171.2,245.9,137.9,212.6,96.9,212.6z"/>
	<path class="st0" d="M317.1,416.3c-34.9,0-63.3,28.4-63.3,63.3c0,34.9,28.4,63.3,63.3,63.3c34.9,0,63.3-28.4,63.3-63.3	C380.4,444.7,352,416.3,317.1,416.3z M317.1,526.4c-25.8,0-46.8-21-46.8-46.8s21-46.8,46.8-46.8c25.8,0,46.8,21,46.8,46.8 S342.9,526.4,317.1,526.4z"/>
	<path class="st0" d="M96.9,542.9c-34.9,0-63.3-28.4-63.3-63.3c0-34.9,28.4-63.3,63.3-63.3s63.3,28.4,63.3,63.3 S131.8,542.9,96.9,542.9z M96.9,432.8c-25.8,0-46.8,21-46.8,46.8c0,25.8,21,46.8,46.8,46.8s46.8-21,46.8-46.8 S122.7,432.8,96.9,432.8z"/>
	<path class="st0" d="M317.1,377.7c-50.1,0-90.8-40.8-90.8-90.8s40.8-90.8,90.8-90.8s90.8,40.8,90.8,90.8S367.2,377.7,317.1,377.7z M317.1,212.6c-41,0-74.3,33.3-74.3,74.3c0,41,33.3,74.3,74.3,74.3s74.3-33.3,74.3-74.3C391.4,245.9,358.1,212.6,317.1,212.6z"/>
	<path class="st0" d="M69.4,597.9c-3,0-5.9-1.7-7.4-4.6c-1.3-2.6-1.1-5.7,0.4-8.1c3.1-5,3.2-5,62.2-3.8c4.6,0.1,8.2,3.9,8.1,8.4 c-0.1,4.6-3.9,8.2-8.4,8.1c-22.4-0.4-47.4-0.7-52.6-0.3C70.9,597.8,70.1,597.9,69.4,597.9z"/>
	<path class="st0" d="M276.9,597.9h-1.1c-4.6,0-8.3-3.7-8.3-8.3s3.7-8.3,8.3-8.3h1.1c4.6,0,8.3,3.7,8.3,8.3S281.5,597.9,276.9,597.9z"/>
	<path class="st0" d="M304.4,597.9h-1.1c-4.6,0-8.3-3.7-8.3-8.3s3.7-8.3,8.3-8.3h1.1c4.6,0,8.3,3.7,8.3,8.3S309,597.9,304.4,597.9z"/>
	<path class="st0" d="M332,597.9h-1.1c-4.6,0-8.3-3.7-8.3-8.3s3.7-8.3,8.3-8.3h1.1c4.6,0,8.3,3.7,8.3,8.3S336.5,597.9,332,597.9z"/>
	<path class="st0" d="M359.5,597.9h-1.1c-4.6,0-8.3-3.7-8.3-8.3s3.7-8.3,8.3-8.3h1.1c4.6,0,8.3,3.7,8.3,8.3S364.1,597.9,359.5,597.9z"/>
</svg>
