<?xml version="1.0" encoding="utf-8"?>
<!-- Generator: Adobe Illustrator 21.0.0, SVG Export Plug-In . SVG Version: 6.00 Build 0)  -->
<svg version="1.1" id="Capa_1" xmlns="http://www.w3.org/2000/svg" xmlns:xlink="http://www.w3.org/1999/xlink" x="0px" y="0px" viewBox="-23.4 141 460.8 512" style="enable-background:new -23.4 141 460.8 512;" xml:space="preserve">
	<style type="text/css">
		.st0{fill:#9DACB9;}
	</style>
	<path class="st0" d="M411.8,141H2.2c-14.1,0-25.6,11.5-25.6,25.6v426.7c0,14.1,11.5,25.6,25.6,25.6h409.6 c14.1,0,25.6-11.5,25.6-25.6V166.6C437.4,152.5,425.9,141,411.8,141z M420.3,593.3c0,4.7-3.8,8.5-8.5,8.5H2.2 c-4.7,0-8.5-3.8-8.5-8.5V166.6c0-4.7,3.8-8.5,8.5-8.5h409.6c4.7,0,8.5,3.8,8.5,8.5V593.3z"/>
	<path id="SVGCleanerId_0" class="st0" d="M266.7,286.1c-75.3,0-136.5,61.3-136.5,136.5s61.3,136.5,136.5,136.5	s136.5-61.3,136.5-136.5S342,286.1,266.7,286.1z M266.7,542.1c-65.9,0-119.5-53.6-119.5-119.5s53.6-119.5,119.5-119.5 s119.5,53.6,119.5,119.5S332.6,542.1,266.7,542.1z"/>
	<path class="st0" d="M79,601.8H10.7c-4.7,0-8.5,3.8-8.5,8.5v25.6c0,9.4,7.6,17.1,17.1,17.1h51.2c9.4,0,17.1-7.6,17.1-17.1v-25.6 C87.5,605.6,83.7,601.8,79,601.8z M70.5,635.9H19.3v-17.1h51.2L70.5,635.9z"/>
	<path class="st0" d="M403.3,601.8H335c-4.7,0-8.5,3.8-8.5,8.5v25.6c0,9.4,7.6,17.1,17.1,17.1h51.2c9.4,0,17.1-7.6,17.1-17.1v-25.6 C411.8,605.6,408,601.8,403.3,601.8z M394.7,635.9h-51.2v-17.1h51.2V635.9z"/>
	<path class="st0" d="M428.9,542.1H-14.9c-4.7,0-8.5,3.8-8.5,8.5s3.8,8.5,8.5,8.5h443.7c4.7,0,8.5-3.8,8.5-8.5 S433.6,542.1,428.9,542.1z"/>
	<path class="st0" d="M428.9,251.9H-14.9c-4.7,0-8.5,3.8-8.5,8.5c0,4.7,3.8,8.5,8.5,8.5h443.7c4.7,0,8.5-3.8,8.5-8.5 C437.4,255.8,433.6,251.9,428.9,251.9z"/>
	<path class="st0" d="M364.9,175.1c-16.5,0-29.9,13.4-29.9,29.9s13.4,29.9,29.9,29.9s29.9-13.4,29.9-29.9S381.4,175.1,364.9,175.1z M364.9,217.8c-7.1,0-12.8-5.7-12.8-12.8s5.7-12.8,12.8-12.8c7.1,0,12.8,5.7,12.8,12.8S371.9,217.8,364.9,217.8z"/>
	<path class="st0" d="M19.3,175.1c-4.7,0-8.5,3.8-8.5,8.5v42.7c0,4.7,3.8,8.5,8.5,8.5s8.5-3.8,8.5-8.5v-42.7 C27.8,179,24,175.1,19.3,175.1z"/>
	<path class="st0" d="M53.4,175.1c-4.7,0-8.5,3.8-8.5,8.5v42.7c0,4.7,3.8,8.5,8.5,8.5s8.5-3.8,8.5-8.5v-42.7 C61.9,179,58.1,175.1,53.4,175.1z"/>
	<path class="st0" d="M87.5,175.1c-4.7,0-8.5,3.8-8.5,8.5v42.7c0,4.7,3.8,8.5,8.5,8.5s8.5-3.8,8.5-8.5v-42.7 C96.1,179,92.2,175.1,87.5,175.1z"/>
	<path class="st0" d="M121.7,175.1c-4.7,0-8.5,3.8-8.5,8.5v42.7c0,4.7,3.8,8.5,8.5,8.5s8.5-3.8,8.5-8.5v-42.7 C130.2,179,126.4,175.1,121.7,175.1z"/>
	<path class="st0" d="M210.8,528.2c-10.9-5.8-20.8-13.2-29.4-22c-8.1-8.3-14.9-17.6-20.3-27.9C130.3,420,152.7,347.7,211,317 c1.5-0.8,2.8-2,3.6-3.6c2.2-4.2,0.6-9.3-3.6-11.5c-19.6-10.4-41.5-15.8-63.7-15.8c-75.4,0-136.5,61.1-136.5,136.5 c0,75.4,61.1,136.5,136.5,136.5c22.2-0.1,44-5.5,63.6-15.8c1.5-0.8,2.8-2,3.6-3.6C216.6,535.6,215,530.4,210.8,528.2z M147.3,542.1 c-66,0-119.5-53.5-119.5-119.5s53.5-119.5,119.4-119.5c14.2,0,28.3,2.5,41.6,7.4c-7,4.9-13.5,10.4-19.5,16.5 c-5.3,5.4-10.2,11.3-14.5,17.5c-43.1,61.9-27.9,147,33.9,190.1C175.5,539.5,161.4,542.1,147.3,542.1z"/>
	<path class="st0" d="M181.4,339c1-1,1.7-2.2,2.1-3.5c1.4-4.5-1.1-9.3-5.6-10.7c-9.9-3.1-20.3-4.6-30.6-4.6	c-56.6,0-102.4,45.8-102.4,102.4S90.7,525,147.3,525c10.4,0,20.7-1.6,30.5-4.6c1.3-0.4,2.5-1.1,3.5-2.1c3.4-3.3,3.4-8.7,0.1-12.1 C135.9,459.8,135.9,385.4,181.4,339z M147.6,507.9c-47.1,0.1-85.4-38-85.5-85.2c-0.1-47.1,38-85.4,85.2-85.5c4.1,0,8.2,0.3,12.2,0.9	c-39,49.5-39,119.3,0,168.9C155.5,507.6,151.6,507.9,147.6,507.9z"/>
	<g>
		<path id="SVGCleanerId_0_1_" class="st0" d="M266.7,286.1c-75.3,0-136.5,61.3-136.5,136.5s61.3,136.5,136.5,136.5 s136.5-61.3,136.5-136.5S342,286.1,266.7,286.1z M266.7,542.1c-65.9,0-119.5-53.6-119.5-119.5s53.6-119.5,119.5-119.5 s119.5,53.6,119.5,119.5S332.6,542.1,266.7,542.1z"/>
	</g>
	<path class="st0" d="M266.7,320.2c-10.4,0-20.7,1.6-30.7,4.7c-32.1,10-57.2,35.1-67.2,67.2c-8.1,26.1-5.6,53.8,7,78.1 c12.7,24.2,34.1,42.1,60.2,50.2c10,3.1,20.3,4.6,30.7,4.7c56.5,0,102.4-45.9,102.4-102.4C369.1,366.1,323.2,320.2,266.7,320.2z M266.7,507.9c-8.7,0-17.3-1.3-25.6-3.9c-21.8-6.8-39.6-21.7-50.1-41.8c-10.6-20.2-12.7-43.3-5.9-65.1c8.3-26.7,29.3-47.7,56-56	c8.3-2.6,16.9-3.9,25.6-3.9c47.1,0,85.3,38.3,85.3,85.3S313.8,507.9,266.7,507.9z"/>
	<path class="st0" d="M266.7,320.2c-10.4,0-20.7,1.6-30.6,4.7c-32.1,10-57.2,35.1-67.2,67.2c-16.8,54,13.3,111.4,67.2,128.3 c9.9,3.1,20.3,4.6,30.6,4.6c56.5,0,102.4-45.9,102.4-102.4S323.3,320.2,266.7,320.2z M266.7,507.9c-8.7,0-17.3-1.3-25.6-3.8 c-26.7-8.4-47.7-29.3-56-56c-14.1-45,11-92.8,56-106.9c8.3-2.6,16.9-3.9,25.6-3.9c47.1,0,85.3,38.2,85.3,85.3 C352.1,469.7,313.9,507.9,266.7,507.9z"/>
	<path class="st0" d="M428.9,422.6H-14.9c-4.7,0-8.5,3.8-8.5,8.5s3.8,8.5,8.5,8.5h443.7c4.7,0,8.5-3.8,8.5-8.5 S433.6,422.6,428.9,422.6z"/>
</svg>
