<?xml version="1.0" encoding="utf-8"?>
<!-- Generator: Adobe Illustrator 21.0.0, SVG Export Plug-In . SVG Version: 6.00 Build 0)  -->
<svg version="1.1" id="Capa_1" xmlns="http://www.w3.org/2000/svg" xmlns:xlink="http://www.w3.org/1999/xlink" x="0px" y="0px" viewBox="2.2 141 409.6 512" style="enable-background:new 2.2 141 409.6 512;" xml:space="preserve">
	<style type="text/css">
		.st0{fill:#9DACB9;}
	</style>
	<path class="st0" d="M386.2,141H27.8c-14.1,0-25.6,11.5-25.6,25.6v460.8c0,14.1,11.5,25.6,25.6,25.6h358.4	c14.1,0,25.6-11.5,25.6-25.6V166.6C411.8,152.5,400.3,141,386.2,141z M394.7,627.4c0,4.7-3.8,8.5-8.5,8.5H27.8 c-4.7,0-8.5-3.8-8.5-8.5V166.6c0-4.7,3.8-8.5,8.5-8.5h358.4c4.7,0,8.5,3.8,8.5,8.5V627.4z"/>
	<path class="st0" d="M403.3,175.1H10.7c-4.7,0-8.5,3.8-8.5,8.5s3.8,8.5,8.5,8.5h392.5c4.7,0,8.5-3.8,8.5-8.5S408,175.1,403.3,175.1z"/>
	<path class="st0" d="M403.3,294.6H10.7c-4.7,0-8.5,3.8-8.5,8.5c0,4.7,3.8,8.5,8.5,8.5h392.5c4.7,0,8.5-3.8,8.5-8.5 C411.8,298.4,408,294.6,403.3,294.6z"/>
	<path class="st0" d="M207,328.7c-70.7,0-128,57.3-128,128s57.3,128,128,128s128-57.3,128-128S277.7,328.7,207,328.7z M207,567.7 c-61.3,0-110.9-49.7-110.9-110.9S145.7,345.8,207,345.8s110.9,49.7,110.9,110.9S268.3,567.7,207,567.7z"/>
	<path class="st0" d="M207,362.9c-51.8,0-93.9,42-93.9,93.9s42,93.9,93.9,93.9s93.9-42,93.9-93.9S258.8,362.9,207,362.9z M207,533.5	c-42.4,0-76.8-34.4-76.8-76.8s34.4-76.8,76.8-76.8s76.8,34.4,76.8,76.8S249.4,533.5,207,533.5z"/>
	<path class="st0" d="M79,601.8H44.9c-4.7,0-8.5,3.8-8.5,8.5c0,4.7,3.8,8.5,8.5,8.5H79c4.7,0,8.5-3.8,8.5-8.5 C87.5,605.6,83.7,601.8,79,601.8z"/>
	<path class="st0" d="M155.8,601.8h-42.7c-4.7,0-8.5,3.8-8.5,8.5c0,4.7,3.8,8.5,8.5,8.5h42.7c4.7,0,8.5-3.8,8.5-8.5	C164.3,605.6,160.5,601.8,155.8,601.8z"/>
	<path class="st0" d="M232.6,601.8h-42.7c-4.7,0-8.5,3.8-8.5,8.5c0,4.7,3.8,8.5,8.5,8.5h42.7c4.7,0,8.5-3.8,8.5-8.5	C241.1,605.6,237.3,601.8,232.6,601.8z"/>
	<path class="st0" d="M300.9,601.8h-34.1c-4.7,0-8.5,3.8-8.5,8.5c0,4.7,3.8,8.5,8.5,8.5h34.1c4.7,0,8.5-3.8,8.5-8.5	C309.4,605.6,305.6,601.8,300.9,601.8z"/>
	<path class="st0" d="M369.1,601.8H335c-4.7,0-8.5,3.8-8.5,8.5c0,4.7,3.8,8.5,8.5,8.5h34.1c4.7,0,8.5-3.8,8.5-8.5 C377.7,605.6,373.8,601.8,369.1,601.8z"/>
	<path class="st0" d="M343.5,209.3c-18.9,0-34.1,15.3-34.1,34.1s15.3,34.1,34.1,34.1c18.9,0,34.1-15.3,34.1-34.1 S362.4,209.3,343.5,209.3z M343.5,260.5c-9.4,0-17.1-7.6-17.1-17.1c0-9.4,7.6-17.1,17.1-17.1s17.1,7.6,17.1,17.1 C360.6,252.8,353,260.5,343.5,260.5z"/>
	<path class="st0" d="M189.9,226.3c-4.7,0-8.5,3.8-8.5,8.5v17.1c0,4.7,3.8,8.5,8.5,8.5s8.5-3.8,8.5-8.5v-17.1 C198.5,230.2,194.6,226.3,189.9,226.3z"/>
	<path class="st0" d="M224.1,226.3c-4.7,0-8.5,3.8-8.5,8.5v17.1c0,4.7,3.8,8.5,8.5,8.5c4.7,0,8.5-3.8,8.5-8.5v-17.1	C232.6,230.2,228.8,226.3,224.1,226.3z"/>
</svg>
