<?xml version="1.0" encoding="utf-8"?>
<!-- Generator: Adobe Illustrator 21.0.0, SVG Export Plug-In . SVG Version: 6.00 Build 0)  -->
<svg version="1.1" id="Layer_1" xmlns="http://www.w3.org/2000/svg" xmlns:xlink="http://www.w3.org/1999/xlink" x="0px" y="0px" viewBox="-38.3 157 490.7 480" style="enable-background:new -38.3 157 490.7 480;" xml:space="preserve">
	<style type="text/css">
		.st0{fill:#9DACB9;}
	</style>
	<g>
		<path class="st0" d="M420.3,157H-6.3c-17.7,0-32,14.3-32,32v416c0,17.7,14.3,32,32,32l0,0h426.7c17.7,0,32-14.3,32-32l0,0V189 C452.3,171.3,438,157,420.3,157z M431,605c0,5.9-4.8,10.7-10.7,10.7H-6.3c-5.9,0-10.7-4.8-10.7-10.7V189c0-5.9,4.8-10.7,10.7-10.7 h426.7c5.9,0,10.7,4.8,10.7,10.7V605z"/>
		<path class="st0" d="M79,237.1c0-20.6-16.7-37.3-37.3-37.3S4.3,216.5,4.3,237.1s16.7,37.3,37.3,37.3l0,0 C62.3,274.3,79,257.7,79,237.1z M25.7,237.1c0-8.9,7.1-16,16-16s16,7.1,16,16c0,8.9-7.1,16-16,16S25.7,246,25.7,237.1L25.7,237.1z"/>
		<path class="st0" d="M372.3,199.7c-20.6,0-37.3,16.7-37.3,37.3s16.7,37.3,37.3,37.3c20.6,0,37.3-16.7,37.3-37.3 S392.9,199.8,372.3,199.7z M372.3,253c-9.1,0-16.4-7.6-16-16.7c0.4-8.1,7-14.8,15.3-15.3c9.2-0.4,16.7,6.9,16.7,16l0,0 C388.3,245.7,381.2,253,372.3,253L372.3,253L372.3,253z"/>
		<path class="st0" d="M356.3,327.7H57.7c-17.7,0-32,14.3-32,32v192c0,17.7,14.3,32,32,32h298.7c17.7,0,32-14.3,32-32v-192 C388.3,342,374,327.7,356.3,327.7z M367,551.7c0,5.9-4.8,10.7-10.7,10.7H57.7c-5.9,0-10.7-4.8-10.7-10.7v-192 c0-5.9,4.8-10.7,10.7-10.7h298.7c5.9,0,10.7,4.8,10.7,10.7V551.7z"/>
		<path class="st0" d="M132.3,274.3h149.3c5.9,0,10.7-4.8,10.7-10.7c0-5.9-4.8-10.7-10.7-10.7H132.3c-5.9,0-10.7,4.8-10.7,10.7 C121.7,269.5,126.5,274.3,132.3,274.3z"/>
		<path class="st0" d="M183.6,411.3c4.7-3.5,5.7-10.2,2-14.9c-3.4-4.6-9.8-5.5-14.5-2.3c-10.8,7.7-25.2,31.6-2.9,67.3 c5.4,8.7,7.3,16.5,5.4,22.9c-2.8,9.6-13.1,14.7-13.1,14.7c-5.3,2.5-7.7,8.9-5.2,14.2s8.9,7.7,14.2,5.2l0,0 c1.9-0.9,19-9.3,24.5-27.8c3.7-12.6,1.2-26.2-7.7-40.5C169.9,423.5,182,412.5,183.6,411.3z"/>
		<path class="st0" d="M247.5,411.4c4.7-3.5,5.8-10.1,2.2-14.9c-3.5-4.7-10.1-5.8-14.9-2.2c-10.5,7.6-24.6,31.4-2.9,67 c5.3,8.9,7.1,16.5,5.2,23c-2.8,9.5-12.7,14.5-12.7,14.5c-5.3,2.6-7.5,9-4.9,14.3c1.8,3.6,5.4,6,9.5,6c1.6,0,3.1-0.4,4.6-1.1 c1.9-0.9,18.5-9.2,24-27.5c3.7-12.6,1.3-26.2-7.5-40.5C234.1,423.7,246,412.7,247.5,411.4z"/>
	</g>
</svg>
