<?xml version="1.0" encoding="utf-8"?>
<!-- Generator: Adobe Illustrator 21.0.0, SVG Export Plug-In . SVG Version: 6.00 Build 0)  -->
<svg version="1.1" id="Capa_1" xmlns="http://www.w3.org/2000/svg" xmlns:xlink="http://www.w3.org/1999/xlink" x="0px" y="0px"
	 viewBox="48.5 141 317 512" style="enable-background:new 48.5 141 317 512;" xml:space="preserve">
<style type="text/css">
	.st0{fill:#9DACB9;}
</style>
<path class="st0" d="M319.8,141H94.2c-25.2,0-45.6,20.5-45.6,45.6l0,0v389.5l0,0c0,23.3,17.5,42.5,40,45.3V643c0,5.5,4.5,10,10,10
	h49c5.5,0,10-4.5,10-10v-21.2h99V643c0,5.5,4.5,10,10,10h49c5.5,0,10-4.5,10-10v-21.6c22.5-2.8,40-22,40-45.3l0,0V186.6l0,0
	C365.5,161.5,345,141,319.8,141z M68.5,332h240.8v136.6c0,5.5,4.5,10,10,10s10-4.5,10-10V332h16.2v216h-277V332z M68.5,186.6
	c0-14.1,11.5-25.6,25.6-25.6h225.7c14.1,0,25.6,11.5,25.6,25.6V312h-16.2V193.7c0-5.5-4.5-10-10-10s-10,4.5-10,10V312H68.5V186.6z
	 M137.5,633h-29v-11.2h29V633z M305.5,633h-29v-11.2h29V633z M345.5,576.1c0,14.1-11.5,25.6-25.6,25.6l0,0l0,0H94.2l0,0l0,0
	c-14.1,0-25.6-11.5-25.6-25.6V568h277V576.1z"/>
<path class="st0" d="M194.9,229.5h-79c-15.1,0-27.3,12.3-27.3,27.3v12.7c0,12.5,10.2,22.7,22.7,22.7h16.4c8.9,0,16.7-5.2,20.4-12.7
	h46.9c5.5,0,10-4.5,10-10v-30C204.9,234,200.4,229.5,194.9,229.5z M184.9,259.5l-44.5,0c-5.5,0-10,4.5-10,10c0,1.5-1.2,2.7-2.7,2.7
	h-16.4c-1.5,0-2.7-1.2-2.7-2.7v-12.7c0-4,3.3-7.3,7.3-7.3h69V259.5z"/>
<path class="st0" d="M197.3,355.7h-79c-15.1,0-27.3,12.3-27.3,27.3v12.7c0,12.5,10.2,22.7,22.7,22.7h16.4c8.9,0,16.7-5.2,20.4-12.7
	h46.9c5.5,0,10-4.5,10-10v-30C207.3,360.1,202.9,355.7,197.3,355.7z M187.3,385.7h-44.5c-5.5,0-10,4.5-10,10c0,1.5-1.2,2.7-2.7,2.7
	h-16.4c-1.5,0-2.7-1.2-2.7-2.7V383c0-4,3.3-7.3,7.3-7.3h69V385.7z"/>
<path class="st0" d="M328.5,513.8c-0.3-0.6-0.6-1.2-0.9-1.7c-0.4-0.6-0.8-1.1-1.2-1.5s-1-0.9-1.5-1.2c-0.5-0.4-1.1-0.7-1.7-0.9
	s-1.2-0.5-1.9-0.6c-1.3-0.3-2.6-0.3-3.9,0c-0.6,0.1-1.3,0.3-1.9,0.6s-1.2,0.6-1.7,0.9c-0.5,0.4-1,0.8-1.5,1.2
	c-0.5,0.5-0.9,1-1.3,1.5c-0.4,0.5-0.7,1.1-0.9,1.7c-0.3,0.6-0.4,1.2-0.6,1.9s-0.2,1.3-0.2,2s0.1,1.3,0.2,2s0.3,1.3,0.6,1.9
	c0.3,0.6,0.6,1.2,0.9,1.7c0.4,0.6,0.8,1.1,1.3,1.5c0.5,0.5,1,0.9,1.5,1.2c0.5,0.4,1.1,0.7,1.7,0.9s1.2,0.4,1.9,0.6
	c0.6,0.1,1.3,0.2,2,0.2c0.6,0,1.3-0.1,2-0.2c0.6-0.1,1.3-0.3,1.9-0.6s1.2-0.6,1.7-0.9c0.5-0.4,1.1-0.8,1.5-1.2
	c1.9-1.9,2.9-4.4,2.9-7.1c0-0.6-0.1-1.3-0.2-2C329,515,328.8,514.3,328.5,513.8z"/>
</svg>
