<?xml version="1.0" encoding="utf-8"?>
<!-- Generator: Adobe Illustrator 21.0.0, SVG Export Plug-In . SVG Version: 6.00 Build 0)  -->
<svg version="1.1" id="Capa_1" xmlns="http://www.w3.org/2000/svg" xmlns:xlink="http://www.w3.org/1999/xlink" x="0px" y="0px" viewBox="-6.3 141 426.7 512" style="enable-background:new -6.3 141 426.7 512;" xml:space="preserve">
	<style type="text/css">
		.st0{fill:#9DACB9;}
	</style>
	<g>
		<path class="st0" d="M377.7,141H36.3c-23.5,0-42.7,19.1-42.7,42.7v426.7c0,23.5,19.1,42.7,42.7,42.7h341.3
			c23.5,0,42.7-19.1,42.7-42.7V183.7C420.3,160.1,401.2,141,377.7,141z M36.3,162.3h341.3c11.8,0,21.3,9.6,21.3,21.3V269H15v-85.3
			C15,171.9,24.6,162.3,36.3,162.3z M377.7,631.7H36.3c-11.8,0-21.3-9.6-21.3-21.3v-320h384v320C399,622.1,389.4,631.7,377.7,631.7z"
			/>
		<path class="st0" d="M207,311.7c-82.3,0-149.3,67-149.3,149.3s67,149.3,149.3,149.3s149.3-67,149.3-149.3S289.3,311.7,207,311.7z
			 M207,589c-70.6,0-128-57.4-128-128s57.4-128,128-128s128,57.4,128,128S277.6,589,207,589z"/>
		<path class="st0" d="M68.3,247.7h64c29.4,0,53.3-23.9,53.3-53.3c0-5.9-4.8-10.7-10.7-10.7H68.3c-5.9,0-10.7,4.8-10.7,10.7V237
			C57.7,242.9,62.4,247.7,68.3,247.7z M79,205h83.5c-4.4,12.4-16.3,21.3-30.2,21.3H79V205z"/>
		<path class="st0" d="M260.3,205h21.3c5.9,0,10.7-4.8,10.7-10.7c0-5.9-4.8-10.7-10.7-10.7h-21.3c-5.9,0-10.7,4.8-10.7,10.7
			C249.7,200.2,254.4,205,260.3,205z"/>
		<path class="st0" d="M324.3,205h21.3c5.9,0,10.7-4.8,10.7-10.7c0-5.9-4.8-10.7-10.7-10.7h-21.3c-5.9,0-10.7,4.8-10.7,10.7
			C313.7,200.2,318.4,205,324.3,205z"/>
		<path class="st0" d="M217.7,247.7H239c5.9,0,10.7-4.8,10.7-10.7c0-5.9-4.8-10.7-10.7-10.7h-21.3c-5.9,0-10.7,4.8-10.7,10.7
			C207,242.9,211.8,247.7,217.7,247.7z"/>
		<path class="st0" d="M271,237c0,5.9,4.8,10.7,10.7,10.7H303c5.9,0,10.7-4.8,10.7-10.7c0-5.9-4.8-10.7-10.7-10.7h-21.3
			C275.8,226.3,271,231.1,271,237z"/>
		<path class="st0" d="M207,354.3c-58.8,0-106.7,47.9-106.7,106.7S148.2,567.7,207,567.7c39.2,0,75.2-21.8,93.9-56.9
			c1.8-3.4,1.6-7.4-0.4-10.6c-4-6.4-8.2-20-8.2-39.1s4.2-32.7,8.2-39.1c2-3.2,2.1-7.3,0.4-10.6C282.2,376.1,246.2,354.3,207,354.3z
			 M279.3,505.5c-15.6,25.3-42.8,40.8-72.3,40.8c-47.1,0-85.3-38.3-85.3-85.3s38.3-85.3,85.3-85.3c29.5,0,56.7,15.5,72.3,40.8
			C274,428,271,443.8,271,461C271,478.2,274,494,279.3,505.5z"/>
		<path class="st0" d="M207,397c-35.3,0-64,28.7-64,64c0,5.9,4.8,10.7,10.7,10.7s10.7-4.8,10.7-10.7c0-23.5,19.1-42.7,42.7-42.7
			c5.9,0,10.7-4.8,10.7-10.7C217.7,401.8,212.9,397,207,397z"/>
	</g>
</svg>
