<?xml version="1.0" encoding="utf-8"?>
<!-- Generator: Adobe Illustrator 21.0.0, SVG Export Plug-In . SVG Version: 6.00 Build 0)  -->
<svg version="1.1" id="Слой_1" xmlns="http://www.w3.org/2000/svg" xmlns:xlink="http://www.w3.org/1999/xlink" x="0px" y="0px" viewBox="0 0 664.1 137.7" style="enable-background:new 0 0 664.1 137.7;" xml:space="preserve">
	<style type="text/css">
		.st0{fill:#9CA6AA;}
	</style>
	<path class="st0" d="M228.9,135.9h34.9l6.4-42.5c1.5-10.6,4.7-14.4,9.1-14.4c4.2,0,6.3,2.9,6.3,7.2l-7,49.7H315l6.8-42.1 c1.5-9.5,4.6-13.7,9.1-13.7c4.2,0,6.1,3.4,6.1,8.9l-6.8,46.9h36.1l6.1-43.6c0.8-5.3,1.1-10.4,1.1-13.8c0-14.6-6.1-21.5-19.4-21.5 c-11,0-16.3,2.1-35.9,11.2l-0.6,0.2c-4-6.6-7.8-10.6-16.1-10.6c-4.6,0-8.7,0.9-13.7,2.8c-4.9,1.9-10.6,4.9-12.9,5.7l-0.6,0.2v-8H241	L228.9,135.9z M248.4,15.2c18.2,9.7,4.4,13.7,26.9,14.8l18.8,1.9c10.1,0.9,11.6,1.7,19,5.5l0.6,0.4c7.4-3.8,7.4-3.8,20.5-4.4 l26.9-1.3c20.1-0.8,12.9-14,26-16.5l0.7-0.2l-10.4-4c-10.4,12.9-13.1,13.1-19.2,13.1l-86.1,0.2c-4.2,0-4.2,0-14.2-12.5l-0.4-0.6	L248.4,15.2L248.4,15.2z M0,135.9L51.8,26h45.7l14.8,110.1H77.8l-1.5-13.9h-30L41,135.9L0,135.9L0,135.9z M69.6,61.1L56,97.3h17.8 L69.6,61.1L69.6,61.1z M177.6,135.9v-8.5l-0.4,0.4c-5.7,4.4-14.2,6.8-22.6,6.8c-18.6,0-31.5-13.1-31.5-33.4	c0-23.2,17.5-43.7,38-43.7c11.8,0,18.2,5.3,25.6,14.6l9.1-54.3h33l-17.5,118H177.6z M180.2,96c0-6.5-3-10.1-8-10.1 c-6.6,0-11,5.9-11,13.1c0,5.7,2.5,9.1,7.4,9.1C175.7,108.2,180.2,102.3,180.2,96z"/>
	<path class="st0" d="M268.6,7.8l6.5,10.2h83.1l10.6-8.7l-5.5-0.8c-3.4,3.6-4.9,4.6-8,4.6c-8.2,0-14.4-3.8-16.5-7.4l-0.2-0.4 c-3.6,2.8-5.1,3.6-8.9,3.6c-5.5,0-7.4-1.9-10.8-8.2L318.5,0c-2.6,5.9-5.5,8.5-10.4,8.5c-5.5,0-8-0.8-10.6-3l-0.6-0.4 c-3,3.2-5.9,5.5-13.1,5.5c-4.2,0-5.9-1.1-8.5-4.6l-0.4-0.6L268.6,7.8L268.6,7.8z M557.8,135.8l0.8-5.7l-0.6,0.4	c-8.9,5.1-14.2,7.2-21.6,7.2c-18.2,0-29.6-14.2-29.6-35.3c0-25.4,17.1-47.5,37.8-47.5c8.3,0,14.4,3,24.3,10.6l2.3-7.2h34.5l-14,77.4 L557.8,135.8L557.8,135.8z M555.6,84.6c-7.8,0-13.3,6.1-13.3,13.7c0,8,4,12,10.1,12c8.2,0,13.5-5.9,13.5-14.6 C565.8,88.6,561.7,84.6,555.6,84.6z M436.4,135.9h33.4l7-44.8c5.1-3.8,8.7-5.7,14.2-5.7c3.2,0,3.2,0,11,1.7l0.8,0.2l4.2-29.6 c-2.3-0.5-4.7-0.8-7-0.9c-5.5,0-7.8,1.7-18.4,10.1l-0.4,0.4v-8.7h-33.4L436.4,135.9z M606.4,136.3h36.4l21.2-120.7h-34.5 L606.4,136.3L606.4,136.3z M383.7,136.3h36l11-77.8h-35.3L383.7,136.3L383.7,136.3z M417.8,11.2c-13.7,0-23.1,9.5-23.1,19.9 c0,10.6,9.1,18.8,21.6,18.8c12.3,0,21.6-8.7,21.6-19.2C437.9,19.4,428.6,11.2,417.8,11.2L417.8,11.2z"/>
</svg>
