<?xml version="1.0" encoding="utf-8"?>
<!-- Generator: Adobe Illustrator 21.0.0, SVG Export Plug-In . SVG Version: 6.00 Build 0)  -->
<svg version="1.1" id="Слой_1" xmlns="http://www.w3.org/2000/svg" xmlns:xlink="http://www.w3.org/1999/xlink" x="0px" y="0px" viewBox="0 0 573.3 160.8" style="enable-background:new 0 0 573.3 160.8;" xml:space="preserve">
	<style type="text/css">
		.st0{fill:#9CA6AA;}
	</style>
	<polygon class="st0" points="309.3,48.1 308.4,48.1 308.4,49.1 308.4,157.8 308.4,158.8 309.3,158.8 341.4,158.8 342.4,158.8 342.4,157.8 342.4,49.1 342.4,48.1 341.4,48.1 "/>
	<polygon class="st0" points="309.3,0 308.4,0 308.4,1 308.4,31.4 308.4,32.4 309.3,32.4 341.4,32.4 342.4,32.4 342.4,31.4 342.4,1 342.4,0 341.4,0 "/>
	<polygon class="st0" points="225.1,158.8 225.1,158.8 225.1,158.8 "/>
	<path class="st0" d="M256.9,47.5h-1v1v8.6h-2.7c-0.1-0.2-0.3-0.3-0.5-0.5c-7.2-7.6-17-10.8-23.8-11.3c-1.3-0.1-2.3-0.1-3.3-0.1	c-0.2,0-0.4,0-0.4,0l0,0c0,0-0.1,0-0.1,0l0,0l0,0l0,0c-32.9,0.2-59.7,26.1-59.7,57.8c0,15,6,29.2,16.8,40 c11.4,11.4,26.8,17.7,43.3,17.7c1.6,0,3.4-0.1,5.5-0.3c3.1-0.4,13.7-2.4,22.2-11.6h2.7v8.3v1h1h28.8h1v-1V48.5v-1h-1H256.9z M256.7,102.9c0,17.3-13.9,31.4-31.1,31.4c-8.2,0-16-3.2-21.9-9.1c-5.9-5.9-9.2-13.9-9.2-22.3c0-8.4,3.3-16.4,9.2-22.3 c5.9-5.9,13.6-9.1,21.9-9.1c8.3,0,16,3.2,21.9,9.1C253.4,86.6,256.7,94.5,256.7,102.9z M225.2,46.2L225.2,46.2L225.2,46.2 L225.2,46.2L225.2,46.2z"/>
	<path class="st0" d="M570,56.2L555.6,32l-0.6-0.8l-0.8,0.6C520.7,52.1,503.8,68,502,93.7v64.6v0.5h1h31.4h1v-0.5v-62 c0.1-18.3,12.4-24.8,34.5-38.7l0.7-0.4L570,56.2z"/>
	<path class="st0" d="M483,110.1l0.2-1.5c0.3-2.3,0.5-3.7,0.5-6.2c0-15.2-6-29.5-16.9-40.5C455.2,50.4,439.7,44,423,44 c-33.5,0-60.7,26.2-60.7,58.4c0,15.1,6,29.5,16.9,40.4c11.6,11.6,26.7,17.9,43.7,17.9c22.2,0,42.8-11.4,53.8-29.5 c0.5-0.9,1-1.8,1.5-2.7l-24.5-8.7c-0.3,0.6-0.7,1.3-1.1,1.8c-6.5,8.5-15,14.7-27.4,14.7c-16.9,0-30.4-11-33.6-26.3H483z M424.1,68.2 c14.8,0,27.6,9.2,31.8,22.5h-63.5C397.1,77,409.3,68.2,424.1,68.2z"/>
	<polygon class="st0" points="108.6,2.5 108.6,64.5 37.7,64.5 37.7,2.5 0,2.5 0,158.8 37.7,158.8 37.7,93.4 108.6,93.4 108.6,158.8 146.3,158.8 146.3,2.5 "/>
	<path class="st0" d="M569.3,135.2c2.6,2.6,4,6.1,4,9.9c0,3.9-1.5,7.4-4.2,10c-2.8,2.7-6.3,4.1-10,4.1c-3.8,0-7.3-1.5-10-4.3 c-2.6-2.7-4.1-6.2-4.1-9.8c0-3.8,1.5-7.4,4.3-10.2c2.6-2.6,6-4,9.8-4C563,130.9,566.6,132.4,569.3,135.2z M551.1,136.7 c-2.3,2.3-3.5,5.2-3.5,8.3c0,3,1.1,5.8,3.3,8c2.2,2.3,5.1,3.5,8.2,3.5c3,0,5.9-1.2,8.2-3.3c2.2-2.1,3.4-5,3.4-8.2 c0-3.1-1.1-5.9-3.3-8.1c-2.3-2.3-5.1-3.5-8.3-3.5C556,133.5,553.3,134.6,551.1,136.7z M559.4,137c4.5,0,6.7,1.6,6.7,4.5	c0,2-1.2,3.6-3.3,4.2l3.4,6.8h-4.7l-2.9-6.2h-1.2v6.2h-4.3V137H559.4z M557.4,143.8h1.5c1.9,0,2.8-0.7,2.8-2c0-1.5-1-2.1-3-2.1h-1.3	V143.8z"/>
</svg>
