<?xml version="1.0" encoding="utf-8"?>
<!-- Generator: Adobe Illustrator 21.0.0, SVG Export Plug-In . SVG Version: 6.00 Build 0)  -->
<svg version="1.1" id="Слой_1" xmlns="http://www.w3.org/2000/svg" xmlns:xlink="http://www.w3.org/1999/xlink" x="0px" y="0px" viewBox="0 0 90.8 17.8" style="enable-background:new 0 0 90.8 17.8;" xml:space="preserve">
	<style type="text/css">
		.st0{fill:#9CA6AA;}
		.st1{fill:#9CA6AA;stroke:#9CA6AA;stroke-miterlimit:10;}
	</style>
	<path class="st0" d="M10.3,7.7C8.8,9.4,7.4,9.4,7.4,9.4H4C6.2,9,7.4,7.2,8.7,5.5c1.2-1.7,2.9-1.6,2.9-1.6h1.8V1.1 c0-0.6-0.4-1.1-1-1.1H1.2C0.4,0,0,0.5,0,1.1v5.5h2.9c0,0,0.7,1.1,1.8,1.8C4.7,8.5,4,9,2.8,9C1.6,9,1.2,8.6,0,7.4v4.9 c0,0.6,0.4,1.1,1.2,1.1h11.2c0.6,0,1-0.5,1-1.1V4.5C12.1,5.1,11.8,6.2,10.3,7.7"/>
	<polyline class="st0" points="29.5,0.6 22.1,0.6 22.1,13.5 29.6,13.5 29.6,11.8 24,11.8 24,7.8 29.2,7.8 29.2,6.1 24,6.1 24,2.2 29.5,2.2 29.5,0.6 "/>
	<polyline class="st0" points="31.1,13.5 31.1,0.6 32.7,0.6 41.4,10.6 41.4,0.6 43,0.6 43,13.5 41.6,13.5 32.9,3.6 32.9,13.5 31.1,13.5 "/>
	<polyline class="st0" points="44.8,13.5 44.8,0.6 46.4,0.6 55.1,10.6 55.1,0.6 56.7,0.6 56.7,13.5 55.3,13.5 46.6,3.6 46.6,13.5 44.8,13.5 "/>
	<line class="st1" x1="76.4" y1="13.5" x2="76.4" y2="0.6"/>
	<polyline class="st0" points="58.4,8 58.4,9.7 62.1,9.7 62.8,8 58.4,8 "/>
	<path class="st0" d="M16.1,16H17c0,0,1.6,0,1.6-1.7V0.6h1.9v13.3c0,0,0,2-0.9,2.8c-1,0.9-1.9,1.1-3.5,1.1V16"/>
	<path class="st0" d="M63.8,13.5l1.6-3.8h5.5l1.8,3.8h1.9l-5.7-13h-1.3l-5.6,13H63.8 M66.2,8l1.9-4.6L70.2,8H66.2z"/>
	<path class="st0" d="M80.9,2.1v4.1h1.6c0,0,2.1,0.1,2.1-2.1C84.6,1.9,82.4,2.1,80.9,2.1 M79,13.5V0.6c0,0,3.2,0,3.5,0 c0.9,0,4,0.3,4,3.6c0,0,0.1,2.4-2.5,3.3l3.4,6.1h-2.2l-2.9-5.6h-1.3v5.6H79z"/>
	<path class="st0" d="M89,12h0.3c0.3,0,0.4,0,0.4-0.3c0-0.2-0.1-0.2-0.4-0.2H89V12 M88.7,11.2h0.7c0.3,0,0.6,0.2,0.6,0.5 c0,0.3-0.3,0.4-0.4,0.4l0.4,0.7h-0.3l-0.4-0.7H89v0.7h-0.3V11.2z M89.3,13.3c0.7,0,1.2-0.5,1.2-1.2c0-0.7-0.4-1.2-1.2-1.2 c-0.6,0-1.2,0.5-1.2,1.2C88.1,12.7,88.7,13.3,89.3,13.3z M89.3,10.7c0.7,0,1.5,0.6,1.5,1.4c0,0.8-0.7,1.4-1.5,1.4 c-0.7,0-1.3-0.6-1.3-1.4C88,11.3,88.6,10.7,89.3,10.7z"/>
	<path class="st0" d="M14.9,1.7V0.6H15l0.3,0.9l0.3-0.9h0.1v1.2h-0.1v-1l-0.3,1h-0.1l-0.1-1v1H14.9 M14.3,1.7v-1H14V0.6h0.7v0.2h-0.3 v1H14.3z"/>
</svg>
