<?xml version="1.0" encoding="utf-8"?>
<!-- Generator: Adobe Illustrator 21.0.0, SVG Export Plug-In . SVG Version: 6.00 Build 0)  -->
<svg version="1.1" id="Слой_1" xmlns="http://www.w3.org/2000/svg" xmlns:xlink="http://www.w3.org/1999/xlink" x="0px" y="0px"
	 viewBox="0 0 378.4 54.8" style="enable-background:new 0 0 378.4 54.8;" xml:space="preserve">
<style type="text/css">
	.st0{fill:#9CA6AA;}
	.st1{font-family:'MyriadPro-Regular';}
	.st2{font-size:34.9734px;}
</style>
<path class="st0" d="M0,47.1c2.2-4.3,4.4-8.5,6.6-12.8c1.8,0.8,3.6,1.5,5.3,2.3c7.2,3,14.5,5.6,22.2,7.1c4.9,1,9.9,1.3,14.9,1.1
	c1-0.1,2.1-0.3,3-0.7c2.6-1,3.2-4,1.2-6c-1.2-1.2-2.6-1.8-4.2-2.1c-4.6-0.8-9.1-1.7-13.7-2.1c-7.5-0.7-15-1.8-22.1-4.4
	c-1.4-0.5-2.7-1.1-4-1.7c-4.4-2.1-7-5.7-8.3-10.3c-0.6-2.1-0.2-4.2,1-6c3.4-5,7.9-8.5,14-9.6c8.8-1.6,17.6-2.1,26.5-1.7
	c6.7,0.3,13.3,1.4,19.9,2.6c3.1,0.6,6.1,1.4,9.1,2.1c0.5,0.1,0.9,0.3,1.5,0.5c-1.9,4.1-3.7,8.1-5.5,12.2c-2.3-0.7-4.5-1.5-6.8-2.2
	c-6-1.8-11.9-3.7-18.1-4.7c-4.9-0.8-9.9-1.2-14.9-0.7c-0.9,0.1-1.7,0.4-2.6,0.6c-1.2,0.4-1.7,1.2-1.9,2.5c-0.1,1.2,0.6,1.9,1.4,2.5
	c2.4,1.6,5.1,2,7.9,2.4c7.5,1.1,15,2.1,22.4,4c5,1.3,9.9,2.9,14.3,5.9c2.6,1.8,4.8,3.9,5.5,7c1.4,5.4-0.4,9.9-4.5,13.4
	c-3.2,2.8-7.1,4.1-11.1,5c-5.9,1.3-11.8,1.7-17.8,1.4c-4.9-0.2-9.8-0.6-14.7-1c-5.8-0.5-11.5-1.9-17.1-3.6c-2.8-0.8-5.6-1.8-8.5-2.7
	C0.6,47.4,0.4,47.2,0,47.1z"/>
<path class="st0" d="M250.9,53.5c-6,0-11.9,0-17.8,0c0-17,0-34,0-51.1c2.3-0.2,4.5-0.5,6.8-0.6c7.5-0.3,14.9-0.7,22.4-0.9
	c8.1-0.2,16.2,0.2,24.1,2.2c4.3,1.1,8.5,2.5,12,5.3c3.1,2.4,5,5.6,5,9.7c0,3.6-1.8,6.3-4.4,8.4c-3.2,2.7-7,4.3-10.9,5.5
	c-1.8,0.6-3.7,1-5.7,1.6c7.5,6.6,14.9,13.1,22.3,19.7c0,0.1,0,0.1-0.1,0.2c-0.4,0-0.7,0-1.1,0c-7.8,0-15.5,0-23.3,0
	c-0.8,0-1.4-0.2-2-0.7c-8.3-7.1-16.5-14.2-24.8-21.2c-0.5-0.4-0.5-0.7-0.2-1.3c0.7-1.3,1.4-2.5,2.1-3.8c0.2-0.5,0.5-0.6,1.1-0.5
	c4,0.7,8.1,0.7,12.1,0.6c3.1-0.1,6.2-0.5,9.1-1.7c1.3-0.6,2.7-1.4,3.7-2.4c2.6-2.5,2.3-6.5-0.4-8.8c-1.9-1.6-4.2-2.3-6.6-2.9
	c-5.4-1.1-10.8-1.1-16.2-0.5c-2,0.2-3.9,0.6-5.9,0.8c-0.9,0.1-1.2,0.4-1.2,1.3c0,13.2,0,26.5,0,39.7C250.9,52.6,250.9,53,250.9,53.5
	z"/>
<path class="st0" d="M146.7,53.5c-5.9,0-11.8,0-17.7,0c0-6.9,0-13.8,0-20.8c-11,0-21.9,0-32.8,0c0,6.9,0,13.8,0,20.8
	c-5.9,0-11.8,0-17.7,0c0-17,0-34,0-51c5.9,0,11.7,0,17.7,0c0,6.3,0,12.6,0,19c11,0,21.9,0,32.8,0c0-6.3,0-12.6,0-19
	c6,0,11.8,0,17.8,0C146.7,19.5,146.7,36.4,146.7,53.5z"/>
<path class="st0" d="M307.2,2.4c3.2-0.2,6.3-0.6,9.5-0.7c7.7-0.3,15.5-0.6,23.2-0.7c7.1-0.1,14.2,0.5,21.1,2.2
	c4.3,1.1,8.5,2.5,12.1,5.4c6.4,5,6.1,13.1,1.1,18.5c-3.1,3.3-7,5.4-11.2,6.9c-7.4,2.7-15,3.7-22.8,3.3c-3.8-0.2-7.5-0.4-11.3-0.7
	c-1-0.1-1.9-0.3-2.9-0.5c-0.9-0.2-1.2,0-1.2,0.9c0,5.2,0,10.3,0,15.5c0,0.3,0,0.7,0,1.1c-5.9,0-11.8,0-17.7,0
	C307.2,36.5,307.2,19.5,307.2,2.4z M324.9,11.3c0,0.6,0,0.9,0,1.2c0,3.9,0,7.8,0,11.8c0,1.5-0.3,1.3,1.4,1.7
	c6.9,1.3,13.9,1.8,20.8,0.9c2.6-0.3,5.1-1,7.4-2.4c4.2-2.7,4.4-7.8,0.4-10.7c-0.6-0.5-1.3-0.9-2-1.2c-3.4-1.6-7.1-2.3-10.8-2.4
	c-3-0.1-6.1,0-9.1,0.2C330.3,10.4,327.6,10.9,324.9,11.3z"/>
<path class="st0" d="M230.6,53.5c-0.5,0-0.8,0-1.1,0c-6.3,0-12.5,0-18.8,0c-0.7,0-1.1-0.2-1.4-0.8c-2-3.4-4-6.7-5.9-10
	c-0.3-0.5-0.7-0.7-1.3-0.7c-10.7,0-21.5,0-32.2,0c-0.6,0-1,0.2-1.3,0.7c-2.1,3.4-4.1,6.7-6.2,10.1c-0.2,0.3-0.7,0.7-1.1,0.7
	c-4.2,0-8.4,0-12.6,0c-0.1,0-0.3,0-0.5-0.1c0.2-0.3,0.3-0.6,0.5-0.9c10.2-16.5,20.4-33,30.6-49.5c0.3-0.5,0.7-0.7,1.3-0.7
	c6.1,0,12.3,0,18.4,0c0.6,0,1,0.2,1.3,0.7c9.9,16.5,19.9,33,29.9,49.5C230.2,52.9,230.4,53.1,230.6,53.5z M186.4,14.7
	c-3.5,5.5-6.8,10.9-10.2,16.3c6.7,0,13.1,0,19.8,0C192.8,25.6,189.7,20.3,186.4,14.7z"/>
<text transform="matrix(1 0 0 1 365.1462 67.1292)" class="st0 st1 st2">®</text>
</svg>
