<?xml version="1.0" encoding="utf-8"?>
<!-- Generator: Adobe Illustrator 21.0.0, SVG Export Plug-In . SVG Version: 6.00 Build 0)  -->
<svg version="1.1" id="Слой_1" xmlns="http://www.w3.org/2000/svg" xmlns:xlink="http://www.w3.org/1999/xlink" x="0px" y="0px" viewBox="0 0 72 10.7" style="enable-background:new 0 0 72 10.7;" xml:space="preserve">
	<style type="text/css">
		.st0{fill:#9CA6AA;}
	</style>
	<path class="st0" d="M4.8,2.2L2.5,8.6H0.7l-0.7,2h7.7l0.7-2H6.6l2.3-6.4c1.7-0.1,1.4,1,0.9,2.6h1.8l1.6-4.5H1.8L0.2,4.8H2 C2.7,3,3,2,4.8,2.2z"/>
	<path class="st0" d="M56.4,10.6h6.4l0.7-2h-1.1l1.7-4.9c0.1-0.3,0.8-1,1.8-1c0.3,0,0.6,0.3,0.3,1l-2.5,6.9h5.4l0.7-2h-1.3l1.9-5.4 c0.7-1.8,0-3-1.3-3.2c-0.6-0.1-2.4-0.1-4.2,1.1l0.3-0.8h-5.5l-0.7,2h1.3l-2.3,6.4h-1.1L56.4,10.6z"/>
	<path class="st0" d="M27.8,8.6h1.4l-0.7,2h-6.7l0.7-2h1.1l2.3-6.4h-1.3l0.7-2h7.9c2,0,2.8,1.4,2.6,2.9C35.6,4.8,33.9,7,31.4,7h-3 L27.8,8.6z M29,5.1h1c0.7,0,1.3-0.8,1.5-1.4c0.2-0.7,0.1-1.4-0.5-1.4h-1L29,5.1z"/>
	<path class="st0" d="M14.2,7l-0.6,1.6h1.1l-0.7,2H9.5l0.7-2h1.1l2.1-5.8c0.8-1.7,2.2-2.4,3.9-2.7c1.1-0.2,2.7-0.2,3.6,0.1 c2.2,0.7,1.7,2.9,1.4,3.6l-1.7,4.8h1.1l-0.7,2h-6.3l0.7-2h1.1L17,7H14.2z M15.3,3.8l-0.5,1.3h2.8l0.6-1.7c0.3-0.8,0-1.1-0.6-1.2	C16.2,2,15.5,3.4,15.3,3.8z"/>
	<path class="st0" d="M39.3,8.6h1.4l-0.7,2h-7l0.7-2h1.4l2.3-6.4h-1.3l0.7-2h7.9c2,0,2.8,1.4,2.6,2.9C47.1,4.8,45.5,7,42.9,7h-3	L39.3,8.6z M40.6,5.1h1c0.7,0,1.3-0.8,1.5-1.4c0.2-0.7,0.1-1.4-0.5-1.4h-1L40.6,5.1z"/>
	<path class="st0" d="M48.9,7l-0.6,1.6h1.1l-0.7,2h-4.5l0.7-2h1.1L48,2.8c0.8-1.7,2.2-2.4,3.9-2.7c1.1-0.2,2.7-0.2,3.6,0.1 c2.2,0.7,1.7,2.9,1.4,3.6l-1.7,4.8h1.1l-0.7,2h-6.3l0.7-2h1.1L51.7,7H48.9z M50,3.8l-0.5,1.3h2.8L53,3.4c0.2-0.8,0-1.1-0.6-1.2 C50.9,2,50.2,3.4,50,3.8z"/>
	<path class="st0" d="M71,10.7c-0.5,0-1-0.4-1-1c0-0.6,0.5-1,1-1c0.5,0,1,0.4,1,1C72,10.3,71.5,10.7,71,10.7z M70.2,9.7	c0,0.5,0.4,0.8,0.8,0.8c0.5,0,0.8-0.4,0.8-0.8c0-0.5-0.4-0.8-0.8-0.8C70.5,8.9,70.2,9.2,70.2,9.7z"/>
	<path class="st0" d="M70.8,9.8v0.5h-0.2V9.1H71c0.3,0,0.4,0.1,0.4,0.3c0,0.2-0.1,0.3-0.3,0.3l0.3,0.5h-0.2L71,9.8H70.8z M70.8,9.7 H71c0.1,0,0.3,0,0.3-0.2c0-0.1-0.1-0.2-0.3-0.2h-0.2V9.7z"/>
</svg>
