<?xml version="1.0" encoding="utf-8"?>
<!-- Generator: Adobe Illustrator 17.1.0, SVG Export Plug-In . SVG Version: 6.00 Build 0)  -->
<!DOCTYPE svg PUBLIC "-//W3C//DTD SVG 1.1//EN" "http://www.w3.org/Graphics/SVG/1.1/DTD/svg11.dtd">
<svg version="1.1" id="Layer_1" xmlns="http://www.w3.org/2000/svg" xmlns:xlink="http://www.w3.org/1999/xlink" x="0px" y="0px"
	 viewBox="0 0 76.3 58.1" enable-background="new 0 0 76.3 58.1" xml:space="preserve">
<g>
	<defs>
		<rect id="SVGID_1_" y="0" width="76.3" height="58.1"/>
	</defs>
	<clipPath id="SVGID_2_">
		<use xlink:href="#SVGID_1_"  overflow="visible"/>
	</clipPath>
	<path clip-path="url(#SVGID_2_)" fill="#F4FCFF" d="M42.2,0h34.1v29.3c0,4.9-0.9,8.9-2.6,12.2c-1.8,3.2-4,5.9-6.8,8
		c-2.8,2.1-5.9,3.8-9.3,5.1c-3.4,1.3-6.8,2.5-10.2,3.5l-5-9.1c2.5-1,4.7-1.9,6.5-2.9c1.8-1,3.3-2.1,4.4-3.2c1.1-1.2,2-2.5,2.5-4
		c0.5-1.5,0.8-3.3,0.8-5.3H42.2V0z M0,0h34v29.3c0,4.9-0.9,8.9-2.6,12.2c-1.8,3.2-4,5.9-6.8,8c-2.8,2.1-5.9,3.8-9.3,5.1
		c-3.4,1.3-6.8,2.5-10.2,3.5L0.1,49C2.6,48,4.8,47,6.6,46c1.8-1,3.3-2.1,4.4-3.2c1.1-1.2,2-2.5,2.5-4c0.5-1.5,0.8-3.3,0.8-5.3H0V0z"
		/>
</g>
</svg>
