<?xml version="1.0" standalone="no"?>
<!DOCTYPE svg PUBLIC "-//W3C//DTD SVG 1.1//EN" "http://www.w3.org/Graphics/SVG/1.1/DTD/svg11.dtd" >
<svg>
<metadata>
Created by FontForge 20090622 at Wed Dec 13 10:26:07 2017
 By deploy user
Copyright (c) 2012, Omnibus-Type (www.omnibus-type.com|omnibus.type@gmail.com),with Reserved Font Name: Archivo
</metadata>
<defs>
<font id="ArchivoNarrow-BoldItalic" horiz-adv-x="456" >
  <font-face 
    font-family="Archivo Narrow"
    font-weight="700"
    font-style="italic"
    font-stretch="normal"
    units-per-em="1000"
    panose-1="2 0 0 0 0 0 0 0 0 0"
    ascent="800"
    descent="-200"
    x-height="526"
    cap-height="686"
    bbox="-215 -263 968 957"
    underline-thickness="24"
    underline-position="-25"
    slope="-8"
    unicode-range="U+000D-U+FB02"
  />
<missing-glyph horiz-adv-x="778" 
d="M188 700h500l-98 -700h-500zM601 650h-340l135 -255zM517 50l-134 255l-206 -255h340zM553 95l72 510l-206 -255zM359 350l-134 255l-72 -510z" />
    <glyph glyph-name=".notdef" horiz-adv-x="778" 
d="M188 700h500l-98 -700h-500zM601 650h-340l135 -255zM517 50l-134 255l-206 -255h340zM553 95l72 510l-206 -255zM359 350l-134 255l-72 -510z" />
    <glyph glyph-name=".null" horiz-adv-x="0" 
 />
    <glyph glyph-name="nonmarkingreturn" horiz-adv-x="333" 
 />
    <glyph glyph-name="CR" unicode="&#xd;" horiz-adv-x="0" 
 />
    <glyph glyph-name="space" unicode=" " horiz-adv-x="228" 
 />
    <glyph glyph-name="exclam" unicode="!" horiz-adv-x="273" 
d="M123 686h153l-105 -489h-82zM54 137h138l-20 -137h-138z" />
    <glyph glyph-name="quotedbl" unicode="&#x22;" horiz-adv-x="389" 
d="M265 539l21 147h122l-21 -147l-43 -132h-79v132zM84 539l21 147h122l-21 -147l-43 -132h-79v132z" />
    <glyph glyph-name="numbersign" unicode="#" 
d="M85 195h-63v84h82l31 141h-74v84h93l44 194h88l-44 -194h75l44 194h88l-44 -194h62v-84h-81l-31 -141h73v-84h-92l-44 -195h-88l44 195h-75l-44 -195h-88zM267 279l31 141h-75l-31 -141h75z" />
    <glyph glyph-name="dollar" unicode="$" 
d="M160 -49l16 118q-71 8 -111.5 43t-40.5 91l6 47h114q-4 -17 -4 -25q0 -52 49 -64l20 142q-32 13 -49.5 22t-41.5 26.5t-35 43t-11 58.5q0 73 51.5 116t130.5 47l15 107h49l-15 -108q74 -9 106.5 -54t32.5 -110h-113q0 60 -39 72l-19 -130q38 -14 57 -23t45 -26.5
t37.5 -42t11.5 -57.5q0 -88 -56 -131.5t-141 -45.5l-16 -116h-49zM225 414l16 111q-23 -5 -38 -20t-15 -38q0 -33 37 -53zM256 282l-18 -125q27 3 46 18.5t19 43.5q0 37 -47 63z" />
    <glyph glyph-name="percent" unicode="%" horiz-adv-x="729" 
d="M195 337q-63 0 -95 28.5t-32 95.5q0 123 44 180t113 57q63 0 95 -28.5t32 -96.5q0 -41 -6.5 -78t-22.5 -75t-49 -60.5t-79 -22.5zM195 410q28 0 42 25.5t21 74.5q5 39 5 59q0 56 -38 56q-28 0 -41.5 -25t-21.5 -75q-6 -37 -6 -59q0 -56 39 -56zM405 112q0 123 44 180
t113 57q63 0 95 -28.5t32 -96.5q0 -41 -6.5 -78t-22.5 -75t-49 -60.5t-79 -22.5q-63 0 -95 28.5t-32 95.5zM493 117q0 -56 39 -56q28 0 42 25.5t21 74.5q5 39 5 59q0 56 -38 56q-28 0 -41.5 -25t-21.5 -75q-6 -37 -6 -59zM593 686h86l-516 -686h-85z" />
    <glyph glyph-name="ampersand" unicode="&#x26;" horiz-adv-x="592" 
d="M32 155q0 77 40.5 130.5t100.5 66.5v4q-82 43 -82 126q0 102 69.5 159t175.5 57q92 0 147.5 -43.5t55.5 -116.5q0 -10 -6 -56h-119q4 26 4 39q0 76 -88 76q-53 0 -84.5 -30.5t-31.5 -81.5q0 -40 23 -63t61 -23h41l-14 -101h-38q-55 0 -92.5 -28.5t-37.5 -96.5
q0 -84 97 -84q105 0 119 102l29 208h197l-14 -101h-78l-14 -104q-12 -95 -76.5 -150.5t-168.5 -55.5q-99 0 -157.5 44.5t-58.5 122.5z" />
    <glyph glyph-name="quotesingle" unicode="'" horiz-adv-x="195" 
d="M84 539l21 147h122l-21 -147l-43 -132h-79v132z" />
    <glyph glyph-name="parenleft" unicode="(" horiz-adv-x="273" 
d="M34 183q0 49 8 105q36 255 212 447h79q-84 -122 -136 -270.5t-52 -286.5q0 -181 63 -335h-79q-95 147 -95 340z" />
    <glyph glyph-name="parenright" unicode=")" horiz-adv-x="273" 
d="M32 -157h-79q84 122 136 270.5t52 286.5q0 181 -63 335h79q95 -147 95 -340q0 -49 -8 -105q-36 -255 -212 -447z" />
    <glyph glyph-name="asterisk" unicode="*" horiz-adv-x="319" 
d="M168 483l-92 -60l-29 68l98 42l-86 44l48 66l76 -59l4 102h78l-24 -101l92 58l30 -66l-100 -44l88 -42l-49 -68l-76 60l-4 -102h-78z" />
    <glyph glyph-name="plus" unicode="+" horiz-adv-x="479" 
d="M179 203h-154l15 104h154l28 204h103l-28 -204h155l-15 -104h-155l-28 -203h-103z" />
    <glyph glyph-name="comma" unicode="," horiz-adv-x="228" 
d="M35 137h138l-17 -125l-90 -168h-72l73 156h-51z" />
    <glyph glyph-name="hyphen" unicode="-" horiz-adv-x="273" 
d="M30 329h241l-17 -118h-241z" />
    <glyph glyph-name="period" unicode="." horiz-adv-x="228" 
d="M34 137h138l-19 -137h-138z" />
    <glyph glyph-name="slash" unicode="/" horiz-adv-x="228" 
d="M210 735h85l-252 -784h-85z" />
    <glyph glyph-name="zero" unicode="0" 
d="M201 -12q-83 0 -125.5 47.5t-42.5 163.5q0 60 12 144q26 199 83 277t152 78q83 0 125.5 -48t42.5 -165q0 -66 -11 -142q-27 -199 -84.5 -277t-151.5 -78zM205 89q43 0 64.5 50t38.5 169q21 148 21 192q0 50 -12 73.5t-41 23.5q-43 0 -65 -50.5t-38 -168.5l-7 -47.5
t-7.5 -52.5t-5 -47.5t-2.5 -53.5q0 -46 12.5 -67t41.5 -21z" />
    <glyph glyph-name="one" unicode="1" 
d="M25 101h152l61 428h-154l11 80q45 5 110 26.5t115 50.5h58l-82 -585h140l-14 -101h-410z" />
    <glyph glyph-name="two" unicode="2" 
d="M-4 0l4 24q10 57 39 110t65 91.5l76.5 79l74 74t55 74.5t21.5 82q0 25 -13.5 42.5t-41.5 17.5q-35 0 -55.5 -29.5t-26.5 -74.5l-5 -41h-121q0 105 58 176.5t161 71.5q77 0 122.5 -36.5t47.5 -111.5q0 -59 -24 -116.5t-62.5 -104t-77.5 -84.5l-76.5 -74.5t-52.5 -58.5h236
l-16 -112h-388z" />
    <glyph glyph-name="three" unicode="3" 
d="M24 154q0 18 5 58h124q-5 -39 -5 -49q0 -74 63 -74q40 0 65 33.5t25 98.5q0 77 -68 77h-33l14 101h35q33 0 58.5 35.5t25.5 98.5q0 64 -51 64q-65 0 -80 -115h-123q9 103 66.5 159.5t138.5 56.5t127.5 -40t46.5 -116q0 -127 -112 -186v-4q79 -33 79 -132
q0 -105 -62 -168.5t-154 -63.5q-90 0 -137.5 44t-47.5 122z" />
    <glyph glyph-name="four" unicode="4" 
d="M3 155l14 96q116 167 230 447h122q-42 -118 -122.5 -252.5t-127.5 -189.5h142l17 122q58 92 92 186h53l-44 -308h70l-14 -101h-69l-22 -155h-119l22 155h-244z" />
    <glyph glyph-name="five" unicode="5" 
d="M24 168q0 21 3 45h124q-3 -19 -3 -36q0 -42 16 -65.5t46 -23.5q38 0 68 46t30 126q0 42 -15 65t-40 23q-48 0 -81 -58l-113 16l76 380h329l-16 -112h-224l-33 -162q47 34 102 34q63 0 101 -43t38 -125q0 -134 -64.5 -212t-162.5 -78q-85 0 -133 47.5t-48 132.5z" />
    <glyph glyph-name="six" unicode="6" 
d="M38 202q0 52 9 121q27 205 85.5 290t151.5 85q82 0 122 -45.5t40 -122.5q0 -30 -4 -55h-122q4 25 4 51q0 71 -47 71q-18 0 -32.5 -10.5t-24 -27.5t-17.5 -47.5t-13.5 -59.5t-12.5 -75q43 54 112 54q68 0 103 -45t35 -122q0 -123 -61.5 -199.5t-150.5 -76.5
q-87 0 -132 49.5t-45 164.5zM214 89q33 0 54.5 32t28 65.5t6.5 63.5q0 83 -55 83q-40 0 -65 -45.5t-25 -114.5q0 -84 56 -84z" />
    <glyph glyph-name="seven" unicode="7" 
d="M205 0h-136q22 154 101 306.5t181 267.5h-277l16 112h406l-12 -81q-240 -308 -273 -554q-2 -11 -3.5 -26.5t-2.5 -24.5z" />
    <glyph glyph-name="eight" unicode="8" 
d="M21 149q0 65 28.5 121t84.5 82q-54 38 -54 118q0 95 54 161.5t146 66.5q84 0 126.5 -46t42.5 -114q0 -54 -26.5 -105.5t-71.5 -80.5q67 -37 67 -127q0 -101 -56.5 -169t-159.5 -68q-92 0 -136.5 44t-44.5 117zM250 400q33 0 55.5 34.5t22.5 96.5q0 67 -51 67
q-39 0 -58.5 -40t-19.5 -89q0 -69 51 -69zM145 163q0 -75 61 -75q40 0 65 36t25 101q0 76 -60 76q-46 0 -68.5 -42.5t-22.5 -95.5z" />
    <glyph glyph-name="nine" unicode="9" 
d="M38 156q0 30 4 55h122q-4 -25 -4 -51q0 -71 47 -71q18 0 32.5 10.5t24 27.5t17.5 47.5t13.5 59.5t12.5 75q-43 -54 -112 -54q-68 0 -103 45t-35 122q0 123 61.5 199.5t150.5 76.5q87 0 132 -49.5t45 -164.5q0 -52 -9 -121q-27 -205 -85.5 -290t-151.5 -85
q-82 0 -122 45.5t-40 122.5zM236 353q40 0 65 45.5t25 114.5q0 84 -56 84q-33 0 -54.5 -32t-28 -65.5t-6.5 -63.5q0 -83 55 -83z" />
    <glyph glyph-name="colon" unicode=":" horiz-adv-x="273" 
d="M96 526h138l-19 -137h-138zM42 137h138l-19 -137h-138z" />
    <glyph glyph-name="semicolon" unicode=";" horiz-adv-x="273" 
d="M102 526h138l-19 -137h-138zM46 137h138l-17 -125l-90 -168h-72l73 156h-51z" />
    <glyph glyph-name="less" unicode="&#x3c;" horiz-adv-x="479" 
d="M42 324l441 207l-16 -118l-332 -152l289 -152l-16 -118l-383 206z" />
    <glyph glyph-name="equal" unicode="=" horiz-adv-x="479" 
d="M55 412h412l-15 -104h-412zM25 199h412l-15 -103h-412z" />
    <glyph glyph-name="greater" unicode="&#x3e;" horiz-adv-x="479" 
d="M12 109l333 152l-290 152l16 118l383 -207l-17 -127l-440 -206z" />
    <glyph glyph-name="question" unicode="?" horiz-adv-x="501" 
d="M181 197l6 43q5 38 31 75.5t53.5 63.5t50 65t22.5 80q0 26 -14 46.5t-49 20.5q-46 0 -67.5 -40t-21.5 -92h-125q0 100 60.5 169.5t166.5 69.5q85 0 134 -41t49 -109q0 -63 -24 -112t-53 -75.5t-57 -62.5t-33 -73l-4 -28h-125zM168 137h137l-20 -137h-137z" />
    <glyph glyph-name="at" unicode="@" horiz-adv-x="800" 
d="M558 22q-80 0 -109 55q-38 -55 -98 -55q-62 0 -95.5 43t-33.5 126q0 162 53.5 246t127.5 84q72 0 99 -68l19 57h84q0 -1 -9 -57.5l-18.5 -121.5l-18 -121.5t-8.5 -60.5q0 -40 39 -40q33 0 58.5 26.5t39.5 68t21 84t7 80.5q0 134 -54.5 199.5t-186.5 65.5
q-83 0 -148.5 -23.5t-117.5 -73t-80 -136t-28 -204.5q0 -285 278 -285q40 0 73 5t46 10l13 5l-8 -67q-49 -18 -115 -18q-355 0 -355 348q0 244 113 374t312 130q79 0 137 -16t94 -43.5t57.5 -70.5t29.5 -90t8 -109q0 -63 -13 -122.5t-39 -110.5t-71 -82.5t-103 -31.5z
M379 115q27 0 46.5 24.5t28.5 63t13 72.5t4 65q0 44 -10.5 66t-37.5 22q-26 0 -46 -26.5t-29 -66t-13.5 -72.5t-4.5 -58q0 -90 49 -90z" />
    <glyph glyph-name="A" unicode="A" horiz-adv-x="592" 
d="M288 686h147l123 -686h-130l-22 135h-245l-59 -135h-128zM387 249l-30 188l-12 133h-4q-24 -84 -46 -133l-83 -188h175z" />
    <glyph glyph-name="B" unicode="B" horiz-adv-x="592" 
d="M28 0l96 686h285q77 0 124.5 -42t47.5 -110q0 -63 -37 -109.5t-90 -64.5l-1 -4q44 -15 71 -55.5t27 -96.5q0 -91 -67 -147.5t-157 -56.5h-299zM337 295h-141l-26 -181h151q44 0 72.5 27.5t28.5 76.5q0 35 -21.5 56t-63.5 21zM377 572h-142l-23 -164h133q47 0 75 28t28 67
q0 69 -71 69z" />
    <glyph glyph-name="C" unicode="C" horiz-adv-x="592" 
d="M45 250q0 84 17 160t51.5 142.5t96.5 106t143 39.5q111 0 173.5 -64.5t62.5 -189.5v-13h-130v18q0 66 -28 102.5t-78 36.5q-52 0 -89 -33t-55.5 -86.5t-26.5 -106t-8 -107.5q0 -157 113 -157q63 0 101 43.5t53 112.5h125q-25 -117 -96 -191.5t-186 -74.5t-177 65.5
t-62 196.5z" />
    <glyph glyph-name="D" unicode="D" horiz-adv-x="592" 
d="M264 0h-236l96 686h211q116 0 178.5 -66t62.5 -194q0 -58 -10.5 -116t-34.5 -114.5t-59 -99.5t-89 -69.5t-119 -26.5zM317 572h-82l-64 -458h82q54 0 94 29.5t60.5 77.5t30 97t9.5 99q0 76 -34 115.5t-96 39.5z" />
    <glyph glyph-name="E" unicode="E" horiz-adv-x="547" 
d="M466 0h-438l96 686h432l-16 -114h-305l-23 -164h262l-16 -114h-262l-26 -180h312z" />
    <glyph glyph-name="F" unicode="F" horiz-adv-x="501" 
d="M155 0h-127l97 686h398l-15 -114h-273l-24 -173h232l-16 -114h-232z" />
    <glyph glyph-name="G" unicode="G" horiz-adv-x="638" 
d="M45 250q0 80 17.5 155.5t54 143t101 108.5t149.5 41q116 0 181 -63.5t65 -187.5h-130v9q0 64 -29.5 98t-81.5 34q-46 0 -82 -22.5t-57.5 -57.5t-35 -81t-18.5 -88t-5 -84q0 -157 123 -157q69 0 109 44t53 121h-153l16 110h282l-52 -373h-82l-12 76q-75 -88 -189 -88
q-108 0 -166 65.5t-58 196.5z" />
    <glyph glyph-name="H" unicode="H" horiz-adv-x="592" 
d="M368 0l42 294h-214l-41 -294h-127l96 686h127l-39 -278h214l38 278h127l-96 -686h-127z" />
    <glyph glyph-name="I" unicode="I" horiz-adv-x="228" 
d="M114 686h127l-96 -686h-127z" />
    <glyph glyph-name="J" unicode="J" 
d="M12 216h121q-7 -48 -7 -58q0 -60 62 -60q59 0 70 75l72 513h127l-74 -523q-12 -85 -62 -130t-133 -45q-90 0 -138 36t-48 105q0 15 10 87z" />
    <glyph glyph-name="K" unicode="K" horiz-adv-x="592" 
d="M252 686l-48 -338l288 338h150l-243 -281l153 -405h-140l-108 307l-124 -132l-24 -175h-128l96 686h128z" />
    <glyph glyph-name="L" unicode="L" horiz-adv-x="501" 
d="M28 0l96 686h127l-79 -566h287l-17 -120h-414z" />
    <glyph glyph-name="M" unicode="M" horiz-adv-x="683" 
d="M593 0h-117l61 437l20 110h-4l-195 -547h-110l-43 547h-4q-6 -83 -10 -110l-62 -437h-108l96 686h177l31 -378l7 -155h4q30 119 45 159l135 374h173z" />
    <glyph glyph-name="N" unicode="N" horiz-adv-x="592" 
d="M495 0h-113l-157 378l-22 64l-4 -3q-3 -39 -6 -57l-53 -382h-112l96 686h112l157 -378l22 -64l3 3q5 46 7 57l53 382h113z" />
    <glyph glyph-name="O" unicode="O" horiz-adv-x="638" 
d="M45 250q0 80 17.5 155.5t54 143t101.5 108.5t150 41q123 0 189 -65.5t66 -197.5q0 -80 -18 -155.5t-54.5 -142.5t-101.5 -108t-150 -41q-122 0 -188 65.5t-66 196.5zM174 255q0 -157 120 -157q57 0 98.5 33t62 86.5t29.5 106t9 106.5q0 158 -120 158q-57 0 -98.5 -33
t-62 -86.5t-29.5 -106.5t-9 -107z" />
    <glyph glyph-name="P" unicode="P" horiz-adv-x="547" 
d="M323 266h-131l-38 -266h-126l96 686h237q94 0 142.5 -48.5t48.5 -128.5q0 -108 -65.5 -175.5t-163.5 -67.5zM338 572h-103l-27 -193h108q47 0 76 29.5t29 80.5q0 38 -22 60.5t-61 22.5z" />
    <glyph glyph-name="Q" unicode="Q" horiz-adv-x="638" 
d="M296 -12q-121 1 -186 66.5t-65 195.5q0 80 17.5 155.5t54 143t101.5 108.5t150 41q123 0 189 -65.5t66 -197.5q0 -63 -11.5 -124.5t-34.5 -120t-62.5 -105t-91.5 -71.5l112 -138h-155zM373 588q-57 0 -98.5 -33t-62 -86.5t-29.5 -106.5t-9 -107q0 -157 120 -157
q57 0 98.5 33t62 86.5t29.5 106t9 106.5q0 158 -120 158z" />
    <glyph glyph-name="R" unicode="R" horiz-adv-x="592" 
d="M445 311l92 -311h-137l-80 286h-126l-39 -286h-127l96 686h269q97 0 147 -45.5t50 -123.5q0 -74 -39 -128.5t-106 -77.5zM374 572h-139l-25 -173h135q50 0 79 26.5t29 73.5q0 73 -79 73z" />
    <glyph glyph-name="S" unicode="S" horiz-adv-x="547" 
d="M31 172q0 36 5 61h132q-5 -20 -5 -48q0 -35 22.5 -61t81.5 -26q51 0 80 26t29 63q0 38 -30 65.5t-72.5 45.5t-85 39t-72.5 59.5t-30 94.5q0 85 56.5 146t175.5 61q120 0 167 -58t47 -156h-129q0 46 -23 74.5t-69 28.5q-12 0 -24 -2t-29 -8.5t-27.5 -22t-10.5 -38.5
q0 -34 30 -57t72 -40t84.5 -38.5t72.5 -63.5t30 -104q0 -105 -70.5 -165t-179.5 -60q-40 0 -78.5 10t-73 31t-55.5 58t-21 85z" />
    <glyph glyph-name="T" unicode="T" horiz-adv-x="501" 
d="M233 572h-169l16 114h464l-16 -114h-169l-80 -572h-126z" />
    <glyph glyph-name="U" unicode="U" horiz-adv-x="592" 
d="M127 686h127q-67 -459 -67 -487q0 -49 24.5 -75t70.5 -26q50 0 80.5 33t39.5 96l64 459h127l-65 -463q-16 -115 -80 -175t-166 -60q-107 0 -165 48t-58 140q0 21 17 148.5l34 244.5z" />
    <glyph glyph-name="V" unicode="V" horiz-adv-x="547" 
d="M67 686h130l71 -488h4l208 488h128l-303 -686h-127z" />
    <glyph glyph-name="W" unicode="W" horiz-adv-x="774" 
d="M67 686h126l21 -518h4q16 67 26 96l140 422h145l22 -518h4q15 62 26 96l139 422h112l-236 -686h-135l-31 437q-1 12 -1 41l1 56h-5q-16 -68 -26 -97l-146 -437h-135z" />
    <glyph glyph-name="X" unicode="X" horiz-adv-x="547" 
d="M220 358l-136 328h140l82 -209h4l137 209h142l-229 -328l151 -358h-142l-95 238h-4l-160 -238h-139z" />
    <glyph glyph-name="Y" unicode="Y" horiz-adv-x="547" 
d="M215 259l-148 427h130l99 -301h4l179 301h129l-266 -427l-37 -259h-126z" />
    <glyph glyph-name="Z" unicode="Z" horiz-adv-x="501" 
d="M-8 49l343 523h-250l16 114h428l-4 -50l-344 -522h278l-16 -114h-455z" />
    <glyph glyph-name="bracketleft" unicode="[" horiz-adv-x="273" 
d="M205 -66l-13 -95h-198l124 896h199l-13 -95h-83l-99 -706h83z" />
    <glyph glyph-name="backslash" unicode="\" horiz-adv-x="228" 
d="M58 735h81l58 -784h-82z" />
    <glyph glyph-name="bracketright" unicode="]" horiz-adv-x="273" 
d="M69 -66l99 706h-83l13 95h199l-125 -896h-198l13 95h82z" />
    <glyph glyph-name="asciicircum" unicode="^" horiz-adv-x="479" 
d="M215 686h107l102 -392h-110l-63 270l-132 -270h-115z" />
    <glyph glyph-name="underscore" unicode="_" 
d="M419 -63l-9 -69h-454l8 69h455z" />
    <glyph glyph-name="grave" unicode="`" horiz-adv-x="273" 
d="M86 720l2 3h120l67 -132h-99z" />
    <glyph glyph-name="a" unicode="a" 
d="M221 538q80 0 110 -75l20 63h93q-62 -398 -62 -409q0 -28 24 -28h18l-12 -85q-27 -16 -59 -16q-67 0 -83 70q-18 -35 -47.5 -52.5t-58.5 -17.5q-68 0 -105 47t-37 139q0 178 58.5 271t140.5 93zM195 91q29 0 51 27t32 69t14.5 79.5t4.5 71.5q0 49 -12 73t-41 24
t-51 -29.5t-32 -72.5t-15 -79.5t-5 -63.5q0 -99 54 -99z" />
    <glyph glyph-name="b" unicode="b" horiz-adv-x="501" 
d="M262 -12q-91 0 -122 82l-24 -70h-93l100 723h119l-35 -249q48 64 125 64q63 0 99 -47t36 -142q0 -56 -10 -114t-32 -116t-64.5 -94.5t-98.5 -36.5zM283 429q-33 0 -57 -26.5t-35 -67.5t-16 -77.5t-5 -69.5q0 -91 65 -91q34 0 57.5 27t34 69t14.5 77.5t4 69.5q0 89 -62 89
z" />
    <glyph glyph-name="c" unicode="c" 
d="M36 172q0 45 4 85t13.5 83t27 77.5t42 62t62 43t84.5 15.5q85 0 124 -47.5t39 -147.5v-15h-122v15q0 48 -11 71t-39 23q-30 0 -52 -32t-32 -78t-14 -80.5t-4 -55.5q0 -53 11.5 -77.5t42.5 -24.5q30 0 51 29.5t31 76.5h119q-21 -95 -69.5 -151t-140.5 -56q-167 0 -167 184
z" />
    <glyph glyph-name="d" unicode="d" horiz-adv-x="501" 
d="M36 174q0 178 60.5 271t145.5 93q80 0 111 -69l37 254h118l-100 -723h-97v76q-52 -88 -132 -88q-68 0 -105.5 47.5t-37.5 138.5zM220 97q33 0 57 26.5t35 67.5t15.5 77t4.5 70q0 91 -61 91q-35 0 -59.5 -27t-35 -69t-15 -77.5t-4.5 -69.5q0 -89 63 -89z" />
    <glyph glyph-name="e" unicode="e" 
d="M33 172q0 71 10.5 131t35 115.5t72.5 87.5t115 32q163 0 163 -179q0 -68 -11 -126h-263q-2 -21 -2 -46q0 -102 55 -102t76 97h123q-44 -194 -204 -194q-170 0 -170 184zM168 320h138q2 29 2 39q0 82 -49 82q-64 0 -91 -121z" />
    <glyph glyph-name="f" unicode="f" horiz-adv-x="273" 
d="M83 425h-52l14 101h52l9 64q9 60 43 100.5t100 40.5q46 0 84 -12l-13 -89h-48q-42 0 -48 -43l-8 -61h90l-14 -101h-90l-62 -466q-8 -60 -41.5 -100.5t-97.5 -40.5q-46 0 -86 12l13 89h44q45 0 51 48z" />
    <glyph glyph-name="g" unicode="g" horiz-adv-x="501" 
d="M241 538q89 0 122 -82l23 70h94l-67 -477q-17 -121 -73.5 -176t-155.5 -55q-86 0 -131.5 45.5t-45.5 112.5h122q0 -27 15 -42t48 -15q84 0 100 106l8 54q-48 -65 -119 -65q-64 0 -104.5 43.5t-40.5 129.5q0 55 10 111t32 112.5t64.5 92t98.5 35.5zM223 117q32 0 55 24
t34 61.5t16 71.5t5 64q0 91 -65 91q-34 0 -57.5 -25.5t-34 -66.5t-14.5 -75t-4 -66q0 -79 65 -79z" />
    <glyph glyph-name="h" unicode="h" horiz-adv-x="501" 
d="M123 723h119l-36 -252q55 67 130 67q62 0 94.5 -35.5t32.5 -99.5q0 -9 -53 -403h-118q49 353 49 363q0 35 -13.5 50.5t-44.5 15.5q-36 0 -63 -30t-34 -83l-44 -316h-119z" />
    <glyph glyph-name="i" unicode="i" horiz-adv-x="228" 
d="M123 723h119l-15 -109h-119zM96 526h119l-73 -526h-119z" />
    <glyph glyph-name="j" unicode="j" horiz-adv-x="228" 
d="M123 723h118l-15 -109h-118zM95 526h119l-79 -567q-9 -61 -41.5 -101t-97.5 -40q-48 0 -86 12l12 89h43q45 0 53 48z" />
    <glyph glyph-name="k" unicode="k" 
d="M123 723h119l-55 -394l166 197h135l-184 -216l118 -310h-126l-76 215l-56 -55l-22 -160h-119z" />
    <glyph glyph-name="l" unicode="l" horiz-adv-x="228" 
d="M122 723h119l-100 -723h-119z" />
    <glyph glyph-name="m" unicode="m" horiz-adv-x="729" 
d="M98 526h97v-68q52 80 132 80q90 0 111 -86q56 86 138 86q57 0 87 -35.5t30 -99.5q0 -16 -53 -403h-119q50 360 50 371q0 58 -49 58q-31 0 -56 -30t-32 -83l-42 -316h-119q49 361 49 371q0 58 -48 58q-32 0 -56.5 -29.5t-31.5 -83.5l-43 -316h-119z" />
    <glyph glyph-name="n" unicode="n" horiz-adv-x="501" 
d="M96 526h97v-70q55 82 143 82q62 0 94.5 -35.5t32.5 -99.5q0 -9 -53 -403h-118q49 361 49 363q0 35 -13.5 50.5t-44.5 15.5q-36 0 -63.5 -30t-34.5 -83l-43 -316h-119z" />
    <glyph glyph-name="o" unicode="o" horiz-adv-x="501" 
d="M36 180q0 51 6 97.5t22.5 95.5t42.5 84t70.5 58t101.5 23q186 0 186 -195q0 -51 -6 -97t-22.5 -94.5t-42.5 -83.5t-70.5 -57.5t-101.5 -22.5q-186 0 -186 192zM159 183q0 -94 67 -94q38 0 64 32.5t36 82.5t13 81.5t3 57.5q0 94 -67 94q-38 0 -64 -32.5t-36 -82.5
t-13 -81.5t-3 -57.5z" />
    <glyph glyph-name="p" unicode="p" horiz-adv-x="501" 
d="M118 -172h-118l96 698h97v-77q50 89 132 89q68 0 105.5 -47.5t37.5 -138.5q0 -178 -60.5 -271t-145.5 -93q-79 0 -112 69zM172 188q0 -91 65 -91q34 0 57.5 27t34 69t14.5 77.5t4 69.5q0 89 -63 89q-33 0 -57 -26.5t-35 -67.5t-15.5 -77t-4.5 -70z" />
    <glyph glyph-name="q" unicode="q" horiz-adv-x="501" 
d="M241 538q89 0 122 -82l23 70h94l-96 -698h-119l30 224q-45 -64 -124 -64q-63 0 -99 47t-36 142q0 56 10 114t32 116t64.5 94.5t98.5 36.5zM220 97q33 0 57 26.5t35 67.5t16 77.5t5 69.5q0 91 -65 91q-34 0 -57.5 -27t-34 -69t-14.5 -77.5t-4 -69.5q0 -89 62 -89z" />
    <glyph glyph-name="r" unicode="r" horiz-adv-x="319" 
d="M96 526h97v-80q45 92 108 92q14 0 26 -2t17 -4l5 -2l-15 -116h-38q-97 0 -114 -121l-41 -293h-118z" />
    <glyph glyph-name="s" unicode="s" 
d="M22 124l6 47h122q-4 -17 -4 -25q0 -60 74 -60q25 0 45 13.5t20 40.5q0 24 -16 41t-40 25.5t-51.5 21.5t-51.5 27.5t-40 45t-16 73.5q0 78 55.5 121t138.5 43q90 0 129 -46.5t39 -119.5h-121q0 34 -11 49q-13 19 -48 19q-24 0 -41 -14.5t-17 -37.5q0 -26 22.5 -42.5
t54.5 -27.5t64 -25t54.5 -46.5t22.5 -81.5q0 -90 -57 -133.5t-143 -43.5q-88 0 -139 36t-51 100z" />
    <glyph glyph-name="t" unicode="t" horiz-adv-x="273" 
d="M42 96q0 11 11 93.5t23 158.5l11 77h-53l14 101h53l20 148h125l-27 -148h76l-14 -101h-75q-42 -294 -42 -303q0 -33 36 -33h33l-12 -89q-34 -12 -73 -12q-106 0 -106 108z" />
    <glyph glyph-name="u" unicode="u" horiz-adv-x="501" 
d="M38 123q0 9 53 403h118q-49 -361 -49 -363q0 -35 13.5 -50.5t44.5 -15.5q36 0 63.5 30t34.5 83l43 316h119l-73 -526h-98v68q-57 -80 -142 -80q-62 0 -94.5 35.5t-32.5 99.5z" />
    <glyph glyph-name="v" unicode="v" 
d="M44 526h119l37 -226l15 -158h4q36 112 56 158l97 226h121l-239 -526h-121z" />
    <glyph glyph-name="w" unicode="w" horiz-adv-x="638" 
d="M42 526h113l18 -217l9 -172h4q15 93 41 171l75 218h120l13 -219l4 -170h4q28 110 49 170l74 219h107l-199 -526h-118l-17 251l-6 138h-6q-6 -80 -25 -137l-86 -252h-119z" />
    <glyph glyph-name="x" unicode="x" 
d="M170 272l-111 254h129l58 -149h5l99 149h129l-182 -254l118 -272h-129l-65 169h-5l-114 -169h-127z" />
    <glyph glyph-name="y" unicode="y" 
d="M4 -81h54q60 0 91 81l-100 526h120l44 -247l14 -137h4q26 91 44 136l99 248h118l-211 -499q-42 -97 -93 -153t-120 -56q-22 0 -40.5 2t-26.5 4t-8 3z" />
    <glyph glyph-name="z" unicode="z" horiz-adv-x="410" 
d="M-8 51l249 374h-187l14 101h349l-4 -50l-251 -375h206l-14 -101h-366z" />
    <glyph glyph-name="braceleft" unicode="{" horiz-adv-x="319" 
d="M58 -11q4 30 8 56t6.5 44.5l4.5 34t3.5 25.5t3 18t2 12.5t1 7.5t0.5 4.5v2.5q0 44 -70 48l13 92q31 0 55.5 14.5t29.5 45.5l28 193q6 45 26 76t51 46t64 20.5t76 5.5l-10 -77q-80 0 -88 -61q-5 -37 -18 -103.5t-17 -92.5q-9 -54 -38 -81t-85 -27l-1 -10q51 0 72.5 -22
t21.5 -66q0 -21 -11.5 -118t-11.5 -109q0 -50 71 -50l-10 -77q-39 0 -68.5 5t-56 17t-40.5 36.5t-14 60.5q0 9 2 29z" />
    <glyph glyph-name="bar" unicode="|" horiz-adv-x="230" 
d="M70 723h90v-896h-90v896z" />
    <glyph glyph-name="braceright" unicode="}" horiz-adv-x="319" 
d="M70 -21q5 37 18 103.5t17 92.5q9 54 38 81t85 27l1 10q-51 0 -72.5 22t-21.5 66q0 22 11.5 118.5t11.5 108.5q0 50 -71 50l10 77q39 0 68.5 -5t56 -17t40.5 -36.5t14 -60.5q0 -9 -2 -29q-4 -30 -8 -56t-6.5 -44.5l-4.5 -34t-3.5 -25.5t-3 -18t-2 -12.5t-1 -7.5t-0.5 -4.5
v-2.5q0 -44 70 -48l-13 -92q-31 0 -55.5 -14.5t-29.5 -45.5l-28 -193q-6 -45 -26 -76t-51 -46t-64 -20.5t-76 -5.5l10 77q80 0 88 61z" />
    <glyph glyph-name="asciitilde" unicode="~" horiz-adv-x="479" 
d="M20 197l17 120q2 3 6 8t17 17.5t27.5 22t37 17.5t45.5 8q32 0 85 -30.5t86 -30.5q32 0 65.5 18.5t50.5 36.5l17 18l-17 -120q-2 -3 -6 -8t-17 -17.5t-27.5 -22t-37 -17.5t-45.5 -8q-32 0 -85 30.5t-86 30.5q-32 0 -65 -18t-50 -36z" />
    <glyph glyph-name="uni00A0" unicode="&#xa0;" horiz-adv-x="228" 
 />
    <glyph glyph-name="exclamdown" unicode="&#xa1;" horiz-adv-x="273" 
d="M113 526h138l-20 -137h-138zM112 329h82l-33 -489h-153z" />
    <glyph glyph-name="cent" unicode="&#xa2;" 
d="M156 -49l16 119q-136 15 -136 182q0 66 9 123t31 112.5t66 90t107 39.5l15 106h48l-15 -107q70 -7 102.5 -54.5t32.5 -138.5v-15h-114v15q0 83 -35 97l-49 -355q48 18 68 110h111q-21 -91 -65.5 -146t-127.5 -61l-16 -117h-48zM186 165l49 354q-45 -22 -65 -107.5
t-20 -140.5q0 -91 36 -106z" />
    <glyph glyph-name="sterling" unicode="&#xa3;" 
d="M8 108h50l25 180h-62l14 101h61l16 110q14 99 64.5 149t132.5 50q79 0 122 -39t43 -114q0 -20 -5 -54h-118q6 40 6 47q0 29 -14 44t-39 15q-58 0 -69 -72l-19 -136h119l-14 -101h-120l-35 -180h243l-16 -108h-400z" />
    <glyph glyph-name="currency" unicode="&#xa4;" 
d="M0 174l50 50q-28 53 -28 118q0 64 27 116l-49 50l60 62l42 -42q57 49 126 49q68 0 125 -49l42 42l60 -62l-49 -49q28 -54 28 -117t-29 -119l50 -49l-61 -61l-42 42q-57 -47 -124 -47q-68 0 -125 47l-42 -42zM228 198q50 0 85.5 42t35.5 102t-35.5 102.5t-85.5 42.5
t-86 -42t-36 -103q0 -60 36 -102t86 -42z" />
    <glyph glyph-name="yen" unicode="&#xa5;" 
d="M157 153h-139l11 81h138l10 70h-138l11 81h104l-85 301h127l59 -263h4l129 263h124l-170 -301h104l-11 -82h-138l-10 -69h138l-11 -81h-138l-22 -153h-119z" />
    <glyph glyph-name="brokenbar" unicode="&#xa6;" horiz-adv-x="230" 
d="M70 723h90v-372h-90v372zM70 199h90v-372h-90v372z" />
    <glyph glyph-name="section" unicode="&#xa7;" 
d="M13 -16h121q-2 -12 -2 -18q0 -50 55 -50q30 0 48 18t18 47q0 33 -22.5 57.5t-54.5 42.5t-63.5 38.5t-54 56t-22.5 83.5q0 42 22.5 82.5t63.5 69.5q-35 38 -35 98q0 91 57 140t143 49q74 0 121 -32.5t47 -89.5q0 -7 -1.5 -17.5t-2.5 -18.5l-1 -8h-121q1 6 1 17
q0 51 -54 51q-30 0 -48 -18t-18 -48q0 -33 22.5 -57.5t54 -42t63.5 -38t54.5 -56t22.5 -83.5q0 -91 -86 -152q35 -42 35 -99q0 -90 -57 -139t-143 -49q-75 0 -121.5 33t-46.5 90q0 7 1 17.5t3 17.5zM274 156q30 36 30 74q0 14 -3 26t-10.5 23t-14 18.5t-20 17.5t-20.5 14.5
l-24.5 15t-23.5 14.5q-29 -32 -29 -74q0 -14 3 -26t10.5 -23t13.5 -18.5t20 -17.5l20.5 -14.5t24.5 -15.5z" />
    <glyph glyph-name="dieresis" unicode="&#xa8;" horiz-adv-x="273" 
d="M259 723h100l-15 -109h-100zM84 723h100l-15 -109h-99z" />
    <glyph glyph-name="copyright" unicode="&#xa9;" horiz-adv-x="604" 
d="M302 -12q-133 0 -209.5 96t-76.5 259t76.5 259t209.5 96t209.5 -96t76.5 -259t-76.5 -259t-209.5 -96zM302 43q107 0 168.5 81t61.5 219t-61.5 219t-168.5 81t-168.5 -81t-61.5 -219t61.5 -219t168.5 -81zM304 134q-77 0 -119 52t-42 157t42 157.5t119 52.5
q67 0 108 -39.5t41 -118.5h-87q0 41 -16.5 62t-45.5 21q-73 0 -73 -120v-29q0 -120 76 -120q62 0 62 82h84q0 -77 -41 -117t-108 -40z" />
    <glyph glyph-name="ordfeminine" unicode="&#xaa;" horiz-adv-x="303" 
d="M166 362q-46 0 -71 32t-25 93q0 120 39.5 182.5t94.5 62.5q53 0 74 -50l27 42h49q-42 -268 -42 -275q0 -19 16 -19h13l-8 -57q-20 -11 -40 -11q-45 0 -56 47q-26 -47 -71 -47zM186 431q37 0 53 55t16 111q0 66 -36 66q-19 0 -33.5 -19.5t-21.5 -48.5t-10.5 -54t-3.5 -43
q0 -67 36 -67z" />
    <glyph glyph-name="guillemotleft" unicode="&#xab;" 
d="M211 326l160 200h95l-136 -200l79 -200h-91zM28 326l160 200h95l-136 -200l79 -200h-91z" />
    <glyph glyph-name="logicalnot" unicode="&#xac;" horiz-adv-x="479" 
d="M56 463h416l-39 -276h-111l23 163h-305z" />
    <glyph glyph-name="uni00AD" unicode="&#xad;" horiz-adv-x="273" 
d="M30 329h241l-17 -118h-241z" />
    <glyph glyph-name="registered" unicode="&#xae;" horiz-adv-x="604" 
d="M302 -12q-133 0 -209.5 96t-76.5 259t76.5 259t209.5 96t209.5 -96t76.5 -259t-76.5 -259t-209.5 -96zM302 43q107 0 168.5 81t61.5 219t-61.5 219t-168.5 81t-168.5 -81t-61.5 -219t61.5 -219t168.5 -81zM174 546h158q49 0 81 -28.5t32 -73.5q0 -72 -63 -95v-4
q59 -21 59 -108q0 -62 29 -72v-20q-12 -8 -39 -8q-76 0 -76 77q0 91 -59 91h-36v-165h-86v406zM260 382h41q25 0 40.5 13t15.5 33q0 19 -14.5 29.5t-38.5 10.5h-44v-86z" />
    <glyph glyph-name="macron" unicode="&#xaf;" horiz-adv-x="273" 
d="M15 686h255l-13 -87h-255z" />
    <glyph glyph-name="degree" unicode="&#xb0;" horiz-adv-x="400" 
d="M198 414q-59 0 -100.5 41.5t-41.5 100.5t41.5 100.5t100.5 41.5t100.5 -41.5t41.5 -100.5t-41.5 -100.5t-100.5 -41.5zM198 482q31 0 52 21.5t21 52.5t-21 52t-52 21t-52.5 -21t-21.5 -52t21.5 -52.5t52.5 -21.5z" />
    <glyph glyph-name="plusminus" unicode="&#xb1;" horiz-adv-x="549" 
d="M224 317h-154l15 104h154l24 174h103l-24 -174h155l-15 -104h-155l-24 -173h-103zM40 103h412l-14 -103h-412z" />
    <glyph glyph-name="twosuperior" unicode="&#xb2;" horiz-adv-x="273" 
d="M23 320l3 18q5 36 27 71t49 61.5l54 52t45 54.5t18 57q0 30 -27 30q-36 0 -47 -83h-79q0 63 35.5 108t98.5 45q47 0 75 -21t28 -65q0 -38 -18.5 -75t-39.5 -61t-57 -60.5t-53 -57.5h136l-11 -74h-237z" />
    <glyph glyph-name="threesuperior" unicode="&#xb3;" horiz-adv-x="273" 
d="M157 312q-55 0 -83.5 27.5t-28.5 75.5q0 14 4 37h82q-4 -23 -4 -32q0 -39 34 -39q20 0 33 18t13 53q0 41 -35 41h-20l10 67h21q15 0 29 19t14 52q0 34 -26 34q-34 0 -42 -66h-82q9 66 43.5 100.5t84.5 34.5q49 0 77.5 -25t28.5 -71q0 -70 -66 -108q45 -24 45 -80
q0 -62 -38.5 -100t-93.5 -38z" />
    <glyph glyph-name="acute" unicode="&#xb4;" horiz-adv-x="273" 
d="M226 723h120l1 -3l-108 -129h-99z" />
    <glyph glyph-name="mu" unicode="&#xb5;" horiz-adv-x="499" 
d="M118 -172h-119l96 698h118q-49 -361 -49 -363q0 -66 58 -66q36 0 63.5 30t34.5 83l43 316h119l-73 -526h-98v68q-50 -80 -122 -80q-26 0 -48 11z" />
    <glyph glyph-name="paragraph" unicode="&#xb6;" 
d="M126 -173l60 423q-64 8 -103 58.5t-39 122.5q0 122 66 188.5t160 66.5h239l-11 -76h-48l-110 -783h-81l110 783h-53l-110 -783h-80z" />
    <glyph glyph-name="periodcentered" unicode="&#xb7;" horiz-adv-x="228" 
d="M79 409h121l-19 -131h-121z" />
    <glyph glyph-name="cedilla" unicode="&#xb8;" horiz-adv-x="273" 
d="M168 11l-11 -44q70 -6 70 -57q0 -92 -121 -92q-46 0 -83 8l7 49h71q40 0 40 30q0 18 -31 18h-33l23 88h68z" />
    <glyph glyph-name="onesuperior" unicode="&#xb9;" horiz-adv-x="273" 
d="M49 389h74l33 233h-75l7 56q61 8 122 45h40l-47 -334h66l-10 -69h-220z" />
    <glyph glyph-name="ordmasculine" unicode="&#xba;" horiz-adv-x="299" 
d="M180 363q-125 0 -125 129q0 44 7 82.5t24 76t51 60t82 22.5q125 0 125 -131q0 -44 -7 -82.5t-24 -75.5t-51 -59t-82 -22zM183 431q26 0 43 22t24 55.5t9 54.5t2 39q0 63 -45 63q-26 0 -43 -22t-24 -55.5t-9 -54.5t-2 -39q0 -63 45 -63z" />
    <glyph glyph-name="guillemotright" unicode="&#xbb;" 
d="M328 326l-80 200h91l108 -200l-161 -200h-95zM145 326l-80 200h91l108 -200l-161 -200h-94z" />
    <glyph glyph-name="onequarter" unicode="&#xbc;" horiz-adv-x="684" 
d="M584 698h66l-493 -710h-67zM34 352h74l33 233h-75l7 56q61 8 122 45h40l-47 -334h66l-10 -69h-220zM374 89l8 61q71 102 139 264h79q-25 -68 -68.5 -143t-73.5 -113h68l5 37q45 67 70 131h27l-23 -168h42l-10 -69h-42l-13 -89h-79l13 89h-142z" />
    <glyph glyph-name="onehalf" unicode="&#xbd;" horiz-adv-x="684" 
d="M568 698h66l-493 -710h-67zM34 352h74l33 233h-75l7 56q61 8 122 45h40l-47 -334h66l-10 -69h-220zM383 0l3 18q5 36 27 71t49 61.5l54 52t45 54.5t18 57q0 30 -27 30q-36 0 -47 -83h-79q0 63 35.5 108t98.5 45q47 0 75 -21t28 -65q0 -38 -18.5 -75t-39.5 -61t-57 -60.5
t-53 -57.5h136l-11 -74h-237z" />
    <glyph glyph-name="threequarters" unicode="&#xbe;" horiz-adv-x="684" 
d="M574 698h66l-493 -710h-67zM142 273q-55 0 -83.5 27.5t-28.5 75.5q0 14 4 37h82q-4 -23 -4 -32q0 -39 34 -39q20 0 33 18t13 53q0 41 -35 41h-20l10 67h21q15 0 29 19t14 52q0 34 -26 34q-34 0 -42 -66h-82q10 66 45 101q33 34 83 34q49 0 77.5 -25t28.5 -71
q0 -70 -66 -108q45 -24 45 -80q0 -62 -38.5 -100t-93.5 -38zM380 89l8 61q71 102 139 264h79q-25 -68 -68.5 -143t-73.5 -113h68l5 37q45 67 70 131h27l-23 -168h42l-10 -69h-42l-13 -89h-79l13 89h-142z" />
    <glyph glyph-name="questiondown" unicode="&#xbf;" horiz-adv-x="501" 
d="M240 526h137l-20 -137h-137zM48 -22q0 63 24 112t53 75.5t57 62.5t33 73l4 28h125l-6 -43q-5 -38 -31 -75.5t-53.5 -63.5t-50 -65t-22.5 -80q0 -26 14 -46.5t49 -20.5q46 0 67.5 40t21.5 92h125q0 -100 -60.5 -169.5t-166.5 -69.5q-85 0 -134 41t-49 109z" />
    <glyph glyph-name="Agrave" unicode="&#xc0;" horiz-adv-x="592" 
d="M288 686h147l123 -686h-130l-22 135h-245l-59 -135h-128zM387 249l-30 188l-12 133h-4q-24 -84 -46 -133l-83 -188h175zM249 880l2 3h120l67 -132h-99z" />
    <glyph glyph-name="Aacute" unicode="&#xc1;" horiz-adv-x="592" 
d="M288 686h147l123 -686h-130l-22 135h-245l-59 -135h-128zM387 249l-30 188l-12 133h-4q-24 -84 -46 -133l-83 -188h175zM392 883h120l1 -3l-108 -129h-99z" />
    <glyph glyph-name="Acircumflex" unicode="&#xc2;" horiz-adv-x="592" 
d="M288 686h147l123 -686h-130l-22 135h-245l-59 -135h-128zM387 249l-30 188l-12 133h-4q-24 -84 -46 -133l-83 -188h175zM338 883h98l66 -135h-90l-34 69l-51 -69h-93z" />
    <glyph glyph-name="Atilde" unicode="&#xc3;" horiz-adv-x="592" 
d="M288 686h147l123 -686h-130l-22 135h-245l-59 -135h-128zM387 249l-30 188l-12 133h-4q-24 -84 -46 -133l-83 -188h175zM273 761h-64q0 44 32 83t81 39q24 0 64 -18.5t62 -18.5q33 0 44 37h65q0 -45 -32.5 -83.5t-82.5 -38.5q-24 0 -63.5 18.5t-61.5 18.5q-33 0 -44 -37z
" />
    <glyph glyph-name="Adieresis" unicode="&#xc4;" horiz-adv-x="592" 
d="M288 686h147l123 -686h-130l-22 135h-245l-59 -135h-128zM387 249l-30 188l-12 133h-4q-24 -84 -46 -133l-83 -188h175zM425 883h100l-15 -109h-100zM250 883h100l-15 -109h-99z" />
    <glyph glyph-name="Aring" unicode="&#xc5;" horiz-adv-x="592" 
d="M288 686h147l123 -686h-130l-22 135h-245l-59 -135h-128zM387 249l-30 188l-12 133h-4q-24 -84 -46 -133l-83 -188h175zM378 721q-39 0 -67.5 28t-28.5 68t28 68t68 28t68 -28.5t28 -67.5q0 -40 -28 -68t-68 -28zM378 771q19 0 32.5 13.5t13.5 32.5t-13.5 32.5
t-32.5 13.5q-20 0 -33 -13.5t-13 -32.5t13 -32.5t33 -13.5z" />
    <glyph glyph-name="AE" unicode="&#xc6;" horiz-adv-x="820" 
d="M295 437l-94 -188h173l-29 321h-4q-22 -85 -46 -133zM741 0h-344l-12 135h-240l-67 -135h-130l355 686h528l-16 -114h-347l17 -164h264l-16 -114h-237l18 -180h243z" />
    <glyph glyph-name="Ccedilla" unicode="&#xc7;" horiz-adv-x="592" 
d="M45 250q0 84 17 160t51.5 142.5t96.5 106t143 39.5q111 0 173.5 -64.5t62.5 -189.5v-13h-130v18q0 66 -28 102.5t-78 36.5q-52 0 -89 -33t-55.5 -86.5t-26.5 -106t-8 -107.5q0 -157 113 -157q63 0 101 43.5t53 112.5h125q-24 -113 -92 -187t-177 -79l-5 -21q70 -6 70 -57
q0 -92 -121 -92q-46 0 -83 8l7 49h71q40 0 40 30q0 18 -31 18h-33l17 69q-184 28 -184 258z" />
    <glyph glyph-name="Egrave" unicode="&#xc8;" horiz-adv-x="547" 
d="M233 880l2 3h120l67 -132h-99zM466 0h-438l96 686h432l-16 -114h-305l-23 -164h262l-16 -114h-262l-26 -180h312z" />
    <glyph glyph-name="Eacute" unicode="&#xc9;" horiz-adv-x="547" 
d="M377 883h120l1 -3l-108 -129h-99zM466 0h-438l96 686h432l-16 -114h-305l-23 -164h262l-16 -114h-262l-26 -180h312z" />
    <glyph glyph-name="Ecircumflex" unicode="&#xca;" horiz-adv-x="547" 
d="M323 883h98l66 -135h-90l-34 69l-51 -69h-93zM466 0h-438l96 686h432l-16 -114h-305l-23 -164h262l-16 -114h-262l-26 -180h312z" />
    <glyph glyph-name="Edieresis" unicode="&#xcb;" horiz-adv-x="547" 
d="M410 883h100l-15 -109h-100zM235 883h100l-15 -109h-99zM466 0h-438l96 686h432l-16 -114h-305l-23 -164h262l-16 -114h-262l-26 -180h312z" />
    <glyph glyph-name="Igrave" unicode="&#xcc;" horiz-adv-x="228" 
d="M114 686h127l-96 -686h-127zM67 880l2 3h120l67 -132h-99z" />
    <glyph glyph-name="Iacute" unicode="&#xcd;" horiz-adv-x="228" 
d="M114 686h127l-96 -686h-127zM210 883h120l1 -3l-108 -129h-99z" />
    <glyph glyph-name="Icircumflex" unicode="&#xce;" horiz-adv-x="228" 
d="M114 686h127l-96 -686h-127zM156 883h98l66 -135h-90l-34 69l-51 -69h-93z" />
    <glyph glyph-name="Idieresis" unicode="&#xcf;" horiz-adv-x="228" 
d="M114 686h127l-96 -686h-127zM243 883h100l-15 -109h-100zM68 883h100l-15 -109h-99z" />
    <glyph glyph-name="Eth" unicode="&#xd0;" horiz-adv-x="592" 
d="M264 0h-236l43 312h-48l11 85h49l41 289h211q116 0 178.5 -66t62.5 -194q0 -58 -10.5 -116t-34.5 -114.5t-59 -99.5t-89 -69.5t-119 -26.5zM317 572h-82l-25 -175h124l-12 -85h-124l-27 -198h82q54 0 94 29.5t60.5 77.5t30 97t9.5 99q0 76 -34 115.5t-96 39.5z" />
    <glyph glyph-name="Ntilde" unicode="&#xd1;" horiz-adv-x="592" 
d="M272 761h-64q0 44 32 83t81 39q25 0 65 -18.5t61 -18.5q33 0 44 37h65q0 -45 -32.5 -83.5t-82.5 -38.5q-24 0 -63.5 18.5t-61.5 18.5q-33 0 -44 -37zM495 0h-113l-157 378l-22 64l-4 -3q-3 -39 -6 -57l-53 -382h-112l96 686h112l157 -378l22 -64l3 3q5 46 7 57l53 382
h113z" />
    <glyph glyph-name="Ograve" unicode="&#xd2;" horiz-adv-x="638" 
d="M45 250q0 80 17.5 155.5t54 143t101.5 108.5t150 41q123 0 189 -65.5t66 -197.5q0 -80 -18 -155.5t-54.5 -142.5t-101.5 -108t-150 -41q-122 0 -188 65.5t-66 196.5zM174 255q0 -157 120 -157q57 0 98.5 33t62 86.5t29.5 106t9 106.5q0 158 -120 158q-57 0 -98.5 -33
t-62 -86.5t-29.5 -106.5t-9 -107zM273 880l2 3h120l67 -132h-99z" />
    <glyph glyph-name="Oacute" unicode="&#xd3;" horiz-adv-x="638" 
d="M45 250q0 80 17.5 155.5t54 143t101.5 108.5t150 41q123 0 189 -65.5t66 -197.5q0 -80 -18 -155.5t-54.5 -142.5t-101.5 -108t-150 -41q-122 0 -188 65.5t-66 196.5zM174 255q0 -157 120 -157q57 0 98.5 33t62 86.5t29.5 106t9 106.5q0 158 -120 158q-57 0 -98.5 -33
t-62 -86.5t-29.5 -106.5t-9 -107zM416 883h120l1 -3l-108 -129h-99z" />
    <glyph glyph-name="Ocircumflex" unicode="&#xd4;" horiz-adv-x="638" 
d="M45 250q0 80 17.5 155.5t54 143t101.5 108.5t150 41q123 0 189 -65.5t66 -197.5q0 -80 -18 -155.5t-54.5 -142.5t-101.5 -108t-150 -41q-122 0 -188 65.5t-66 196.5zM174 255q0 -157 120 -157q57 0 98.5 33t62 86.5t29.5 106t9 106.5q0 158 -120 158q-57 0 -98.5 -33
t-62 -86.5t-29.5 -106.5t-9 -107zM362 883h98l66 -135h-90l-34 69l-51 -69h-93z" />
    <glyph glyph-name="Otilde" unicode="&#xd5;" horiz-adv-x="638" 
d="M45 250q0 80 17.5 155.5t54 143t101.5 108.5t150 41q123 0 189 -65.5t66 -197.5q0 -80 -18 -155.5t-54.5 -142.5t-101.5 -108t-150 -41q-122 0 -188 65.5t-66 196.5zM174 255q0 -157 120 -157q57 0 98.5 33t62 86.5t29.5 106t9 106.5q0 158 -120 158q-57 0 -98.5 -33
t-62 -86.5t-29.5 -106.5t-9 -107zM296 761h-64q0 44 32 83t81 39q25 0 65 -18.5t61 -18.5q33 0 44 37h65q0 -45 -32.5 -83.5t-82.5 -38.5q-24 0 -63.5 18.5t-61.5 18.5q-33 0 -44 -37z" />
    <glyph glyph-name="Odieresis" unicode="&#xd6;" horiz-adv-x="638" 
d="M45 250q0 80 17.5 155.5t54 143t101.5 108.5t150 41q123 0 189 -65.5t66 -197.5q0 -80 -18 -155.5t-54.5 -142.5t-101.5 -108t-150 -41q-122 0 -188 65.5t-66 196.5zM174 255q0 -157 120 -157q57 0 98.5 33t62 86.5t29.5 106t9 106.5q0 158 -120 158q-57 0 -98.5 -33
t-62 -86.5t-29.5 -106.5t-9 -107zM449 883h100l-15 -109h-100zM274 883h100l-15 -109h-99z" />
    <glyph glyph-name="multiply" unicode="&#xd7;" horiz-adv-x="479" 
d="M6 111l166 145l-125 146l82 72l125 -146l166 146l62 -72l-167 -146l126 -145l-82 -72l-126 146l-165 -146z" />
    <glyph glyph-name="Oslash" unicode="&#xd8;" horiz-adv-x="638" 
d="M45 -37l61 95q-61 66 -61 192q0 80 17.5 155.5t54 143t101.5 108.5t150 41q81 0 136 -28l35 53h84l-62 -95q62 -68 62 -193q0 -80 -18 -155.5t-54.5 -142.5t-101.5 -108t-150 -41q-77 0 -136 28l-34 -53h-84zM184 177l255 393q-26 18 -66 18q-57 0 -98.5 -33t-62 -86.5
t-29.5 -106.5t-9 -107q0 -47 10 -78zM482 507l-254 -392q26 -17 66 -17q57 0 98.5 33t62 86.5t29.5 106t9 106.5q0 42 -11 77z" />
    <glyph glyph-name="Ugrave" unicode="&#xd9;" horiz-adv-x="592" 
d="M248 880l2 3h120l67 -132h-99zM127 686h127q-67 -459 -67 -487q0 -49 24.5 -75t70.5 -26q50 0 80.5 33t39.5 96l64 459h127l-65 -463q-16 -115 -80 -175t-166 -60q-107 0 -165 48t-58 140q0 21 17 148.5l34 244.5z" />
    <glyph glyph-name="Uacute" unicode="&#xda;" horiz-adv-x="592" 
d="M392 883h120l1 -3l-108 -129h-99zM127 686h127q-67 -459 -67 -487q0 -49 24.5 -75t70.5 -26q50 0 80.5 33t39.5 96l64 459h127l-65 -463q-16 -115 -80 -175t-166 -60q-107 0 -165 48t-58 140q0 21 17 148.5l34 244.5z" />
    <glyph glyph-name="Ucircumflex" unicode="&#xdb;" horiz-adv-x="592" 
d="M338 883h98l66 -135h-90l-34 69l-51 -69h-93zM127 686h127q-67 -459 -67 -487q0 -49 24.5 -75t70.5 -26q50 0 80.5 33t39.5 96l64 459h127l-65 -463q-16 -115 -80 -175t-166 -60q-107 0 -165 48t-58 140q0 21 17 148.5l34 244.5z" />
    <glyph glyph-name="Udieresis" unicode="&#xdc;" horiz-adv-x="592" 
d="M425 883h100l-15 -109h-100zM250 883h100l-15 -109h-99zM127 686h127q-67 -459 -67 -487q0 -49 24.5 -75t70.5 -26q50 0 80.5 33t39.5 96l64 459h127l-65 -463q-16 -115 -80 -175t-166 -60q-107 0 -165 48t-58 140q0 21 17 148.5l34 244.5z" />
    <glyph glyph-name="Yacute" unicode="&#xdd;" horiz-adv-x="547" 
d="M215 259l-148 427h130l99 -301h4l179 301h129l-266 -427l-37 -259h-126zM372 883h120l1 -3l-108 -129h-99z" />
    <glyph glyph-name="Thorn" unicode="&#xde;" horiz-adv-x="547" 
d="M28 0l96 686h127l-17 -124h110q94 0 142.5 -48.5t48.5 -128.5q0 -108 -65.5 -175.5t-163.5 -67.5h-131l-20 -142h-127zM321 448h-103l-27 -193h108q47 0 76 29.5t29 80.5q0 38 -22 60.5t-61 22.5z" />
    <glyph glyph-name="germandbls" unicode="&#xdf;" horiz-adv-x="501" 
d="M17 0l71 520q15 109 77.5 162t153.5 53q83 0 133 -44t50 -122q0 -55 -33.5 -105t-84.5 -69v-4q42 -17 67 -61.5t25 -99.5q0 -88 -64 -159t-156 -71h-74l14 102h51q42 0 75 38.5t33 87.5q0 41 -22 68.5t-55 27.5h-52l16 113h49q33 0 61 37.5t28 85.5q0 34 -17.5 54
t-51.5 20q-41 0 -68.5 -28t-34.5 -78l-74 -528h-117z" />
    <glyph glyph-name="agrave" unicode="&#xe0;" 
d="M143 720l2 3h120l67 -132h-99zM221 538q80 0 110 -75l20 63h93q-62 -398 -62 -409q0 -28 24 -28h18l-12 -85q-27 -16 -59 -16q-67 0 -83 70q-18 -35 -47.5 -52.5t-58.5 -17.5q-68 0 -105 47t-37 139q0 178 58.5 271t140.5 93zM195 91q29 0 51 27t32 69t14.5 79.5
t4.5 71.5q0 49 -12 73t-41 24t-51 -29.5t-32 -72.5t-15 -79.5t-5 -63.5q0 -99 54 -99z" />
    <glyph glyph-name="aacute" unicode="&#xe1;" 
d="M287 723h120l1 -3l-108 -129h-99zM221 538q80 0 110 -75l20 63h93q-62 -398 -62 -409q0 -28 24 -28h18l-12 -85q-27 -16 -59 -16q-67 0 -83 70q-18 -35 -47.5 -52.5t-58.5 -17.5q-68 0 -105 47t-37 139q0 178 58.5 271t140.5 93zM195 91q29 0 51 27t32 69t14.5 79.5
t4.5 71.5q0 49 -12 73t-41 24t-51 -29.5t-32 -72.5t-15 -79.5t-5 -63.5q0 -99 54 -99z" />
    <glyph glyph-name="acircumflex" unicode="&#xe2;" 
d="M233 723h98l66 -135h-90l-34 69l-51 -69h-93zM221 538q80 0 110 -75l20 63h93q-62 -398 -62 -409q0 -28 24 -28h18l-12 -85q-27 -16 -59 -16q-67 0 -83 70q-18 -35 -47.5 -52.5t-58.5 -17.5q-68 0 -105 47t-37 139q0 178 58.5 271t140.5 93zM195 91q29 0 51 27t32 69
t14.5 79.5t4.5 71.5q0 49 -12 73t-41 24t-51 -29.5t-32 -72.5t-15 -79.5t-5 -63.5q0 -99 54 -99z" />
    <glyph glyph-name="atilde" unicode="&#xe3;" 
d="M167 601h-64q0 43 30 81q34 41 83 41q25 0 65 -18q38 -19 61 -19q33 0 44 37h65q0 -45 -32.5 -83.5t-82.5 -38.5q-24 0 -63.5 18.5t-61.5 18.5q-33 0 -44 -37zM221 538q80 0 110 -75l20 63h93q-62 -398 -62 -409q0 -28 24 -28h18l-12 -85q-27 -16 -59 -16q-67 0 -83 70
q-18 -35 -47.5 -52.5t-58.5 -17.5q-68 0 -105 47t-37 139q0 178 58.5 271t140.5 93zM195 91q29 0 51 27t32 69t14.5 79.5t4.5 71.5q0 49 -12 73t-41 24t-51 -29.5t-32 -72.5t-15 -79.5t-5 -63.5q0 -99 54 -99z" />
    <glyph glyph-name="adieresis" unicode="&#xe4;" 
d="M221 538q80 0 110 -75l20 63h93q-62 -398 -62 -409q0 -28 24 -28h18l-12 -85q-27 -16 -59 -16q-67 0 -83 70q-18 -35 -47.5 -52.5t-58.5 -17.5q-68 0 -105 47t-37 139q0 178 58.5 271t140.5 93zM195 91q29 0 51 27t32 69t14.5 79.5t4.5 71.5q0 49 -12 73t-41 24
t-51 -29.5t-32 -72.5t-15 -79.5t-5 -63.5q0 -99 54 -99zM320 723h100l-15 -109h-100zM145 723h100l-15 -109h-99z" />
    <glyph glyph-name="aring" unicode="&#xe5;" 
d="M273 561q-39 0 -67.5 28t-28.5 68t28 68t68 28t68 -28.5t28 -67.5q0 -40 -28 -68t-68 -28zM273 611q19 0 32.5 13.5t13.5 32.5t-13.5 32.5t-32.5 13.5t-32.5 -13.5t-13.5 -32.5t13.5 -32.5t32.5 -13.5zM221 538q80 0 110 -75l20 63h93q-62 -398 -62 -409q0 -28 24 -28h18
l-12 -85q-27 -16 -59 -16q-67 0 -83 70q-18 -35 -47.5 -52.5t-58.5 -17.5q-68 0 -105 47t-37 139q0 178 58.5 271t140.5 93zM195 91q29 0 51 27t32 69t14.5 79.5t4.5 71.5q0 49 -12 73t-41 24t-51 -29.5t-32 -72.5t-15 -79.5t-5 -63.5q0 -99 54 -99z" />
    <glyph glyph-name="ae" unicode="&#xe6;" horiz-adv-x="729" 
d="M19 129q0 70 42.5 114.5t103.5 60.5t142 16l6 55q1 7 1 20q0 45 -46 45q-62 0 -71 -70h-116q0 76 54.5 122t143.5 46q82 0 121 -44q54 44 130 44q163 0 163 -179q0 -68 -11 -126h-263q-2 -21 -2 -46q0 -102 55 -102t76 97h123q-44 -194 -204 -194q-106 0 -146 69
q-69 -69 -159 -69q-26 0 -48.5 6t-45 20.5t-36 44t-13.5 70.5zM432 320h138q2 29 2 39q0 82 -49 82q-64 0 -91 -121zM144 134q0 -46 52 -46q39 0 63.5 32.5t30.5 82.5l4 30q-150 0 -150 -99z" />
    <glyph glyph-name="ccedilla" unicode="&#xe7;" 
d="M36 172q0 45 4 85t13.5 83t27 77.5t42 62t62 43t84.5 15.5q85 0 124 -47.5t39 -147.5v-15h-122v15q0 48 -11 71t-39 23q-30 0 -52 -32t-32 -78t-14 -80.5t-4 -55.5q0 -53 11.5 -77.5t42.5 -24.5q30 0 51 29.5t31 76.5h119q-42 -192 -187 -206l-5 -22q70 -6 70 -57
q0 -92 -122 -92q-46 0 -83 8l7 49h72q40 0 40 30q0 18 -32 18h-32l17 69q-122 21 -122 180z" />
    <glyph glyph-name="egrave" unicode="&#xe8;" 
d="M33 172q0 71 10.5 131t35 115.5t72.5 87.5t115 32q163 0 163 -179q0 -68 -11 -126h-263q-2 -21 -2 -46q0 -102 55 -102t76 97h123q-44 -194 -204 -194q-170 0 -170 184zM168 320h138q2 29 2 39q0 82 -49 82q-64 0 -91 -121zM154 720l2 3h120l67 -132h-99z" />
    <glyph glyph-name="eacute" unicode="&#xe9;" 
d="M33 172q0 71 10.5 131t35 115.5t72.5 87.5t115 32q163 0 163 -179q0 -68 -11 -126h-263q-2 -21 -2 -46q0 -102 55 -102t76 97h123q-44 -194 -204 -194q-170 0 -170 184zM168 320h138q2 29 2 39q0 82 -49 82q-64 0 -91 -121zM298 723h120l1 -3l-108 -129h-99z" />
    <glyph glyph-name="ecircumflex" unicode="&#xea;" 
d="M33 172q0 71 10.5 131t35 115.5t72.5 87.5t115 32q163 0 163 -179q0 -68 -11 -126h-263q-2 -21 -2 -46q0 -102 55 -102t76 97h123q-44 -194 -204 -194q-170 0 -170 184zM168 320h138q2 29 2 39q0 82 -49 82q-64 0 -91 -121zM244 723h98l66 -135h-90l-34 69l-51 -69h-93z
" />
    <glyph glyph-name="edieresis" unicode="&#xeb;" 
d="M33 172q0 71 10.5 131t35 115.5t72.5 87.5t115 32q163 0 163 -179q0 -68 -11 -126h-263q-2 -21 -2 -46q0 -102 55 -102t76 97h123q-44 -194 -204 -194q-170 0 -170 184zM168 320h138q2 29 2 39q0 82 -49 82q-64 0 -91 -121zM331 723h100l-15 -109h-100zM156 723h100
l-15 -109h-99z" />
    <glyph glyph-name="igrave" unicode="&#xec;" horiz-adv-x="228" 
d="M96 526h119l-73 -526h-119zM44 720l2 3h120l67 -132h-99z" />
    <glyph glyph-name="iacute" unicode="&#xed;" horiz-adv-x="228" 
d="M96 526h119l-73 -526h-119zM187 723h120l1 -3l-108 -129h-99z" />
    <glyph glyph-name="icircumflex" unicode="&#xee;" horiz-adv-x="228" 
d="M96 526h119l-73 -526h-119zM133 723h98l66 -135h-90l-34 69l-51 -69h-93z" />
    <glyph glyph-name="idieresis" unicode="&#xef;" horiz-adv-x="228" 
d="M96 526h119l-73 -526h-119zM220 723h100l-15 -109h-100zM45 723h100l-15 -109h-99z" />
    <glyph glyph-name="eth" unicode="&#xf0;" horiz-adv-x="501" 
d="M33 182q0 167 63.5 261.5t156.5 94.5q30 0 52 -8l4 4q-9 25 -29 61l-129 -11l10 73l75 7q-18 24 -44 55l2 4h124q23 -23 43 -48l131 12l-10 -73l-76 -7q57 -107 57 -240q0 -191 -64 -285t-180 -94q-186 0 -186 194zM223 89q38 0 64 32.5t36 82.5t13 81.5t3 57.5
q0 94 -67 94q-38 0 -64 -32.5t-36 -82.5t-13 -81.5t-3 -57.5q0 -94 67 -94z" />
    <glyph glyph-name="ntilde" unicode="&#xf1;" horiz-adv-x="501" 
d="M96 526h97v-70q55 82 143 82q62 0 94.5 -35.5t32.5 -99.5q0 -9 -53 -403h-118q49 361 49 363q0 35 -13.5 50.5t-44.5 15.5q-36 0 -63.5 -30t-34.5 -83l-43 -316h-119zM205 601h-64q0 43 30 81q34 41 83 41q25 0 65 -18q38 -19 61 -19q33 0 44 37h65q0 -45 -32.5 -83.5
t-82.5 -38.5q-24 0 -63.5 18.5t-61.5 18.5q-33 0 -44 -37z" />
    <glyph glyph-name="ograve" unicode="&#xf2;" horiz-adv-x="501" 
d="M36 180q0 51 6 97.5t22.5 95.5t42.5 84t70.5 58t101.5 23q186 0 186 -195q0 -51 -6 -97t-22.5 -94.5t-42.5 -83.5t-70.5 -57.5t-101.5 -22.5q-186 0 -186 192zM159 183q0 -94 67 -94q38 0 64 32.5t36 82.5t13 81.5t3 57.5q0 94 -67 94q-38 0 -64 -32.5t-36 -82.5
t-13 -81.5t-3 -57.5zM176 720l2 3h120l67 -132h-99z" />
    <glyph glyph-name="oacute" unicode="&#xf3;" horiz-adv-x="501" 
d="M36 180q0 51 6 97.5t22.5 95.5t42.5 84t70.5 58t101.5 23q186 0 186 -195q0 -51 -6 -97t-22.5 -94.5t-42.5 -83.5t-70.5 -57.5t-101.5 -22.5q-186 0 -186 192zM159 183q0 -94 67 -94q38 0 64 32.5t36 82.5t13 81.5t3 57.5q0 94 -67 94q-38 0 -64 -32.5t-36 -82.5
t-13 -81.5t-3 -57.5zM320 723h120l1 -3l-108 -129h-99z" />
    <glyph glyph-name="ocircumflex" unicode="&#xf4;" horiz-adv-x="501" 
d="M36 180q0 51 6 97.5t22.5 95.5t42.5 84t70.5 58t101.5 23q186 0 186 -195q0 -51 -6 -97t-22.5 -94.5t-42.5 -83.5t-70.5 -57.5t-101.5 -22.5q-186 0 -186 192zM159 183q0 -94 67 -94q38 0 64 32.5t36 82.5t13 81.5t3 57.5q0 94 -67 94q-38 0 -64 -32.5t-36 -82.5
t-13 -81.5t-3 -57.5zM266 723h98l66 -135h-90l-34 69l-51 -69h-93z" />
    <glyph glyph-name="otilde" unicode="&#xf5;" horiz-adv-x="501" 
d="M36 180q0 51 6 97.5t22.5 95.5t42.5 84t70.5 58t101.5 23q186 0 186 -195q0 -51 -6 -97t-22.5 -94.5t-42.5 -83.5t-70.5 -57.5t-101.5 -22.5q-186 0 -186 192zM159 183q0 -94 67 -94q38 0 64 32.5t36 82.5t13 81.5t3 57.5q0 94 -67 94q-38 0 -64 -32.5t-36 -82.5
t-13 -81.5t-3 -57.5zM200 601h-64q0 43 30 81q34 41 83 41q25 0 65 -18q38 -19 61 -19q33 0 44 37h65q0 -45 -32.5 -83.5t-82.5 -38.5q-24 0 -63.5 18.5t-61.5 18.5q-33 0 -44 -37z" />
    <glyph glyph-name="odieresis" unicode="&#xf6;" horiz-adv-x="501" 
d="M36 180q0 51 6 97.5t22.5 95.5t42.5 84t70.5 58t101.5 23q186 0 186 -195q0 -51 -6 -97t-22.5 -94.5t-42.5 -83.5t-70.5 -57.5t-101.5 -22.5q-186 0 -186 192zM159 183q0 -94 67 -94q38 0 64 32.5t36 82.5t13 81.5t3 57.5q0 94 -67 94q-38 0 -64 -32.5t-36 -82.5
t-13 -81.5t-3 -57.5zM353 723h100l-15 -109h-100zM178 723h100l-15 -109h-99z" />
    <glyph glyph-name="divide" unicode="&#xf7;" horiz-adv-x="549" 
d="M252 470h104l-16 -111h-104zM40 307h482l-15 -104h-482zM207 151h104l-16 -110h-104z" />
    <glyph glyph-name="oslash" unicode="&#xf8;" horiz-adv-x="501" 
d="M36 -32l43 71q-43 46 -43 141q0 51 6 97.5t22.5 95.5t42.5 84t70.5 58t101.5 23q50 0 90 -16l22 36h75l-44 -73q43 -51 43 -142q0 -51 -6 -97t-22.5 -94.5t-42.5 -83.5t-70.5 -57.5t-101.5 -22.5q-52 0 -90 15l-21 -35h-75zM159 172l153 255q-17 10 -37 10
q-38 0 -64 -32.5t-36 -82.5t-13 -81.5t-3 -57.5v-11zM342 352l-153 -254q15 -9 37 -9q38 0 64 32.5t36 82.5t13 81.5t3 57.5v9z" />
    <glyph glyph-name="ugrave" unicode="&#xf9;" horiz-adv-x="501" 
d="M38 123q0 9 53 403h118q-49 -361 -49 -363q0 -35 13.5 -50.5t44.5 -15.5q36 0 63.5 30t34.5 83l43 316h119l-73 -526h-98v68q-57 -80 -142 -80q-62 0 -94.5 35.5t-32.5 99.5zM172 720l2 3h120l67 -132h-99z" />
    <glyph glyph-name="uacute" unicode="&#xfa;" horiz-adv-x="501" 
d="M38 123q0 9 53 403h118q-49 -361 -49 -363q0 -35 13.5 -50.5t44.5 -15.5q36 0 63.5 30t34.5 83l43 316h119l-73 -526h-98v68q-57 -80 -142 -80q-62 0 -94.5 35.5t-32.5 99.5zM316 723h120l1 -3l-108 -129h-99z" />
    <glyph glyph-name="ucircumflex" unicode="&#xfb;" horiz-adv-x="501" 
d="M38 123q0 9 53 403h118q-49 -361 -49 -363q0 -35 13.5 -50.5t44.5 -15.5q36 0 63.5 30t34.5 83l43 316h119l-73 -526h-98v68q-57 -80 -142 -80q-62 0 -94.5 35.5t-32.5 99.5zM262 723h98l66 -135h-90l-34 69l-51 -69h-93z" />
    <glyph glyph-name="udieresis" unicode="&#xfc;" horiz-adv-x="501" 
d="M38 123q0 9 53 403h118q-49 -361 -49 -363q0 -35 13.5 -50.5t44.5 -15.5q36 0 63.5 30t34.5 83l43 316h119l-73 -526h-98v68q-57 -80 -142 -80q-62 0 -94.5 35.5t-32.5 99.5zM349 723h100l-15 -109h-100zM174 723h100l-15 -109h-99z" />
    <glyph glyph-name="yacute" unicode="&#xfd;" 
d="M4 -81h54q60 0 91 81l-100 526h120l44 -247l14 -137h4q26 91 44 136l99 248h118l-211 -499q-42 -97 -93 -153t-120 -56q-22 0 -40.5 2t-26.5 4t-8 3zM305 723h120l1 -3l-108 -129h-99z" />
    <glyph glyph-name="thorn" unicode="&#xfe;" horiz-adv-x="501" 
d="M118 -172h-118l123 895h119l-35 -252q48 67 118 67q68 0 105.5 -47.5t37.5 -138.5q0 -178 -60.5 -271t-145.5 -93q-79 0 -112 69zM172 188q0 -91 65 -91q34 0 57.5 27t34 69t14.5 77.5t4 69.5q0 89 -63 89q-33 0 -57 -26.5t-35 -67.5t-15.5 -77t-4.5 -70z" />
    <glyph glyph-name="ydieresis" unicode="&#xff;" 
d="M4 -81h54q60 0 91 81l-100 526h120l44 -247l14 -137h4q26 91 44 136l99 248h118l-211 -499q-42 -97 -93 -153t-120 -56q-22 0 -40.5 2t-26.5 4t-8 3zM338 723h100l-15 -109h-100zM163 723h100l-15 -109h-99z" />
    <glyph glyph-name="Amacron" unicode="&#x100;" horiz-adv-x="592" 
d="M288 686h147l123 -686h-130l-22 135h-245l-59 -135h-128zM387 249l-30 188l-12 133h-4q-24 -84 -46 -133l-83 -188h175zM254 846h255l-13 -87h-255z" />
    <glyph glyph-name="amacron" unicode="&#x101;" 
d="M148 686h255l-13 -87h-255zM221 538q80 0 110 -75l20 63h93q-62 -398 -62 -409q0 -28 24 -28h18l-12 -85q-27 -16 -59 -16q-67 0 -83 70q-18 -35 -47.5 -52.5t-58.5 -17.5q-68 0 -105 47t-37 139q0 178 58.5 271t140.5 93zM195 91q29 0 51 27t32 69t14.5 79.5t4.5 71.5
q0 49 -12 73t-41 24t-51 -29.5t-32 -72.5t-15 -79.5t-5 -63.5q0 -99 54 -99z" />
    <glyph glyph-name="Abreve" unicode="&#x102;" horiz-adv-x="592" 
d="M288 686h147l123 -686h-130l-22 135h-245l-59 -135h-128zM387 249l-30 188l-12 133h-4q-24 -84 -46 -133l-83 -188h175zM377 776q-56 0 -90 29t-34 67q0 7 1 11h74q1 -12 16 -22.5t38 -10.5q24 0 43 10.5t22 22.5h74q-6 -40 -46.5 -73.5t-97.5 -33.5z" />
    <glyph glyph-name="abreve" unicode="&#x103;" 
d="M272 616q-56 0 -90 29t-34 67q0 7 1 11h74q2 -12 15 -22q17 -11 39 -11q24 0 43 10.5t22 22.5h74q-6 -40 -46.5 -73.5t-97.5 -33.5zM221 538q80 0 110 -75l20 63h93q-62 -398 -62 -409q0 -28 24 -28h18l-12 -85q-27 -16 -59 -16q-67 0 -83 70q-18 -35 -47.5 -52.5
t-58.5 -17.5q-68 0 -105 47t-37 139q0 178 58.5 271t140.5 93zM195 91q29 0 51 27t32 69t14.5 79.5t4.5 71.5q0 49 -12 73t-41 24t-51 -29.5t-32 -72.5t-15 -79.5t-5 -63.5q0 -99 54 -99z" />
    <glyph glyph-name="Aogonek" unicode="&#x104;" horiz-adv-x="592" 
d="M415 -113q0 64 58 113h-45l-22 135h-245l-59 -135h-128l314 686h147l123 -686q-41 -41 -41 -81t39 -40h22l-8 -55q-37 -14 -68 -14q-36 0 -61.5 18t-25.5 59zM387 249l-30 188l-12 133h-4q-24 -84 -46 -133l-83 -188h175z" />
    <glyph glyph-name="aogonek" unicode="&#x105;" 
d="M164 -12q-68 0 -105 47t-37 139q0 178 58.5 271t140.5 93q80 0 110 -75l20 63h93q-62 -398 -62 -409q0 -28 24 -28h18l-12 -85q-41 -41 -41 -81t39 -40h22l-8 -55q-37 -14 -68 -14q-36 0 -61.5 18t-25.5 59q0 58 48 104q-36 15 -47 63q-18 -35 -47.5 -52.5t-58.5 -17.5z
M195 91q29 0 51 27t32 69t14.5 79.5t4.5 71.5q0 49 -12 73t-41 24t-51 -29.5t-32 -72.5t-15 -79.5t-5 -63.5q0 -99 54 -99z" />
    <glyph glyph-name="Cacute" unicode="&#x106;" horiz-adv-x="592" 
d="M45 250q0 84 17 160t51.5 142.5t96.5 106t143 39.5q111 0 173.5 -64.5t62.5 -189.5v-13h-130v18q0 66 -28 102.5t-78 36.5q-52 0 -89 -33t-55.5 -86.5t-26.5 -106t-8 -107.5q0 -157 113 -157q63 0 101 43.5t53 112.5h125q-25 -117 -96 -191.5t-186 -74.5t-177 65.5
t-62 196.5zM396 883h120l1 -3l-108 -129h-99z" />
    <glyph glyph-name="cacute" unicode="&#x107;" 
d="M36 172q0 45 4 85t13.5 83t27 77.5t42 62t62 43t84.5 15.5q85 0 124 -47.5t39 -147.5v-15h-122v15q0 48 -11 71t-39 23q-30 0 -52 -32t-32 -78t-14 -80.5t-4 -55.5q0 -53 11.5 -77.5t42.5 -24.5q30 0 51 29.5t31 76.5h119q-21 -95 -69.5 -151t-140.5 -56q-167 0 -167 184
zM304 723h120l1 -3l-108 -129h-99z" />
    <glyph glyph-name="Ccircumflex" unicode="&#x108;" horiz-adv-x="592" 
d="M45 250q0 84 17 160t51.5 142.5t96.5 106t143 39.5q111 0 173.5 -64.5t62.5 -189.5v-13h-130v18q0 66 -28 102.5t-78 36.5q-52 0 -89 -33t-55.5 -86.5t-26.5 -106t-8 -107.5q0 -157 113 -157q63 0 101 43.5t53 112.5h125q-25 -117 -96 -191.5t-186 -74.5t-177 65.5
t-62 196.5zM342 883h98l66 -135h-90l-34 69l-51 -69h-93z" />
    <glyph glyph-name="ccircumflex" unicode="&#x109;" 
d="M36 172q0 45 4 85t13.5 83t27 77.5t42 62t62 43t84.5 15.5q85 0 124 -47.5t39 -147.5v-15h-122v15q0 48 -11 71t-39 23q-30 0 -52 -32t-32 -78t-14 -80.5t-4 -55.5q0 -53 11.5 -77.5t42.5 -24.5q30 0 51 29.5t31 76.5h119q-21 -95 -69.5 -151t-140.5 -56q-167 0 -167 184
zM250 723h98l66 -135h-90l-34 69l-51 -69h-93z" />
    <glyph glyph-name="Cdotaccent" unicode="&#x10a;" horiz-adv-x="592" 
d="M45 250q0 84 17 160t51.5 142.5t96.5 106t143 39.5q111 0 173.5 -64.5t62.5 -189.5v-13h-130v18q0 66 -28 102.5t-78 36.5q-52 0 -89 -33t-55.5 -86.5t-26.5 -106t-8 -107.5q0 -157 113 -157q63 0 101 43.5t53 112.5h125q-25 -117 -96 -191.5t-186 -74.5t-177 65.5
t-62 196.5zM339 883h107l-17 -115h-107z" />
    <glyph glyph-name="cdotaccent" unicode="&#x10b;" 
d="M36 172q0 45 4 85t13.5 83t27 77.5t42 62t62 43t84.5 15.5q85 0 124 -47.5t39 -147.5v-15h-122v15q0 48 -11 71t-39 23q-30 0 -52 -32t-32 -78t-14 -80.5t-4 -55.5q0 -53 11.5 -77.5t42.5 -24.5q30 0 51 29.5t31 76.5h119q-21 -95 -69.5 -151t-140.5 -56q-167 0 -167 184
zM246 723h107l-17 -115h-107z" />
    <glyph glyph-name="Ccaron" unicode="&#x10c;" horiz-adv-x="592" 
d="M45 250q0 84 17 160t51.5 142.5t96.5 106t143 39.5q111 0 173.5 -64.5t62.5 -189.5v-13h-130v18q0 66 -28 102.5t-78 36.5q-52 0 -89 -33t-55.5 -86.5t-26.5 -106t-8 -107.5q0 -157 113 -157q63 0 101 43.5t53 112.5h125q-25 -117 -96 -191.5t-186 -74.5t-177 65.5
t-62 196.5zM256 883h90l35 -69l50 69h94l-104 -135h-98z" />
    <glyph glyph-name="ccaron" unicode="&#x10d;" 
d="M36 172q0 45 4 85t13.5 83t27 77.5t42 62t62 43t84.5 15.5q85 0 124 -47.5t39 -147.5v-15h-122v15q0 48 -11 71t-39 23q-30 0 -52 -32t-32 -78t-14 -80.5t-4 -55.5q0 -53 11.5 -77.5t42.5 -24.5q30 0 51 29.5t31 76.5h119q-21 -95 -69.5 -151t-140.5 -56q-167 0 -167 184
zM163 723h90l35 -69l50 69h94l-104 -135h-98z" />
    <glyph glyph-name="Dcaron" unicode="&#x10e;" horiz-adv-x="592" 
d="M251 883h90l35 -69l50 69h94l-104 -135h-98zM264 0h-236l96 686h211q116 0 178.5 -66t62.5 -194q0 -58 -10.5 -116t-34.5 -114.5t-59 -99.5t-89 -69.5t-119 -26.5zM317 572h-82l-64 -458h82q54 0 94 29.5t60.5 77.5t30 97t9.5 99q0 76 -34 115.5t-96 39.5z" />
    <glyph glyph-name="dcaron" unicode="&#x10f;" horiz-adv-x="607" 
d="M36 174q0 178 60.5 271t145.5 93q80 0 111 -69l37 254h118l-100 -723h-97v76q-52 -88 -132 -88q-68 0 -105.5 47.5t-37.5 138.5zM220 97q33 0 57 26.5t35 67.5t15.5 77t4.5 70q0 91 -61 91q-35 0 -59.5 -27t-35 -69t-15 -77.5t-4.5 -69.5q0 -89 63 -89zM592 549h-51
l19 137h138l-17 -125l-90 -168h-72z" />
    <glyph glyph-name="Dcroat" unicode="&#x110;" horiz-adv-x="592" 
d="M264 0h-236l43 312h-48l11 85h49l41 289h211q116 0 178.5 -66t62.5 -194q0 -58 -10.5 -116t-34.5 -114.5t-59 -99.5t-89 -69.5t-119 -26.5zM317 572h-82l-25 -175h124l-12 -85h-124l-27 -198h82q54 0 94 29.5t60.5 77.5t30 97t9.5 99q0 76 -34 115.5t-96 39.5z" />
    <glyph glyph-name="dcroat" unicode="&#x111;" horiz-adv-x="501" 
d="M36 174q0 178 60.5 271t145.5 93q80 0 111 -69l17 114h-131l12 87h131l8 53h118l-8 -53h58l-12 -87h-58l-80 -583h-97v76q-52 -88 -132 -88q-68 0 -105.5 47.5t-37.5 138.5zM220 97q33 0 57 26.5t35 67.5t15.5 77t4.5 70q0 91 -61 91q-35 0 -59.5 -27t-35 -69t-15 -77.5
t-4.5 -69.5q0 -89 63 -89z" />
    <glyph glyph-name="Emacron" unicode="&#x112;" horiz-adv-x="547" 
d="M239 846h255l-13 -87h-255zM466 0h-438l96 686h432l-16 -114h-305l-23 -164h262l-16 -114h-262l-26 -180h312z" />
    <glyph glyph-name="emacron" unicode="&#x113;" 
d="M33 172q0 71 10.5 131t35 115.5t72.5 87.5t115 32q163 0 163 -179q0 -68 -11 -126h-263q-2 -21 -2 -46q0 -102 55 -102t76 97h123q-44 -194 -204 -194q-170 0 -170 184zM168 320h138q2 29 2 39q0 82 -49 82q-64 0 -91 -121zM160 686h255l-13 -87h-255z" />
    <glyph glyph-name="Ebreve" unicode="&#x114;" horiz-adv-x="547" 
d="M362 776q-56 0 -90 29t-34 67q0 7 1 11h74q1 -12 16 -22.5t38 -10.5q24 0 43 10.5t22 22.5h74q-6 -40 -46.5 -73.5t-97.5 -33.5zM466 0h-438l96 686h432l-16 -114h-305l-23 -164h262l-16 -114h-262l-26 -180h312z" />
    <glyph glyph-name="ebreve" unicode="&#x115;" 
d="M33 172q0 71 10.5 131t35 115.5t72.5 87.5t115 32q163 0 163 -179q0 -68 -11 -126h-263q-2 -21 -2 -46q0 -102 55 -102t76 97h123q-44 -194 -204 -194q-170 0 -170 184zM168 320h138q2 29 2 39q0 82 -49 82q-64 0 -91 -121zM283 616q-56 0 -90 29t-34 67q0 7 1 11h74
q2 -12 15 -22q17 -11 39 -11q24 0 43 10.5t22 22.5h74q-6 -40 -46.5 -73.5t-97.5 -33.5z" />
    <glyph glyph-name="Edotaccent" unicode="&#x116;" horiz-adv-x="547" 
d="M319 883h107l-17 -115h-107zM466 0h-438l96 686h432l-16 -114h-305l-23 -164h262l-16 -114h-262l-26 -180h312z" />
    <glyph glyph-name="edotaccent" unicode="&#x117;" 
d="M33 172q0 71 10.5 131t35 115.5t72.5 87.5t115 32q163 0 163 -179q0 -68 -11 -126h-263q-2 -21 -2 -46q0 -102 55 -102t76 97h123q-44 -194 -204 -194q-170 0 -170 184zM168 320h138q2 29 2 39q0 82 -49 82q-64 0 -91 -121zM240 723h107l-17 -115h-107z" />
    <glyph glyph-name="Eogonek" unicode="&#x118;" horiz-adv-x="547" 
d="M323 -113q0 64 58 113h-353l96 686h432l-16 -114h-305l-23 -164h262l-16 -114h-262l-26 -180h312l-16 -114q-41 -41 -41 -81t39 -40h22l-8 -55q-37 -14 -68 -14q-36 0 -61.5 18t-25.5 59z" />
    <glyph glyph-name="eogonek" unicode="&#x119;" 
d="M144 -108q0 53 41 96q-152 10 -152 184q0 71 10.5 131t35 115.5t72.5 87.5t115 32q163 0 163 -179q0 -68 -11 -126h-263q-2 -21 -2 -46q0 -102 55 -102t76 97h123q-31 -136 -120 -177q-41 -41 -41 -81t39 -40h22l-8 -55q-37 -14 -68 -14q-36 0 -61.5 18t-25.5 59z
M168 320h138q2 29 2 39q0 82 -49 82q-64 0 -91 -121z" />
    <glyph glyph-name="Ecaron" unicode="&#x11a;" horiz-adv-x="547" 
d="M237 883h90l35 -69l50 69h94l-104 -135h-98zM466 0h-438l96 686h432l-16 -114h-305l-23 -164h262l-16 -114h-262l-26 -180h312z" />
    <glyph glyph-name="ecaron" unicode="&#x11b;" 
d="M33 172q0 71 10.5 131t35 115.5t72.5 87.5t115 32q163 0 163 -179q0 -68 -11 -126h-263q-2 -21 -2 -46q0 -102 55 -102t76 97h123q-44 -194 -204 -194q-170 0 -170 184zM168 320h138q2 29 2 39q0 82 -49 82q-64 0 -91 -121zM157 723h90l35 -69l50 69h94l-104 -135h-98z
" />
    <glyph glyph-name="Gcircumflex" unicode="&#x11c;" horiz-adv-x="638" 
d="M45 250q0 80 17.5 155.5t54 143t101 108.5t149.5 41q116 0 181 -63.5t65 -187.5h-130v9q0 64 -29.5 98t-81.5 34q-46 0 -82 -22.5t-57.5 -57.5t-35 -81t-18.5 -88t-5 -84q0 -157 123 -157q69 0 109 44t53 121h-153l16 110h282l-52 -373h-82l-12 76q-75 -88 -189 -88
q-108 0 -166 65.5t-58 196.5zM347 883h98l66 -135h-90l-34 69l-51 -69h-93z" />
    <glyph glyph-name="gcircumflex" unicode="&#x11d;" horiz-adv-x="501" 
d="M262 723h98l66 -135h-90l-34 69l-51 -69h-93zM241 538q89 0 122 -82l23 70h94l-67 -477q-17 -121 -73.5 -176t-155.5 -55q-86 0 -131.5 45.5t-45.5 112.5h122q0 -27 15 -42t48 -15q84 0 100 106l8 54q-48 -65 -119 -65q-64 0 -104.5 43.5t-40.5 129.5q0 55 10 111
t32 112.5t64.5 92t98.5 35.5zM223 117q32 0 55 24t34 61.5t16 71.5t5 64q0 91 -65 91q-34 0 -57.5 -25.5t-34 -66.5t-14.5 -75t-4 -66q0 -79 65 -79z" />
    <glyph glyph-name="Gbreve" unicode="&#x11e;" horiz-adv-x="638" 
d="M45 250q0 80 17.5 155.5t54 143t101 108.5t149.5 41q116 0 181 -63.5t65 -187.5h-130v9q0 64 -29.5 98t-81.5 34q-46 0 -82 -22.5t-57.5 -57.5t-35 -81t-18.5 -88t-5 -84q0 -157 123 -157q69 0 109 44t53 121h-153l16 110h282l-52 -373h-82l-12 76q-75 -88 -189 -88
q-108 0 -166 65.5t-58 196.5zM386 776q-56 0 -90 29t-34 67q0 7 1 11h74q1 -12 16 -22.5t38 -10.5q24 0 43 10.5t22 22.5h74q-6 -40 -46.5 -73.5t-97.5 -33.5z" />
    <glyph glyph-name="gbreve" unicode="&#x11f;" horiz-adv-x="501" 
d="M301 616q-56 0 -90 29t-34 67q0 7 1 11h74q2 -12 15 -22q17 -11 39 -11q24 0 43 10.5t22 22.5h74q-6 -40 -46.5 -73.5t-97.5 -33.5zM241 538q89 0 122 -82l23 70h94l-67 -477q-17 -121 -73.5 -176t-155.5 -55q-86 0 -131.5 45.5t-45.5 112.5h122q0 -27 15 -42t48 -15
q84 0 100 106l8 54q-48 -65 -119 -65q-64 0 -104.5 43.5t-40.5 129.5q0 55 10 111t32 112.5t64.5 92t98.5 35.5zM223 117q32 0 55 24t34 61.5t16 71.5t5 64q0 91 -65 91q-34 0 -57.5 -25.5t-34 -66.5t-14.5 -75t-4 -66q0 -79 65 -79z" />
    <glyph glyph-name="Gdotaccent" unicode="&#x120;" horiz-adv-x="638" 
d="M45 250q0 80 17.5 155.5t54 143t101 108.5t149.5 41q116 0 181 -63.5t65 -187.5h-130v9q0 64 -29.5 98t-81.5 34q-46 0 -82 -22.5t-57.5 -57.5t-35 -81t-18.5 -88t-5 -84q0 -157 123 -157q69 0 109 44t53 121h-153l16 110h282l-52 -373h-82l-12 76q-75 -88 -189 -88
q-108 0 -166 65.5t-58 196.5zM343 883h107l-17 -115h-107z" />
    <glyph glyph-name="gdotaccent" unicode="&#x121;" horiz-adv-x="501" 
d="M258 723h107l-17 -115h-107zM241 538q89 0 122 -82l23 70h94l-67 -477q-17 -121 -73.5 -176t-155.5 -55q-86 0 -131.5 45.5t-45.5 112.5h122q0 -27 15 -42t48 -15q84 0 100 106l8 54q-48 -65 -119 -65q-64 0 -104.5 43.5t-40.5 129.5q0 55 10 111t32 112.5t64.5 92
t98.5 35.5zM223 117q32 0 55 24t34 61.5t16 71.5t5 64q0 91 -65 91q-34 0 -57.5 -25.5t-34 -66.5t-14.5 -75t-4 -66q0 -79 65 -79z" />
    <glyph glyph-name="Gcommaaccent" unicode="&#x122;" horiz-adv-x="638" 
d="M45 250q0 80 17.5 155.5t54 143t101 108.5t149.5 41q116 0 181 -63.5t65 -187.5h-130v9q0 64 -29.5 98t-81.5 34q-46 0 -82 -22.5t-57.5 -57.5t-35 -81t-18.5 -88t-5 -84q0 -157 123 -157q69 0 109 44t53 121h-153l16 110h282l-52 -373h-82l-12 76q-75 -88 -189 -88
q-108 0 -166 65.5t-58 196.5zM327 -55l-16 -112l-61 -96h-65l46 85h-45l17 123h124z" />
    <glyph glyph-name="gcommaaccent" unicode="&#x123;" horiz-adv-x="501" 
d="M225 590l16 112l61 96h65l-46 -85h45l-17 -123h-124zM241 538q89 0 122 -82l23 70h94l-67 -477q-17 -121 -73.5 -176t-155.5 -55q-86 0 -131.5 45.5t-45.5 112.5h122q0 -27 15 -42t48 -15q84 0 100 106l8 54q-48 -65 -119 -65q-64 0 -104.5 43.5t-40.5 129.5q0 55 10 111
t32 112.5t64.5 92t98.5 35.5zM223 117q32 0 55 24t34 61.5t16 71.5t5 64q0 91 -65 91q-34 0 -57.5 -25.5t-34 -66.5t-14.5 -75t-4 -66q0 -79 65 -79z" />
    <glyph glyph-name="Hcircumflex" unicode="&#x124;" horiz-adv-x="592" 
d="M338 883h98l66 -135h-90l-34 69l-51 -69h-93zM368 0l42 294h-214l-41 -294h-127l96 686h127l-39 -278h214l38 278h127l-96 -686h-127z" />
    <glyph glyph-name="hcircumflex" unicode="&#x125;" horiz-adv-x="501" 
d="M123 723h119l-36 -252q55 67 130 67q62 0 94.5 -35.5t32.5 -99.5q0 -9 -53 -403h-118q49 353 49 363q0 35 -13.5 50.5t-44.5 15.5q-36 0 -63 -30t-34 -83l-44 -316h-119zM154 883h98l66 -135h-90l-34 69l-51 -69h-93z" />
    <glyph glyph-name="Hbar" unicode="&#x126;" horiz-adv-x="592" 
d="M124 686h127l-15 -109h213l15 109h127l-16 -109h50l-14 -87h-48l-68 -490h-127l41 286h-214l-40 -286h-127l68 490h-49l13 87h49zM211 400h214l12 90h-214z" />
    <glyph glyph-name="hbar" unicode="&#x127;" horiz-adv-x="501" 
d="M123 723h119l-8 -53h130l-12 -87h-130l-16 -112q55 67 130 67q62 0 94.5 -35.5t32.5 -99.5q0 -9 -53 -403h-118q49 353 49 363q0 35 -13.5 50.5t-44.5 15.5q-36 0 -63 -30t-34 -83l-44 -316h-119l81 583h-59l13 87h58z" />
    <glyph glyph-name="Itilde" unicode="&#x128;" horiz-adv-x="228" 
d="M114 686h127l-96 -686h-127zM91 761h-64q0 44 32 83t81 39q24 0 64 -18.5t62 -18.5q33 0 44 37h65q0 -45 -32.5 -83.5t-82.5 -38.5q-24 0 -63.5 18.5t-61.5 18.5q-33 0 -44 -37z" />
    <glyph glyph-name="itilde" unicode="&#x129;" horiz-adv-x="228" 
d="M96 526h119l-73 -526h-119zM67 601h-64q0 43 30 81q34 41 83 41q25 0 65 -18q38 -19 61 -19q33 0 44 37h65q0 -45 -32.5 -83.5t-82.5 -38.5q-24 0 -63.5 18.5t-61.5 18.5q-33 0 -44 -37z" />
    <glyph glyph-name="Imacron" unicode="&#x12a;" horiz-adv-x="228" 
d="M114 686h127l-96 -686h-127zM72 846h255l-13 -87h-255z" />
    <glyph glyph-name="imacron" unicode="&#x12b;" horiz-adv-x="228" 
d="M96 526h119l-73 -526h-119zM49 686h255l-13 -87h-255z" />
    <glyph glyph-name="Ibreve" unicode="&#x12c;" horiz-adv-x="228" 
d="M114 686h127l-96 -686h-127zM195 776q-56 0 -90 29t-34 67q0 7 1 11h74q1 -12 16 -22.5t38 -10.5q24 0 43 10.5t22 22.5h74q-6 -40 -46.5 -73.5t-97.5 -33.5z" />
    <glyph glyph-name="ibreve" unicode="&#x12d;" horiz-adv-x="228" 
d="M96 526h119l-73 -526h-119zM172 616q-56 0 -90 29t-34 67q0 7 1 11h74q2 -12 15 -22q16 -11 39 -11q24 0 43 10.5t22 22.5h74q-6 -40 -46.5 -73.5t-97.5 -33.5z" />
    <glyph glyph-name="Iogonek" unicode="&#x12e;" horiz-adv-x="228" 
d="M2 -113q0 64 58 113h-42l96 686h127l-96 -686q-41 -41 -41 -81t39 -40h22l-8 -55q-37 -14 -68 -14q-36 0 -61.5 18t-25.5 59z" />
    <glyph glyph-name="iogonek" unicode="&#x12f;" horiz-adv-x="228" 
d="M-1 -113q0 64 58 113h-34l73 526h119l-73 -526q-41 -41 -41 -81t39 -40h22l-8 -55q-37 -14 -68 -14q-36 0 -61.5 18t-25.5 59zM129 723h107l-17 -115h-107z" />
    <glyph glyph-name="Idotaccent" unicode="&#x130;" horiz-adv-x="228" 
d="M114 686h127l-96 -686h-127zM153 883h107l-17 -115h-107z" />
    <glyph glyph-name="dotlessi" unicode="&#x131;" horiz-adv-x="228" 
d="M96 526h119l-73 -526h-119z" />
    <glyph glyph-name="IJ" unicode="&#x132;" horiz-adv-x="684" 
d="M114 686h127l-96 -686h-127zM240 216h121q-7 -48 -7 -58q0 -60 62 -60q59 0 70 75l72 513h127l-74 -523q-12 -85 -62 -130t-133 -45q-90 0 -138 36t-48 105q0 15 10 87z" />
    <glyph glyph-name="ij" unicode="&#x133;" 
d="M123 723h119l-15 -109h-119zM96 526h119l-73 -526h-119zM351 723h118l-15 -109h-118zM323 526h119l-79 -567q-9 -61 -41.5 -101t-97.5 -40q-48 0 -86 12l12 89h43q45 0 53 48z" />
    <glyph glyph-name="Jcircumflex" unicode="&#x134;" 
d="M381 883h98l66 -135h-90l-34 69l-51 -69h-93zM12 216h121q-7 -48 -7 -58q0 -60 62 -60q59 0 70 75l72 513h127l-74 -523q-12 -85 -62 -130t-133 -45q-90 0 -138 36t-48 105q0 15 10 87z" />
    <glyph glyph-name="jcircumflex" unicode="&#x135;" horiz-adv-x="228" 
d="M95 526h119l-79 -567q-9 -61 -41.5 -101t-97.5 -40q-48 0 -86 12l12 89h43q45 0 53 48zM131 723h98l66 -135h-90l-34 69l-51 -69h-93z" />
    <glyph glyph-name="Kcommaaccent" unicode="&#x136;" horiz-adv-x="592" 
d="M317 -55l-16 -112l-61 -96h-65l46 85h-45l17 123h124zM252 686l-48 -338l288 338h150l-243 -281l153 -405h-140l-108 307l-124 -132l-24 -175h-128l96 686h128z" />
    <glyph glyph-name="kcommaaccent" unicode="&#x137;" 
d="M123 723h119l-55 -394l166 197h135l-184 -216l118 -310h-126l-76 215l-56 -55l-22 -160h-119zM258 -55l-16 -112l-61 -96h-65l46 85h-45l17 123h124z" />
    <glyph glyph-name="kgreenlandic" unicode="&#x138;" horiz-adv-x="464" 
d="M96 525h118l-27 -196l166 197h135l-184 -216l118 -310h-126l-76 215l-56 -55l-22 -160h-119z" />
    <glyph glyph-name="Lacute" unicode="&#x139;" horiz-adv-x="501" 
d="M213 883h120l1 -3l-108 -129h-99zM28 0l96 686h127l-79 -566h287l-17 -120h-414z" />
    <glyph glyph-name="lacute" unicode="&#x13a;" horiz-adv-x="228" 
d="M122 723h119l-100 -723h-119zM209 883h120l1 -3l-108 -129h-99z" />
    <glyph glyph-name="Lcommaaccent" unicode="&#x13b;" horiz-adv-x="501" 
d="M317 -55l-16 -112l-61 -96h-65l46 85h-45l17 123h124zM28 0l96 686h127l-79 -566h287l-17 -120h-414z" />
    <glyph glyph-name="lcommaaccent" unicode="&#x13c;" horiz-adv-x="228" 
d="M122 723h119l-100 -723h-119zM135 -55l-16 -112l-61 -96h-65l46 85h-45l17 123h124z" />
    <glyph glyph-name="Lcaron" unicode="&#x13d;" horiz-adv-x="501" 
d="M383 549h-51l19 137h138l-17 -125l-90 -168h-72zM28 0l96 686h127l-79 -566h287l-17 -120h-414z" />
    <glyph glyph-name="lcaron" unicode="&#x13e;" horiz-adv-x="325" 
d="M122 723h119l-100 -723h-119zM321 549h-51l19 137h138l-17 -125l-90 -168h-72z" />
    <glyph glyph-name="Ldot" unicode="&#x13f;" horiz-adv-x="501" 
d="M348 526h108l-18 -115h-106zM28 0l96 686h127l-79 -566h287l-17 -120h-414z" />
    <glyph glyph-name="ldot" unicode="&#x140;" horiz-adv-x="334" 
d="M122 723h119l-100 -723h-119zM246 409h121l-19 -131h-121z" />
    <glyph glyph-name="Lslash" unicode="&#x141;" horiz-adv-x="501" 
d="M124 686h127l-32 -227l128 101l-14 -108l-129 -101l-32 -231h287l-17 -120h-414l34 240l-72 -56l13 106l74 57z" />
    <glyph glyph-name="lslash" unicode="&#x142;" horiz-adv-x="228" 
d="M122 723h119l-38 -279l88 70l-14 -107l-90 -71l-46 -336h-119l32 232l-76 -60l13 106l78 61z" />
    <glyph glyph-name="Nacute" unicode="&#x143;" horiz-adv-x="592" 
d="M392 883h120l1 -3l-108 -129h-99zM495 0h-113l-157 378l-22 64l-4 -3q-3 -39 -6 -57l-53 -382h-112l96 686h112l157 -378l22 -64l3 3q5 46 7 57l53 382h113z" />
    <glyph glyph-name="nacute" unicode="&#x144;" horiz-adv-x="501" 
d="M96 526h97v-70q55 82 143 82q62 0 94.5 -35.5t32.5 -99.5q0 -9 -53 -403h-118q49 361 49 363q0 35 -13.5 50.5t-44.5 15.5q-36 0 -63.5 -30t-34.5 -83l-43 -316h-119zM325 723h120l1 -3l-108 -129h-99z" />
    <glyph glyph-name="Ncommaaccent" unicode="&#x145;" horiz-adv-x="592" 
d="M317 -55l-16 -112l-61 -96h-65l46 85h-45l17 123h124zM495 0h-113l-157 378l-22 64l-4 -3q-3 -39 -6 -57l-53 -382h-112l96 686h112l157 -378l22 -64l3 3q5 46 7 57l53 382h113z" />
    <glyph glyph-name="ncommaaccent" unicode="&#x146;" horiz-adv-x="501" 
d="M96 526h97v-70q55 82 143 82q62 0 94.5 -35.5t32.5 -99.5q0 -9 -53 -403h-118q49 361 49 363q0 35 -13.5 50.5t-44.5 15.5q-36 0 -63.5 -30t-34.5 -83l-43 -316h-119zM274 -55l-16 -112l-61 -96h-65l46 85h-45l17 123h124z" />
    <glyph glyph-name="Ncaron" unicode="&#x147;" horiz-adv-x="592" 
d="M251 883h90l35 -69l50 69h94l-104 -135h-98zM495 0h-113l-157 378l-22 64l-4 -3q-3 -39 -6 -57l-53 -382h-112l96 686h112l157 -378l22 -64l3 3q5 46 7 57l53 382h113z" />
    <glyph glyph-name="ncaron" unicode="&#x148;" horiz-adv-x="501" 
d="M96 526h97v-70q55 82 143 82q62 0 94.5 -35.5t32.5 -99.5q0 -9 -53 -403h-118q49 361 49 363q0 35 -13.5 50.5t-44.5 15.5q-36 0 -63.5 -30t-34.5 -83l-43 -316h-119zM184 723h90l35 -69l50 69h94l-104 -135h-98z" />
    <glyph glyph-name="napostrophe" unicode="&#x149;" horiz-adv-x="700" 
d="M257 686l-16 -112l-60 -95h-65l46 84h-46l17 123h124zM294 526h97v-70q55 82 143 82q62 0 94.5 -35.5t32.5 -99.5q0 -9 -53 -403h-118q49 361 49 363q0 35 -13.5 50.5t-44.5 15.5q-36 0 -63.5 -30t-34.5 -83l-43 -316h-119z" />
    <glyph glyph-name="Eng" unicode="&#x14a;" horiz-adv-x="604" 
d="M320 -81q45 0 53 48l6 40l-154 371l-22 64l-4 -3q-3 -39 -6 -57l-53 -382h-112l96 686h112l157 -378l22 -64l3 3q5 46 7 57l53 382h113l-102 -727q-20 -141 -138 -141q-48 0 -86 12l12 89h43z" />
    <glyph glyph-name="eng" unicode="&#x14b;" horiz-adv-x="501" 
d="M96 526h97v-70q55 82 143 82q62 0 94.5 -35.5t32.5 -99.5q0 -37 -58 -444q-9 -61 -42 -101t-98 -40q-48 0 -86 12l12 89h43q45 0 53 48q54 365 54 396q0 35 -13.5 50.5t-44.5 15.5q-36 0 -63.5 -30t-34.5 -83l-43 -316h-119z" />
    <glyph glyph-name="Omacron" unicode="&#x14c;" horiz-adv-x="638" 
d="M45 250q0 80 17.5 155.5t54 143t101.5 108.5t150 41q123 0 189 -65.5t66 -197.5q0 -80 -18 -155.5t-54.5 -142.5t-101.5 -108t-150 -41q-122 0 -188 65.5t-66 196.5zM174 255q0 -157 120 -157q57 0 98.5 33t62 86.5t29.5 106t9 106.5q0 158 -120 158q-57 0 -98.5 -33
t-62 -86.5t-29.5 -106.5t-9 -107zM278 846h255l-13 -87h-255z" />
    <glyph glyph-name="omacron" unicode="&#x14d;" horiz-adv-x="501" 
d="M36 180q0 51 6 97.5t22.5 95.5t42.5 84t70.5 58t101.5 23q186 0 186 -195q0 -51 -6 -97t-22.5 -94.5t-42.5 -83.5t-70.5 -57.5t-101.5 -22.5q-186 0 -186 192zM159 183q0 -94 67 -94q38 0 64 32.5t36 82.5t13 81.5t3 57.5q0 94 -67 94q-38 0 -64 -32.5t-36 -82.5
t-13 -81.5t-3 -57.5zM182 686h255l-13 -87h-255z" />
    <glyph glyph-name="Obreve" unicode="&#x14e;" horiz-adv-x="638" 
d="M45 250q0 80 17.5 155.5t54 143t101.5 108.5t150 41q123 0 189 -65.5t66 -197.5q0 -80 -18 -155.5t-54.5 -142.5t-101.5 -108t-150 -41q-122 0 -188 65.5t-66 196.5zM174 255q0 -157 120 -157q57 0 98.5 33t62 86.5t29.5 106t9 106.5q0 158 -120 158q-57 0 -98.5 -33
t-62 -86.5t-29.5 -106.5t-9 -107zM401 776q-56 0 -90 29t-34 67q0 7 1 11h74q1 -12 16 -22.5t38 -10.5q24 0 43 10.5t22 22.5h74q-6 -40 -46.5 -73.5t-97.5 -33.5z" />
    <glyph glyph-name="obreve" unicode="&#x14f;" horiz-adv-x="501" 
d="M36 180q0 51 6 97.5t22.5 95.5t42.5 84t70.5 58t101.5 23q186 0 186 -195q0 -51 -6 -97t-22.5 -94.5t-42.5 -83.5t-70.5 -57.5t-101.5 -22.5q-186 0 -186 192zM159 183q0 -94 67 -94q38 0 64 32.5t36 82.5t13 81.5t3 57.5q0 94 -67 94q-38 0 -64 -32.5t-36 -82.5
t-13 -81.5t-3 -57.5zM305 616q-56 0 -90 29t-34 67q0 7 1 11h74q2 -12 15 -22q17 -11 39 -11q24 0 43 10.5t22 22.5h74q-6 -40 -46.5 -73.5t-97.5 -33.5z" />
    <glyph glyph-name="Ohungarumlaut" unicode="&#x150;" horiz-adv-x="638" 
d="M45 250q0 80 17.5 155.5t54 143t101.5 108.5t150 41q123 0 189 -65.5t66 -197.5q0 -80 -18 -155.5t-54.5 -142.5t-101.5 -108t-150 -41q-122 0 -188 65.5t-66 196.5zM174 255q0 -157 120 -157q57 0 98.5 33t62 86.5t29.5 106t9 106.5q0 158 -120 158q-57 0 -98.5 -33
t-62 -86.5t-29.5 -106.5t-9 -107zM475 883h100l1 -3l-84 -129h-79zM335 883h100l1 -3l-84 -129h-79z" />
    <glyph glyph-name="ohungarumlaut" unicode="&#x151;" horiz-adv-x="501" 
d="M36 180q0 51 6 97.5t22.5 95.5t42.5 84t70.5 58t101.5 23q186 0 186 -195q0 -51 -6 -97t-22.5 -94.5t-42.5 -83.5t-70.5 -57.5t-101.5 -22.5q-186 0 -186 192zM159 183q0 -94 67 -94q38 0 64 32.5t36 82.5t13 81.5t3 57.5q0 94 -67 94q-38 0 -64 -32.5t-36 -82.5
t-13 -81.5t-3 -57.5zM378 723h100l1 -3l-84 -129h-79zM238 723h100l1 -3l-84 -129h-79z" />
    <glyph glyph-name="OE" unicode="&#x152;" horiz-adv-x="820" 
d="M40 232q0 70 13 144t41.5 149.5t84 124t129.5 48.5q104 0 154 -74l9 62h375l-16 -114h-248l-23 -164h205l-16 -114h-205l-26 -180h255l-15 -114h-382l9 61q-66 -73 -159 -73q-89 0 -137 61t-48 183zM183 368q-14 -96 -14 -135q0 -135 97 -135q62 0 99 52t53 168
q14 104 14 135q0 72 -26 103.5t-79 31.5q-58 0 -93 -53.5t-51 -166.5z" />
    <glyph glyph-name="oe" unicode="&#x153;" horiz-adv-x="774" 
d="M40 180q0 51 6 97.5t22.5 95.5t42.5 84t70.5 58t101.5 23q100 0 146 -61q58 61 145 61q163 0 163 -179q0 -68 -11 -126h-263q-2 -21 -2 -46q0 -102 55 -102t76 97h123q-44 -194 -204 -194q-96 0 -137 59q-57 -59 -148 -59q-186 0 -186 192zM476 320h138q2 29 2 39
q0 82 -49 82q-64 0 -91 -121zM163 183q0 -94 67 -94q38 0 64 32.5t36 82.5t13 81.5t3 57.5q0 94 -67 94q-38 0 -64 -32.5t-36 -82.5t-13 -81.5t-3 -57.5z" />
    <glyph glyph-name="Racute" unicode="&#x154;" horiz-adv-x="592" 
d="M392 883h120l1 -3l-108 -129h-99zM445 311l92 -311h-137l-80 286h-126l-39 -286h-127l96 686h269q97 0 147 -45.5t50 -123.5q0 -74 -39 -128.5t-106 -77.5zM374 572h-139l-25 -173h135q50 0 79 26.5t29 73.5q0 73 -79 73z" />
    <glyph glyph-name="racute" unicode="&#x155;" horiz-adv-x="319" 
d="M96 526h97v-80q45 92 108 92q14 0 26 -2t17 -4l5 -2l-15 -116h-38q-97 0 -114 -121l-41 -293h-118zM184 723h120l1 -3l-108 -129h-99z" />
    <glyph glyph-name="Rcommaaccent" unicode="&#x156;" horiz-adv-x="592" 
d="M317 -55l-16 -112l-61 -96h-65l46 85h-45l17 123h124zM445 311l92 -311h-137l-80 286h-126l-39 -286h-127l96 686h269q97 0 147 -45.5t50 -123.5q0 -74 -39 -128.5t-106 -77.5zM374 572h-139l-25 -173h135q50 0 79 26.5t29 73.5q0 73 -79 73z" />
    <glyph glyph-name="rcommaaccent" unicode="&#x157;" horiz-adv-x="319" 
d="M96 526h97v-80q45 92 108 92q14 0 26 -2t17 -4l5 -2l-15 -116h-38q-97 0 -114 -121l-41 -293h-118zM134 -55l-16 -112l-61 -96h-65l46 85h-45l17 123h124z" />
    <glyph glyph-name="Rcaron" unicode="&#x158;" horiz-adv-x="592" 
d="M251 883h90l35 -69l50 69h94l-104 -135h-98zM445 311l92 -311h-137l-80 286h-126l-39 -286h-127l96 686h269q97 0 147 -45.5t50 -123.5q0 -74 -39 -128.5t-106 -77.5zM374 572h-139l-25 -173h135q50 0 79 26.5t29 73.5q0 73 -79 73z" />
    <glyph glyph-name="rcaron" unicode="&#x159;" horiz-adv-x="319" 
d="M96 526h97v-80q45 92 108 92q14 0 26 -2t17 -4l5 -2l-15 -116h-38q-97 0 -114 -121l-41 -293h-118zM44 723h90l35 -69l50 69h94l-104 -135h-98z" />
    <glyph glyph-name="Sacute" unicode="&#x15a;" horiz-adv-x="547" 
d="M31 172q0 36 5 61h132q-5 -20 -5 -48q0 -35 22.5 -61t81.5 -26q51 0 80 26t29 63q0 38 -30 65.5t-72.5 45.5t-85 39t-72.5 59.5t-30 94.5q0 85 56.5 146t175.5 61q120 0 167 -58t47 -156h-129q0 46 -23 74.5t-69 28.5q-12 0 -24 -2t-29 -8.5t-27.5 -22t-10.5 -38.5
q0 -34 30 -57t72 -40t84.5 -38.5t72.5 -63.5t30 -104q0 -105 -70.5 -165t-179.5 -60q-40 0 -78.5 10t-73 31t-55.5 58t-21 85zM372 883h120l1 -3l-108 -129h-99z" />
    <glyph glyph-name="sacute" unicode="&#x15b;" 
d="M22 124l6 47h122q-4 -17 -4 -25q0 -60 74 -60q25 0 45 13.5t20 40.5q0 24 -16 41t-40 25.5t-51.5 21.5t-51.5 27.5t-40 45t-16 73.5q0 78 55.5 121t138.5 43q90 0 129 -46.5t39 -119.5h-121q0 34 -11 49q-13 19 -48 19q-24 0 -41 -14.5t-17 -37.5q0 -26 22.5 -42.5
t54.5 -27.5t64 -25t54.5 -46.5t22.5 -81.5q0 -90 -57 -133.5t-143 -43.5q-88 0 -139 36t-51 100zM295 723h120l1 -3l-108 -129h-99z" />
    <glyph glyph-name="Scircumflex" unicode="&#x15c;" horiz-adv-x="547" 
d="M31 172q0 36 5 61h132q-5 -20 -5 -48q0 -35 22.5 -61t81.5 -26q51 0 80 26t29 63q0 38 -30 65.5t-72.5 45.5t-85 39t-72.5 59.5t-30 94.5q0 85 56.5 146t175.5 61q120 0 167 -58t47 -156h-129q0 46 -23 74.5t-69 28.5q-12 0 -24 -2t-29 -8.5t-27.5 -22t-10.5 -38.5
q0 -34 30 -57t72 -40t84.5 -38.5t72.5 -63.5t30 -104q0 -105 -70.5 -165t-179.5 -60q-40 0 -78.5 10t-73 31t-55.5 58t-21 85zM318 883h98l66 -135h-90l-34 69l-51 -69h-93z" />
    <glyph glyph-name="scircumflex" unicode="&#x15d;" 
d="M22 124l6 47h122q-4 -17 -4 -25q0 -60 74 -60q25 0 45 13.5t20 40.5q0 24 -16 41t-40 25.5t-51.5 21.5t-51.5 27.5t-40 45t-16 73.5q0 78 55.5 121t138.5 43q90 0 129 -46.5t39 -119.5h-121q0 34 -11 49q-13 19 -48 19q-24 0 -41 -14.5t-17 -37.5q0 -26 22.5 -42.5
t54.5 -27.5t64 -25t54.5 -46.5t22.5 -81.5q0 -90 -57 -133.5t-143 -43.5q-88 0 -139 36t-51 100zM241 723h98l66 -135h-90l-34 69l-51 -69h-93z" />
    <glyph glyph-name="Scedilla" unicode="&#x15e;" horiz-adv-x="547" 
d="M31 172q0 36 5 61h132q-5 -20 -5 -48q0 -35 22.5 -61t81.5 -26q51 0 80 26t29 63q0 38 -30 65.5t-72.5 45.5t-85 39t-72.5 59.5t-30 94.5q0 85 56.5 146t175.5 61q120 0 167 -58t47 -156h-129q0 46 -23 74.5t-69 28.5q-12 0 -24 -2t-29 -8.5t-27.5 -22t-10.5 -38.5
q0 -34 30 -57t72 -40t84.5 -38.5t72.5 -63.5t30 -104q0 -102 -66.5 -161.5t-171.5 -63.5l-5 -21q69 -6 69 -57q0 -92 -121 -92q-46 0 -83 8l7 49h71q41 0 41 30q0 18 -32 18h-32l18 70q-74 13 -123.5 57.5t-49.5 121.5z" />
    <glyph glyph-name="scedilla" unicode="&#x15f;" 
d="M22 124l6 47h122q-4 -17 -4 -25q0 -60 74 -60q25 0 45 13.5t20 40.5q0 24 -16 41t-40 25.5t-51.5 21.5t-51.5 27.5t-40 45t-16 73.5q0 78 55.5 121t138.5 43q90 0 129 -46.5t39 -119.5h-121q0 34 -11 49q-13 19 -48 19q-24 0 -41 -14.5t-17 -37.5q0 -26 22.5 -42.5
t54.5 -27.5t64 -25t54.5 -46.5t22.5 -81.5q0 -88 -55 -131.5t-139 -45.5l-5 -21q70 -6 70 -57q0 -92 -121 -92q-46 0 -83 8l7 49h71q40 0 40 30q0 18 -31 18h-33l18 70q-61 11 -95 45.5t-34 85.5z" />
    <glyph glyph-name="Scaron" unicode="&#x160;" horiz-adv-x="547" 
d="M31 172q0 36 5 61h132q-5 -20 -5 -48q0 -35 22.5 -61t81.5 -26q51 0 80 26t29 63q0 38 -30 65.5t-72.5 45.5t-85 39t-72.5 59.5t-30 94.5q0 85 56.5 146t175.5 61q120 0 167 -58t47 -156h-129q0 46 -23 74.5t-69 28.5q-12 0 -24 -2t-29 -8.5t-27.5 -22t-10.5 -38.5
q0 -34 30 -57t72 -40t84.5 -38.5t72.5 -63.5t30 -104q0 -105 -70.5 -165t-179.5 -60q-40 0 -78.5 10t-73 31t-55.5 58t-21 85zM232 883h90l35 -69l50 69h94l-104 -135h-98z" />
    <glyph glyph-name="scaron" unicode="&#x161;" 
d="M22 124l6 47h122q-4 -17 -4 -25q0 -60 74 -60q25 0 45 13.5t20 40.5q0 24 -16 41t-40 25.5t-51.5 21.5t-51.5 27.5t-40 45t-16 73.5q0 78 55.5 121t138.5 43q90 0 129 -46.5t39 -119.5h-121q0 34 -11 49q-13 19 -48 19q-24 0 -41 -14.5t-17 -37.5q0 -26 22.5 -42.5
t54.5 -27.5t64 -25t54.5 -46.5t22.5 -81.5q0 -90 -57 -133.5t-143 -43.5q-88 0 -139 36t-51 100zM155 723h90l35 -69l50 69h94l-104 -135h-98z" />
    <glyph glyph-name="Tcommaaccent" unicode="&#x162;" horiz-adv-x="501" 
d="M233 572h-169l16 114h464l-16 -114h-169l-80 -572h-126zM269 -55l-16 -112l-61 -96h-65l46 85h-45l17 123h124z" />
    <glyph glyph-name="tcommaaccent" unicode="&#x163;" horiz-adv-x="273" 
d="M42 96q0 11 11 93.5t23 158.5l11 77h-53l14 101h53l20 148h125l-27 -148h76l-14 -101h-75q-42 -294 -42 -303q0 -33 36 -33h33l-12 -89q-34 -12 -73 -12q-106 0 -106 108zM172 -55l-16 -112l-61 -96h-65l46 85h-45l17 123h124z" />
    <glyph glyph-name="Tcaron" unicode="&#x164;" horiz-adv-x="501" 
d="M233 572h-169l16 114h464l-16 -114h-169l-80 -572h-126zM203 883h90l35 -69l50 69h94l-104 -135h-98z" />
    <glyph glyph-name="tcaron" unicode="&#x165;" horiz-adv-x="393" 
d="M380 549h-51l19 137h138l-17 -125l-74 -136h-73zM42 96q0 11 11 93.5t23 158.5l11 77h-53l14 101h53l20 148h125l-27 -148h76l-14 -101h-75q-42 -294 -42 -303q0 -33 36 -33h33l-12 -89q-34 -12 -73 -12q-106 0 -106 108z" />
    <glyph glyph-name="Tbar" unicode="&#x166;" horiz-adv-x="501" 
d="M233 572h-169l16 114h464l-16 -114h-169l-26 -179h119l-13 -87h-118l-42 -306h-126l42 306h-109l13 87h109z" />
    <glyph glyph-name="tbar" unicode="&#x167;" horiz-adv-x="273" 
d="M22 349h54l11 76h-53l14 101h53l20 148h125l-27 -148h76l-14 -101h-75q-5 -32 -11 -76h82l-13 -87h-81q-19 -133 -19 -140q0 -33 36 -33h33l-12 -89q-34 -12 -73 -12q-106 0 -106 108q0 21 21 166h-54z" />
    <glyph glyph-name="Utilde" unicode="&#x168;" horiz-adv-x="592" 
d="M272 761h-64q0 44 32 83t81 39q25 0 65 -18.5t61 -18.5q33 0 44 37h65q0 -45 -32.5 -83.5t-82.5 -38.5q-24 0 -63.5 18.5t-61.5 18.5q-33 0 -44 -37zM127 686h127q-67 -459 -67 -487q0 -49 24.5 -75t70.5 -26q50 0 80.5 33t39.5 96l64 459h127l-65 -463
q-16 -115 -80 -175t-166 -60q-107 0 -165 48t-58 140q0 21 17 148.5l34 244.5z" />
    <glyph glyph-name="utilde" unicode="&#x169;" horiz-adv-x="501" 
d="M38 123q0 9 53 403h118q-49 -361 -49 -363q0 -35 13.5 -50.5t44.5 -15.5q36 0 63.5 30t34.5 83l43 316h119l-73 -526h-98v68q-57 -80 -142 -80q-62 0 -94.5 35.5t-32.5 99.5zM196 601h-64q0 43 30 81q34 41 83 41q25 0 65 -18q38 -19 61 -19q33 0 44 37h65
q0 -45 -32.5 -83.5t-82.5 -38.5q-24 0 -63.5 18.5t-61.5 18.5q-33 0 -44 -37z" />
    <glyph glyph-name="Umacron" unicode="&#x16a;" horiz-adv-x="592" 
d="M253 846h255l-13 -87h-255zM127 686h127q-67 -459 -67 -487q0 -49 24.5 -75t70.5 -26q50 0 80.5 33t39.5 96l64 459h127l-65 -463q-16 -115 -80 -175t-166 -60q-107 0 -165 48t-58 140q0 21 17 148.5l34 244.5z" />
    <glyph glyph-name="umacron" unicode="&#x16b;" horiz-adv-x="501" 
d="M38 123q0 9 53 403h118q-49 -361 -49 -363q0 -35 13.5 -50.5t44.5 -15.5q36 0 63.5 30t34.5 83l43 316h119l-73 -526h-98v68q-57 -80 -142 -80q-62 0 -94.5 35.5t-32.5 99.5zM178 686h255l-13 -87h-255z" />
    <glyph glyph-name="Ubreve" unicode="&#x16c;" horiz-adv-x="592" 
d="M377 776q-56 0 -90 29t-34 67q0 7 1 11h74q1 -12 16 -22.5t38 -10.5q24 0 43 10.5t22 22.5h74q-6 -40 -46.5 -73.5t-97.5 -33.5zM127 686h127q-67 -459 -67 -487q0 -49 24.5 -75t70.5 -26q50 0 80.5 33t39.5 96l64 459h127l-65 -463q-16 -115 -80 -175t-166 -60
q-107 0 -165 48t-58 140q0 21 17 148.5l34 244.5z" />
    <glyph glyph-name="ubreve" unicode="&#x16d;" horiz-adv-x="501" 
d="M38 123q0 9 53 403h118q-49 -361 -49 -363q0 -35 13.5 -50.5t44.5 -15.5q36 0 63.5 30t34.5 83l43 316h119l-73 -526h-98v68q-57 -80 -142 -80q-62 0 -94.5 35.5t-32.5 99.5zM301 616q-56 0 -90 29t-34 67q0 7 1 11h74q2 -12 15 -22q17 -11 39 -11q24 0 43 10.5t22 22.5
h74q-6 -40 -46.5 -73.5t-97.5 -33.5z" />
    <glyph glyph-name="Uring" unicode="&#x16e;" horiz-adv-x="592" 
d="M378 721q-39 0 -67.5 28t-28.5 68t28 68t68 28t68 -28.5t28 -67.5q0 -40 -28 -68t-68 -28zM378 771q19 0 32.5 13.5t13.5 32.5t-13.5 32.5t-32.5 13.5q-20 0 -33 -13.5t-13 -32.5t13 -32.5t33 -13.5zM127 686h127q-67 -459 -67 -487q0 -49 24.5 -75t70.5 -26
q50 0 80.5 33t39.5 96l64 459h127l-65 -463q-16 -115 -80 -175t-166 -60q-107 0 -165 48t-58 140q0 21 17 148.5l34 244.5z" />
    <glyph glyph-name="uring" unicode="&#x16f;" horiz-adv-x="501" 
d="M38 123q0 9 53 403h118q-49 -361 -49 -363q0 -35 13.5 -50.5t44.5 -15.5q36 0 63.5 30t34.5 83l43 316h119l-73 -526h-98v68q-57 -80 -142 -80q-62 0 -94.5 35.5t-32.5 99.5zM302 561q-39 0 -67.5 28t-28.5 68t28 68t68 28t68 -28.5t28 -67.5q0 -40 -28 -68t-68 -28z
M302 611q19 0 32.5 13.5t13.5 32.5t-13.5 32.5t-32.5 13.5q-20 0 -33 -13.5t-13 -32.5t13 -32.5t33 -13.5z" />
    <glyph glyph-name="Uhungarumlaut" unicode="&#x170;" horiz-adv-x="592" 
d="M450 883h100l1 -3l-84 -129h-79zM310 883h100l1 -3l-84 -129h-79zM127 686h127q-67 -459 -67 -487q0 -49 24.5 -75t70.5 -26q50 0 80.5 33t39.5 96l64 459h127l-65 -463q-16 -115 -80 -175t-166 -60q-107 0 -165 48t-58 140q0 21 17 148.5l34 244.5z" />
    <glyph glyph-name="uhungarumlaut" unicode="&#x171;" horiz-adv-x="501" 
d="M38 123q0 9 53 403h118q-49 -361 -49 -363q0 -35 13.5 -50.5t44.5 -15.5q36 0 63.5 30t34.5 83l43 316h119l-73 -526h-98v68q-57 -80 -142 -80q-62 0 -94.5 35.5t-32.5 99.5zM374 723h100l1 -3l-84 -129h-79zM234 723h100l1 -3l-84 -129h-79z" />
    <glyph glyph-name="Uogonek" unicode="&#x172;" horiz-adv-x="592" 
d="M237 -108q0 52 40 96q-105 0 -161.5 48t-56.5 140q0 21 17 148.5l34 244.5l17 117h127q-67 -459 -67 -487q0 -49 24.5 -75t70.5 -26q50 0 80.5 33t39.5 96l64 459h127l-65 -463q-24 -171 -148 -218q-41 -41 -41 -81t39 -40h22l-8 -55q-37 -14 -68 -14q-36 0 -61.5 18
t-25.5 59z" />
    <glyph glyph-name="uogonek" unicode="&#x173;" horiz-adv-x="501" 
d="M262 -113q0 64 57 113h-12v68q-57 -80 -142 -80q-62 0 -94.5 35.5t-32.5 99.5q0 9 53 403h118q-49 -361 -49 -363q0 -35 13.5 -50.5t44.5 -15.5q36 0 63.5 30t34.5 83l43 316h119l-73 -526q-41 -41 -41 -81t39 -40h22l-8 -55q-37 -14 -68 -14q-36 0 -61.5 18t-25.5 59z
" />
    <glyph glyph-name="Wcircumflex" unicode="&#x174;" horiz-adv-x="774" 
d="M67 686h126l21 -518h4q16 67 26 96l140 422h145l22 -518h4q15 62 26 96l139 422h112l-236 -686h-135l-31 437q-1 12 -1 41l1 56h-5q-16 -68 -26 -97l-146 -437h-135zM431 883h98l66 -135h-90l-34 69l-51 -69h-93z" />
    <glyph glyph-name="wcircumflex" unicode="&#x175;" horiz-adv-x="638" 
d="M42 526h113l18 -217l9 -172h4q15 93 41 171l75 218h120l13 -219l4 -170h4q28 110 49 170l74 219h107l-199 -526h-118l-17 251l-6 138h-6q-6 -80 -25 -137l-86 -252h-119zM339 723h98l66 -135h-90l-34 69l-51 -69h-93z" />
    <glyph glyph-name="Ycircumflex" unicode="&#x176;" horiz-adv-x="547" 
d="M215 259l-148 427h130l99 -301h4l179 301h129l-266 -427l-37 -259h-126zM318 883h98l66 -135h-90l-34 69l-51 -69h-93z" />
    <glyph glyph-name="ycircumflex" unicode="&#x177;" 
d="M4 -81h54q60 0 91 81l-100 526h120l44 -247l14 -137h4q26 91 44 136l99 248h118l-211 -499q-42 -97 -93 -153t-120 -56q-22 0 -40.5 2t-26.5 4t-8 3zM251 723h98l66 -135h-90l-34 69l-51 -69h-93z" />
    <glyph glyph-name="Ydieresis" unicode="&#x178;" horiz-adv-x="547" 
d="M215 259l-148 427h130l99 -301h4l179 301h129l-266 -427l-37 -259h-126zM405 883h100l-15 -109h-100zM230 883h100l-15 -109h-99z" />
    <glyph glyph-name="Zacute" unicode="&#x179;" horiz-adv-x="501" 
d="M-8 49l343 523h-250l16 114h428l-4 -50l-344 -522h278l-16 -114h-455zM343 883h120l1 -3l-108 -129h-99z" />
    <glyph glyph-name="zacute" unicode="&#x17a;" horiz-adv-x="410" 
d="M-8 51l249 374h-187l14 101h349l-4 -50l-251 -375h206l-14 -101h-366zM261 723h120l1 -3l-108 -129h-99z" />
    <glyph glyph-name="Zdotaccent" unicode="&#x17b;" horiz-adv-x="501" 
d="M-8 49l343 523h-250l16 114h428l-4 -50l-344 -522h278l-16 -114h-455zM285 883h107l-17 -115h-107z" />
    <glyph glyph-name="zdotaccent" unicode="&#x17c;" horiz-adv-x="410" 
d="M-8 51l249 374h-187l14 101h349l-4 -50l-251 -375h206l-14 -101h-366zM203 723h107l-17 -115h-107z" />
    <glyph glyph-name="Zcaron" unicode="&#x17d;" horiz-adv-x="501" 
d="M-8 49l343 523h-250l16 114h428l-4 -50l-344 -522h278l-16 -114h-455zM203 883h90l35 -69l50 69h94l-104 -135h-98z" />
    <glyph glyph-name="zcaron" unicode="&#x17e;" horiz-adv-x="410" 
d="M-8 51l249 374h-187l14 101h349l-4 -50l-251 -375h206l-14 -101h-366zM121 723h90l35 -69l50 69h94l-104 -135h-98z" />
    <glyph glyph-name="longs" unicode="&#x17f;" horiz-adv-x="228" 
d="M83 425h-52l14 101h52l9 64q9 60 43 100.5t100 40.5q46 0 84 -12l-13 -89h-48q-42 0 -48 -43l-84 -628q-8 -60 -41.5 -100.5t-97.5 -40.5q-46 0 -86 12l13 89h44q45 0 51 48z" />
    <glyph glyph-name="florin" unicode="&#x192;" 
d="M180 386h-72l28 101h72l29 103q17 60 57 100.5t106 40.5q46 0 82 -12l-26 -89h-48q-41 0 -53 -43l-28 -100h90l-28 -101h-90l-119 -427q-17 -60 -57 -100.5t-106 -40.5q-45 0 -81 12l25 89h48q41 0 53 43z" />
    <glyph glyph-name="Aringacute" unicode="&#x1fa;" horiz-adv-x="592" 
d="M464 727q0 -38 -25 -63l119 -664h-130l-22 135h-245l-59 -135h-128l311 680q-13 23 -13 47q0 38 28.5 65.5t68.5 27.5q39 0 67 -27.5t28 -65.5zM369 682q19 0 32.5 13t13.5 32t-13.5 32t-32.5 13q-20 0 -33.5 -13t-13.5 -32t13.5 -32t33.5 -13zM387 249l-30 188l-12 133
h-4q-24 -84 -46 -133l-83 -188h175zM407 957h120l1 -3l-93 -106h-99z" />
    <glyph glyph-name="aringacute" unicode="&#x1fb;" 
d="M273 560q-39 0 -67.5 27.5t-28.5 66.5q0 38 28 65.5t68 27.5t68 -27.5t28 -65.5q0 -39 -28 -66.5t-68 -27.5zM273 608q19 0 32.5 13.5t13.5 32.5t-13.5 32t-32.5 13t-32.5 -13t-13.5 -32q0 -20 13.5 -33t32.5 -13zM221 538q80 0 110 -75l20 63h93q-62 -398 -62 -409
q0 -28 24 -28h18l-12 -85q-27 -16 -59 -16q-67 0 -83 70q-18 -35 -47.5 -52.5t-58.5 -17.5q-68 0 -105 47t-37 139q0 178 58.5 271t140.5 93zM195 91q29 0 51 27t32 69t14.5 79.5t4.5 71.5q0 49 -12 73t-41 24t-51 -29.5t-32 -72.5t-15 -79.5t-5 -63.5q0 -99 54 -99z
M301 883h120l1 -3l-97 -112h-99z" />
    <glyph glyph-name="AEacute" unicode="&#x1fc;" horiz-adv-x="820" 
d="M457 883h120l1 -3l-108 -129h-99zM295 437l-94 -188h173l-29 321h-4q-22 -85 -46 -133zM741 0h-344l-12 135h-240l-67 -135h-130l355 686h528l-16 -114h-347l17 -164h264l-16 -114h-237l18 -180h243z" />
    <glyph glyph-name="aeacute" unicode="&#x1fd;" horiz-adv-x="729" 
d="M19 129q0 70 42.5 114.5t103.5 60.5t142 16l6 55q1 7 1 20q0 45 -46 45q-62 0 -71 -70h-116q0 76 54.5 122t143.5 46q82 0 121 -44q54 44 130 44q163 0 163 -179q0 -68 -11 -126h-263q-2 -21 -2 -46q0 -102 55 -102t76 97h123q-44 -194 -204 -194q-106 0 -146 69
q-69 -69 -159 -69q-26 0 -48.5 6t-45 20.5t-36 44t-13.5 70.5zM432 320h138q2 29 2 39q0 82 -49 82q-64 0 -91 -121zM144 134q0 -46 52 -46q39 0 63.5 32.5t30.5 82.5l4 30q-150 0 -150 -99zM437 723h120l1 -3l-108 -129h-99z" />
    <glyph glyph-name="Oslashacute" unicode="&#x1fe;" horiz-adv-x="638" 
d="M45 -37l61 95q-61 66 -61 192q0 80 17.5 155.5t54 143t101.5 108.5t150 41q81 0 136 -28l35 53h84l-62 -95q62 -68 62 -193q0 -80 -18 -155.5t-54.5 -142.5t-101.5 -108t-150 -41q-77 0 -136 28l-34 -53h-84zM184 177l255 393q-26 18 -66 18q-57 0 -98.5 -33t-62 -86.5
t-29.5 -106.5t-9 -107q0 -47 10 -78zM482 507l-254 -392q26 -17 66 -17q57 0 98.5 33t62 86.5t29.5 106t9 106.5q0 42 -11 77zM416 883h120l1 -3l-108 -129h-99z" />
    <glyph glyph-name="oslashacute" unicode="&#x1ff;" horiz-adv-x="501" 
d="M36 -32l43 71q-43 46 -43 141q0 51 6 97.5t22.5 95.5t42.5 84t70.5 58t101.5 23q50 0 90 -16l22 36h75l-44 -73q43 -51 43 -142q0 -51 -6 -97t-22.5 -94.5t-42.5 -83.5t-70.5 -57.5t-101.5 -22.5q-52 0 -90 15l-21 -35h-75zM159 172l153 255q-17 10 -37 10
q-38 0 -64 -32.5t-36 -82.5t-13 -81.5t-3 -57.5v-11zM342 352l-153 -254q15 -9 37 -9q38 0 64 32.5t36 82.5t13 81.5t3 57.5v9zM318 723h120l1 -3l-108 -129h-99z" />
    <glyph glyph-name="circumflex" unicode="&#x2c6;" horiz-adv-x="273" 
d="M151 723h98l66 -135h-90l-34 69l-51 -69h-93z" />
    <glyph glyph-name="caron" unicode="&#x2c7;" horiz-adv-x="273" 
d="M9 723h90l35 -69l50 69h94l-104 -135h-98z" />
    <glyph glyph-name="uni02C9" unicode="&#x2c9;" horiz-adv-x="500" 
d="M77 860h500l-9 -69h-499z" />
    <glyph glyph-name="breve" unicode="&#x2d8;" horiz-adv-x="273" 
d="M131 616q-56 0 -90 29t-34 67q0 7 1 11h74q2 -12 15 -22q17 -11 39 -11q24 0 43 10.5t22 22.5h74q-6 -40 -46.5 -73.5t-97.5 -33.5z" />
    <glyph glyph-name="dotaccent" unicode="&#x2d9;" horiz-adv-x="273" 
d="M91 723h107l-17 -115h-107z" />
    <glyph glyph-name="ring" unicode="&#x2da;" horiz-adv-x="273" 
d="M139 561q-39 0 -67.5 28t-28.5 68t28 68t68 28t68 -28.5t28 -67.5q0 -40 -28 -68t-68 -28zM139 611q19 0 32.5 13.5t13.5 32.5t-13.5 32.5t-32.5 13.5t-32.5 -13.5t-13.5 -32.5t13.5 -32.5t32.5 -13.5z" />
    <glyph glyph-name="ogonek" unicode="&#x2db;" horiz-adv-x="273" 
d="M60 -105q0 64 63 117h74l6 -4q-41 -41 -41 -81t39 -40h22l-8 -55q-37 -14 -68 -14q-36 0 -61.5 18t-25.5 59z" />
    <glyph glyph-name="tilde" unicode="&#x2dc;" horiz-adv-x="273" 
d="M106 601h-64q0 43 30 81q34 41 83 41q25 0 65 -18q38 -19 61 -19q33 0 44 37h65q0 -45 -32.5 -83.5t-82.5 -38.5q-24 0 -63.5 18.5t-61.5 18.5q-33 0 -44 -37z" />
    <glyph glyph-name="hungarumlaut" unicode="&#x2dd;" horiz-adv-x="273" 
d="M206 723h100l1 -3l-84 -129h-79zM66 723h100l1 -3l-84 -129h-79z" />
    <glyph glyph-name="pi" unicode="&#x3c0;" horiz-adv-x="584" 
d="M137 0h-118q33 72 69.5 201.5t52.5 223.5q-67 0 -99 -13v84q41 30 152 30h382l-22 -101h-67l-38 -269q-9 -60 -9 -118q0 -28 2 -38h-117q-5 12 -5 38q0 42 10 109l38 278h-109q-20 -103 -56.5 -235.5t-65.5 -189.5z" />
    <glyph glyph-name="Wgrave" unicode="&#x1e80;" horiz-adv-x="774" 
d="M67 686h126l21 -518h4q16 67 26 96l140 422h145l22 -518h4q15 62 26 96l139 422h112l-236 -686h-135l-31 437q-1 12 -1 41l1 56h-5q-16 -68 -26 -97l-146 -437h-135zM342 880l2 3h120l67 -132h-99z" />
    <glyph glyph-name="wgrave" unicode="&#x1e81;" horiz-adv-x="638" 
d="M42 526h113l18 -217l9 -172h4q15 93 41 171l75 218h120l13 -219l4 -170h4q28 110 49 170l74 219h107l-199 -526h-118l-17 251l-6 138h-6q-6 -80 -25 -137l-86 -252h-119zM250 720l2 3h120l67 -132h-99z" />
    <glyph glyph-name="Wacute" unicode="&#x1e82;" horiz-adv-x="774" 
d="M67 686h126l21 -518h4q16 67 26 96l140 422h145l22 -518h4q15 62 26 96l139 422h112l-236 -686h-135l-31 437q-1 12 -1 41l1 56h-5q-16 -68 -26 -97l-146 -437h-135zM485 883h120l1 -3l-108 -129h-99z" />
    <glyph glyph-name="wacute" unicode="&#x1e83;" horiz-adv-x="638" 
d="M42 526h113l18 -217l9 -172h4q15 93 41 171l75 218h120l13 -219l4 -170h4q28 110 49 170l74 219h107l-199 -526h-118l-17 251l-6 138h-6q-6 -80 -25 -137l-86 -252h-119zM393 723h120l1 -3l-108 -129h-99z" />
    <glyph glyph-name="Wdieresis" unicode="&#x1e84;" horiz-adv-x="774" 
d="M67 686h126l21 -518h4q16 67 26 96l140 422h145l22 -518h4q15 62 26 96l139 422h112l-236 -686h-135l-31 437q-1 12 -1 41l1 56h-5q-16 -68 -26 -97l-146 -437h-135zM518 883h100l-15 -109h-100zM343 883h100l-15 -109h-99z" />
    <glyph glyph-name="wdieresis" unicode="&#x1e85;" horiz-adv-x="638" 
d="M42 526h113l18 -217l9 -172h4q15 93 41 171l75 218h120l13 -219l4 -170h4q28 110 49 170l74 219h107l-199 -526h-118l-17 251l-6 138h-6q-6 -80 -25 -137l-86 -252h-119zM426 723h100l-15 -109h-100zM251 723h100l-15 -109h-99z" />
    <glyph glyph-name="Ygrave" unicode="&#x1ef2;" horiz-adv-x="547" 
d="M215 259l-148 427h130l99 -301h4l179 301h129l-266 -427l-37 -259h-126zM229 880l2 3h120l67 -132h-99z" />
    <glyph glyph-name="ygrave" unicode="&#x1ef3;" 
d="M4 -81h54q60 0 91 81l-100 526h120l44 -247l14 -137h4q26 91 44 136l99 248h118l-211 -499q-42 -97 -93 -153t-120 -56q-22 0 -40.5 2t-26.5 4t-8 3zM162 720l2 3h120l67 -132h-99z" />
    <glyph glyph-name="endash" unicode="&#x2013;" 
d="M11 319h456l-13 -98h-455z" />
    <glyph glyph-name="emdash" unicode="&#x2014;" horiz-adv-x="820" 
d="M11 319h820l-13 -98h-819z" />
    <glyph glyph-name="afii00208" unicode="&#x2015;" horiz-adv-x="820" 
d="M108 318h613l-13 -95h-613z" />
    <glyph glyph-name="underscoredbl" unicode="&#x2017;" horiz-adv-x="500" 
d="M470 -88l-7 -51h-500l7 51h500zM458 -175l-7 -51h-499l7 51h499z" />
    <glyph glyph-name="quoteleft" unicode="&#x2018;" horiz-adv-x="228" 
d="M81 518l90 168h72l-73 -156h51l-19 -137h-138z" />
    <glyph glyph-name="quoteright" unicode="&#x2019;" horiz-adv-x="228" 
d="M143 549h-51l19 137h138l-17 -125l-90 -168h-72z" />
    <glyph glyph-name="quotesinglbase" unicode="&#x201a;" horiz-adv-x="228" 
d="M35 137h138l-17 -125l-90 -168h-72l73 156h-51z" />
    <glyph glyph-name="quotereversed" unicode="&#x201b;" horiz-adv-x="228" 
d="M91 561l17 125h138l-19 -137h-51l29 -156h-72z" />
    <glyph glyph-name="quotedblleft" unicode="&#x201c;" horiz-adv-x="410" 
d="M256 518l90 168h72l-73 -156h51l-19 -137h-138zM73 518l90 168h72l-73 -156h51l-19 -137h-138z" />
    <glyph glyph-name="quotedblright" unicode="&#x201d;" horiz-adv-x="410" 
d="M326 549h-51l19 137h138l-17 -125l-90 -168h-72zM143 549h-51l19 137h138l-17 -125l-90 -168h-72z" />
    <glyph glyph-name="quotedblbase" unicode="&#x201e;" horiz-adv-x="410" 
d="M218 137h138l-17 -125l-90 -168h-72l73 156h-51zM35 137h138l-17 -125l-90 -168h-72l73 156h-51z" />
    <glyph glyph-name="dagger" unicode="&#x2020;" 
d="M213 425l-167 -18l16 113l162 -17l9 183h108l-43 -183l169 17l-16 -113l-164 18l-64 -598h-114z" />
    <glyph glyph-name="daggerdbl" unicode="&#x2021;" 
d="M8 109l162 -18l7 169l40 165l-167 -18l16 113l162 -17l9 183h108l-43 -183l169 17l-16 -113l-164 18l-6 -165l-41 -169l169 18l-16 -113l-164 17l-9 -186h-108l43 186l-166 -17z" />
    <glyph glyph-name="bullet" unicode="&#x2022;" horiz-adv-x="287" 
d="M154 220q-50 0 -85 36.5t-35 87.5t35 87t85 36t85.5 -36.5t35.5 -86.5q0 -51 -35.5 -87.5t-85.5 -36.5z" />
    <glyph glyph-name="ellipsis" unicode="&#x2026;" horiz-adv-x="820" 
d="M601 137h138l-19 -137h-138zM328 137h138l-19 -137h-138zM55 137h138l-19 -137h-138z" />
    <glyph glyph-name="perthousand" unicode="&#x2030;" horiz-adv-x="820" 
d="M162 337q-113 0 -113 111q0 31 6 79q23 171 137 171q58 0 85.5 -27t27.5 -93q0 -38 -9 -84q-29 -157 -134 -157zM162 410q20 0 30 22t18 78q7 56 7 75q0 40 -25 40q-20 0 -30 -22t-18 -78q-8 -53 -8 -75q0 -40 26 -40zM573 99q0 31 6 79q23 171 137 171q58 0 85.5 -27
t27.5 -93q0 -37 -9 -84q-29 -157 -134 -157q-113 0 -113 111zM660 101q0 -40 26 -40q20 0 30 22t18 78q7 56 7 75q0 40 -25 40q-20 0 -30 -22t-18 -78q-8 -53 -8 -75zM305 99q0 31 6 79q23 171 137 171q58 0 85.5 -27t27.5 -93q0 -37 -9 -84q-29 -157 -134 -157
q-113 0 -113 111zM392 101q0 -40 26 -40q20 0 30 22t18 78q7 56 7 75q0 40 -25 40q-20 0 -30 -22t-18 -78q-8 -53 -8 -75zM432 686h70l-330 -686h-69z" />
    <glyph glyph-name="minute" unicode="&#x2032;" horiz-adv-x="195" 
d="M98 686h110l1 -3l-47 -177h-89z" />
    <glyph glyph-name="second" unicode="&#x2033;" horiz-adv-x="389" 
d="M255 686h110l1 -3l-47 -177h-89zM104 686h110l1 -3l-47 -177h-89z" />
    <glyph glyph-name="guilsinglleft" unicode="&#x2039;" horiz-adv-x="273" 
d="M32 326l160 200h95l-136 -200l79 -200h-91z" />
    <glyph glyph-name="guilsinglright" unicode="&#x203a;" horiz-adv-x="273" 
d="M148 326l-80 200h91l108 -200l-161 -200h-94z" />
    <glyph glyph-name="exclamdbl" unicode="&#x203c;" horiz-adv-x="546" 
d="M397 686h153l-105 -489h-82zM124 686h153l-105 -489h-82zM328 137h138l-20 -137h-138zM55 137h138l-20 -137h-138z" />
    <glyph glyph-name="uni203E" unicode="&#x203e;" horiz-adv-x="500" 
d="M77 860h500l-9 -69h-499z" />
    <glyph glyph-name="fraction" unicode="&#x2044;" horiz-adv-x="137" 
d="M-215 -12l494 710h66l-493 -710h-67z" />
    <glyph glyph-name="uni207F" unicode="&#x207f;" horiz-adv-x="325" 
d="M128 723h65v-47q37 55 97 55q41 0 63 -24t22 -67q0 -6 -36 -271h-79q33 240 33 244q0 45 -39 45q-24 0 -42.5 -20t-23.5 -56l-29 -213h-80z" />
    <glyph glyph-name="franc" unicode="&#x20a3;" horiz-adv-x="504" 
d="M352 0h-118l39 285h-99l-40 -285h-125l95 686h349l-16 -114h-222l-25 -173h99l11 78h97v-80q41 92 98 92q11 0 20.5 -2t13.5 -4l4 -2l-15 -116h-28q-87 0 -104 -121z" />
    <glyph glyph-name="lira" unicode="&#x20a4;" 
d="M15 108h50l16 115h-61l11 85h62l6 41h-62l11 85h61l10 65q30 199 197 199q79 0 122 -39t43 -114q0 -17 -3 -46h-118q4 33 4 39q0 29 -14 44t-39 15q-28 0 -46 -18.5t-23 -53.5l-13 -91h113l-11 -85h-113l-6 -41h113l-12 -85h-114l-26 -115h243l-16 -108h-400z" />
    <glyph glyph-name="peseta" unicode="&#x20a7;" horiz-adv-x="918" 
d="M104 686h142q88 0 136.5 -43.5t53.5 -116.5h27l20 148h125l-27 -148h122q16 6 35 9q18 3 37 3q80 0 114.5 -46.5t34.5 -119.5h-108q0 33 -10.5 50.5t-41.5 17.5q-19 0 -33 -14.5t-14 -37.5q0 -26 19.5 -42.5t47.5 -27.5t55.5 -25t47 -46.5t19.5 -81.5q0 -90 -50.5 -133.5
t-127.5 -43.5q-97 0 -139 56l-6 -44q-34 -12 -73 -12q-106 0 -106 108q0 11 11 93.5t23 158.5l11 77h-25q-22 -73 -80.5 -116t-135.5 -43h-36l-38 -266h-126zM188 379h13q47 0 76 29.5t29 80.5q0 38 -22 60.5t-61 22.5h-8zM526 122q0 -33 36 -33h6q-4 15 -4 35l5 47h109
q-4 -17 -4 -25q0 -60 61 -60q20 0 36.5 13.5t16.5 40.5q0 24 -14 41t-34.5 25.5t-44.5 21.5t-44.5 27.5t-34.5 45t-14 73.5q0 27 6 51h-40q-42 -294 -42 -303z" />
    <glyph glyph-name="Euro" unicode="&#x20ac;" 
d="M17 308h49q0 11 4 35q1 10 5 35h-49l12 81h60q90 239 323 239q42 0 73 -10l-14 -100q-28 9 -63 9q-64 0 -114 -36.5t-81 -101.5h180l-12 -81h-195q-4 -25 -5 -35q-4 -24 -4 -35h195l-12 -81h-180q21 -138 157 -138q34 0 65 9l-14 -99q-39 -11 -75 -11q-112 0 -179 63.5
t-78 175.5h-59z" />
    <glyph glyph-name="afii61248" unicode="&#x2105;" horiz-adv-x="813" 
d="M627 698h76l-514 -710h-77zM220 310q-65 0 -96.5 32.5t-31.5 100.5q0 127 43.5 191t116.5 64q121 0 121 -112q0 -23 -2 -36h-86q2 20 2 26q0 51 -35 51q-22 0 -37.5 -21.5t-22.5 -53.5t-10 -59t-3 -49q0 -63 41 -63q43 0 54 77h84q-20 -148 -138 -148zM436 123
q0 126 45.5 189t124.5 63q135 0 135 -137q0 -30 -4 -57q-26 -194 -165 -194q-136 0 -136 136zM523 125q0 -67 49 -67q25 0 43 19.5t25.5 50.5t10.5 57t3 52q0 67 -48 67q-25 0 -42.5 -19.5t-25.5 -50t-11.5 -57.5t-3.5 -52z" />
    <glyph glyph-name="afii61289" unicode="&#x2113;" horiz-adv-x="532" 
d="M60 132l13 89l59 42l34 245q17 119 71.5 173t127.5 54q60 0 92.5 -30.5t32.5 -87.5q0 -17 -3 -35q-17 -128 -234 -310l-10 -74q-3 -18 -3 -33q0 -78 64 -78q53 0 103 30l-14 -103q-57 -26 -116 -26q-82 0 -121.5 39.5t-39.5 104.5q0 18 3 38q-52 -34 -59 -38zM286 508
l-18 -127q133 131 133 224q0 46 -35 46q-25 0 -47.5 -34.5t-32.5 -108.5z" />
    <glyph glyph-name="afii61352" unicode="&#x2116;" horiz-adv-x="940" 
d="M822 488q7 48 7 66q0 64 -37 64q-45 0 -61 -104q-7 -42 -7 -68q0 -62 35 -62q47 0 63 104zM915 501q-26 -197 -162 -197q-120 0 -120 138q0 127 46 191.5t120 64.5q120 0 120 -138q0 -30 -4 -59zM610 180l12 84h244l-12 -84h-244zM495 0h-113l-157 378l-22 64l-4 -3
q-3 -39 -6 -57l-53 -382h-112l96 686h112l157 -378l22 -64l3 3q5 46 7 57l53 382h113z" />
    <glyph glyph-name="trademark" unicode="&#x2122;" horiz-adv-x="820" 
d="M413 686h111l23 -283h4l103 283h104l-57 -404h-72l41 293h-4l-107 -293h-67l-24 293h-5l-41 -293h-66zM195 619h-100l10 67h276l-10 -67h-101l-47 -337h-75z" />
    <glyph glyph-name="Omega" unicode="&#x2126;" horiz-adv-x="768" 
d="M94 114h25q8 0 33 -6t39 -8q-69 67 -69 182q0 61 12 119.5t38 112.5t63 95t90.5 65t117.5 24q123 0 189 -65.5t66 -196.5q0 -229 -140 -336q13 2 40 8t36 6h24l-15 -114h-245l12 81q118 29 143 215q15 110 15 135q0 75 -31.5 116t-93.5 41q-74 0 -122 -58t-61 -162
q-14 -110 -14 -132q0 -129 89 -154l-12 -82h-244z" />
    <glyph glyph-name="estimated" unicode="&#x212e;" horiz-adv-x="600" 
d="M153 248v-165q58 -53 149 -53q65 0 114.5 29t75.5 80l34 -21q-32 -61 -89.5 -95.5t-134.5 -34.5q-118 0 -187.5 77t-69.5 198t69.5 198t187.5 77q117 0 187 -79.5t70 -205.5v-5h-406zM451 290v151q-60 55 -149 55q-90 0 -149 -54v-152h298z" />
    <glyph glyph-name="oneeighth" unicode="&#x215b;" horiz-adv-x="684" 
d="M472 96q0 -40 31 -40q21 0 34 19.5t13 55.5q0 39 -31 39q-23 0 -35 -22.5t-12 -51.5zM389 85q0 37 16 69.5t46 49.5q-27 25 -27 72q0 56 34.5 95t89.5 39q50 0 76 -26.5t26 -68.5q0 -71 -53 -110q36 -24 36 -74q0 -61 -35 -102t-99 -41q-56 0 -83 26.5t-27 70.5zM503 271
q0 -34 26 -34q18 0 28.5 19t10.5 53q0 33 -24 33q-22 0 -31.5 -22t-9.5 -49zM568 698h66l-493 -710h-67zM34 352h74l33 233h-75l7 56q61 8 122 45h40l-47 -334h66l-10 -69h-220z" />
    <glyph glyph-name="threeeighths" unicode="&#x215c;" horiz-adv-x="684" 
d="M479 96q0 -40 31 -40q21 0 34 19.5t13 55.5q0 39 -31 39q-23 0 -35 -22.5t-12 -51.5zM396 85q0 37 16 69.5t46 49.5q-27 25 -27 72q0 56 34.5 95t89.5 39q50 0 76 -26.5t26 -68.5q0 -71 -53 -110q36 -24 36 -74q0 -61 -35 -102t-99 -41q-56 0 -83 26.5t-27 70.5zM510 271
q0 -34 26 -34q18 0 28.5 19t10.5 53q0 33 -24 33q-22 0 -31.5 -22t-9.5 -49zM566 698h66l-493 -710h-67zM141 277q-55 0 -83.5 27.5t-28.5 75.5q0 14 4 37h82q-4 -23 -4 -32q0 -39 34 -39q20 0 33 18t13 53q0 41 -35 41h-20l10 67h21q15 0 29 19t14 52q0 34 -26 34
q-34 0 -42 -66h-82q10 66 45 101q33 34 83 34q49 0 77.5 -25t28.5 -71q0 -70 -66 -108q45 -24 45 -80q0 -62 -38.5 -100t-93.5 -38z" />
    <glyph glyph-name="fiveeighths" unicode="&#x215d;" horiz-adv-x="684" 
d="M392 97q0 37 16 69.5t46 49.5q-27 26 -27 72q0 56 34.5 95t89.5 39q50 0 76 -26.5t26 -68.5q0 -71 -53 -110q36 -24 36 -74q0 -61 -35 -102t-99 -41q-56 0 -83 26.5t-27 70.5zM506 283q0 -34 26 -34q18 0 28.5 19t10.5 53q0 33 -24 33q-22 0 -31.5 -22t-9.5 -49zM475 108
q0 -40 31 -40q21 0 34 19.5t13 55.5q0 39 -31 39q-23 0 -35 -22.5t-12 -51.5zM562 698h66l-493 -710h-67zM143 272q-52 0 -81.5 28t-29.5 77q0 7 2 25h83q-2 -14 -2 -19q0 -44 33 -44q20 0 35.5 26t15.5 70q0 46 -27 46q-26 0 -45 -36l-74 12l46 229h202l-11 -75h-132
l-15 -82q27 17 53 17q39 0 62.5 -26t23.5 -75q0 -80 -39.5 -126.5t-99.5 -46.5z" />
    <glyph glyph-name="seveneighths" unicode="&#x215e;" horiz-adv-x="684" 
d="M473 96q0 -40 31 -40q21 0 34 19.5t13 55.5q0 39 -31 39q-23 0 -35 -22.5t-12 -51.5zM390 85q0 37 16 69.5t46 49.5q-27 25 -27 72q0 56 34.5 95t89.5 39q50 0 76 -26.5t26 -68.5q0 -71 -53 -110q36 -24 36 -74q0 -61 -35 -102t-99 -41q-56 0 -83 26.5t-27 70.5zM504 271
q0 -34 26 -34q18 0 28.5 19t10.5 53q0 33 -24 33q-22 0 -31.5 -22t-9.5 -49zM527 698h66l-493 -710h-67zM56 283l1 5q23 165 158 323h-157l11 75h247l-8 -53q-142 -180 -161 -316l-5 -34h-86z" />
    <glyph glyph-name="arrowleft" unicode="&#x2190;" horiz-adv-x="1000" 
d="M952 198h-722l35 -130h-52l-172 174l2 21l222 173h52l-71 -130h722z" />
    <glyph glyph-name="arrowup" unicode="&#x2191;" horiz-adv-x="500" 
d="M133 -207l101 722l-137 -53l7 52l202 197h21l145 -197l-8 -52l-121 53l-102 -722h-108z" />
    <glyph glyph-name="arrowright" unicode="&#x2192;" horiz-adv-x="1000" 
d="M50 306h721l-34 130h52l172 -174l-3 -21l-221 -173h-52l71 130h-722z" />
    <glyph glyph-name="arrowdown" unicode="&#x2193;" horiz-adv-x="500" 
d="M371 711l-102 -722l137 53l-7 -52l-201 -197h-21l-145 197l7 52l122 -53l101 722h109z" />
    <glyph glyph-name="arrowboth" unicode="&#x2194;" horiz-adv-x="1000" 
d="M789 436l172 -173l-3 -21l-221 -173h-52l71 129h-526l35 -129h-52l-172 173l2 21l222 173h52l-71 -129h526l-35 129h52z" />
    <glyph glyph-name="arrowupdn" unicode="&#x2195;" horiz-adv-x="500" 
d="M396 -10l-201 -197h-21l-145 197l7 52l122 -53l74 526l-137 -53l7 52l201 197h21l145 -197l-7 -52l-122 53l-74 -526l137 53z" />
    <glyph glyph-name="arrowupdnbse" unicode="&#x21a8;" horiz-adv-x="500" 
d="M379 -147l-12 -86h-367l12 86h367zM413 97l-201 -197h-21l-146 197l8 52l122 -53l58 419l-136 -53l7 52l201 197h21l145 -197l-7 -52l-122 53l-59 -419l137 53z" />
    <glyph glyph-name="partialdiff" unicode="&#x2202;" horiz-adv-x="494" 
d="M28 162q0 125 68.5 206t148.5 81q43 0 70.5 -20.5t37.5 -44.5h4q9 27 9 86q0 73 -30 119.5t-78 46.5q-60 0 -113 -34l15 104q54 29 122 29q87 0 144.5 -64.5t57.5 -193.5q0 -46 -7 -94q-26 -186 -100.5 -290.5t-184.5 -104.5q-81 0 -122.5 48.5t-41.5 125.5zM203 90
q42 0 78.5 56t53.5 133q-3 28 -22 50.5t-49 22.5q-42 0 -76.5 -57t-34.5 -128q0 -77 50 -77z" />
    <glyph glyph-name="Delta" unicode="&#x2206;" horiz-adv-x="550" 
d="M-19 55l288 631h147l113 -631l-8 -55h-548zM391 114l-71 427h-4l-189 -427h264z" />
    <glyph glyph-name="product" unicode="&#x220f;" horiz-adv-x="823" 
d="M226 621h-82l14 102h631l-14 -102h-83l-105 -749h-121l105 749h-224l-105 -749h-121z" />
    <glyph glyph-name="summation" unicode="&#x2211;" horiz-adv-x="713" 
d="M355 299l-231 357l9 67h569l-13 -98h-389l-1 -4l199 -306l-298 -321l-1 -4h417l-16 -118h-595l9 63z" />
    <glyph glyph-name="minus" unicode="&#x2212;" horiz-adv-x="479" 
d="M40 307h412l-15 -104h-412z" />
    <glyph glyph-name="uni2215" unicode="&#x2215;" horiz-adv-x="137" 
d="M-215 -12l494 710h66l-493 -710h-67z" />
    <glyph glyph-name="uni2219" unicode="&#x2219;" horiz-adv-x="273" 
d="M98 411h125l-19 -135h-125z" />
    <glyph glyph-name="radical" unicode="&#x221a;" horiz-adv-x="549" 
d="M325 -148h-110l-107 441l-81 -30l-12 60l182 68l24 -109.5l29 -128l25 -109.5q4 -15 10 -74l262 887h81z" />
    <glyph glyph-name="infinity" unicode="&#x221e;" horiz-adv-x="713" 
d="M173 138q-55 0 -92 37.5t-37 99.5q0 78 50 130t117 52q54 0 91.5 -22t68.5 -68q2 2 18 17t23 21t24 18.5t29.5 18t31 10.5t37.5 5q57 0 94.5 -36t37.5 -96q0 -72 -46.5 -129.5t-115.5 -57.5q-98 0 -160 94q-44 -47 -83.5 -70.5t-87.5 -23.5zM406 302l-3 -4
q26 -46 46.5 -61.5t47.5 -15.5q34 0 53.5 29t19.5 58q0 30 -15 48.5t-42 18.5q-19 0 -39 -12t-32.5 -24t-35.5 -37zM198 221q50 0 110 72l-2 5q-15 28 -24 41.5t-26 24.5t-40 11q-28 0 -52.5 -23.5t-24.5 -61.5q0 -29 16.5 -49t42.5 -20z" />
    <glyph glyph-name="orthogonal" unicode="&#x221f;" horiz-adv-x="979" 
d="M340 625l-72 -515h526l-16 -110h-644l88 625h118z" />
    <glyph glyph-name="intersection" unicode="&#x2229;" horiz-adv-x="722" 
d="M407 686q106 0 175 -66.5t69 -169.5q0 -19 -3 -40l-56 -410h-119l58 410q2 18 2 27q0 63 -39.5 102.5t-100.5 39.5q-67 0 -121 -47.5t-64 -121.5l-58 -410h-119l57 410q16 118 108.5 197t210.5 79z" />
    <glyph glyph-name="integral" unicode="&#x222b;" horiz-adv-x="274" 
d="M45 -13q59 610 80 760q5 34 22.5 57t47 34.5t61 16t73.5 4.5l-10 -69q-77 0 -85 -57q-58 -613 -79 -762q-9 -65 -61.5 -88.5t-140.5 -23.5l10 70q74 0 82 58z" />
    <glyph glyph-name="approxequal" unicode="&#x2248;" horiz-adv-x="549" 
d="M27 225l17 120q2 3 6.5 8t20 17.5t32 22t42 17.5t52.5 8q38 0 98 -30q60 -31 100 -31q37 0 75.5 18.5t58.5 36.5l20 18l-17 -120q-2 -3 -6.5 -8t-20 -17.5t-32 -22t-42 -17.5t-52.5 -8q-39 0 -99 31q-62 30 -100 30q-37 0 -75.5 -18t-58.5 -36zM-2 14l16 120q2 3 6.5 8
t20 17.5t32 22t42 17.5t52.5 8q37 0 99 -30q60 -31 100 -31q37 0 75.5 18t58.5 36l19 19l-17 -120q-2 -3 -6.5 -8t-20 -17.5t-32 -22t-42 -17.5t-52.5 -8q-38 0 -98 31q-62 30 -100 30q-37 0 -75.5 -18.5t-57.5 -36.5z" />
    <glyph glyph-name="notequal" unicode="&#x2260;" horiz-adv-x="549" 
d="M134 96h-85l15 103h137l71 109h-193l15 104h245l47 72h81l-47 -72h86l-15 -104h-138l-71 -109h194l-15 -103h-246l-46 -71h-81z" />
    <glyph glyph-name="equivalence" unicode="&#x2261;" horiz-adv-x="479" 
d="M70 546h412l-15 -104h-412zM40 333h412l-15 -104h-412zM10 120h412l-15 -103h-411z" />
    <glyph glyph-name="lessequal" unicode="&#x2264;" horiz-adv-x="549" 
d="M87 477l442 207l-17 -118l-332 -152l289 -152l-16 -118l-383 206zM35 103h412l-15 -103h-412z" />
    <glyph glyph-name="greaterequal" unicode="&#x2265;" horiz-adv-x="549" 
d="M57 262l333 152l-290 152l17 118l382 -207l-17 -127l-441 -206zM35 103h412l-15 -103h-412z" />
    <glyph glyph-name="house" unicode="&#x2302;" horiz-adv-x="600" 
d="M339 563l190 -253l-44 -310h-449l43 310zM320 428l-153 -151l-26 -188h265l26 188z" />
    <glyph glyph-name="revlogicalnot" unicode="&#x2310;" horiz-adv-x="479" 
d="M53 463h416l-16 -113h-312l-23 -163h-104z" />
    <glyph glyph-name="integraltp" unicode="&#x2320;" horiz-adv-x="604" 
d="M289 -250h-114q96 797 126 997q9 65 62 88.5t141 23.5l-9 -69q-78 0 -85 -57z" />
    <glyph glyph-name="integralbt" unicode="&#x2321;" horiz-adv-x="604" 
d="M99 -250l9 69q78 0 85 57l121 983h114q-111 -887 -126 -997q-10 -65 -63 -88.5t-140 -23.5z" />
    <glyph glyph-name="commaaccent" unicode="&#xf6c3;" horiz-adv-x="273" 
d="M213 -55l-16 -112l-61 -96h-65l46 85h-45l17 123h124z" />
    <glyph glyph-name="uniFB01" unicode="&#xfb01;" horiz-adv-x="501" 
d="M83 425h-52l14 101h52l9 64q9 60 43 100.5t100 40.5q46 0 84 -12l-13 -89h-48q-42 0 -48 -43l-8 -61h90l-14 -101h-90l-62 -466q-8 -60 -41.5 -100.5t-97.5 -40.5q-46 0 -86 12l13 89h44q45 0 51 48zM396 723h119l-15 -109h-119zM369 526h119l-73 -526h-119z" />
    <glyph glyph-name="uniFB02" unicode="&#xfb02;" horiz-adv-x="501" 
d="M83 425h-52l14 101h52l9 64q9 60 43 100.5t100 40.5q46 0 84 -12l-13 -89h-48q-42 0 -48 -43l-8 -61h90l-14 -101h-90l-62 -466q-8 -60 -41.5 -100.5t-97.5 -40.5q-46 0 -86 12l13 89h44q45 0 51 48zM394 723h119l-100 -723h-119z" />
    <glyph glyph-name="NULL" horiz-adv-x="0" 
 />
    </font>
</defs>
</svg>
