<?xml version="1.0" standalone="no"?>
<!DOCTYPE svg PUBLIC "-//W3C//DTD SVG 1.1//EN" "http://www.w3.org/Graphics/SVG/1.1/DTD/svg11.dtd" >
<svg>
<metadata>
Created by FontForge 20090622 at Wed Dec 13 10:26:24 2017
 By deploy user
Copyright (c) 2012, Omnibus-Type (www.omnibus-type.com|omnibus.type@gmail.com),with Reserved Font Name: Archivo
</metadata>
<defs>
<font id="ArchivoNarrow-Italic" horiz-adv-x="456" >
  <font-face 
    font-family="Archivo Narrow"
    font-weight="400"
    font-style="italic"
    font-stretch="normal"
    units-per-em="1000"
    panose-1="2 0 0 0 0 0 0 0 0 0"
    ascent="800"
    descent="-200"
    x-height="526"
    cap-height="686"
    bbox="-211 -303 965 957"
    underline-thickness="24"
    underline-position="-25"
    slope="-8"
    unicode-range="U+000D-U+FB02"
  />
<missing-glyph horiz-adv-x="228" 
d="M549 700l-99 -700h-499l98 700h500zM243 305l-206 -255h340zM462 650h-340l134 -255zM85 605l-71 -510l206 255zM485 605l-205 -255l134 -255z" />
    <glyph glyph-name=".notdef" horiz-adv-x="228" 
d="M549 700l-99 -700h-499l98 700h500zM243 305l-206 -255h340zM462 650h-340l134 -255zM85 605l-71 -510l206 255zM485 605l-205 -255l134 -255z" />
    <glyph glyph-name=".null" horiz-adv-x="0" 
 />
    <glyph glyph-name="nonmarkingreturn" horiz-adv-x="333" 
 />
    <glyph glyph-name="CR" unicode="&#xd;" horiz-adv-x="0" 
 />
    <glyph glyph-name="space" unicode=" " horiz-adv-x="228" 
 />
    <glyph glyph-name="exclam" unicode="!" horiz-adv-x="228" 
d="M128 686h113q-6 -25 -22 -110l-40 -212l-37 -193h-62q47 499 48 515zM153 108l-15 -108h-100l15 108h100z" />
    <glyph glyph-name="quotedbl" unicode="&#x22;" horiz-adv-x="291" 
d="M178 686l-21 -147l-39 -132h-39l-4 132l21 147h82zM311 686l-21 -147l-40 -132h-39l-3 132l21 147h82z" />
    <glyph glyph-name="numbersign" unicode="#" 
d="M438 696l-47 -210h60v-76h-77l-34 -155h71v-76h-88l-40 -179h-76l40 179h-90l-40 -179h-76l40 179h-64v76h81l34 155h-76v76h93l47 210h76l-47 -210h90l47 210h76zM298 410h-90l-34 -155h90z" />
    <glyph glyph-name="dollar" unicode="$" 
d="M323 723l-16 -108q60 -11 89.5 -56t29.5 -106h-81q0 66 -48 86l-22 -156q25 -12 36 -18t31.5 -21t30.5 -29t18 -37t8 -50q0 -74 -45.5 -116t-123.5 -44l-16 -118h-48l17 122q-57 12 -92.5 54t-35.5 104q0 21 2 32h81q-3 -16 -3 -32q0 -64 58 -84l25 176
q-28 16 -42.5 25.5t-34 27.5t-28.5 41.5t-9 53.5q0 62 40.5 103t115.5 45l15 105h48zM262 296l-22 -156q35 3 56.5 24t21.5 51q0 46 -56 81zM230 409l20 136q-26 -4 -45.5 -21t-19.5 -42q0 -44 45 -73z" />
    <glyph glyph-name="percent" unicode="%" horiz-adv-x="729" 
d="M566 349q57 0 86 -27.5t29 -93.5q0 -41 -6.5 -79t-21.5 -76.5t-46 -61.5t-75 -23q-57 0 -86.5 28t-29.5 93q0 240 150 240zM566 290q-34 0 -50.5 -29t-24.5 -85q-6 -40 -6 -63q0 -66 47 -66q34 0 50.5 29t24.5 85q6 40 6 63q0 66 -47 66zM223 698q57 0 86 -27.5t29 -93.5
q0 -41 -6.5 -79t-21.5 -76.5t-46 -61.5t-75 -23q-57 0 -86.5 28t-29.5 93q0 240 150 240zM223 639q-34 0 -50.5 -29t-24.5 -85q-6 -40 -6 -63q0 -66 47 -66q34 0 50.5 29t24.5 85q6 40 6 63q0 66 -47 66zM671 686l-516 -686h-70l515 686h71z" />
    <glyph glyph-name="ampersand" unicode="&#x26;" horiz-adv-x="547" 
d="M303 698q88 0 141 -43t53 -116q0 -12 -5 -47h-82q4 24 4 33q0 49 -30.5 73.5t-81.5 24.5q-58 0 -98.5 -35t-40.5 -107q0 -47 25 -71.5t65 -24.5h51l-10 -73h-49q-57 0 -97.5 -34t-40.5 -116q0 -99 115 -99q128 0 146 128l27 194h152l-10 -74h-70l-16 -117
q-12 -95 -73.5 -150.5t-161.5 -55.5q-91 0 -144.5 44t-53.5 121q0 76 36.5 127.5t90.5 71.5v4q-69 42 -69 123q0 102 64.5 160.5t162.5 58.5z" />
    <glyph glyph-name="quotesingle" unicode="'" horiz-adv-x="157" 
d="M178 686l-21 -147l-39 -132h-39l-4 132l21 147h82z" />
    <glyph glyph-name="parenleft" unicode="(" horiz-adv-x="273" 
d="M266 735h54q-90 -119 -146 -264t-56 -280q0 -187 77 -348h-54q-109 152 -109 350q0 50 7 95q17 123 76 238.5t151 208.5z" />
    <glyph glyph-name="parenright" unicode=")" horiz-adv-x="273" 
d="M77 735h54q108 -151 108 -351q0 -40 -7 -96q-17 -123 -75.5 -237.5t-150.5 -207.5h-53q89 119 145.5 264.5t56.5 279.5q0 184 -78 348z" />
    <glyph glyph-name="asterisk" unicode="*" horiz-adv-x="319" 
d="M256 686l-21 -88l81 51l26 -58l-87 -38l76 -38l-42 -59l-67 52l-3 -89h-68l21 89l-81 -52l-26 59l88 38l-77 38l42 58l67 -52l3 89h68z" />
    <glyph glyph-name="plus" unicode="+" horiz-adv-x="479" 
d="M315 511l-30 -214h155l-11 -84h-155l-30 -213h-83l30 213h-154l11 84h154l30 214h83z" />
    <glyph glyph-name="comma" unicode="," horiz-adv-x="228" 
d="M151 108l-14 -99l-64 -133h-55l51 124h-33l15 108h100z" />
    <glyph glyph-name="hyphen" unicode="-" horiz-adv-x="273" 
d="M268 319l-13 -98h-252l13 98h252z" />
    <glyph glyph-name="period" unicode="." horiz-adv-x="228" 
d="M153 108l-15 -108h-100l15 108h100z" />
    <glyph glyph-name="slash" unicode="/" horiz-adv-x="228" 
d="M290 735l-267 -784h-70l267 784h70z" />
    <glyph glyph-name="zero" unicode="0" 
d="M277 698q79 0 120 -47t41 -162q0 -61 -12 -146q-27 -199 -82 -277t-146 -78q-79 0 -119.5 46.5t-40.5 158.5q0 63 12 150q14 103 35 173t50 109.5t63 56t79 16.5zM277 625q-104 0 -139 -247q-19 -130 -19 -177q0 -140 79 -140q30 0 53 18t39.5 52.5t27.5 77t19 99.5
q19 152 19 184q0 133 -79 133z" />
    <glyph glyph-name="one" unicode="1" 
d="M350 686l-86 -613h150l-11 -73h-395l11 73h163l68 488h-164l7 52q45 5 110 25.5t115 47.5h32z" />
    <glyph glyph-name="two" unicode="2" 
d="M294 698q73 0 117 -35.5t44 -107.5q0 -66 -35.5 -132t-79 -109.5l-104 -101.5t-88.5 -93q-11 -14 -23 -35h269l-12 -84h-372l2 13q12 81 68 149q29 35 86 89l97 92t72 92.5t32 105.5q0 35 -18.5 58t-61.5 23q-50 0 -79 -36.5t-36 -94.5l-5 -41h-85q0 107 55 177.5
t157 70.5z" />
    <glyph glyph-name="three" unicode="3" 
d="M282 698q75 0 118 -39t43 -111q0 -131 -114 -192v-4q80 -32 80 -132q0 -104 -60.5 -168t-147.5 -64q-86 0 -131.5 43.5t-45.5 120.5q0 19 4 50h83q-4 -23 -4 -45q0 -96 93 -96q53 0 89 40.5t36 118.5q0 92 -98 92h-57l10 73h59q48 0 83 39t35 110q0 46 -22 68.5t-57 22.5
q-43 0 -73.5 -32.5t-40.5 -100.5h-84q7 94 65 150t137 56z" />
    <glyph glyph-name="four" unicode="4" 
d="M263 698h83q-43 -123 -123 -262t-126 -194h188l31 216q28 51 61 138h40l-50 -354h70l-10 -73h-70l-24 -169h-82l24 169h-264l10 74q145 211 242 455z" />
    <glyph glyph-name="five" unicode="5" 
d="M452 686l-12 -84h-241l-43 -209q58 53 124 53q63 0 101.5 -42.5t38.5 -123.5q0 -135 -62.5 -213.5t-156.5 -78.5q-81 0 -127.5 46.5t-46.5 129.5q0 26 4 49h85q-3 -18 -3 -35q0 -54 24.5 -86t64.5 -32q52 0 92 53t40 149q0 53 -22 81.5t-60 28.5q-32 0 -62 -21.5
t-51 -57.5l-76 13l77 380h312z" />
    <glyph glyph-name="six" unicode="6" 
d="M293 698q73 0 108.5 -44t35.5 -121q0 -31 -4 -58h-83q4 36 4 49q0 101 -65 101q-61 0 -93 -64.5t-52 -194.5q55 65 130 65q71 0 107.5 -46.5t36.5 -123.5q0 -121 -61.5 -197t-147.5 -76q-81 0 -123 48.5t-42 160.5q0 57 10 126q28 206 86.5 290.5t152.5 84.5zM251 359
q-57 0 -91 -55.5t-34 -133.5q0 -50 19 -79.5t59 -29.5q44 0 75 33t42.5 73.5t11.5 81.5q0 50 -20.5 80t-61.5 30z" />
    <glyph glyph-name="seven" unicode="7" 
d="M489 686l-8 -53q-253 -315 -290 -582q-2 -11 -3.5 -26.5t-2.5 -24.5h-97q40 284 282 602h-283l12 84h390z" />
    <glyph glyph-name="eight" unicode="8" 
d="M283 698q76 0 115.5 -43.5t39.5 -112.5q0 -59 -26 -110.5t-73 -79.5q68 -37 68 -127q0 -101 -55 -169t-158 -68q-86 0 -127 43t-41 115q0 67 28.5 123.5t85.5 82.5q-55 40 -55 120q0 94 54 160t144 66zM234 314q-58 0 -90.5 -45t-32.5 -112q0 -96 88 -96q56 0 90 43
t34 114q0 46 -22.5 71t-66.5 25zM278 625q-51 0 -81 -43.5t-30 -102.5q0 -43 20.5 -67.5t57.5 -24.5q47 0 79 40.5t32 106.5q0 43 -21 67t-57 24z" />
    <glyph glyph-name="nine" unicode="9" 
d="M275 698q81 0 123 -48.5t42 -160.5q0 -57 -10 -126q-28 -206 -86.5 -290.5t-152.5 -84.5q-73 0 -108.5 44t-35.5 121q0 31 4 58h83q-4 -36 -4 -49q0 -101 65 -101q61 0 93 64.5t52 194.5q-55 -65 -130 -65q-71 0 -107.5 46.5t-36.5 123.5q0 121 61.5 197t147.5 76z
M280 625q-44 0 -75 -33t-42.5 -73.5t-11.5 -81.5q0 -50 20.5 -80t61.5 -30q57 0 91 55.5t34 133.5q0 50 -19 79.5t-59 29.5z" />
    <glyph glyph-name="colon" unicode=":" horiz-adv-x="228" 
d="M210 526l-15 -108h-100l15 108h100zM151 108l-15 -108h-100l15 108h100z" />
    <glyph glyph-name="semicolon" unicode=";" horiz-adv-x="228" 
d="M151 108l-14 -99l-64 -133h-55l51 124h-33l15 108h100zM210 526l-15 -108h-100l15 108h100z" />
    <glyph glyph-name="less" unicode="&#x3c;" horiz-adv-x="479" 
d="M471 504l-13 -90l-333 -160l288 -160l-13 -90l-364 196l15 107z" />
    <glyph glyph-name="equal" unicode="=" horiz-adv-x="479" 
d="M455 402l-12 -84h-392l12 84h392zM425 189l-11 -83h-392l11 83h392z" />
    <glyph glyph-name="greater" unicode="&#x3e;" horiz-adv-x="479" 
d="M79 504l364 -197l-15 -107l-420 -196l13 90l334 160l-289 160z" />
    <glyph glyph-name="question" unicode="?" 
d="M282 698q72 0 116 -41t44 -109q0 -56 -16 -99t-40.5 -70t-49 -49.5t-44 -50t-24.5 -58.5l-6 -41h-87l8 56q5 38 24.5 69t42.5 52.5l45.5 44t38 55.5t15.5 75q0 35 -16.5 62t-58.5 27q-39 0 -65 -23t-36 -56.5t-13 -52.5t-3 -30h-89q2 100 59 169.5t155 69.5zM258 108
l-16 -108h-100l16 108h100z" />
    <glyph glyph-name="at" unicode="@" horiz-adv-x="832" 
d="M583 22q-32 0 -55.5 13.5t-32 27t-13.5 29.5q-39 -70 -108 -70q-55 0 -88 44t-33 133q0 154 55 238t129 84q76 0 99 -77l17 66h58q-52 -328 -52 -373q0 -50 46 -50q40 0 78 55q56 85 56 226q0 101 -24 157q-50 118 -222 118q-84 0 -151 -24t-119.5 -75.5t-81 -139.5
t-28.5 -208q0 -295 284 -295q40 0 73 5t46 10l13 5l-8 -57q-50 -18 -115 -18q-351 0 -351 348q0 244 112 374t309 130q79 0 137 -16t93.5 -43.5t56 -70.5t28 -89.5t7.5 -109.5q0 -64 -12.5 -123.5t-37 -110.5t-67.5 -82t-98 -31zM448 455q-34 0 -59 -29t-37 -74t-17.5 -85
t-5.5 -75q0 -104 68 -104q40 0 68 53t37.5 109.5t9.5 101.5q0 103 -64 103z" />
    <glyph glyph-name="A" unicode="A" horiz-adv-x="547" 
d="M421 0l-26 153h-275l-69 -153h-87l314 686h113l121 -686h-91zM294 538l-138 -305h226l-51 305l-5 76h-4q-18 -54 -28 -76z" />
    <glyph glyph-name="B" unicode="B" horiz-adv-x="547" 
d="M34 0l97 686h241q74 0 119.5 -39.5t45.5 -105.5q0 -65 -37.5 -114t-91.5 -67l-1 -4q45 -15 72 -54.5t27 -95.5q0 -92 -64 -149t-149 -57h-259zM311 311h-145l-32 -231h159q50 0 86 34t36 92q0 45 -28 75t-76 30zM340 606h-133l-30 -215h137q56 0 92 38t36 89q0 44 -27 66
t-75 22z" />
    <glyph glyph-name="C" unicode="C" horiz-adv-x="592" 
d="M353 698q217 0 217 -245v-16h-91v22q0 158 -127 158q-53 0 -93.5 -32t-62 -76.5t-35 -100.5t-17 -94t-3.5 -68q0 -85 36.5 -130.5t104.5 -45.5q72 0 116.5 49t55.5 123h87q-14 -109 -81 -181.5t-175 -72.5q-111 0 -172.5 63t-61.5 190q0 58 8.5 117t30.5 121.5t54.5 110
t86.5 78t122 30.5z" />
    <glyph glyph-name="D" unicode="D" horiz-adv-x="592" 
d="M265 0h-231l97 686h203q110 0 169.5 -65t59.5 -192q0 -56 -9.5 -113t-32.5 -114.5t-56 -102t-85 -72t-115 -27.5zM324 606h-117l-73 -526h121q49 0 88 23t62.5 59t39 83.5t21.5 92t6 90.5q0 89 -38.5 133.5t-109.5 44.5z" />
    <glyph glyph-name="E" unicode="E" horiz-adv-x="547" 
d="M463 0h-429l97 686h423l-12 -80h-335l-30 -215h291l-11 -80h-291l-32 -231h341z" />
    <glyph glyph-name="F" unicode="F" horiz-adv-x="501" 
d="M122 0h-88l97 686h396l-12 -80h-308l-31 -222h272l-11 -80h-272z" />
    <glyph glyph-name="G" unicode="G" horiz-adv-x="638" 
d="M475 0l-8 76q-68 -88 -182 -88q-111 0 -173 63t-62 190q0 75 15.5 148.5t49 146t98 117.5t151.5 45q232 0 232 -246h-91v7q0 158 -142 158q-56 0 -98.5 -30.5t-65.5 -73.5t-37 -98.5t-18 -95t-4 -73.5q0 -176 153 -176q79 0 126 48.5t59 123.5l6 38h-180l11 77h269
l-51 -357h-58z" />
    <glyph glyph-name="H" unicode="H" horiz-adv-x="592" 
d="M583 686l-97 -686h-88l44 311h-276l-44 -311h-88l97 686h88l-42 -295h276l42 295h88z" />
    <glyph glyph-name="I" unicode="I" horiz-adv-x="228" 
d="M219 686l-97 -686h-88l97 686h88z" />
    <glyph glyph-name="J" unicode="J" horiz-adv-x="410" 
d="M407 686l-74 -523q-12 -85 -59 -130t-122 -45q-74 0 -113.5 35t-39.5 101q0 18 9 84h87q-9 -64 -9 -71q0 -68 68 -68q78 0 90 89l75 528h88z" />
    <glyph glyph-name="K" unicode="K" horiz-adv-x="547" 
d="M219 686l-51 -357l316 357h105l-245 -277l155 -409h-98l-122 335l-127 -122l-30 -213h-88l97 686h88z" />
    <glyph glyph-name="L" unicode="L" 
d="M402 0h-368l97 686h88l-85 -606h280z" />
    <glyph glyph-name="M" unicode="M" horiz-adv-x="683" 
d="M680 686l-97 -686h-88l70 498l15 86h-4q-22 -66 -31 -86l-207 -498h-79l-65 498l-7 86h-4q-8 -70 -10 -86l-70 -498h-79l97 686h132l57 -450q3 -20 4.5 -53.5t1.5 -56.5l1 -24h4q21 92 38 134l186 450h135z" />
    <glyph glyph-name="N" unicode="N" horiz-adv-x="592" 
d="M582 686l-97 -686h-69l-197 437l-33 92l-3 -1q-5 -63 -9 -91l-62 -437h-79l97 686h72l195 -431l32 -92l3 1q7 69 10 91l61 431h79z" />
    <glyph glyph-name="O" unicode="O" horiz-adv-x="638" 
d="M367 698q114 0 176 -66t62 -195q0 -77 -16.5 -151.5t-51 -143.5t-99 -111.5t-150.5 -42.5q-114 0 -175.5 65t-61.5 194q0 61 9.5 120.5t32.5 120.5t58 106.5t91 74.5t125 29zM366 617q-64 0 -110.5 -35.5t-70 -93.5t-34 -117.5t-10.5 -121.5q0 -90 38 -135t110 -45
q52 0 92.5 24.5t65 62.5t40 88.5t21.5 97.5t6 95q0 89 -38.5 134.5t-109.5 45.5z" />
    <glyph glyph-name="P" unicode="P" horiz-adv-x="547" 
d="M323 283h-161l-40 -283h-88l97 686h235q93 0 141 -47t48 -127q0 -107 -63.5 -168t-168.5 -61zM361 606h-154l-33 -243h158q57 0 93.5 36.5t36.5 96.5q0 51 -26 80.5t-75 29.5z" />
    <glyph glyph-name="Q" unicode="Q" horiz-adv-x="638" 
d="M51 247q0 61 9.5 120.5t32.5 120.5t58 106.5t91 74.5t125 29q114 0 176 -66t62 -195q0 -65 -11.5 -128.5t-35.5 -125t-68 -109t-102 -69.5l122 -129h-110l-104 112h-8q-114 0 -175.5 65t-61.5 194zM366 617q-64 0 -110.5 -35.5t-70 -93.5t-34 -117.5t-10.5 -121.5
q0 -90 38 -135t110 -45q52 0 92.5 24.5t65 62.5t40 88.5t21.5 97.5t6 95q0 89 -38.5 134.5t-109.5 45.5z" />
    <glyph glyph-name="R" unicode="R" horiz-adv-x="592" 
d="M583 527q0 -75 -38.5 -130.5t-105.5 -78.5l92 -318h-93l-88 303h-185l-43 -303h-88l97 686h266q94 0 140 -42.5t46 -116.5zM384 606h-177l-31 -223h177q59 0 98.5 36.5t39.5 93.5q0 45 -27.5 69t-79.5 24z" />
    <glyph glyph-name="S" unicode="S" horiz-adv-x="547" 
d="M314 698q212 0 212 -213h-91q0 132 -126 132q-17 0 -33.5 -3.5t-37.5 -13t-33.5 -32.5t-12.5 -56q0 -29 16.5 -51t42.5 -36t58 -27t64 -29t58 -36t42.5 -53.5t16.5 -76.5q0 -38 -11 -73t-36.5 -68.5t-75 -53.5t-118.5 -20q-100 0 -158 52.5t-58 147.5q0 30 3 46h91
q-5 -28 -5 -47q0 -118 134 -118q32 0 61.5 9t55 38t25.5 74q0 41 -30.5 70t-74 47.5t-87.5 40t-74.5 60t-30.5 94.5q0 94 56 145t157 51z" />
    <glyph glyph-name="T" unicode="T" horiz-adv-x="501" 
d="M64 606l12 80h462l-12 -80h-187l-85 -606h-88l85 606h-187z" />
    <glyph glyph-name="U" unicode="U" horiz-adv-x="592" 
d="M579 686l-66 -463q-16 -115 -80.5 -175t-168.5 -60q-99 0 -153 47.5t-54 137.5q0 20 17.5 148.5t35.5 246.5l17 118h88q-69 -479 -69 -501q0 -57 31.5 -86.5t88.5 -29.5q65 0 107 38.5t52 110.5l66 468h88z" />
    <glyph glyph-name="V" unicode="V" horiz-adv-x="547" 
d="M605 686l-306 -686h-113l-112 686h91l92 -590h4l256 590h88z" />
    <glyph glyph-name="W" unicode="W" horiz-adv-x="774" 
d="M831 686l-256 -686h-114l-20 603h-5q-21 -92 -35 -138l-148 -465h-114l-62 686h89l39 -474l4 -122h4q16 62 34 122l144 474h127l17 -474l1 -122h4q22 77 38 122l171 474h82z" />
    <glyph glyph-name="X" unicode="X" horiz-adv-x="547" 
d="M483 686h99l-244 -325l169 -361h-99l-131 280l-211 -280h-97l270 360l-154 326h100l116 -245q182 244 182 245z" />
    <glyph glyph-name="Y" unicode="Y" horiz-adv-x="547" 
d="M601 686l-278 -402l-40 -284h-88l40 284l-165 402h96l125 -318h4l214 318h92z" />
    <glyph glyph-name="Z" unicode="Z" horiz-adv-x="501" 
d="M439 0h-455l3 38l401 568h-302l12 80h428l-3 -38l-402 -568h330z" />
    <glyph glyph-name="bracketleft" unicode="[" horiz-adv-x="228" 
d="M270 735l-9 -65h-83l-107 -766h83l-9 -65h-158l124 896h159z" />
    <glyph glyph-name="backslash" unicode="\" horiz-adv-x="228" 
d="M119 735l109 -784h-71l-108 784h70z" />
    <glyph glyph-name="bracketright" unicode="]" horiz-adv-x="228" 
d="M241 735l-125 -896h-158l9 65h82l107 766h-83l9 65h159z" />
    <glyph glyph-name="asciicircum" unicode="^" horiz-adv-x="385" 
d="M306 686l82 -392h-90l-57 315l-143 -315h-89l190 392h107z" />
    <glyph glyph-name="underscore" unicode="_" 
d="M416 -71l-7 -53h-454l6 53h455z" />
    <glyph glyph-name="grave" unicode="`" horiz-adv-x="273" 
d="M156 723l67 -132h-69l-90 129l2 3h90z" />
    <glyph glyph-name="a" unicode="a" 
d="M236 538q83 0 109 -85l18 73h65q-61 -425 -61 -437q0 -28 24 -28h32l-8 -57q-23 -16 -56 -16q-71 0 -72 83q-55 -83 -121 -83q-61 0 -97 49t-36 146q0 169 61 262t142 93zM248 465q-38 0 -65.5 -32t-40.5 -81.5t-19 -94t-6 -82.5q0 -114 74 -114q33 0 59 33.5t40 83
t20.5 95t6.5 79.5q0 113 -69 113z" />
    <glyph glyph-name="b" unicode="b" 
d="M124 723h82l-35 -257q53 72 118 72q61 0 97 -49t36 -146q0 -169 -61 -262t-142 -93q-86 0 -113 85l-18 -73h-65zM207 61q38 0 65.5 32t40.5 81.5t19 94t6 82.5q0 114 -74 114q-36 0 -63.5 -33.5t-41 -83t-19.5 -94t-6 -80.5q0 -113 73 -113z" />
    <glyph glyph-name="c" unicode="c" horiz-adv-x="410" 
d="M240 538q150 0 150 -189v-18h-85v17q0 117 -65 117q-38 0 -65 -34t-38.5 -86t-16 -90.5t-4.5 -68.5q0 -60 19 -92.5t55 -32.5q40 0 68 38t34 93h82q-10 -86 -58 -145t-124 -59t-118.5 47.5t-42.5 143.5q0 51 5 97.5t19.5 95.5t37 84.5t60.5 58.5t87 23z" />
    <glyph glyph-name="d" unicode="d" 
d="M460 723l-101 -723h-65v71q-51 -83 -127 -83q-61 0 -97 49t-36 146q0 169 61 262t142 93q73 0 105 -70l36 255h82zM249 465q-38 0 -65.5 -32t-40.5 -81.5t-19 -94t-6 -82.5q0 -114 74 -114q36 0 63.5 33.5t41 83t19.5 94t6 80.5q0 113 -73 113z" />
    <glyph glyph-name="e" unicode="e" 
d="M258 538q162 0 162 -189q0 -59 -8 -110h-289q-3 -32 -3 -53q0 -125 85 -125q43 0 73.5 34t37.5 83h83q-13 -82 -63.5 -136t-130.5 -54q-170 0 -170 191q0 63 10 120.5t33 114t69 90.5t111 34zM258 465q-93 0 -125 -153h201q1 13 1 36q0 117 -77 117z" />
    <glyph glyph-name="f" unicode="f" horiz-adv-x="228" 
d="M227 731q35 0 67 -12l-8 -57h-44q-48 0 -54 -48l-12 -88h91l-10 -73h-91l-68 -514q-7 -51 -36 -86t-84 -35q-35 0 -67 12l8 57h44q47 0 53 48l68 518h-46l10 73h46l12 84q7 52 36.5 86.5t84.5 34.5z" />
    <glyph glyph-name="g" unicode="g" 
d="M250 465q-38 0 -65.5 -31.5t-40 -80t-18 -91t-5.5 -80.5q0 -101 76 -101q34 0 60.5 31t40 77.5t20 88.5t6.5 74q-2 113 -74 113zM282 25l11 66q-52 -83 -122 -83q-69 0 -101.5 53t-32.5 129q0 168 60.5 258t141.5 90q86 0 113 -85l17 73h65l-67 -477q-17 -121 -66.5 -176
t-135.5 -55q-77 0 -117.5 45t-40.5 113h82q0 -86 79 -86q48 0 75.5 32.5t38.5 102.5z" />
    <glyph glyph-name="h" unicode="h" 
d="M205 723l-36 -258q47 73 130 73q60 0 87 -33.5t27 -84.5q0 -14 -14 -119l-28 -203l-14 -98h-82q54 369 54 401q0 64 -60 64q-49 0 -81.5 -46.5t-43.5 -124.5l-41 -294h-81l101 723h82z" />
    <glyph glyph-name="i" unicode="i" horiz-adv-x="182" 
d="M171 526l-74 -526h-81l73 526h82zM198 723l-13 -98h-82l13 98h82z" />
    <glyph glyph-name="j" unicode="j" horiz-adv-x="182" 
d="M170 526l-82 -587q-8 -52 -36.5 -86.5t-83.5 -34.5q-35 0 -67 12l8 57h44q47 0 52 48l83 591h82zM198 723l-14 -98h-82l14 98h82z" />
    <glyph glyph-name="k" unicode="k" horiz-adv-x="410" 
d="M202 723l-61 -431l197 234h98l-186 -216l120 -310h-90l-88 242l-65 -55l-26 -187h-82l101 723h82z" />
    <glyph glyph-name="l" unicode="l" horiz-adv-x="182" 
d="M198 723l-101 -723h-81l100 723h82z" />
    <glyph glyph-name="m" unicode="m" horiz-adv-x="683" 
d="M535 538q56 0 81 -33.5t25 -84.5q0 -14 -14 -119l-28 -203l-14 -98h-82q54 369 54 401q0 64 -52 64q-45 0 -76 -43t-41 -115l-43 -307h-82q54 369 54 401q0 64 -52 64q-47 0 -78 -46.5t-42 -124.5l-41 -294h-82l74 526h64v-78q15 33 48.5 61.5t86.5 28.5q91 0 104 -92
q44 92 136 92z" />
    <glyph glyph-name="n" unicode="n" 
d="M300 538q60 0 87 -33.5t27 -84.5q0 -14 -14 -119l-28 -203l-14 -98h-82q54 369 54 401q0 64 -60 64q-49 0 -81.5 -46.5t-43.5 -124.5l-41 -294h-82l74 526h64v-78q45 90 140 90z" />
    <glyph glyph-name="o" unicode="o" 
d="M256 538q166 0 166 -189q0 -61 -10 -118.5t-33 -115t-69 -92.5t-111 -35q-166 0 -166 187q0 61 10 118.5t33 115.5t69 93.5t111 35.5zM256 465q-42 0 -72 -32.5t-43 -82.5t-18 -90t-5 -74q0 -64 19.5 -94.5t61.5 -30.5q43 0 72.5 33.5t42.5 85t18 92t5 76.5
q0 117 -81 117z" />
    <glyph glyph-name="p" unicode="p" 
d="M290 538q61 0 97 -49t36 -146q0 -169 -61 -262t-142 -93q-73 0 -105 70l-34 -240h-82l99 708h65v-71q51 83 127 83zM265 465q-36 0 -63.5 -33.5t-41 -83t-19.5 -94t-6 -80.5q0 -113 73 -113q38 0 65.5 32t40.5 81.5t19 94t6 82.5q0 114 -74 114z" />
    <glyph glyph-name="q" unicode="q" 
d="M334 -173h-82l32 233q-53 -72 -118 -72q-61 0 -97 49t-36 146q0 169 61 262t142 93q86 0 113 -85l18 73h65zM248 465q-38 0 -65.5 -32t-40.5 -81.5t-19 -94t-6 -82.5q0 -114 74 -114q36 0 63.5 33.5t41 83t19.5 94t6 80.5q0 113 -73 113z" />
    <glyph glyph-name="r" unicode="r" horiz-adv-x="273" 
d="M259 538q10 0 19.5 -2t13.5 -4l5 -2l-12 -85h-27q-41 0 -74.5 -37t-42.5 -104l-43 -304h-82l74 526h64v-84q10 21 16.5 32.5t20 29t30.5 26t38 8.5z" />
    <glyph glyph-name="s" unicode="s" horiz-adv-x="410" 
d="M232 538q75 0 112.5 -47.5t37.5 -117.5h-85q0 50 -21 71.5t-53 21.5q-25 0 -46.5 -17.5t-21.5 -46.5q0 -33 20.5 -55.5t50 -37.5t59 -32t50 -49.5t20.5 -79.5q0 -75 -45.5 -117.5t-123.5 -42.5q-70 0 -117.5 44.5t-47.5 117.5q0 21 2 32h85q-3 -16 -3 -32q0 -44 25 -67
t64 -23q34 0 55 21.5t21 53.5t-20.5 56t-50 40.5l-59 34.5t-50 49.5t-20.5 74.5q0 65 42.5 106.5t119.5 41.5z" />
    <glyph glyph-name="t" unicode="t" horiz-adv-x="228" 
d="M203 672l-25 -146h71l-10 -73h-71q-50 -343 -50 -355q0 -37 37 -37h29l-8 -57q-28 -14 -61 -14q-81 0 -81 85q0 12 13 106.5l26 182.5l13 89h-45l10 73h45l21 146h86z" />
    <glyph glyph-name="u" unicode="u" 
d="M434 526l-74 -526h-64v77q-7 -14 -17 -27t-26.5 -28.5t-41.5 -24.5t-55 -9q-60 0 -87 33.5t-27 84.5q0 14 14 119l28 203l14 98h82q-54 -369 -54 -401q0 -64 60 -64q49 0 81.5 46.5t43.5 124.5l41 294h82z" />
    <glyph glyph-name="v" unicode="v" horiz-adv-x="410" 
d="M447 526l-234 -526h-89l-78 526h87l54 -407h4l168 407h88z" />
    <glyph glyph-name="w" unicode="w" horiz-adv-x="592" 
d="M632 526l-204 -526h-91q-14 313 -14 342l4 96h-4q-15 -83 -33 -138l-97 -300h-92l-58 526h79l30 -296q8 -75 9 -137h4q14 83 31 137l94 296h98l14 -296q1 -12 1 -137h4q15 77 37 137l111 296h77z" />
    <glyph glyph-name="x" unicode="x" horiz-adv-x="410" 
d="M436 526l-183 -257l117 -269h-95l-77 190l-129 -190h-96l191 270l-112 256h95l72 -177l119 177h98z" />
    <glyph glyph-name="y" unicode="y" horiz-adv-x="410" 
d="M448 526l-214 -499q-43 -99 -89.5 -154t-109.5 -55q-37 0 -57 8l8 57h28q80 0 120 117l-87 526h87l60 -420h4l162 420h88z" />
    <glyph glyph-name="z" unicode="z" horiz-adv-x="410" 
d="M414 526l-3 -38l-285 -415h240l-10 -73h-354l3 39l284 414h-211l10 73h326z" />
    <glyph glyph-name="braceleft" unicode="{" horiz-adv-x="274" 
d="M316 735l-8 -57q-79 0 -89 -71q-5 -41 -19.5 -117.5t-16.5 -88.5q-10 -54 -33 -81t-70 -27l-1 -10q74 0 74 -81q0 -47 -12 -142t-12 -106q0 -56 70 -56l-8 -57q-65 0 -102.5 24t-37.5 89q0 16 3 35q29 197 29 206q0 26 -20.5 38.5t-48.5 12.5l11 84q31 0 56 14.5t30 45.5
l28 197q6 45 22.5 76t42 46t51.5 20.5t61 5.5z" />
    <glyph glyph-name="bar" unicode="|" horiz-adv-x="213" 
d="M146 723v-896h-79v896h79z" />
    <glyph glyph-name="braceright" unicode="}" horiz-adv-x="274" 
d="M75 678l8 57q65 0 102.5 -24t37.5 -89q0 -16 -3 -35q-29 -197 -29 -206q0 -26 20.5 -38.5t48.5 -12.5l-11 -84q-31 0 -56 -14.5t-30 -45.5l-28 -197q-6 -45 -22.5 -76t-42 -46t-51.5 -20.5t-61 -5.5l8 57q79 0 89 71q5 41 19.5 117.5t16.5 88.5q10 54 33 81t70 27l1 10
q-74 0 -74 81q0 47 12 142t12 106q0 56 -70 56z" />
    <glyph glyph-name="asciitilde" unicode="~" horiz-adv-x="479" 
d="M328 315q30 0 62.5 19t46 32.5t19.5 21.5l-13 -92q-2 -3 -6 -8t-16.5 -17.5t-26.5 -22t-35.5 -17.5t-43.5 -8q-32 0 -82 31q-50 30 -83 30q-10 0 -20 -2t-19 -5.5t-18 -8t-16.5 -9.5t-14.5 -10.5l-13 -10.5t-11 -10t-8 -8.5t-6 -5.5l-2 -3l13 92q2 3 6 8t16.5 17.5
t26.5 22t35.5 17.5t43.5 8q31 0 82 -30.5t83 -30.5z" />
    <glyph glyph-name="uni00A0" unicode="&#xa0;" horiz-adv-x="228" 
 />
    <glyph glyph-name="exclamdown" unicode="&#xa1;" horiz-adv-x="273" 
d="M145 355h62q-45 -482 -47 -515h-113zM251 526l-15 -108h-100l15 108h100z" />
    <glyph glyph-name="cent" unicode="&#xa2;" 
d="M320 723l-16 -109q118 -21 118 -185v-18h-81v17q0 92 -47 112l-56 -396q36 9 60.5 45t29.5 83h78q-10 -84 -57 -142t-122 -62l-16 -116h-49l17 119q-126 24 -126 188q0 63 9 119.5t30 112t63 89.5t101 37l15 106h49zM189 145l56 397q-34 -9 -58 -45t-34.5 -84t-14.5 -84
t-4 -63q0 -100 55 -121z" />
    <glyph glyph-name="sterling" unicode="&#xa3;" 
d="M309 698q147 0 147 -140q0 -27 -6 -67h-82q6 35 6 52q0 82 -66 82q-77 0 -93 -110l-20 -139h133l-10 -72h-134l-40 -225h249l-12 -79h-382l12 79h60l31 225h-72l10 72h72l18 123q29 199 179 199z" />
    <glyph glyph-name="currency" unicode="&#xa4;" 
d="M228 589q79 0 140 -59l43 43l48 -48l-49 -49q35 -62 35 -134q0 -74 -35 -134l49 -49l-48 -48l-43 43q-61 -58 -140 -58t-140 58l-43 -43l-48 48l49 49q-35 60 -35 134q0 72 35 134l-49 49l48 48l42 -43q61 59 141 59zM228 520q-62 0 -105.5 -52t-43.5 -126t43.5 -125.5
t105.5 -51.5q61 0 104.5 51.5t43.5 125.5t-43 126t-105 52z" />
    <glyph glyph-name="yen" unicode="&#xa5;" 
d="M513 686l-195 -317h128l-9 -65h-159l-10 -70h159l-9 -65h-159l-24 -169h-88l24 169h-159l9 65h159l10 70h-159l9 65h128l-106 317h95l95 -293h4l174 293h83z" />
    <glyph glyph-name="brokenbar" unicode="&#xa6;" horiz-adv-x="213" 
d="M146 723v-380h-79v380h79zM146 207v-380h-79v380h79z" />
    <glyph glyph-name="section" unicode="&#xa7;" 
d="M288 698q69 0 106 -34t37 -87q0 -28 -6 -42h-85q3 15 3 26q0 65 -63 65q-25 0 -42.5 -10t-25.5 -26t-11 -28.5t-3 -24.5q0 -33 20.5 -58.5t50 -43t58.5 -37t49.5 -52t20.5 -76.5q0 -108 -91 -165q43 -43 43 -107q0 -82 -48 -131t-129 -49q-69 0 -106 34t-37 87q0 28 6 42
h85q-3 -15 -3 -26q0 -65 63 -65q25 0 42.5 10t25.5 26t11 28.5t3 24.5q0 33 -20.5 58.5t-50 43t-58.5 37t-49.5 52t-20.5 76.5q0 57 26.5 99.5t64.5 66.5q-43 43 -43 106q0 82 48 131t129 49zM195 380q-49 -33 -49 -103q0 -18 5.5 -34t12.5 -27t21.5 -23.5t23.5 -19
t28.5 -19t27.5 -18.5q49 33 49 103q0 18 -5.5 34t-12.5 27t-21.5 23.5t-23.5 19t-28.5 19t-27.5 18.5z" />
    <glyph glyph-name="dieresis" unicode="&#xa8;" horiz-adv-x="273" 
d="M333 723l-13 -95h-87l13 95h87zM183 723l-13 -95h-87l13 95h87z" />
    <glyph glyph-name="copyright" unicode="&#xa9;" horiz-adv-x="604" 
d="M302 698q131 0 206 -96t75 -259t-75 -259t-206 -96t-206 96t-75 259t75 259t206 96zM304 558q64 0 102.5 -39t38.5 -114h-58q0 50 -22 75.5t-61 25.5q-100 0 -100 -142v-30q0 -143 100 -143q39 0 62 25.5t23 74.5h56q0 -75 -38.5 -113.5t-102.5 -38.5q-159 0 -159 209
q0 210 159 210zM302 651q-109 0 -172 -83.5t-63 -224.5t63 -224.5t172 -83.5t172 83.5t63 224.5t-63 224.5t-172 83.5z" />
    <glyph glyph-name="ordfeminine" unicode="&#xaa;" horiz-adv-x="303" 
d="M199 736q53 0 69 -58l33 50h29q-42 -289 -42 -297q0 -19 17 -19h21l-5 -39q-15 -11 -38 -11q-53 0 -54 56q-35 -56 -77 -56t-66.5 33.5t-24.5 99.5q0 114 41.5 177.5t96.5 63.5zM207 682q-24 0 -41.5 -21.5t-26 -54t-12.5 -62t-4 -55.5q0 -73 46 -73q21 0 37.5 22t25 55
t13 63.5t4.5 53.5q0 72 -42 72z" />
    <glyph glyph-name="guillemotleft" unicode="&#xab;" 
d="M445 526l-140 -200l83 -200h-70l-113 200l168 200h72zM294 526l-141 -200l84 -200h-71l-112 200l167 200h73z" />
    <glyph glyph-name="logicalnot" unicode="&#xac;" horiz-adv-x="479" 
d="M452 453l-35 -256h-84l22 163h-312l13 93h396z" />
    <glyph glyph-name="uni00AD" unicode="&#xad;" horiz-adv-x="273" 
d="M268 319l-13 -98h-252l13 98h252z" />
    <glyph glyph-name="registered" unicode="&#xae;" horiz-adv-x="604" 
d="M302 698q131 0 206 -96t75 -259t-75 -259t-206 -96t-206 96t-75 259t75 259t206 96zM302 651q-109 0 -172 -83.5t-63 -224.5t63 -224.5t172 -83.5t172 83.5t63 224.5t-63 224.5t-172 83.5zM174 550h161q45 0 74 -28t29 -73q0 -35 -17.5 -60t-45.5 -34v-4q7 -3 15 -8.5
t19 -17.5t18.5 -33t7.5 -48q0 -40 6.5 -55.5t21.5 -21.5v-17q-13 -5 -29 -5q-57 0 -57 76q0 55 -19.5 78.5t-45.5 23.5h-81v-175h-57v402zM317 497h-86v-121h83q30 0 47.5 17.5t17.5 44.5q0 28 -17 43.5t-45 15.5z" />
    <glyph glyph-name="macron" unicode="&#xaf;" horiz-adv-x="273" 
d="M341 671l-11 -72h-250l11 72h250z" />
    <glyph glyph-name="degree" unicode="&#xb0;" horiz-adv-x="400" 
d="M210 698q56 0 95.5 -39.5t39.5 -95.5t-39.5 -95.5t-95.5 -39.5t-95.5 39.5t-39.5 95.5t39.5 95.5t95.5 39.5zM210 644q-34 0 -58 -23.5t-24 -57.5t24 -58t58 -24t57.5 24t23.5 58t-23.5 57.5t-57.5 23.5z" />
    <glyph glyph-name="plusminus" unicode="&#xb1;" horiz-adv-x="549" 
d="M355 578l-26 -184h155l-12 -84h-155l-25 -183h-83l25 183h-154l12 84h154l26 184h83zM441 83l-12 -83h-392l12 83h392z" />
    <glyph glyph-name="twosuperior" unicode="&#xb2;" horiz-adv-x="273" 
d="M208 735q46 0 73.5 -22.5t27.5 -68.5q0 -50 -32 -94.5t-86 -94.5q-50 -47 -63 -70h146l-9 -63h-227l3 16q4 35 26.5 68.5t51.5 60l57 52.5t47 56t19 61q0 40 -39 40q-47 0 -56 -66l-4 -31h-63q1 77 38 116.5t90 39.5z" />
    <glyph glyph-name="threesuperior" unicode="&#xb3;" horiz-adv-x="273" 
d="M207 735q47 0 73.5 -24t26.5 -69q0 -76 -62 -111q42 -24 42 -79q0 -61 -37.5 -98.5t-89.5 -37.5t-79.5 26t-27.5 72q0 22 3 38h64q-3 -20 -3 -32q0 -47 42 -47q28 0 46.5 20.5t18.5 59.5q0 47 -48 47h-29l8 57h30q24 0 41 19.5t17 55.5q0 46 -38 46q-21 0 -36.5 -16
t-19.5 -47l-2 -13h-63l3 18q8 52 40.5 83.5t79.5 31.5z" />
    <glyph glyph-name="acute" unicode="&#xb4;" horiz-adv-x="273" 
d="M308 723l1 -3l-108 -129h-69l86 132h90z" />
    <glyph glyph-name="mu" unicode="&#xb5;" horiz-adv-x="576" 
d="M505 526l-74 -526h-64v77q-45 -89 -140 -89q-31 0 -52 9l-23 -170h-82l99 699h82q-54 -369 -54 -401q0 -64 60 -64q49 0 81.5 46.5t43.5 124.5l41 294h82z" />
    <glyph glyph-name="paragraph" unicode="&#xb6;" horiz-adv-x="440" 
d="M479 686l-9 -61h-48l-112 -798h-66l112 798h-53l-112 -798h-65l60 423q-64 8 -103 58.5t-39 122.5q0 114 67 184.5t159 70.5h209z" />
    <glyph glyph-name="periodcentered" unicode="&#xb7;" horiz-adv-x="228" 
d="M188 399l-15 -111h-101l15 111h101z" />
    <glyph glyph-name="cedilla" unicode="&#xb8;" horiz-adv-x="273" 
d="M163 11l-14 -47q73 -6 73 -54q0 -35 -21.5 -57.5t-45.5 -28.5t-49 -6q-46 0 -83 8l7 49h76q40 0 40 30q0 18 -31 18h-33l26 88h55z" />
    <glyph glyph-name="onesuperior" unicode="&#xb9;" horiz-adv-x="273" 
d="M251 724l-49 -344h73l-8 -58h-214l8 58h79l37 258h-80l6 43q62 8 119 43h29z" />
    <glyph glyph-name="ordmasculine" unicode="&#xba;" horiz-adv-x="299" 
d="M210 735q113 0 113 -129q0 -41 -6.5 -80t-22.5 -78t-47.5 -63t-75.5 -24q-113 0 -113 127q0 42 6.5 81t22.5 78.5t47.5 63.5t75.5 24zM210 681q-28 0 -47 -21.5t-27.5 -55t-11.5 -59.5t-3 -49q0 -81 50 -81q28 0 47 22t27.5 56.5t11.5 61.5t3 51q0 75 -50 75z" />
    <glyph glyph-name="guillemotright" unicode="&#xbb;" 
d="M301 526l113 -200l-168 -200h-73l142 200l-85 200h71zM149 526l114 -200l-169 -200h-72l141 200l-84 200h70z" />
    <glyph glyph-name="onequarter" unicode="&#xbc;" horiz-adv-x="684" 
d="M656 698l-513 -710h-63l514 710h62zM227 686l-49 -344h73l-8 -58h-214l8 58h79l37 258h-80l6 43q62 8 119 43h29zM526 413h62q-25 -69 -66 -144t-71 -116h85l13 91q39 78 50 111h27l-28 -202h40l-8 -57h-40l-14 -96h-62l14 96h-150l6 52q80 114 142 265z" />
    <glyph glyph-name="onehalf" unicode="&#xbd;" horiz-adv-x="684" 
d="M641 698l-513 -710h-63l514 710h62zM226 686l-49 -344h73l-8 -58h-214l8 58h79l37 258h-80l6 43q62 8 119 43h29zM556 413q46 0 73.5 -22.5t27.5 -68.5q0 -50 -32 -94.5t-86 -94.5q-50 -47 -63 -70h146l-9 -63h-227l3 16q4 35 26.5 68.5t51.5 60l57 52.5t47 56t19 61
q0 40 -39 40q-47 0 -56 -66l-4 -31h-63q1 77 38 116.5t90 39.5z" />
    <glyph glyph-name="threequarters" unicode="&#xbe;" horiz-adv-x="684" 
d="M651 698l-513 -710h-63l514 710h62zM197 698q47 0 73.5 -24t26.5 -69q0 -76 -62 -111q42 -24 42 -79q0 -61 -37.5 -98.5t-89.5 -37.5t-79.5 26t-27.5 72q0 21 3 38h64q-3 -20 -3 -32q0 -47 42 -47q28 0 46.5 20.5t18.5 59.5q0 47 -48 47h-29l8 57h30q24 0 41 19.5
t17 55.5q0 46 -38 46q-21 0 -36.5 -16t-19.5 -47l-2 -13h-63l3 18q8 52 40.5 83.5t79.5 31.5zM523 413h62q-25 -69 -66 -144t-71 -116h85l13 91q39 78 50 111h27l-28 -202h40l-8 -57h-40l-14 -96h-62l14 96h-150l6 52q80 114 142 265z" />
    <glyph glyph-name="questiondown" unicode="&#xbf;" horiz-adv-x="501" 
d="M342 346l-8 -56q-5 -38 -24.5 -69t-42.5 -52.5l-45.5 -44t-38 -55.5t-15.5 -75q0 -35 16.5 -62t58.5 -27q39 0 65 23t36 56.5t13 52.5t3 30h89q-2 -100 -59 -169.5t-155 -69.5q-72 0 -116 41t-44 109q0 56 16 99t40.5 70t49 49.5t44 50t24.5 58.5l6 41h87zM375 526
l-16 -108h-100l16 108h100z" />
    <glyph glyph-name="Agrave" unicode="&#xc0;" horiz-adv-x="547" 
d="M337 883l68 -132h-70l-89 129l2 3h89zM421 0l-26 153h-275l-69 -153h-87l314 686h113l121 -686h-91zM294 538l-138 -305h226l-51 305l-5 76h-4q-18 -54 -28 -76z" />
    <glyph glyph-name="Aacute" unicode="&#xc1;" horiz-adv-x="547" 
d="M469 883l1 -3l-108 -129h-70l86 132h91zM421 0l-26 153h-275l-69 -153h-87l314 686h113l121 -686h-91zM294 538l-138 -305h226l-51 305l-5 76h-4q-18 -54 -28 -76z" />
    <glyph glyph-name="Acircumflex" unicode="&#xc2;" horiz-adv-x="547" 
d="M399 883l66 -135h-77l-33 79l-56 -79h-83l105 135h78zM421 0l-26 153h-275l-69 -153h-87l314 686h113l121 -686h-91zM294 538l-138 -305h226l-51 305l-5 76h-4q-18 -54 -28 -76z" />
    <glyph glyph-name="Atilde" unicode="&#xc3;" horiz-adv-x="547" 
d="M449 883h58q-6 -40 -31 -72t-65 -32q-23 0 -59 15.5t-55 15.5q-31 0 -39 -31h-57q6 40 30.5 72t64.5 32q23 0 59 -15.5t55 -15.5q31 0 39 31zM421 0l-26 153h-275l-69 -153h-87l314 686h113l121 -686h-91zM294 538l-138 -305h226l-51 305l-5 76h-4q-18 -54 -28 -76z" />
    <glyph glyph-name="Adieresis" unicode="&#xc4;" horiz-adv-x="547" 
d="M421 0l-26 153h-275l-69 -153h-87l314 686h113l121 -686h-91zM294 538l-138 -305h226l-51 305l-5 76h-4q-18 -54 -28 -76zM483 883l-13 -95h-87l13 95h87zM333 883l-13 -95h-87l14 95h86z" />
    <glyph glyph-name="Aring" unicode="&#xc5;" horiz-adv-x="547" 
d="M358 897q37 0 61.5 -24t24.5 -60q0 -41 -29.5 -69.5t-68.5 -28.5q-38 0 -62.5 23.5t-24.5 60.5q0 42 30 70t69 28zM355 857q-21 0 -36 -15.5t-15 -39.5q0 -19 12.5 -33t32.5 -14q21 0 36 15.5t15 39.5q0 19 -13 33t-32 14zM421 0l-26 153h-275l-69 -153h-87l314 686h113
l121 -686h-91zM294 538l-138 -305h226l-51 305l-5 76h-4q-18 -54 -28 -76z" />
    <glyph glyph-name="AE" unicode="&#xc6;" horiz-adv-x="820" 
d="M495 80h256l-12 -80h-329l-13 153h-269l-79 -153h-92l374 686h499l-12 -80h-367l18 -215h275l-11 -80h-258zM323 526l-153 -293h221l-24 293l-4 76h-4q-24 -53 -36 -76z" />
    <glyph glyph-name="Ccedilla" unicode="&#xc7;" horiz-adv-x="592" 
d="M479 437v22q0 158 -127 158q-53 0 -93.5 -32t-62 -76.5t-35 -100.5t-17 -94t-3.5 -68q0 -85 36.5 -130.5t104.5 -45.5q72 0 116.5 49t55.5 123h87q-14 -109 -81 -181.5t-175 -72.5h-5l-8 -24q74 -6 74 -54q0 -35 -21.5 -57.5t-45.5 -28.5t-50 -6q-46 0 -83 8l7 49h76
q41 0 41 30q0 18 -31 18h-33l20 70q-83 15 -129 77t-46 171q0 58 8.5 117t30.5 121.5t54.5 110t86.5 78t122 30.5q217 0 217 -245v-16h-91z" />
    <glyph glyph-name="Egrave" unicode="&#xc8;" horiz-adv-x="547" 
d="M328 883l68 -132h-70l-90 129l2 3h90zM463 0h-429l97 686h423l-12 -80h-335l-30 -215h291l-11 -80h-291l-32 -231h341z" />
    <glyph glyph-name="Eacute" unicode="&#xc9;" horiz-adv-x="547" 
d="M459 883l1 -3l-107 -129h-70l86 132h90zM463 0h-429l97 686h423l-12 -80h-335l-30 -215h291l-11 -80h-291l-32 -231h341z" />
    <glyph glyph-name="Ecircumflex" unicode="&#xca;" horiz-adv-x="547" 
d="M390 883l66 -135h-77l-33 79l-56 -79h-83l105 135h78zM463 0h-429l97 686h423l-12 -80h-335l-30 -215h291l-11 -80h-291l-32 -231h341z" />
    <glyph glyph-name="Edieresis" unicode="&#xcb;" horiz-adv-x="547" 
d="M474 883l-13 -95h-87l13 95h87zM324 883l-13 -95h-87l13 95h87zM463 0h-429l97 686h423l-12 -80h-335l-30 -215h291l-11 -80h-291l-32 -231h341z" />
    <glyph glyph-name="Igrave" unicode="&#xcc;" horiz-adv-x="228" 
d="M219 686l-97 -686h-88l97 686h88zM177 883l68 -132h-70l-90 129l2 3h90z" />
    <glyph glyph-name="Iacute" unicode="&#xcd;" horiz-adv-x="228" 
d="M219 686l-97 -686h-88l97 686h88zM309 883l1 -3l-108 -129h-70l86 132h91z" />
    <glyph glyph-name="Icircumflex" unicode="&#xce;" horiz-adv-x="228" 
d="M219 686l-97 -686h-88l97 686h88zM239 883l66 -135h-77l-33 79l-56 -79h-83l105 135h78z" />
    <glyph glyph-name="Idieresis" unicode="&#xcf;" horiz-adv-x="228" 
d="M219 686l-97 -686h-88l97 686h88zM323 883l-13 -95h-87l13 95h87zM173 883l-13 -95h-87l13 95h87z" />
    <glyph glyph-name="Eth" unicode="&#xd0;" horiz-adv-x="592" 
d="M265 0h-231l45 323h-65l9 64h65l43 299h203q110 0 169.5 -65t59.5 -192q0 -56 -9.5 -113t-32.5 -114.5t-56 -102t-85 -72t-115 -27.5zM324 606h-117l-31 -219h157l-9 -64h-157l-33 -243h121q49 0 88 23t62.5 59t39 83.5t21.5 92t6 90.5q0 89 -38.5 133.5t-109.5 44.5z
" />
    <glyph glyph-name="Ntilde" unicode="&#xd1;" horiz-adv-x="592" 
d="M582 686l-97 -686h-69l-197 437l-33 92l-3 -1q-5 -63 -9 -91l-62 -437h-79l97 686h72l195 -431l32 -92l3 1q7 69 10 91l61 431h79zM469 883h58q-6 -40 -31 -72t-65 -32q-23 0 -59 15.5t-55 15.5q-31 0 -39 -31h-57q6 40 30.5 72t64.5 32q23 0 59 -15.5t55 -15.5
q31 0 39 31z" />
    <glyph glyph-name="Ograve" unicode="&#xd2;" horiz-adv-x="638" 
d="M367 698q114 0 176 -66t62 -195q0 -77 -16.5 -151.5t-51 -143.5t-99 -111.5t-150.5 -42.5q-114 0 -175.5 65t-61.5 194q0 61 9.5 120.5t32.5 120.5t58 106.5t91 74.5t125 29zM366 617q-64 0 -110.5 -35.5t-70 -93.5t-34 -117.5t-10.5 -121.5q0 -90 38 -135t110 -45
q52 0 92.5 24.5t65 62.5t40 88.5t21.5 97.5t6 95q0 89 -38.5 134.5t-109.5 45.5zM381 883l67 -132h-69l-90 129l2 3h90z" />
    <glyph glyph-name="Oacute" unicode="&#xd3;" horiz-adv-x="638" 
d="M367 698q114 0 176 -66t62 -195q0 -77 -16.5 -151.5t-51 -143.5t-99 -111.5t-150.5 -42.5q-114 0 -175.5 65t-61.5 194q0 61 9.5 120.5t32.5 120.5t58 106.5t91 74.5t125 29zM366 617q-64 0 -110.5 -35.5t-70 -93.5t-34 -117.5t-10.5 -121.5q0 -90 38 -135t110 -45
q52 0 92.5 24.5t65 62.5t40 88.5t21.5 97.5t6 95q0 89 -38.5 134.5t-109.5 45.5zM512 883l1 -3l-108 -129h-69l86 132h90z" />
    <glyph glyph-name="Ocircumflex" unicode="&#xd4;" horiz-adv-x="638" 
d="M367 698q114 0 176 -66t62 -195q0 -77 -16.5 -151.5t-51 -143.5t-99 -111.5t-150.5 -42.5q-114 0 -175.5 65t-61.5 194q0 61 9.5 120.5t32.5 120.5t58 106.5t91 74.5t125 29zM366 617q-64 0 -110.5 -35.5t-70 -93.5t-34 -117.5t-10.5 -121.5q0 -90 38 -135t110 -45
q52 0 92.5 24.5t65 62.5t40 88.5t21.5 97.5t6 95q0 89 -38.5 134.5t-109.5 45.5zM443 883l66 -135h-77l-33 79l-56 -79h-83l105 135h78z" />
    <glyph glyph-name="Otilde" unicode="&#xd5;" horiz-adv-x="638" 
d="M367 698q114 0 176 -66t62 -195q0 -77 -16.5 -151.5t-51 -143.5t-99 -111.5t-150.5 -42.5q-114 0 -175.5 65t-61.5 194q0 61 9.5 120.5t32.5 120.5t58 106.5t91 74.5t125 29zM366 617q-64 0 -110.5 -35.5t-70 -93.5t-34 -117.5t-10.5 -121.5q0 -90 38 -135t110 -45
q52 0 92.5 24.5t65 62.5t40 88.5t21.5 97.5t6 95q0 89 -38.5 134.5t-109.5 45.5zM492 883h58q-6 -40 -31 -72t-64 -32q-24 0 -60 15.5t-55 15.5q-30 0 -39 -31h-57q6 40 30.5 72t64.5 32q23 0 59.5 -15.5t55.5 -15.5q30 0 38 31z" />
    <glyph glyph-name="Odieresis" unicode="&#xd6;" horiz-adv-x="638" 
d="M367 698q114 0 176 -66t62 -195q0 -77 -16.5 -151.5t-51 -143.5t-99 -111.5t-150.5 -42.5q-114 0 -175.5 65t-61.5 194q0 61 9.5 120.5t32.5 120.5t58 106.5t91 74.5t125 29zM366 617q-64 0 -110.5 -35.5t-70 -93.5t-34 -117.5t-10.5 -121.5q0 -90 38 -135t110 -45
q52 0 92.5 24.5t65 62.5t40 88.5t21.5 97.5t6 95q0 89 -38.5 134.5t-109.5 45.5zM527 883l-13 -95h-87l13 95h87zM377 883l-13 -95h-87l13 95h87z" />
    <glyph glyph-name="multiply" unicode="&#xd7;" horiz-adv-x="479" 
d="M255 314l174 152q44 -55 47 -59l-175 -152l132 -151l-63 -59l-132 150l-175 -150q-3 4 -47 59l174 151l-131 152l63 59z" />
    <glyph glyph-name="Oslash" unicode="&#xd8;" horiz-adv-x="638" 
d="M605 723l-60 -93q60 -68 60 -193q0 -77 -16.5 -151.5t-51 -143.5t-99 -111.5t-150.5 -42.5q-82 0 -137 33l-37 -58h-64l60 93q-59 65 -59 191q0 61 9.5 120.5t32.5 120.5t58 106.5t91 74.5t125 29q83 0 136 -34l38 59h64zM491 547l-292 -452q35 -26 90 -26
q52 0 92.5 24.5t65 62.5t40 88.5t21.5 97.5t6 95q0 67 -23 110zM366 617q-64 0 -110.5 -35.5t-70 -93.5t-34 -117.5t-10.5 -121.5q0 -67 22 -111l292 452q-35 27 -89 27z" />
    <glyph glyph-name="Ugrave" unicode="&#xd9;" horiz-adv-x="592" 
d="M579 686l-66 -463q-16 -115 -80.5 -175t-168.5 -60q-99 0 -153 47.5t-54 137.5q0 20 17.5 148.5t35.5 246.5l17 118h88q-69 -479 -69 -501q0 -57 31.5 -86.5t88.5 -29.5q65 0 107 38.5t52 110.5l66 468h88zM354 883l68 -132h-69l-90 129l2 3h89z" />
    <glyph glyph-name="Uacute" unicode="&#xda;" horiz-adv-x="592" 
d="M579 686l-66 -463q-16 -115 -80.5 -175t-168.5 -60q-99 0 -153 47.5t-54 137.5q0 20 17.5 148.5t35.5 246.5l17 118h88q-69 -479 -69 -501q0 -57 31.5 -86.5t88.5 -29.5q65 0 107 38.5t52 110.5l66 468h88zM486 883l1 -3l-108 -129h-69l86 132h90z" />
    <glyph glyph-name="Ucircumflex" unicode="&#xdb;" horiz-adv-x="592" 
d="M579 686l-66 -463q-16 -115 -80.5 -175t-168.5 -60q-99 0 -153 47.5t-54 137.5q0 20 17.5 148.5t35.5 246.5l17 118h88q-69 -479 -69 -501q0 -57 31.5 -86.5t88.5 -29.5q65 0 107 38.5t52 110.5l66 468h88zM417 883l65 -135h-77l-32 79l-57 -79h-83l105 135h79z" />
    <glyph glyph-name="Udieresis" unicode="&#xdc;" horiz-adv-x="592" 
d="M579 686l-66 -463q-16 -115 -80.5 -175t-168.5 -60q-99 0 -153 47.5t-54 137.5q0 20 17.5 148.5t35.5 246.5l17 118h88q-69 -479 -69 -501q0 -57 31.5 -86.5t88.5 -29.5q65 0 107 38.5t52 110.5l66 468h88zM500 883l-13 -95h-87l14 95h86zM351 883l-14 -95h-87l14 95h87z
" />
    <glyph glyph-name="Yacute" unicode="&#xdd;" horiz-adv-x="547" 
d="M601 686l-278 -402l-40 -284h-88l40 284l-165 402h96l125 -318h4l214 318h92zM472 883l1 -3l-108 -129h-70l86 132h91z" />
    <glyph glyph-name="Thorn" unicode="&#xde;" horiz-adv-x="547" 
d="M219 686l-19 -135h147q93 0 141 -46t48 -125q0 -107 -65 -170.5t-171 -63.5h-157l-21 -146h-88l97 686h88zM342 471h-153l-35 -245h155q58 0 96 38t38 100q0 50 -26 78.5t-75 28.5z" />
    <glyph glyph-name="germandbls" unicode="&#xdf;" horiz-adv-x="501" 
d="M314 735q79 0 126.5 -41t47.5 -114q0 -59 -33.5 -112.5t-85.5 -72.5v-4q42 -16 67.5 -58t25.5 -93q0 -92 -65 -166t-157 -74h-85l10 74h67q56 0 100.5 48.5t44.5 112.5q0 49 -29.5 82t-76.5 33h-67l10 73h59q53 0 91.5 44t38.5 102q0 44 -24 68.5t-70 24.5
q-54 0 -90.5 -37t-46.5 -107l-73 -518h-81l71 516q15 111 76 165t149 54z" />
    <glyph glyph-name="agrave" unicode="&#xe0;" 
d="M266 723l67 -132h-69l-90 129l2 3h90zM236 538q83 0 109 -85l18 73h65q-61 -425 -61 -437q0 -28 24 -28h32l-8 -57q-23 -16 -56 -16q-71 0 -72 83q-55 -83 -121 -83q-61 0 -97 49t-36 146q0 169 61 262t142 93zM248 465q-38 0 -65.5 -32t-40.5 -81.5t-19 -94t-6 -82.5
q0 -114 74 -114q33 0 59 33.5t40 83t20.5 95t6.5 79.5q0 113 -69 113z" />
    <glyph glyph-name="aacute" unicode="&#xe1;" 
d="M397 723l1 -3l-107 -129h-70l86 132h90zM236 538q83 0 109 -85l18 73h65q-61 -425 -61 -437q0 -28 24 -28h32l-8 -57q-23 -16 -56 -16q-71 0 -72 83q-55 -83 -121 -83q-61 0 -97 49t-36 146q0 169 61 262t142 93zM248 465q-38 0 -65.5 -32t-40.5 -81.5t-19 -94t-6 -82.5
q0 -114 74 -114q33 0 59 33.5t40 83t20.5 95t6.5 79.5q0 113 -69 113z" />
    <glyph glyph-name="acircumflex" unicode="&#xe2;" 
d="M328 723l66 -135h-77l-33 79l-56 -79h-83l105 135h78zM236 538q83 0 109 -85l18 73h65q-61 -425 -61 -437q0 -28 24 -28h32l-8 -57q-23 -16 -56 -16q-71 0 -72 83q-55 -83 -121 -83q-61 0 -97 49t-36 146q0 169 61 262t142 93zM248 465q-38 0 -65.5 -32t-40.5 -81.5
t-19 -94t-6 -82.5q0 -114 74 -114q33 0 59 33.5t40 83t20.5 95t6.5 79.5q0 113 -69 113z" />
    <glyph glyph-name="atilde" unicode="&#xe3;" 
d="M377 723h59q-6 -40 -31.5 -72t-64.5 -32q-24 0 -59.5 15.5t-54.5 15.5q-31 0 -39 -31h-58q7 39 29 69q27 35 67 35q20 0 59 -15q36 -16 55 -16q31 0 38 31zM236 538q83 0 109 -85l18 73h65q-61 -425 -61 -437q0 -28 24 -28h32l-8 -57q-23 -16 -56 -16q-71 0 -72 83
q-55 -83 -121 -83q-61 0 -97 49t-36 146q0 169 61 262t142 93zM248 465q-38 0 -65.5 -32t-40.5 -81.5t-19 -94t-6 -82.5q0 -114 74 -114q33 0 59 33.5t40 83t20.5 95t6.5 79.5q0 113 -69 113z" />
    <glyph glyph-name="adieresis" unicode="&#xe4;" 
d="M236 538q83 0 109 -85l18 73h65q-61 -425 -61 -437q0 -28 24 -28h32l-8 -57q-23 -16 -56 -16q-71 0 -72 83q-55 -83 -121 -83q-61 0 -97 49t-36 146q0 169 61 262t142 93zM248 465q-38 0 -65.5 -32t-40.5 -81.5t-19 -94t-6 -82.5q0 -114 74 -114q33 0 59 33.5t40 83
t20.5 95t6.5 79.5q0 113 -69 113zM412 723l-13 -95h-87l13 95h87zM262 723l-13 -95h-87l13 95h87z" />
    <glyph glyph-name="aring" unicode="&#xe5;" 
d="M287 737q37 0 61.5 -24t24.5 -60q0 -41 -29.5 -69.5t-69.5 -28.5q-37 0 -61.5 23.5t-24.5 60.5q0 42 29.5 70t69.5 28zM284 697q-22 0 -37 -15.5t-15 -39.5q0 -19 13 -33t32 -14q21 0 36.5 15.5t15.5 39.5q0 19 -13 33t-32 14zM236 538q83 0 109 -85l18 73h65
q-61 -425 -61 -437q0 -28 24 -28h32l-8 -57q-23 -16 -56 -16q-71 0 -72 83q-55 -83 -121 -83q-61 0 -97 49t-36 146q0 169 61 262t142 93zM248 465q-38 0 -65.5 -32t-40.5 -81.5t-19 -94t-6 -82.5q0 -114 74 -114q33 0 59 33.5t40 83t20.5 95t6.5 79.5q0 113 -69 113z" />
    <glyph glyph-name="ae" unicode="&#xe6;" horiz-adv-x="729" 
d="M531 538q162 0 162 -189q0 -59 -8 -110h-289q-3 -32 -3 -53q0 -125 85 -125q43 0 73.5 34t37.5 83h83q-13 -82 -63.5 -136t-130.5 -54q-110 0 -150 82q-29 -38 -73 -60t-89 -22q-140 0 -140 125q0 60 22.5 100.5t65.5 61t91.5 29t113.5 8.5l10 68q2 16 2 23q0 62 -73 62
q-44 0 -67 -26.5t-27 -68.5h-81q0 77 52.5 122.5t133.5 45.5q93 0 127 -56q54 56 135 56zM301 183l8 56q-97 0 -146.5 -22.5t-49.5 -87.5q0 -68 62 -68q43 0 80.5 32t45.5 90zM531 465q-93 0 -125 -153h201q1 13 1 36q0 117 -77 117z" />
    <glyph glyph-name="ccedilla" unicode="&#xe7;" horiz-adv-x="410" 
d="M305 331v17q0 117 -65 117q-38 0 -65 -34t-38.5 -86t-16 -90.5t-4.5 -68.5q0 -60 19 -92.5t55 -32.5q40 0 68 38t34 93h82q-10 -85 -56 -143t-119 -61l-7 -24q73 -6 73 -54q0 -35 -21.5 -57.5t-45.5 -28.5t-49 -6q-46 0 -83 8l7 49h76q40 0 40 30q0 18 -31 18h-33l21 70
q-115 27 -115 186q0 51 5 97.5t19.5 95.5t37 84.5t60.5 58.5t87 23q150 0 150 -189v-18h-85z" />
    <glyph glyph-name="egrave" unicode="&#xe8;" 
d="M258 538q162 0 162 -189q0 -59 -8 -110h-289q-3 -32 -3 -53q0 -125 85 -125q43 0 73.5 34t37.5 83h83q-13 -82 -63.5 -136t-130.5 -54q-170 0 -170 191q0 63 10 120.5t33 114t69 90.5t111 34zM258 465q-93 0 -125 -153h201q1 13 1 36q0 117 -77 117zM267 723l67 -132h-69
l-90 129l2 3h90z" />
    <glyph glyph-name="eacute" unicode="&#xe9;" 
d="M258 538q162 0 162 -189q0 -59 -8 -110h-289q-3 -32 -3 -53q0 -125 85 -125q43 0 73.5 34t37.5 83h83q-13 -82 -63.5 -136t-130.5 -54q-170 0 -170 191q0 63 10 120.5t33 114t69 90.5t111 34zM258 465q-93 0 -125 -153h201q1 13 1 36q0 117 -77 117zM398 723l1 -3
l-107 -129h-70l86 132h90z" />
    <glyph glyph-name="ecircumflex" unicode="&#xea;" 
d="M258 538q162 0 162 -189q0 -59 -8 -110h-289q-3 -32 -3 -53q0 -125 85 -125q43 0 73.5 34t37.5 83h83q-13 -82 -63.5 -136t-130.5 -54q-170 0 -170 191q0 63 10 120.5t33 114t69 90.5t111 34zM258 465q-93 0 -125 -153h201q1 13 1 36q0 117 -77 117zM329 723l66 -135h-77
l-33 79l-56 -79h-83l105 135h78z" />
    <glyph glyph-name="edieresis" unicode="&#xeb;" 
d="M258 538q162 0 162 -189q0 -59 -8 -110h-289q-3 -32 -3 -53q0 -125 85 -125q43 0 73.5 34t37.5 83h83q-13 -82 -63.5 -136t-130.5 -54q-170 0 -170 191q0 63 10 120.5t33 114t69 90.5t111 34zM258 465q-93 0 -125 -153h201q1 13 1 36q0 117 -77 117zM413 723l-13 -95h-87
l13 95h87zM263 723l-13 -95h-87l13 95h87z" />
    <glyph glyph-name="igrave" unicode="&#xec;" horiz-adv-x="228" 
d="M193 526l-74 -526h-81l73 526h82zM153 723l68 -132h-70l-89 129l1 3h90z" />
    <glyph glyph-name="iacute" unicode="&#xed;" horiz-adv-x="228" 
d="M193 526l-74 -526h-81l73 526h82zM285 723l1 -3l-108 -129h-70l86 132h91z" />
    <glyph glyph-name="icircumflex" unicode="&#xee;" horiz-adv-x="228" 
d="M193 526l-74 -526h-81l73 526h82zM215 723l66 -135h-77l-33 79l-56 -79h-83l105 135h78z" />
    <glyph glyph-name="idieresis" unicode="&#xef;" horiz-adv-x="228" 
d="M193 526l-74 -526h-81l73 526h82zM299 723l-13 -95h-87l13 95h87zM149 723l-13 -95h-87l13 95h87z" />
    <glyph glyph-name="eth" unicode="&#xf0;" 
d="M186 723h88q31 -38 38 -49l119 11l-9 -60l-72 -7q74 -122 74 -267q0 -180 -61 -271.5t-161 -91.5q-167 0 -167 189q0 179 63 270t150 91q29 0 58 -12q-12 31 -44 84l-119 -10l8 60l72 6l-39 53zM258 465q-42 0 -72 -32.5t-43 -82.5t-18 -90t-5 -74q0 -64 19.5 -94.5
t61.5 -30.5q43 0 72.5 33.5t42.5 85t18 92t5 76.5q0 117 -81 117z" />
    <glyph glyph-name="ntilde" unicode="&#xf1;" 
d="M300 538q60 0 87 -33.5t27 -84.5q0 -14 -14 -119l-28 -203l-14 -98h-82q54 369 54 401q0 64 -60 64q-49 0 -81.5 -46.5t-43.5 -124.5l-41 -294h-82l74 526h64v-78q45 90 140 90zM374 723h58q-6 -40 -31 -72t-65 -32q-23 0 -59 15.5t-55 15.5q-31 0 -39 -31h-58
q7 39 29 69q27 35 67 35q20 0 59 -15q36 -16 55 -16q31 0 39 31z" />
    <glyph glyph-name="ograve" unicode="&#xf2;" 
d="M256 538q166 0 166 -189q0 -61 -10 -118.5t-33 -115t-69 -92.5t-111 -35q-166 0 -166 187q0 61 10 118.5t33 115.5t69 93.5t111 35.5zM256 465q-42 0 -72 -32.5t-43 -82.5t-18 -90t-5 -74q0 -64 19.5 -94.5t61.5 -30.5q43 0 72.5 33.5t42.5 85t18 92t5 76.5
q0 117 -81 117zM266 723l67 -132h-69l-90 129l2 3h90z" />
    <glyph glyph-name="oacute" unicode="&#xf3;" 
d="M256 538q166 0 166 -189q0 -61 -10 -118.5t-33 -115t-69 -92.5t-111 -35q-166 0 -166 187q0 61 10 118.5t33 115.5t69 93.5t111 35.5zM256 465q-42 0 -72 -32.5t-43 -82.5t-18 -90t-5 -74q0 -64 19.5 -94.5t61.5 -30.5q43 0 72.5 33.5t42.5 85t18 92t5 76.5
q0 117 -81 117zM397 723l1 -3l-107 -129h-70l86 132h90z" />
    <glyph glyph-name="ocircumflex" unicode="&#xf4;" 
d="M256 538q166 0 166 -189q0 -61 -10 -118.5t-33 -115t-69 -92.5t-111 -35q-166 0 -166 187q0 61 10 118.5t33 115.5t69 93.5t111 35.5zM256 465q-42 0 -72 -32.5t-43 -82.5t-18 -90t-5 -74q0 -64 19.5 -94.5t61.5 -30.5q43 0 72.5 33.5t42.5 85t18 92t5 76.5
q0 117 -81 117zM328 723l66 -135h-77l-33 79l-56 -79h-83l105 135h78z" />
    <glyph glyph-name="otilde" unicode="&#xf5;" 
d="M256 538q166 0 166 -189q0 -61 -10 -118.5t-33 -115t-69 -92.5t-111 -35q-166 0 -166 187q0 61 10 118.5t33 115.5t69 93.5t111 35.5zM256 465q-42 0 -72 -32.5t-43 -82.5t-18 -90t-5 -74q0 -64 19.5 -94.5t61.5 -30.5q43 0 72.5 33.5t42.5 85t18 92t5 76.5
q0 117 -81 117zM377 723h59q-6 -40 -31.5 -72t-64.5 -32q-24 0 -59.5 15.5t-54.5 15.5q-31 0 -39 -31h-58q7 39 29 69q27 35 67 35q20 0 59 -15q36 -16 55 -16q31 0 38 31z" />
    <glyph glyph-name="odieresis" unicode="&#xf6;" 
d="M256 538q166 0 166 -189q0 -61 -10 -118.5t-33 -115t-69 -92.5t-111 -35q-166 0 -166 187q0 61 10 118.5t33 115.5t69 93.5t111 35.5zM256 465q-42 0 -72 -32.5t-43 -82.5t-18 -90t-5 -74q0 -64 19.5 -94.5t61.5 -30.5q43 0 72.5 33.5t42.5 85t18 92t5 76.5
q0 117 -81 117zM412 723l-13 -95h-87l13 95h87zM262 723l-13 -95h-87l13 95h87z" />
    <glyph glyph-name="divide" unicode="&#xf7;" horiz-adv-x="549" 
d="M510 297l-11 -84h-462l11 84h462zM299 141l-12 -90h-84l12 90h84zM344 460l-13 -91h-84l13 91h84z" />
    <glyph glyph-name="oslash" unicode="&#xf8;" horiz-adv-x="501" 
d="M445 558l-40 -70q40 -48 40 -139q0 -61 -10 -118.5t-33 -115t-69 -92.5t-111 -35q-54 0 -89 19l-22 -39h-55l39 69q-39 45 -39 138q0 61 10 118.5t33 115.5t69 93.5t111 35.5q51 0 88 -20l23 40h55zM355 399l-182 -322q17 -16 49 -16q43 0 72.5 33.5t42.5 85t18 92
t5 76.5q0 26 -5 51zM279 465q-42 0 -72 -32.5t-43 -82.5t-18 -90t-5 -74q0 -31 5 -59l182 321q-20 17 -49 17z" />
    <glyph glyph-name="ugrave" unicode="&#xf9;" 
d="M434 526l-74 -526h-64v77q-7 -14 -17 -27t-26.5 -28.5t-41.5 -24.5t-55 -9q-60 0 -87 33.5t-27 84.5q0 14 14 119l28 203l14 98h82q-54 -369 -54 -401q0 -64 60 -64q49 0 81.5 46.5t43.5 124.5l41 294h82zM266 723l67 -132h-69l-90 129l2 3h90z" />
    <glyph glyph-name="uacute" unicode="&#xfa;" 
d="M434 526l-74 -526h-64v77q-7 -14 -17 -27t-26.5 -28.5t-41.5 -24.5t-55 -9q-60 0 -87 33.5t-27 84.5q0 14 14 119l28 203l14 98h82q-54 -369 -54 -401q0 -64 60 -64q49 0 81.5 46.5t43.5 124.5l41 294h82zM397 723l1 -3l-107 -129h-70l86 132h90z" />
    <glyph glyph-name="ucircumflex" unicode="&#xfb;" 
d="M434 526l-74 -526h-64v77q-7 -14 -17 -27t-26.5 -28.5t-41.5 -24.5t-55 -9q-60 0 -87 33.5t-27 84.5q0 14 14 119l28 203l14 98h82q-54 -369 -54 -401q0 -64 60 -64q49 0 81.5 46.5t43.5 124.5l41 294h82zM328 723l66 -135h-77l-33 79l-56 -79h-83l105 135h78z" />
    <glyph glyph-name="udieresis" unicode="&#xfc;" 
d="M434 526l-74 -526h-64v77q-7 -14 -17 -27t-26.5 -28.5t-41.5 -24.5t-55 -9q-60 0 -87 33.5t-27 84.5q0 14 14 119l28 203l14 98h82q-54 -369 -54 -401q0 -64 60 -64q49 0 81.5 46.5t43.5 124.5l41 294h82zM412 723l-13 -95h-87l13 95h87zM262 723l-13 -95h-87l13 95h87z
" />
    <glyph glyph-name="yacute" unicode="&#xfd;" horiz-adv-x="410" 
d="M448 526l-214 -499q-43 -99 -89.5 -154t-109.5 -55q-37 0 -57 8l8 57h28q80 0 120 117l-87 526h87l60 -420h4l162 420h88zM388 723l1 -3l-108 -129h-70l86 132h91z" />
    <glyph glyph-name="thorn" unicode="&#xfe;" 
d="M207 723l-37 -257q48 72 120 72q61 0 97 -49t36 -146q0 -169 -61 -262t-142 -93q-73 0 -105 70l-34 -240h-82l126 905h82zM265 465q-36 0 -63.5 -33.5t-41 -83t-19.5 -94t-6 -80.5q0 -113 73 -113q38 0 65.5 32t40.5 81.5t19 94t6 82.5q0 114 -74 114z" />
    <glyph glyph-name="ydieresis" unicode="&#xff;" horiz-adv-x="410" 
d="M448 526l-214 -499q-43 -99 -89.5 -154t-109.5 -55q-37 0 -57 8l8 57h28q80 0 120 117l-87 526h87l60 -420h4l162 420h88zM402 723l-13 -95h-87l13 95h87zM252 723l-13 -95h-87l14 95h86z" />
    <glyph glyph-name="Amacron" unicode="&#x100;" horiz-adv-x="547" 
d="M478 831l-11 -72h-250l11 72h250zM421 0l-26 153h-275l-69 -153h-87l314 686h113l121 -686h-91zM294 538l-138 -305h226l-51 305l-5 76h-4q-18 -54 -28 -76z" />
    <glyph glyph-name="amacron" unicode="&#x101;" 
d="M407 671l-11 -72h-250l11 72h250zM236 538q83 0 109 -85l18 73h65q-61 -425 -61 -437q0 -28 24 -28h32l-8 -57q-23 -16 -56 -16q-71 0 -72 83q-55 -83 -121 -83q-61 0 -97 49t-36 146q0 169 61 262t142 93zM248 465q-38 0 -65.5 -32t-40.5 -81.5t-19 -94t-6 -82.5
q0 -114 74 -114q33 0 59 33.5t40 83t20.5 95t6.5 79.5q0 113 -69 113z" />
    <glyph glyph-name="Abreve" unicode="&#x102;" horiz-adv-x="547" 
d="M423 883h64q-5 -37 -42.5 -67t-89.5 -30q-53 0 -84.5 26.5t-31.5 61.5q0 6 1 9h64q1 -12 16.5 -22.5t38.5 -10.5q24 0 42.5 10.5t21.5 22.5zM421 0l-26 153h-275l-69 -153h-87l314 686h113l121 -686h-91zM294 538l-138 -305h226l-51 305l-5 76h-4q-18 -54 -28 -76z" />
    <glyph glyph-name="abreve" unicode="&#x103;" 
d="M352 723h64q-5 -38 -40 -65q-39 -32 -92 -32t-84.5 26.5t-31.5 61.5q0 6 1 9h64q2 -12 16 -22q17 -11 39 -11q24 0 42.5 10.5t21.5 22.5zM236 538q83 0 109 -85l18 73h65q-61 -425 -61 -437q0 -28 24 -28h32l-8 -57q-23 -16 -56 -16q-71 0 -72 83q-55 -83 -121 -83
q-61 0 -97 49t-36 146q0 169 61 262t142 93zM248 465q-38 0 -65.5 -32t-40.5 -81.5t-19 -94t-6 -82.5q0 -114 74 -114q33 0 59 33.5t40 83t20.5 95t6.5 79.5q0 113 -69 113z" />
    <glyph glyph-name="Aogonek" unicode="&#x104;" horiz-adv-x="547" 
d="M542 -125l-8 -51q-34 -14 -63 -14q-35 0 -58.5 18.5t-23.5 60.5q0 59 58 111h-26l-26 153h-275l-69 -153h-87l314 686h113l121 -686q-41 -41 -41 -83t38 -42h33zM382 233l-51 305l-5 76h-4q-18 -54 -28 -76l-138 -305h226z" />
    <glyph glyph-name="aogonek" unicode="&#x105;" 
d="M444 -121l-7 -51q-34 -14 -63 -14q-35 0 -58.5 18.5t-23.5 60.5q0 54 44 98q-48 13 -49 80q-55 -83 -121 -83q-61 0 -97 49t-36 146q0 169 61 262t142 93q83 0 109 -85l18 73h65q-61 -425 -61 -437q0 -28 24 -28h32l-8 -57q-41 -41 -41 -83t38 -42h32zM191 61
q33 0 59 33.5t40 83t20.5 95t6.5 79.5q0 113 -69 113q-38 0 -65.5 -32t-40.5 -81.5t-19 -94t-6 -82.5q0 -114 74 -114z" />
    <glyph glyph-name="Cacute" unicode="&#x106;" horiz-adv-x="592" 
d="M353 698q217 0 217 -245v-16h-91v22q0 158 -127 158q-53 0 -93.5 -32t-62 -76.5t-35 -100.5t-17 -94t-3.5 -68q0 -85 36.5 -130.5t104.5 -45.5q72 0 116.5 49t55.5 123h87q-14 -109 -81 -181.5t-175 -72.5q-111 0 -172.5 63t-61.5 190q0 58 8.5 117t30.5 121.5t54.5 110
t86.5 78t122 30.5zM484 883l1 -3l-108 -129h-69l86 132h90z" />
    <glyph glyph-name="cacute" unicode="&#x107;" horiz-adv-x="410" 
d="M240 538q150 0 150 -189v-18h-85v17q0 117 -65 117q-38 0 -65 -34t-38.5 -86t-16 -90.5t-4.5 -68.5q0 -60 19 -92.5t55 -32.5q40 0 68 38t34 93h82q-10 -86 -58 -145t-124 -59t-118.5 47.5t-42.5 143.5q0 51 5 97.5t19.5 95.5t37 84.5t60.5 58.5t87 23zM382 723l1 -3
l-108 -129h-69l86 132h90z" />
    <glyph glyph-name="Ccircumflex" unicode="&#x108;" horiz-adv-x="592" 
d="M353 698q217 0 217 -245v-16h-91v22q0 158 -127 158q-53 0 -93.5 -32t-62 -76.5t-35 -100.5t-17 -94t-3.5 -68q0 -85 36.5 -130.5t104.5 -45.5q72 0 116.5 49t55.5 123h87q-14 -109 -81 -181.5t-175 -72.5q-111 0 -172.5 63t-61.5 190q0 58 8.5 117t30.5 121.5t54.5 110
t86.5 78t122 30.5zM415 883l65 -135h-77l-32 79l-57 -79h-83l105 135h79z" />
    <glyph glyph-name="ccircumflex" unicode="&#x109;" horiz-adv-x="410" 
d="M240 538q150 0 150 -189v-18h-85v17q0 117 -65 117q-38 0 -65 -34t-38.5 -86t-16 -90.5t-4.5 -68.5q0 -60 19 -92.5t55 -32.5q40 0 68 38t34 93h82q-10 -86 -58 -145t-124 -59t-118.5 47.5t-42.5 143.5q0 51 5 97.5t19.5 95.5t37 84.5t60.5 58.5t87 23zM313 723l66 -135
h-77l-33 79l-56 -79h-83l105 135h78z" />
    <glyph glyph-name="Cdotaccent" unicode="&#x10a;" horiz-adv-x="592" 
d="M353 698q217 0 217 -245v-16h-91v22q0 158 -127 158q-53 0 -93.5 -32t-62 -76.5t-35 -100.5t-17 -94t-3.5 -68q0 -85 36.5 -130.5t104.5 -45.5q72 0 116.5 49t55.5 123h87q-14 -109 -81 -181.5t-175 -72.5q-111 0 -172.5 63t-61.5 190q0 58 8.5 117t30.5 121.5t54.5 110
t86.5 78t122 30.5zM422 883l-13 -95h-87l13 95h87z" />
    <glyph glyph-name="cdotaccent" unicode="&#x10b;" horiz-adv-x="410" 
d="M240 538q150 0 150 -189v-18h-85v17q0 117 -65 117q-38 0 -65 -34t-38.5 -86t-16 -90.5t-4.5 -68.5q0 -60 19 -92.5t55 -32.5q40 0 68 38t34 93h82q-10 -86 -58 -145t-124 -59t-118.5 47.5t-42.5 143.5q0 51 5 97.5t19.5 95.5t37 84.5t60.5 58.5t87 23zM321 723l-13 -95
h-87l13 95h87z" />
    <glyph glyph-name="Ccaron" unicode="&#x10c;" horiz-adv-x="592" 
d="M353 698q217 0 217 -245v-16h-91v22q0 158 -127 158q-53 0 -93.5 -32t-62 -76.5t-35 -100.5t-17 -94t-3.5 -68q0 -85 36.5 -130.5t104.5 -45.5q72 0 116.5 49t55.5 123h87q-14 -109 -81 -181.5t-175 -72.5q-111 0 -172.5 63t-61.5 190q0 58 8.5 117t30.5 121.5t54.5 110
t86.5 78t122 30.5zM501 883l-105 -135h-77l-66 135h80l33 -79l52 79h83z" />
    <glyph glyph-name="ccaron" unicode="&#x10d;" horiz-adv-x="410" 
d="M240 538q150 0 150 -189v-18h-85v17q0 117 -65 117q-38 0 -65 -34t-38.5 -86t-16 -90.5t-4.5 -68.5q0 -60 19 -92.5t55 -32.5q40 0 68 38t34 93h82q-10 -86 -58 -145t-124 -59t-118.5 47.5t-42.5 143.5q0 51 5 97.5t19.5 95.5t37 84.5t60.5 58.5t87 23zM400 723
l-105 -135h-78l-66 135h80l33 -79l53 79h83z" />
    <glyph glyph-name="Dcaron" unicode="&#x10e;" horiz-adv-x="592" 
d="M475 883l-105 -135h-78l-66 135h80l33 -79l53 79h83zM265 0h-231l97 686h203q110 0 169.5 -65t59.5 -192q0 -56 -9.5 -113t-32.5 -114.5t-56 -102t-85 -72t-115 -27.5zM324 606h-117l-73 -526h121q49 0 88 23t62.5 59t39 83.5t21.5 92t6 90.5q0 89 -38.5 133.5
t-109.5 44.5z" />
    <glyph glyph-name="dcaron" unicode="&#x10f;" horiz-adv-x="512" 
d="M460 723l-101 -723h-65v71q-51 -83 -127 -83q-61 0 -97 49t-36 146q0 169 61 262t142 93q73 0 105 -70l36 255h82zM249 465q-38 0 -65.5 -32t-40.5 -81.5t-19 -94t-6 -82.5q0 -114 74 -114q36 0 63.5 33.5t41 83t19.5 94t6 80.5q0 113 -73 113zM616 686l-14 -99l-64 -133
h-55l51 124h-33l15 108h100z" />
    <glyph glyph-name="Dcroat" unicode="&#x110;" horiz-adv-x="592" 
d="M265 0h-231l45 323h-65l9 64h65l43 299h203q110 0 169.5 -65t59.5 -192q0 -56 -9.5 -113t-32.5 -114.5t-56 -102t-85 -72t-115 -27.5zM324 606h-117l-31 -219h157l-9 -64h-157l-33 -243h121q49 0 88 23t62.5 59t39 83.5t21.5 92t6 90.5q0 89 -38.5 133.5t-109.5 44.5z
" />
    <glyph glyph-name="dcroat" unicode="&#x111;" horiz-adv-x="453" 
d="M496 583h-56l-81 -583h-65v71q-51 -83 -127 -83q-61 0 -97 49t-36 146q0 169 61 262t142 93q73 0 105 -70l16 115h-115l10 68h115l10 72h82l-10 -72h56zM192 61q36 0 63.5 33.5t41 83t19.5 94t6 80.5q0 113 -73 113q-38 0 -65.5 -32t-40.5 -81.5t-19 -94t-6 -82.5
q0 -114 74 -114z" />
    <glyph glyph-name="Emacron" unicode="&#x112;" horiz-adv-x="547" 
d="M469 831l-11 -72h-250l11 72h250zM463 0h-429l97 686h423l-12 -80h-335l-30 -215h291l-11 -80h-291l-32 -231h341z" />
    <glyph glyph-name="emacron" unicode="&#x113;" 
d="M258 538q162 0 162 -189q0 -59 -8 -110h-289q-3 -32 -3 -53q0 -125 85 -125q43 0 73.5 34t37.5 83h83q-13 -82 -63.5 -136t-130.5 -54q-170 0 -170 191q0 63 10 120.5t33 114t69 90.5t111 34zM258 465q-93 0 -125 -153h201q1 13 1 36q0 117 -77 117zM408 671l-11 -72
h-250l11 72h250z" />
    <glyph glyph-name="Ebreve" unicode="&#x114;" horiz-adv-x="547" 
d="M414 883h64q-5 -37 -42.5 -67t-89.5 -30q-53 0 -84.5 26.5t-31.5 61.5q0 6 1 9h64q1 -12 16.5 -22.5t38.5 -10.5q24 0 42.5 10.5t21.5 22.5zM463 0h-429l97 686h423l-12 -80h-335l-30 -215h291l-11 -80h-291l-32 -231h341z" />
    <glyph glyph-name="ebreve" unicode="&#x115;" 
d="M258 538q162 0 162 -189q0 -59 -8 -110h-289q-3 -32 -3 -53q0 -125 85 -125q43 0 73.5 34t37.5 83h83q-13 -82 -63.5 -136t-130.5 -54q-170 0 -170 191q0 63 10 120.5t33 114t69 90.5t111 34zM258 465q-93 0 -125 -153h201q1 13 1 36q0 117 -77 117zM353 723h64
q-5 -38 -40 -65q-39 -32 -92 -32t-84.5 26.5t-31.5 61.5q0 6 1 9h64q2 -12 16 -22q17 -11 39 -11q24 0 42.5 10.5t21.5 22.5z" />
    <glyph glyph-name="Edotaccent" unicode="&#x116;" horiz-adv-x="547" 
d="M398 883l-13 -95h-87l13 95h87zM463 0h-429l97 686h423l-12 -80h-335l-30 -215h291l-11 -80h-291l-32 -231h341z" />
    <glyph glyph-name="edotaccent" unicode="&#x117;" 
d="M258 538q162 0 162 -189q0 -59 -8 -110h-289q-3 -32 -3 -53q0 -125 85 -125q43 0 73.5 34t37.5 83h83q-13 -82 -63.5 -136t-130.5 -54q-170 0 -170 191q0 63 10 120.5t33 114t69 90.5t111 34zM258 465q-93 0 -125 -153h201q1 13 1 36q0 117 -77 117zM337 723l-13 -95h-87
l13 95h87z" />
    <glyph glyph-name="Eogonek" unicode="&#x118;" horiz-adv-x="547" 
d="M207 606l-30 -215h291l-11 -80h-291l-32 -231h341l-12 -80q-41 -41 -41 -83t38 -42h32l-7 -51q-34 -14 -63 -14q-35 0 -58.5 18.5t-23.5 60.5q0 59 58 111h-364l97 686h423l-12 -80h-335z" />
    <glyph glyph-name="eogonek" unicode="&#x119;" 
d="M412 239h-289q-3 -32 -3 -53q0 -125 85 -125q43 0 73.5 34t37.5 83h83q-9 -59 -39 -105t-76 -68q-41 -41 -41 -83t38 -42h32l-7 -51q-34 -14 -63 -14q-35 0 -58.5 18.5t-23.5 60.5q0 50 40 94q-166 2 -166 191q0 63 10 120.5t33 114t69 90.5t111 34q162 0 162 -189
q0 -59 -8 -110zM133 312h201q1 13 1 36q0 117 -77 117q-93 0 -125 -153z" />
    <glyph glyph-name="Ecaron" unicode="&#x11a;" horiz-adv-x="547" 
d="M477 883l-105 -135h-78l-65 135h79l33 -79l53 79h83zM463 0h-429l97 686h423l-12 -80h-335l-30 -215h291l-11 -80h-291l-32 -231h341z" />
    <glyph glyph-name="ecaron" unicode="&#x11b;" 
d="M258 538q162 0 162 -189q0 -59 -8 -110h-289q-3 -32 -3 -53q0 -125 85 -125q43 0 73.5 34t37.5 83h83q-13 -82 -63.5 -136t-130.5 -54q-170 0 -170 191q0 63 10 120.5t33 114t69 90.5t111 34zM258 465q-93 0 -125 -153h201q1 13 1 36q0 117 -77 117zM416 723l-105 -135
h-78l-66 135h80l33 -79l53 79h83z" />
    <glyph glyph-name="Gcircumflex" unicode="&#x11c;" horiz-adv-x="638" 
d="M433 883l66 -135h-77l-33 79l-56 -79h-83l105 135h78zM475 0l-8 76q-68 -88 -182 -88q-111 0 -173 63t-62 190q0 75 15.5 148.5t49 146t98 117.5t151.5 45q232 0 232 -246h-91v7q0 158 -142 158q-56 0 -98.5 -30.5t-65.5 -73.5t-37 -98.5t-18 -95t-4 -73.5
q0 -176 153 -176q79 0 126 48.5t59 123.5l6 38h-180l11 77h269l-51 -357h-58z" />
    <glyph glyph-name="gcircumflex" unicode="&#x11d;" 
d="M327 723l66 -135h-77l-33 79l-56 -79h-83l105 135h78zM250 465q-38 0 -65.5 -31.5t-40 -80t-18 -91t-5.5 -80.5q0 -101 76 -101q34 0 60.5 31t40 77.5t20 88.5t6.5 74q-2 113 -74 113zM282 25l11 66q-52 -83 -122 -83q-69 0 -101.5 53t-32.5 129q0 168 60.5 258t141.5 90
q86 0 113 -85l17 73h65l-67 -477q-17 -121 -66.5 -176t-135.5 -55q-77 0 -117.5 45t-40.5 113h82q0 -86 79 -86q48 0 75.5 32.5t38.5 102.5z" />
    <glyph glyph-name="Gbreve" unicode="&#x11e;" horiz-adv-x="638" 
d="M457 883h64q-5 -37 -42.5 -67t-89.5 -30q-53 0 -84.5 26.5t-31.5 61.5q0 6 1 9h64q1 -12 16.5 -22.5t38.5 -10.5q24 0 42.5 10.5t21.5 22.5zM475 0l-8 76q-68 -88 -182 -88q-111 0 -173 63t-62 190q0 75 15.5 148.5t49 146t98 117.5t151.5 45q232 0 232 -246h-91v7
q0 158 -142 158q-56 0 -98.5 -30.5t-65.5 -73.5t-37 -98.5t-18 -95t-4 -73.5q0 -176 153 -176q79 0 126 48.5t59 123.5l6 38h-180l11 77h269l-51 -357h-58z" />
    <glyph glyph-name="gbreve" unicode="&#x11f;" 
d="M351 723h64q-5 -38 -40 -65q-39 -32 -92 -32t-84.5 26.5t-31.5 61.5q0 6 1 9h64q2 -12 16 -22q17 -11 39 -11q24 0 42.5 10.5t21.5 22.5zM250 465q-38 0 -65.5 -31.5t-40 -80t-18 -91t-5.5 -80.5q0 -101 76 -101q34 0 60.5 31t40 77.5t20 88.5t6.5 74q-2 113 -74 113z
M282 25l11 66q-52 -83 -122 -83q-69 0 -101.5 53t-32.5 129q0 168 60.5 258t141.5 90q86 0 113 -85l17 73h65l-67 -477q-17 -121 -66.5 -176t-135.5 -55q-77 0 -117.5 45t-40.5 113h82q0 -86 79 -86q48 0 75.5 32.5t38.5 102.5z" />
    <glyph glyph-name="Gdotaccent" unicode="&#x120;" horiz-adv-x="638" 
d="M441 883l-13 -95h-87l13 95h87zM475 0l-8 76q-68 -88 -182 -88q-111 0 -173 63t-62 190q0 75 15.5 148.5t49 146t98 117.5t151.5 45q232 0 232 -246h-91v7q0 158 -142 158q-56 0 -98.5 -30.5t-65.5 -73.5t-37 -98.5t-18 -95t-4 -73.5q0 -176 153 -176q79 0 126 48.5
t59 123.5l6 38h-180l11 77h269l-51 -357h-58z" />
    <glyph glyph-name="gdotaccent" unicode="&#x121;" 
d="M335 723l-13 -95h-87l13 95h87zM250 465q-38 0 -65.5 -31.5t-40 -80t-18 -91t-5.5 -80.5q0 -101 76 -101q34 0 60.5 31t40 77.5t20 88.5t6.5 74q-2 113 -74 113zM282 25l11 66q-52 -83 -122 -83q-69 0 -101.5 53t-32.5 129q0 168 60.5 258t141.5 90q86 0 113 -85l17 73
h65l-67 -477q-17 -121 -66.5 -176t-135.5 -55q-77 0 -117.5 45t-40.5 113h82q0 -86 79 -86q48 0 75.5 32.5t38.5 102.5z" />
    <glyph glyph-name="Gcommaaccent" unicode="&#x122;" horiz-adv-x="638" 
d="M332 -60l-13 -84l-35 -76h-48l32 69h-35l14 91h85zM475 0l-8 76q-68 -88 -182 -88q-111 0 -173 63t-62 190q0 75 15.5 148.5t49 146t98 117.5t151.5 45q232 0 232 -246h-91v7q0 158 -142 158q-56 0 -98.5 -30.5t-65.5 -73.5t-37 -98.5t-18 -95t-4 -73.5q0 -176 153 -176
q79 0 126 48.5t59 123.5l6 38h-180l11 77h269l-51 -357h-58z" />
    <glyph glyph-name="gcommaaccent" unicode="&#x123;" 
d="M229 595l12 84l35 76h49l-32 -69h34l-13 -91h-85zM250 465q-38 0 -65.5 -31.5t-40 -80t-18 -91t-5.5 -80.5q0 -101 76 -101q34 0 60.5 31t40 77.5t20 88.5t6.5 74q-2 113 -74 113zM282 25l11 66q-52 -83 -122 -83q-69 0 -101.5 53t-32.5 129q0 168 60.5 258t141.5 90
q86 0 113 -85l17 73h65l-67 -477q-17 -121 -66.5 -176t-135.5 -55q-77 0 -117.5 45t-40.5 113h82q0 -86 79 -86q48 0 75.5 32.5t38.5 102.5z" />
    <glyph glyph-name="Hcircumflex" unicode="&#x124;" horiz-adv-x="592" 
d="M419 883l66 -135h-77l-33 79l-56 -79h-83l105 135h78zM583 686l-97 -686h-88l44 311h-276l-44 -311h-88l97 686h88l-42 -295h276l42 295h88z" />
    <glyph glyph-name="hcircumflex" unicode="&#x125;" 
d="M205 723l-36 -258q47 73 130 73q60 0 87 -33.5t27 -84.5q0 -14 -14 -119l-28 -203l-14 -98h-82q54 369 54 401q0 64 -60 64q-49 0 -81.5 -46.5t-43.5 -124.5l-41 -294h-81l101 723h82zM222 883l66 -135h-78l-32 79l-56 -79h-83l105 135h78z" />
    <glyph glyph-name="Hbar" unicode="&#x126;" horiz-adv-x="592" 
d="M608 490h-53l-69 -490h-88l43 306h-275l-44 -306h-88l69 490h-57l11 72h56l18 124h88l-17 -124h276l17 124h88l-18 -124h54zM468 490h-276l-14 -104h276z" />
    <glyph glyph-name="hbar" unicode="&#x127;" 
d="M186 583l-17 -118q47 73 130 73q60 0 87 -33.5t27 -84.5q0 -14 -14 -119l-28 -203l-14 -98h-82q54 369 54 401q0 64 -60 64q-49 0 -81.5 -46.5t-43.5 -124.5l-41 -294h-81l82 583h-57l11 68h55l10 72h82l-10 -72h115l-10 -68h-114z" />
    <glyph glyph-name="Itilde" unicode="&#x128;" horiz-adv-x="228" 
d="M219 686l-97 -686h-88l97 686h88zM289 883h58q-6 -40 -31 -72t-65 -32q-23 0 -59 15.5t-55 15.5q-31 0 -39 -31h-57q6 40 30.5 72t64.5 32q23 0 59 -15.5t55 -15.5q31 0 39 31z" />
    <glyph glyph-name="itilde" unicode="&#x129;" horiz-adv-x="228" 
d="M193 526l-74 -526h-81l73 526h82zM265 723h58q-6 -40 -31 -72t-65 -32q-23 0 -59 15.5t-55 15.5q-31 0 -39 -31h-57q7 41 28 69q27 35 67 35q20 0 59 -15q36 -16 55 -16q31 0 39 31z" />
    <glyph glyph-name="Imacron" unicode="&#x12a;" horiz-adv-x="228" 
d="M219 686l-97 -686h-88l97 686h88zM318 831l-11 -72h-250l11 72h250z" />
    <glyph glyph-name="imacron" unicode="&#x12b;" horiz-adv-x="228" 
d="M193 526l-74 -526h-81l73 526h82zM294 671l-11 -72h-250l11 72h250z" />
    <glyph glyph-name="Ibreve" unicode="&#x12c;" horiz-adv-x="228" 
d="M219 686l-97 -686h-88l97 686h88zM263 883h64q-5 -37 -42.5 -67t-89.5 -30q-53 0 -84.5 26.5t-31.5 61.5q0 6 1 9h64q1 -12 16.5 -22.5t38.5 -10.5q24 0 42.5 10.5t21.5 22.5z" />
    <glyph glyph-name="ibreve" unicode="&#x12d;" horiz-adv-x="228" 
d="M193 526l-74 -526h-81l73 526h82zM239 723h64q-5 -38 -40 -65q-39 -32 -92 -32t-84.5 26.5t-31.5 61.5q0 6 1 9h64q2 -12 16 -22q17 -11 39 -11q24 0 42.5 10.5t21.5 22.5z" />
    <glyph glyph-name="Iogonek" unicode="&#x12e;" horiz-adv-x="228" 
d="M219 686l-97 -686q-41 -41 -41 -83t38 -42h32l-7 -51q-34 -14 -63 -14q-35 0 -58.5 18.5t-23.5 60.5q0 59 58 111h-23l97 686h88z" />
    <glyph glyph-name="iogonek" unicode="&#x12f;" horiz-adv-x="182" 
d="M223 723l-13 -95h-87l13 95h87zM193 526l-74 -526q-41 -41 -41 -83t38 -42h32l-7 -51q-34 -14 -63 -14q-35 0 -58.5 18.5t-23.5 60.5q0 59 58 111h-16l73 526h82z" />
    <glyph glyph-name="Idotaccent" unicode="&#x130;" horiz-adv-x="228" 
d="M219 686l-97 -686h-88l97 686h88zM247 883l-13 -95h-87l13 95h87z" />
    <glyph glyph-name="dotlessi" unicode="&#x131;" horiz-adv-x="228" 
d="M193 526l-74 -526h-81l73 526h82z" />
    <glyph glyph-name="IJ" unicode="&#x132;" horiz-adv-x="638" 
d="M219 686l-97 -686h-88l97 686h88zM635 686l-74 -523q-12 -85 -59 -130t-122 -45q-74 0 -113.5 35t-39.5 101q0 18 9 84h87q-9 -64 -9 -71q0 -68 68 -68q78 0 90 89l75 528h88z" />
    <glyph glyph-name="ij" unicode="&#x133;" horiz-adv-x="364" 
d="M171 526l-74 -526h-81l73 526h82zM198 723l-13 -98h-82l13 98h82zM352 526l-82 -587q-8 -52 -36.5 -86.5t-83.5 -34.5q-35 0 -67 12l8 57h44q47 0 52 48l83 591h82zM380 723l-14 -98h-82l14 98h82z" />
    <glyph glyph-name="Jcircumflex" unicode="&#x134;" horiz-adv-x="410" 
d="M407 686l-74 -523q-12 -85 -59 -130t-122 -45q-74 0 -113.5 35t-39.5 101q0 18 9 84h87q-9 -64 -9 -71q0 -68 68 -68q78 0 90 89l75 528h88zM428 883l66 -135h-77l-33 79l-56 -79h-83l105 135h78z" />
    <glyph glyph-name="jcircumflex" unicode="&#x135;" horiz-adv-x="182" 
d="M170 526l-82 -587q-8 -52 -36.5 -86.5t-83.5 -34.5q-35 0 -67 12l8 57h44q47 0 52 48l83 591h82zM201 723l66 -135h-77l-33 79l-56 -79h-83l105 135h78z" />
    <glyph glyph-name="Kcommaaccent" unicode="&#x136;" horiz-adv-x="547" 
d="M256 -60l-12 -84l-35 -76h-48l31 69h-34l13 91h85zM219 686l-51 -357l316 357h105l-245 -277l155 -409h-98l-122 335l-127 -122l-30 -213h-88l97 686h88z" />
    <glyph glyph-name="kcommaaccent" unicode="&#x137;" horiz-adv-x="410" 
d="M202 723l-61 -431l197 234h98l-186 -216l120 -310h-90l-88 242l-65 -55l-26 -187h-82l101 723h82zM217 -60l-12 -84l-36 -76h-48l32 69h-34l13 91h85z" />
    <glyph glyph-name="kgreenlandic" unicode="&#x138;" horiz-adv-x="410" 
d="M92 526h82l-33 -234l197 234h98l-186 -216l120 -310h-90l-88 242l-65 -55l-26 -187h-82z" />
    <glyph glyph-name="Lacute" unicode="&#x139;" 
d="M310 883l1 -3l-108 -129h-70l86 132h91zM402 0h-368l97 686h88l-85 -606h280z" />
    <glyph glyph-name="lacute" unicode="&#x13a;" horiz-adv-x="182" 
d="M198 723l-101 -723h-81l100 723h82zM286 883l1 -3l-108 -129h-69l86 132h90z" />
    <glyph glyph-name="Lcommaaccent" unicode="&#x13b;" 
d="M232 -60l-12 -84l-35 -76h-48l31 69h-34l13 91h85zM402 0h-368l97 686h88l-85 -606h280z" />
    <glyph glyph-name="lcommaaccent" unicode="&#x13c;" horiz-adv-x="182" 
d="M198 723l-101 -723h-81l100 723h82zM90 -60l-12 -84l-35 -76h-48l31 69h-34l13 91h85z" />
    <glyph glyph-name="Lcaron" unicode="&#x13d;" 
d="M455 686l-14 -99l-64 -133h-55l51 124h-33l15 108h100zM402 0h-368l97 686h88l-85 -606h280z" />
    <glyph glyph-name="lcaron" unicode="&#x13e;" horiz-adv-x="231" 
d="M198 723l-101 -723h-81l100 723h82zM321 686l-13 -99l-64 -133h-56l52 124h-33l15 108h99z" />
    <glyph glyph-name="Ldot" unicode="&#x13f;" 
d="M416 399l-16 -111h-101l15 111h102zM402 0h-368l97 686h88l-85 -606h280z" />
    <glyph glyph-name="ldot" unicode="&#x140;" horiz-adv-x="269" 
d="M198 723l-101 -723h-81l100 723h82zM302 399l-15 -111h-101l15 111h101z" />
    <glyph glyph-name="Lslash" unicode="&#x141;" 
d="M34 0l33 237l-76 -60l12 81l76 60l52 368h88l-41 -290l119 95l-12 -83l-118 -94l-33 -234h280l-12 -80h-368z" />
    <glyph glyph-name="lslash" unicode="&#x142;" horiz-adv-x="182" 
d="M239 396l-97 -77l-45 -319h-81l34 247l-81 -64l12 81l81 64l54 395h82l-45 -323l98 79z" />
    <glyph glyph-name="Nacute" unicode="&#x143;" horiz-adv-x="592" 
d="M582 686l-97 -686h-69l-197 437l-33 92l-3 -1q-5 -63 -9 -91l-62 -437h-79l97 686h72l195 -431l32 -92l3 1q7 69 10 91l61 431h79zM489 883l1 -3l-108 -129h-70l86 132h91z" />
    <glyph glyph-name="nacute" unicode="&#x144;" 
d="M300 538q60 0 87 -33.5t27 -84.5q0 -14 -14 -119l-28 -203l-14 -98h-82q54 369 54 401q0 64 -60 64q-49 0 -81.5 -46.5t-43.5 -124.5l-41 -294h-82l74 526h64v-78q45 90 140 90zM394 723l1 -3l-108 -129h-70l86 132h91z" />
    <glyph glyph-name="Ncommaaccent" unicode="&#x145;" horiz-adv-x="592" 
d="M582 686l-97 -686h-69l-197 437l-33 92l-3 -1q-5 -63 -9 -91l-62 -437h-79l97 686h72l195 -431l32 -92l3 1q7 69 10 91l61 431h79zM293 -60l-12 -84l-35 -76h-48l31 69h-34l13 91h85z" />
    <glyph glyph-name="ncommaaccent" unicode="&#x146;" 
d="M300 538q60 0 87 -33.5t27 -84.5q0 -14 -14 -119l-28 -203l-14 -98h-82q54 369 54 401q0 64 -60 64q-49 0 -81.5 -46.5t-43.5 -124.5l-41 -294h-82l74 526h64v-78q45 90 140 90zM220 -60l-12 -84l-35 -76h-48l31 69h-34l13 91h85z" />
    <glyph glyph-name="Ncaron" unicode="&#x147;" horiz-adv-x="592" 
d="M582 686l-97 -686h-69l-197 437l-33 92l-3 -1q-5 -63 -9 -91l-62 -437h-79l97 686h72l195 -431l32 -92l3 1q7 69 10 91l61 431h79zM506 883l-105 -135h-77l-66 135h79l34 -79l52 79h83z" />
    <glyph glyph-name="ncaron" unicode="&#x148;" 
d="M300 538q60 0 87 -33.5t27 -84.5q0 -14 -14 -119l-28 -203l-14 -98h-82q54 369 54 401q0 64 -60 64q-49 0 -81.5 -46.5t-43.5 -124.5l-41 -294h-82l74 526h64v-78q45 90 140 90zM411 723l-105 -135h-77l-66 135h79l33 -79l53 79h83z" />
    <glyph glyph-name="napostrophe" unicode="&#x149;" horiz-adv-x="573" 
d="M190 685l-12 -84l-35 -77h-48l31 70h-34l13 91h85zM417 538q60 0 87 -33.5t27 -84.5q0 -14 -14 -119l-28 -203l-14 -98h-82q54 369 54 401q0 64 -60 64q-49 0 -81.5 -46.5t-43.5 -124.5l-41 -294h-82l74 526h64v-78q45 90 140 90z" />
    <glyph glyph-name="Eng" unicode="&#x14a;" horiz-adv-x="593" 
d="M582 686l-105 -747q-8 -52 -36.5 -86.5t-83.5 -34.5q-35 0 -67 12l8 57h44q46 0 52 48l12 86l-187 416l-33 92l-3 -1q-5 -63 -9 -91l-62 -437h-79l97 686h72l195 -431l32 -92l3 1q7 69 10 91l61 431h79z" />
    <glyph glyph-name="eng" unicode="&#x14b;" 
d="M300 538q60 0 87 -33.5t27 -84.5q0 -12 -16 -132.5l-32 -234.5l-16 -114q-21 -121 -120 -121q-35 0 -67 12l8 57h44q47 0 52 48q62 456 62 462q0 68 -59 68q-49 0 -81.5 -46.5t-43.5 -124.5l-41 -294h-82l74 526h64v-78q45 90 140 90z" />
    <glyph glyph-name="Omacron" unicode="&#x14c;" horiz-adv-x="638" 
d="M367 698q114 0 176 -66t62 -195q0 -77 -16.5 -151.5t-51 -143.5t-99 -111.5t-150.5 -42.5q-114 0 -175.5 65t-61.5 194q0 61 9.5 120.5t32.5 120.5t58 106.5t91 74.5t125 29zM366 617q-64 0 -110.5 -35.5t-70 -93.5t-34 -117.5t-10.5 -121.5q0 -90 38 -135t110 -45
q52 0 92.5 24.5t65 62.5t40 88.5t21.5 97.5t6 95q0 89 -38.5 134.5t-109.5 45.5zM521 831l-10 -72h-250l10 72h250z" />
    <glyph glyph-name="omacron" unicode="&#x14d;" 
d="M256 538q166 0 166 -189q0 -61 -10 -118.5t-33 -115t-69 -92.5t-111 -35q-166 0 -166 187q0 61 10 118.5t33 115.5t69 93.5t111 35.5zM256 465q-42 0 -72 -32.5t-43 -82.5t-18 -90t-5 -74q0 -64 19.5 -94.5t61.5 -30.5q43 0 72.5 33.5t42.5 85t18 92t5 76.5
q0 117 -81 117zM407 671l-11 -72h-250l11 72h250z" />
    <glyph glyph-name="Obreve" unicode="&#x14e;" horiz-adv-x="638" 
d="M367 698q114 0 176 -66t62 -195q0 -77 -16.5 -151.5t-51 -143.5t-99 -111.5t-150.5 -42.5q-114 0 -175.5 65t-61.5 194q0 61 9.5 120.5t32.5 120.5t58 106.5t91 74.5t125 29zM366 617q-64 0 -110.5 -35.5t-70 -93.5t-34 -117.5t-10.5 -121.5q0 -90 38 -135t110 -45
q52 0 92.5 24.5t65 62.5t40 88.5t21.5 97.5t6 95q0 89 -38.5 134.5t-109.5 45.5zM467 883h64q-6 -37 -43 -67t-90 -30q-52 0 -83.5 26.5t-31.5 61.5q0 6 1 9h64q1 -12 16.5 -22.5t38.5 -10.5q24 0 42 10.5t22 22.5z" />
    <glyph glyph-name="obreve" unicode="&#x14f;" 
d="M256 538q166 0 166 -189q0 -61 -10 -118.5t-33 -115t-69 -92.5t-111 -35q-166 0 -166 187q0 61 10 118.5t33 115.5t69 93.5t111 35.5zM256 465q-42 0 -72 -32.5t-43 -82.5t-18 -90t-5 -74q0 -64 19.5 -94.5t61.5 -30.5q43 0 72.5 33.5t42.5 85t18 92t5 76.5
q0 117 -81 117zM352 723h64q-5 -38 -40 -65q-39 -32 -92 -32t-84.5 26.5t-31.5 61.5q0 6 1 9h64q2 -12 16 -22q17 -11 39 -11q24 0 42.5 10.5t21.5 22.5z" />
    <glyph glyph-name="Ohungarumlaut" unicode="&#x150;" horiz-adv-x="638" 
d="M367 698q114 0 176 -66t62 -195q0 -77 -16.5 -151.5t-51 -143.5t-99 -111.5t-150.5 -42.5q-114 0 -175.5 65t-61.5 194q0 61 9.5 120.5t32.5 120.5t58 106.5t91 74.5t125 29zM366 617q-64 0 -110.5 -35.5t-70 -93.5t-34 -117.5t-10.5 -121.5q0 -90 38 -135t110 -45
q52 0 92.5 24.5t65 62.5t40 88.5t21.5 97.5t6 95q0 89 -38.5 134.5t-109.5 45.5zM540 883l1 -3l-84 -129h-69l62 132h90zM410 883l1 -3l-84 -129h-69l62 132h90z" />
    <glyph glyph-name="ohungarumlaut" unicode="&#x151;" 
d="M256 538q166 0 166 -189q0 -61 -10 -118.5t-33 -115t-69 -92.5t-111 -35q-166 0 -166 187q0 61 10 118.5t33 115.5t69 93.5t111 35.5zM256 465q-42 0 -72 -32.5t-43 -82.5t-18 -90t-5 -74q0 -64 19.5 -94.5t61.5 -30.5q43 0 72.5 33.5t42.5 85t18 92t5 76.5
q0 117 -81 117zM425 723l1 -3l-84 -129h-69l62 132h90zM295 723l1 -3l-84 -129h-69l62 132h90z" />
    <glyph glyph-name="OE" unicode="&#x152;" horiz-adv-x="820" 
d="M321 617q-53 0 -93 -41.5t-59.5 -106t-28.5 -123.5t-9 -111q0 -166 113 -166q56 0 96 41.5t59 106t27 122.5t8 112q0 166 -113 166zM376 0l10 68q-67 -80 -163 -80q-89 0 -136 61t-47 182q0 54 7.5 111.5t28 122.5t51 115.5t81.5 84t114 33.5q97 0 141 -80l10 68h360
l-12 -80h-272l-30 -215h228l-11 -80h-228l-32 -231h278l-12 -80h-366z" />
    <glyph glyph-name="oe" unicode="&#x153;" horiz-adv-x="774" 
d="M564 538q162 0 162 -189q0 -59 -8 -110h-289q-3 -32 -3 -53q0 -125 85 -125q43 0 73.5 34t37.5 83h83q-13 -82 -63.5 -136t-130.5 -54q-108 0 -148 78q-56 -78 -151 -78q-166 0 -166 187q0 61 10 118.5t33 115.5t69 93.5t111 35.5q104 0 143 -76q56 76 152 76zM269 465
q-42 0 -72 -32.5t-43 -82.5t-18 -90t-5 -74q0 -64 19.5 -94.5t61.5 -30.5q43 0 72.5 33.5t42.5 85t18 92t5 76.5q0 117 -81 117zM564 465q-93 0 -125 -153h201q1 13 1 36q0 117 -77 117z" />
    <glyph glyph-name="Racute" unicode="&#x154;" horiz-adv-x="592" 
d="M483 883l1 -3l-108 -129h-69l86 132h90zM583 527q0 -75 -38.5 -130.5t-105.5 -78.5l92 -318h-93l-88 303h-185l-43 -303h-88l97 686h266q94 0 140 -42.5t46 -116.5zM384 606h-177l-31 -223h177q59 0 98.5 36.5t39.5 93.5q0 45 -27.5 69t-79.5 24z" />
    <glyph glyph-name="racute" unicode="&#x155;" horiz-adv-x="273" 
d="M259 538q10 0 19.5 -2t13.5 -4l5 -2l-12 -85h-27q-41 0 -74.5 -37t-42.5 -104l-43 -304h-82l74 526h64v-84q10 21 16.5 32.5t20 29t30.5 26t38 8.5zM256 723l1 -3l-108 -129h-69l86 132h90z" />
    <glyph glyph-name="Rcommaaccent" unicode="&#x156;" horiz-adv-x="592" 
d="M334 -60l-12 -84l-35 -76h-48l32 69h-35l14 91h84zM583 527q0 -75 -38.5 -130.5t-105.5 -78.5l92 -318h-93l-88 303h-185l-43 -303h-88l97 686h266q94 0 140 -42.5t46 -116.5zM384 606h-177l-31 -223h177q59 0 98.5 36.5t39.5 93.5q0 45 -27.5 69t-79.5 24z" />
    <glyph glyph-name="rcommaaccent" unicode="&#x157;" horiz-adv-x="273" 
d="M259 538q10 0 19.5 -2t13.5 -4l5 -2l-12 -85h-27q-41 0 -74.5 -37t-42.5 -104l-43 -304h-82l74 526h64v-84q10 21 16.5 32.5t20 29t30.5 26t38 8.5zM92 -60l-12 -84l-36 -76h-48l32 69h-34l13 91h85z" />
    <glyph glyph-name="Rcaron" unicode="&#x158;" horiz-adv-x="592" 
d="M500 883l-104 -135h-78l-66 135h80l33 -79l52 79h83zM583 527q0 -75 -38.5 -130.5t-105.5 -78.5l92 -318h-93l-88 303h-185l-43 -303h-88l97 686h266q94 0 140 -42.5t46 -116.5zM384 606h-177l-31 -223h177q59 0 98.5 36.5t39.5 93.5q0 45 -27.5 69t-79.5 24z" />
    <glyph glyph-name="rcaron" unicode="&#x159;" horiz-adv-x="273" 
d="M259 538q10 0 19.5 -2t13.5 -4l5 -2l-12 -85h-27q-41 0 -74.5 -37t-42.5 -104l-43 -304h-82l74 526h64v-84q10 21 16.5 32.5t20 29t30.5 26t38 8.5zM274 723l-105 -135h-78l-66 135h80l33 -79l53 79h83z" />
    <glyph glyph-name="Sacute" unicode="&#x15a;" horiz-adv-x="547" 
d="M314 698q212 0 212 -213h-91q0 132 -126 132q-17 0 -33.5 -3.5t-37.5 -13t-33.5 -32.5t-12.5 -56q0 -29 16.5 -51t42.5 -36t58 -27t64 -29t58 -36t42.5 -53.5t16.5 -76.5q0 -38 -11 -73t-36.5 -68.5t-75 -53.5t-118.5 -20q-100 0 -158 52.5t-58 147.5q0 30 3 46h91
q-5 -28 -5 -47q0 -118 134 -118q32 0 61.5 9t55 38t25.5 74q0 41 -30.5 70t-74 47.5t-87.5 40t-74.5 60t-30.5 94.5q0 94 56 145t157 51zM472 883l1 -3l-108 -129h-69l86 132h90z" />
    <glyph glyph-name="sacute" unicode="&#x15b;" horiz-adv-x="410" 
d="M232 538q75 0 112.5 -47.5t37.5 -117.5h-85q0 50 -21 71.5t-53 21.5q-25 0 -46.5 -17.5t-21.5 -46.5q0 -33 20.5 -55.5t50 -37.5t59 -32t50 -49.5t20.5 -79.5q0 -75 -45.5 -117.5t-123.5 -42.5q-70 0 -117.5 44.5t-47.5 117.5q0 21 2 32h85q-3 -16 -3 -32q0 -44 25 -67
t64 -23q34 0 55 21.5t21 53.5t-20.5 56t-50 40.5l-59 34.5t-50 49.5t-20.5 74.5q0 65 42.5 106.5t119.5 41.5zM373 723l1 -3l-108 -129h-69l86 132h90z" />
    <glyph glyph-name="Scircumflex" unicode="&#x15c;" horiz-adv-x="547" 
d="M314 698q212 0 212 -213h-91q0 132 -126 132q-17 0 -33.5 -3.5t-37.5 -13t-33.5 -32.5t-12.5 -56q0 -29 16.5 -51t42.5 -36t58 -27t64 -29t58 -36t42.5 -53.5t16.5 -76.5q0 -38 -11 -73t-36.5 -68.5t-75 -53.5t-118.5 -20q-100 0 -158 52.5t-58 147.5q0 30 3 46h91
q-5 -28 -5 -47q0 -118 134 -118q32 0 61.5 9t55 38t25.5 74q0 41 -30.5 70t-74 47.5t-87.5 40t-74.5 60t-30.5 94.5q0 94 56 145t157 51zM403 883l66 -135h-77l-33 79l-56 -79h-83l105 135h78z" />
    <glyph glyph-name="scircumflex" unicode="&#x15d;" horiz-adv-x="410" 
d="M232 538q75 0 112.5 -47.5t37.5 -117.5h-85q0 50 -21 71.5t-53 21.5q-25 0 -46.5 -17.5t-21.5 -46.5q0 -33 20.5 -55.5t50 -37.5t59 -32t50 -49.5t20.5 -79.5q0 -75 -45.5 -117.5t-123.5 -42.5q-70 0 -117.5 44.5t-47.5 117.5q0 21 2 32h85q-3 -16 -3 -32q0 -44 25 -67
t64 -23q34 0 55 21.5t21 53.5t-20.5 56t-50 40.5l-59 34.5t-50 49.5t-20.5 74.5q0 65 42.5 106.5t119.5 41.5zM304 723l66 -135h-78l-32 79l-56 -79h-83l105 135h78z" />
    <glyph glyph-name="Scedilla" unicode="&#x15e;" horiz-adv-x="547" 
d="M526 485h-91q0 132 -126 132q-17 0 -33.5 -3.5t-37.5 -13t-33.5 -32.5t-12.5 -56q0 -29 16.5 -51t42.5 -36t58 -27t64 -29t58 -36t42.5 -53.5t16.5 -76.5q0 -37 -10.5 -70.5t-34 -66.5t-69.5 -54t-109 -24l-7 -24q73 -6 73 -54q0 -35 -21.5 -57.5t-45.5 -28.5t-49 -6
q-46 0 -83 8l7 49h76q40 0 40 30q0 18 -31 18h-33l19 67q-83 9 -131 60.5t-48 137.5q0 30 3 46h91q-5 -28 -5 -47q0 -118 134 -118q32 0 61.5 9t55 38t25.5 74q0 41 -30.5 70t-74 47.5t-87.5 40t-74.5 60t-30.5 94.5q0 94 56 145t157 51q212 0 212 -213z" />
    <glyph glyph-name="scedilla" unicode="&#x15f;" horiz-adv-x="410" 
d="M382 373h-85q0 50 -21 71.5t-53 21.5q-25 0 -46.5 -17.5t-21.5 -46.5q0 -33 20.5 -55.5t50 -37.5t59 -32t50 -49.5t20.5 -79.5q0 -74 -44 -116t-120 -44l-7 -24q73 -6 73 -54q0 -35 -21.5 -57.5t-45.5 -28.5t-49 -6q-46 0 -83 8l6 49h77q40 0 40 30q0 18 -31 18h-33
l21 71q-52 14 -84.5 55.5t-32.5 100.5q0 21 2 32h85q-3 -16 -3 -32q0 -44 25 -67t64 -23q34 0 55 21.5t21 53.5t-20.5 56t-50 40.5l-59 34.5t-50 49.5t-20.5 74.5q0 65 42.5 106.5t119.5 41.5q75 0 112.5 -47.5t37.5 -117.5z" />
    <glyph glyph-name="Scaron" unicode="&#x160;" horiz-adv-x="547" 
d="M314 698q212 0 212 -213h-91q0 132 -126 132q-17 0 -33.5 -3.5t-37.5 -13t-33.5 -32.5t-12.5 -56q0 -29 16.5 -51t42.5 -36t58 -27t64 -29t58 -36t42.5 -53.5t16.5 -76.5q0 -38 -11 -73t-36.5 -68.5t-75 -53.5t-118.5 -20q-100 0 -158 52.5t-58 147.5q0 30 3 46h91
q-5 -28 -5 -47q0 -118 134 -118q32 0 61.5 9t55 38t25.5 74q0 41 -30.5 70t-74 47.5t-87.5 40t-74.5 60t-30.5 94.5q0 94 56 145t157 51zM490 883l-105 -135h-78l-66 135h80l33 -79l53 79h83z" />
    <glyph glyph-name="scaron" unicode="&#x161;" horiz-adv-x="410" 
d="M232 538q75 0 112.5 -47.5t37.5 -117.5h-85q0 50 -21 71.5t-53 21.5q-25 0 -46.5 -17.5t-21.5 -46.5q0 -33 20.5 -55.5t50 -37.5t59 -32t50 -49.5t20.5 -79.5q0 -75 -45.5 -117.5t-123.5 -42.5q-70 0 -117.5 44.5t-47.5 117.5q0 21 2 32h85q-3 -16 -3 -32q0 -44 25 -67
t64 -23q34 0 55 21.5t21 53.5t-20.5 56t-50 40.5l-59 34.5t-50 49.5t-20.5 74.5q0 65 42.5 106.5t119.5 41.5zM391 723l-105 -135h-78l-66 135h80l33 -79l53 79h83z" />
    <glyph glyph-name="Tcommaaccent" unicode="&#x162;" horiz-adv-x="501" 
d="M246 -60l-13 -84l-35 -76h-48l32 69h-35l14 91h85zM64 606l12 80h462l-12 -80h-187l-85 -606h-88l85 606h-187z" />
    <glyph glyph-name="tcommaaccent" unicode="&#x163;" horiz-adv-x="228" 
d="M203 672l-25 -146h71l-10 -73h-71q-50 -343 -50 -355q0 -37 37 -37h29l-8 -57q-28 -14 -61 -14q-81 0 -81 85q0 12 13 106.5l26 182.5l13 89h-45l10 73h45l21 146h86zM144 -60l-13 -84l-35 -76h-48l32 69h-35l14 91h85z" />
    <glyph glyph-name="Tcaron" unicode="&#x164;" horiz-adv-x="501" 
d="M458 883l-105 -135h-78l-66 135h80l33 -79l53 79h83zM64 606l12 80h462l-12 -80h-187l-85 -606h-88l85 606h-187z" />
    <glyph glyph-name="tcaron" unicode="&#x165;" horiz-adv-x="290" 
d="M203 672l-25 -146h71l-10 -73h-71q-50 -343 -50 -355q0 -37 37 -37h29l-8 -57q-28 -14 -61 -14q-81 0 -81 85q0 12 13 106.5l26 182.5l13 89h-45l10 73h45l21 146h86zM408 686l-13 -99l-64 -133h-56l52 124h-34l16 108h99z" />
    <glyph glyph-name="Tbar" unicode="&#x166;" horiz-adv-x="501" 
d="M339 606l-30 -213h130l-10 -72h-130l-45 -321h-88l45 321h-119l11 72h118l30 213h-187l12 80h462l-12 -80h-187z" />
    <glyph glyph-name="tbar" unicode="&#x167;" horiz-adv-x="228" 
d="M239 453h-71q-6 -43 -15 -100h67l-11 -72h-66q-4 -33 -11 -82l-10.5 -73.5t-3.5 -27.5q0 -37 37 -37h29l-8 -57q-28 -14 -61 -14q-81 0 -81 85q0 13 27 206h-42l10 72h42l15 100h-45l10 73h45l21 146h86l-25 -146h71z" />
    <glyph glyph-name="Utilde" unicode="&#x168;" horiz-adv-x="592" 
d="M579 686l-66 -463q-16 -115 -80.5 -175t-168.5 -60q-99 0 -153 47.5t-54 137.5q0 20 17.5 148.5t35.5 246.5l17 118h88q-69 -479 -69 -501q0 -57 31.5 -86.5t88.5 -29.5q65 0 107 38.5t52 110.5l66 468h88zM466 883h58q-6 -40 -31 -72t-65 -32q-23 0 -59 15.5t-55 15.5
q-31 0 -39 -31h-57q6 40 30.5 72t64.5 32q23 0 59 -15.5t55 -15.5q31 0 39 31z" />
    <glyph glyph-name="utilde" unicode="&#x169;" 
d="M434 526l-74 -526h-64v77q-7 -14 -17 -27t-26.5 -28.5t-41.5 -24.5t-55 -9q-60 0 -87 33.5t-27 84.5q0 14 14 119l28 203l14 98h82q-54 -369 -54 -401q0 -64 60 -64q49 0 81.5 46.5t43.5 124.5l41 294h82zM377 723h59q-6 -40 -31.5 -72t-64.5 -32q-24 0 -59.5 15.5
t-54.5 15.5q-31 0 -39 -31h-58q7 39 29 69q27 35 67 35q20 0 59 -15q36 -16 55 -16q31 0 38 31z" />
    <glyph glyph-name="Umacron" unicode="&#x16a;" horiz-adv-x="592" 
d="M579 686l-66 -463q-16 -115 -80.5 -175t-168.5 -60q-99 0 -153 47.5t-54 137.5q0 20 17.5 148.5t35.5 246.5l17 118h88q-69 -479 -69 -501q0 -57 31.5 -86.5t88.5 -29.5q65 0 107 38.5t52 110.5l66 468h88zM495 831l-11 -72h-250l11 72h250z" />
    <glyph glyph-name="umacron" unicode="&#x16b;" 
d="M434 526l-74 -526h-64v77q-7 -14 -17 -27t-26.5 -28.5t-41.5 -24.5t-55 -9q-60 0 -87 33.5t-27 84.5q0 14 14 119l28 203l14 98h82q-54 -369 -54 -401q0 -64 60 -64q49 0 81.5 46.5t43.5 124.5l41 294h82zM407 671l-11 -72h-250l11 72h250z" />
    <glyph glyph-name="Ubreve" unicode="&#x16c;" horiz-adv-x="592" 
d="M579 686l-66 -463q-16 -115 -80.5 -175t-168.5 -60q-99 0 -153 47.5t-54 137.5q0 20 17.5 148.5t35.5 246.5l17 118h88q-69 -479 -69 -501q0 -57 31.5 -86.5t88.5 -29.5q65 0 107 38.5t52 110.5l66 468h88zM440 883h64q-5 -37 -42.5 -67t-89.5 -30q-53 0 -84.5 26.5
t-31.5 61.5q0 6 1 9h64q1 -12 16.5 -22.5t38.5 -10.5q24 0 42.5 10.5t21.5 22.5z" />
    <glyph glyph-name="ubreve" unicode="&#x16d;" 
d="M434 526l-74 -526h-64v77q-7 -14 -17 -27t-26.5 -28.5t-41.5 -24.5t-55 -9q-60 0 -87 33.5t-27 84.5q0 14 14 119l28 203l14 98h82q-54 -369 -54 -401q0 -64 60 -64q49 0 81.5 46.5t43.5 124.5l41 294h82zM352 723h64q-5 -38 -40 -65q-39 -32 -92 -32t-84.5 26.5
t-31.5 61.5q0 6 1 9h64q2 -12 16 -22q17 -11 39 -11q24 0 42.5 10.5t21.5 22.5z" />
    <glyph glyph-name="Uring" unicode="&#x16e;" horiz-adv-x="592" 
d="M579 686l-66 -463q-16 -115 -80.5 -175t-168.5 -60q-99 0 -153 47.5t-54 137.5q0 20 17.5 148.5t35.5 246.5l17 118h88q-69 -479 -69 -501q0 -57 31.5 -86.5t88.5 -29.5q65 0 107 38.5t52 110.5l66 468h88zM375 897q37 0 61.5 -24t24.5 -60q0 -41 -29 -69.5t-69 -28.5
q-38 0 -62.5 23.5t-24.5 60.5q0 42 30 70t69 28zM373 857q-22 0 -37 -15.5t-15 -39.5q0 -19 12.5 -33t32.5 -14q21 0 36 15.5t15 39.5q0 19 -13 33t-31 14z" />
    <glyph glyph-name="uring" unicode="&#x16f;" 
d="M434 526l-74 -526h-64v77q-7 -14 -17 -27t-26.5 -28.5t-41.5 -24.5t-55 -9q-60 0 -87 33.5t-27 84.5q0 14 14 119l28 203l14 98h82q-54 -369 -54 -401q0 -64 60 -64q49 0 81.5 46.5t43.5 124.5l41 294h82zM287 737q37 0 61.5 -24t24.5 -60q0 -41 -29.5 -69.5t-69.5 -28.5
q-37 0 -61.5 23.5t-24.5 60.5q0 42 29.5 70t69.5 28zM284 697q-22 0 -37 -15.5t-15 -39.5q0 -19 13 -33t32 -14q21 0 36.5 15.5t15.5 39.5q0 19 -13 33t-32 14z" />
    <glyph glyph-name="Uhungarumlaut" unicode="&#x170;" horiz-adv-x="592" 
d="M579 686l-66 -463q-16 -115 -80.5 -175t-168.5 -60q-99 0 -153 47.5t-54 137.5q0 20 17.5 148.5t35.5 246.5l17 118h88q-69 -479 -69 -501q0 -57 31.5 -86.5t88.5 -29.5q65 0 107 38.5t52 110.5l66 468h88zM514 883l1 -3l-84 -129h-70l62 132h91zM383 883l2 -3l-84 -129
h-70l62 132h90z" />
    <glyph glyph-name="uhungarumlaut" unicode="&#x171;" 
d="M434 526l-74 -526h-64v77q-7 -14 -17 -27t-26.5 -28.5t-41.5 -24.5t-55 -9q-60 0 -87 33.5t-27 84.5q0 14 14 119l28 203l14 98h82q-54 -369 -54 -401q0 -64 60 -64q49 0 81.5 46.5t43.5 124.5l41 294h82zM425 723l1 -3l-84 -129h-69l62 132h90zM295 723l1 -3l-84 -129
h-69l62 132h90z" />
    <glyph glyph-name="Uogonek" unicode="&#x172;" horiz-adv-x="592" 
d="M579 686l-66 -463q-24 -170 -150 -218q-41 -41 -41 -83t38 -42h32l-7 -51q-34 -14 -63 -14q-35 0 -58.5 18.5t-23.5 60.5q0 53 41 94h-17q-99 0 -153 47.5t-54 137.5q0 20 17.5 148.5t35.5 246.5l17 118h88q-69 -479 -69 -501q0 -57 31.5 -86.5t88.5 -29.5q65 0 107 38.5
t52 110.5l66 468h88z" />
    <glyph glyph-name="uogonek" unicode="&#x173;" 
d="M434 526l-74 -526q-41 -41 -41 -83t38 -42h32l-7 -51q-34 -14 -63 -14q-35 0 -58.5 18.5t-23.5 60.5q0 57 59 112v76q-7 -14 -17 -27t-26.5 -28.5t-41.5 -24.5t-55 -9q-60 0 -87 33.5t-27 84.5q0 14 14 119l28 203l14 98h82q-54 -369 -54 -401q0 -64 60 -64
q49 0 81.5 46.5t43.5 124.5l41 294h82z" />
    <glyph glyph-name="Wcircumflex" unicode="&#x174;" horiz-adv-x="774" 
d="M831 686l-256 -686h-114l-20 603h-5q-21 -92 -35 -138l-148 -465h-114l-62 686h89l39 -474l4 -122h4q16 62 34 122l144 474h127l17 -474l1 -122h4q22 77 38 122l171 474h82zM515 883l66 -135h-78l-32 79l-56 -79h-83l105 135h78z" />
    <glyph glyph-name="wcircumflex" unicode="&#x175;" horiz-adv-x="592" 
d="M632 526l-204 -526h-91q-14 313 -14 342l4 96h-4q-15 -83 -33 -138l-97 -300h-92l-58 526h79l30 -296q8 -75 9 -137h4q14 83 31 137l94 296h98l14 -296q1 -12 1 -137h4q15 77 37 137l111 296h77zM402 723l66 -135h-77l-33 79l-56 -79h-83l105 135h78z" />
    <glyph glyph-name="Ycircumflex" unicode="&#x176;" horiz-adv-x="547" 
d="M601 686l-278 -402l-40 -284h-88l40 284l-165 402h96l125 -318h4l214 318h92zM402 883l66 -135h-77l-33 79l-56 -79h-83l105 135h78z" />
    <glyph glyph-name="ycircumflex" unicode="&#x177;" horiz-adv-x="410" 
d="M448 526l-214 -499q-43 -99 -89.5 -154t-109.5 -55q-37 0 -57 8l8 57h28q80 0 120 117l-87 526h87l60 -420h4l162 420h88zM318 723l66 -135h-77l-33 79l-56 -79h-83l105 135h78z" />
    <glyph glyph-name="Ydieresis" unicode="&#x178;" horiz-adv-x="547" 
d="M601 686l-278 -402l-40 -284h-88l40 284l-165 402h96l125 -318h4l214 318h92zM486 883l-13 -95h-87l13 95h87zM336 883l-13 -95h-87l14 95h86z" />
    <glyph glyph-name="Zacute" unicode="&#x179;" horiz-adv-x="501" 
d="M445 883l1 -3l-108 -129h-69l85 132h91zM439 0h-455l3 38l401 568h-302l12 80h428l-3 -38l-402 -568h330z" />
    <glyph glyph-name="zacute" unicode="&#x17a;" horiz-adv-x="410" 
d="M414 526l-3 -38l-285 -415h240l-10 -73h-354l3 39l284 414h-211l10 73h326zM383 723l1 -3l-108 -129h-69l85 132h91z" />
    <glyph glyph-name="Zdotaccent" unicode="&#x17b;" horiz-adv-x="501" 
d="M383 883l-13 -95h-87l13 95h87zM439 0h-455l3 38l401 568h-302l12 80h428l-3 -38l-402 -568h330z" />
    <glyph glyph-name="zdotaccent" unicode="&#x17c;" horiz-adv-x="410" 
d="M414 526l-3 -38l-285 -415h240l-10 -73h-354l3 39l284 414h-211l10 73h326zM321 723l-13 -95h-87l13 95h87z" />
    <glyph glyph-name="Zcaron" unicode="&#x17d;" horiz-adv-x="501" 
d="M462 883l-105 -135h-77l-66 135h79l34 -79l52 79h83zM439 0h-455l3 38l401 568h-302l12 80h428l-3 -38l-402 -568h330z" />
    <glyph glyph-name="zcaron" unicode="&#x17e;" horiz-adv-x="410" 
d="M414 526l-3 -38l-285 -415h240l-10 -73h-354l3 39l284 414h-211l10 73h326zM400 723l-105 -135h-77l-66 135h79l34 -79l52 79h83z" />
    <glyph glyph-name="longs" unicode="&#x17f;" horiz-adv-x="182" 
d="M227 731q35 0 67 -12l-8 -57h-44q-48 0 -54 -48l-90 -675q-7 -51 -36 -86t-84 -35q-35 0 -67 12l8 57h44q47 0 53 48l68 518h-46l10 73h46l12 84q7 52 36.5 86.5t84.5 34.5z" />
    <glyph glyph-name="florin" unicode="&#x192;" 
d="M384 731q34 0 66 -12l-12 -57h-44q-51 0 -57 -48l-31 -139h91l-17 -73h-91l-99 -463q-26 -121 -130 -121q-36 0 -64 12l10 57h44q51 0 57 48l100 467h-71l17 73h71l30 135q27 121 130 121z" />
    <glyph glyph-name="Aringacute" unicode="&#x1fa;" horiz-adv-x="547" 
d="M512 0h-91l-26 153h-275l-69 -153h-87l304 663q-25 23 -25 60q0 42 30 70t69 28q37 0 61.5 -24t24.5 -60q0 -44 -33 -72zM339 781q-21 0 -36 -15.5t-15 -39.5q0 -19 12.5 -33t32.5 -14q21 0 36 15.5t15 39.5q0 19 -13 33t-32 14zM382 233l-51 305l-5 76h-4
q-18 -54 -28 -76l-138 -305h226zM408 848h-70l71 109h90l1 -3z" />
    <glyph glyph-name="aringacute" unicode="&#x1fb;" 
d="M287 737q37 0 61.5 -24t24.5 -60q0 -41 -29.5 -69.5t-69.5 -28.5q-37 0 -61.5 23.5t-24.5 60.5q0 42 29.5 70t69.5 28zM284 697q-22 0 -37 -15.5t-15 -39.5q0 -19 13 -33t32 -14q21 0 36.5 15.5t15.5 39.5q0 19 -13 33t-32 14zM236 538q83 0 109 -85l18 73h65
q-61 -425 -61 -437q0 -28 24 -28h32l-8 -57q-23 -16 -56 -16q-71 0 -72 83q-55 -83 -121 -83q-61 0 -97 49t-36 146q0 169 61 262t142 93zM248 465q-38 0 -65.5 -32t-40.5 -81.5t-19 -94t-6 -82.5q0 -114 74 -114q33 0 59 33.5t40 83t20.5 95t6.5 79.5q0 113 -69 113z
M446 883l1 -3l-98 -113h-69l75 116h91z" />
    <glyph glyph-name="AEacute" unicode="&#x1fc;" horiz-adv-x="820" 
d="M533 883l1 -3l-108 -129h-70l86 132h91zM495 80h256l-12 -80h-329l-13 153h-269l-79 -153h-92l374 686h499l-12 -80h-367l18 -215h275l-11 -80h-258zM323 526l-153 -293h221l-24 293l-4 76h-4q-24 -53 -36 -76z" />
    <glyph glyph-name="aeacute" unicode="&#x1fd;" horiz-adv-x="729" 
d="M531 538q162 0 162 -189q0 -59 -8 -110h-289q-3 -32 -3 -53q0 -125 85 -125q43 0 73.5 34t37.5 83h83q-13 -82 -63.5 -136t-130.5 -54q-110 0 -150 82q-29 -38 -73 -60t-89 -22q-140 0 -140 125q0 60 22.5 100.5t65.5 61t91.5 29t113.5 8.5l10 68q2 16 2 23q0 62 -73 62
q-44 0 -67 -26.5t-27 -68.5h-81q0 77 52.5 122.5t133.5 45.5q93 0 127 -56q54 56 135 56zM301 183l8 56q-97 0 -146.5 -22.5t-49.5 -87.5q0 -68 62 -68q43 0 80.5 32t45.5 90zM531 465q-93 0 -125 -153h201q1 13 1 36q0 117 -77 117zM536 723l1 -3l-108 -129h-70l86 132h91z
" />
    <glyph glyph-name="Oslashacute" unicode="&#x1fe;" horiz-adv-x="638" 
d="M605 723l-60 -93q60 -68 60 -193q0 -77 -16.5 -151.5t-51 -143.5t-99 -111.5t-150.5 -42.5q-82 0 -137 33l-37 -58h-64l60 93q-59 65 -59 191q0 61 9.5 120.5t32.5 120.5t58 106.5t91 74.5t125 29q83 0 136 -34l38 59h64zM491 547l-292 -452q35 -26 90 -26
q52 0 92.5 24.5t65 62.5t40 88.5t21.5 97.5t6 95q0 67 -23 110zM366 617q-64 0 -110.5 -35.5t-70 -93.5t-34 -117.5t-10.5 -121.5q0 -67 22 -111l292 452q-35 27 -89 27zM512 883l1 -3l-108 -129h-69l86 132h90z" />
    <glyph glyph-name="oslashacute" unicode="&#x1ff;" horiz-adv-x="501" 
d="M445 558l-40 -70q40 -48 40 -139q0 -61 -10 -118.5t-33 -115t-69 -92.5t-111 -35q-54 0 -89 19l-22 -39h-55l39 69q-39 45 -39 138q0 61 10 118.5t33 115.5t69 93.5t111 35.5q51 0 88 -20l23 40h55zM355 399l-182 -322q17 -16 49 -16q43 0 72.5 33.5t42.5 85t18 92
t5 76.5q0 26 -5 51zM279 465q-42 0 -72 -32.5t-43 -82.5t-18 -90t-5 -74q0 -31 5 -59l182 321q-20 17 -49 17zM397 723l1 -3l-107 -129h-70l86 132h90z" />
    <glyph glyph-name="circumflex" unicode="&#x2c6;" horiz-adv-x="273" 
d="M201 723l66 -135h-77l-33 79l-56 -79h-83l105 135h78z" />
    <glyph glyph-name="caron" unicode="&#x2c7;" horiz-adv-x="273" 
d="M343 723l-105 -135h-78l-66 135h80l33 -79l53 79h83z" />
    <glyph glyph-name="uni02C9" unicode="&#x2c9;" horiz-adv-x="500" 
d="M575 844l-7 -53h-500l6 53h501z" />
    <glyph glyph-name="breve" unicode="&#x2d8;" horiz-adv-x="273" 
d="M200 723h64q-5 -38 -40 -65q-39 -32 -92 -32t-84.5 26.5t-31.5 61.5q0 6 1 9h64q2 -12 16 -22q17 -11 39 -11q24 0 42.5 10.5t21.5 22.5z" />
    <glyph glyph-name="dotaccent" unicode="&#x2d9;" horiz-adv-x="273" 
d="M186 723l-13 -95h-87l13 95h87z" />
    <glyph glyph-name="ring" unicode="&#x2da;" horiz-adv-x="273" 
d="M149 737q37 0 61.5 -24t24.5 -60q0 -41 -29.5 -69.5t-69.5 -28.5q-37 0 -61.5 23.5t-24.5 60.5q0 42 29.5 70t69.5 28zM146 697q-22 0 -37 -15.5t-15 -39.5q0 -19 13 -33t32 -14q21 0 36.5 15.5t15.5 39.5q0 19 -13 33t-32 14z" />
    <glyph glyph-name="ogonek" unicode="&#x2db;" horiz-adv-x="273" 
d="M188 12l5 -4q-41 -41 -41 -83t38 -42h32l-7 -51q-34 -14 -63 -14q-35 0 -58.5 18.5t-23.5 60.5q0 60 63 115h55z" />
    <glyph glyph-name="tilde" unicode="&#x2dc;" horiz-adv-x="273" 
d="M279 723h58q-6 -40 -31 -72t-65 -32q-23 0 -59 15.5t-55 15.5q-31 0 -39 -31h-57q7 41 28 69q27 35 67 35q20 0 59 -15q36 -16 55 -16q31 0 39 31z" />
    <glyph glyph-name="hungarumlaut" unicode="&#x2dd;" horiz-adv-x="273" 
d="M286 723l1 -3l-84 -129h-69l62 132h90zM156 723l1 -3l-84 -129h-69l62 132h90z" />
    <glyph glyph-name="pi" unicode="&#x3c0;" horiz-adv-x="549" 
d="M581 526l-18 -73h-78l-42 -297q-10 -67 -10 -120q0 -16 2 -36h-80q-5 12 -5 38q0 42 10 109l43 306h-157q-20 -109 -58.5 -250t-69.5 -203h-81q34 77 72.5 215t54.5 238q-76 0 -109 -13l-4 56q41 30 149 30h381z" />
    <glyph glyph-name="Wgrave" unicode="&#x1e80;" horiz-adv-x="774" 
d="M831 686l-256 -686h-114l-20 603h-5q-21 -92 -35 -138l-148 -465h-114l-62 686h89l39 -474l4 -122h4q16 62 34 122l144 474h127l17 -474l1 -122h4q22 77 38 122l171 474h82zM453 883l67 -132h-69l-90 129l2 3h90z" />
    <glyph glyph-name="wgrave" unicode="&#x1e81;" horiz-adv-x="592" 
d="M632 526l-204 -526h-91q-14 313 -14 342l4 96h-4q-15 -83 -33 -138l-97 -300h-92l-58 526h79l30 -296q8 -75 9 -137h4q14 83 31 137l94 296h98l14 -296q1 -12 1 -137h4q15 77 37 137l111 296h77zM340 723l67 -132h-69l-90 129l2 3h90z" />
    <glyph glyph-name="Wacute" unicode="&#x1e82;" horiz-adv-x="774" 
d="M831 686l-256 -686h-114l-20 603h-5q-21 -92 -35 -138l-148 -465h-114l-62 686h89l39 -474l4 -122h4q16 62 34 122l144 474h127l17 -474l1 -122h4q22 77 38 122l171 474h82zM584 883l1 -3l-108 -129h-69l86 132h90z" />
    <glyph glyph-name="wacute" unicode="&#x1e83;" horiz-adv-x="592" 
d="M632 526l-204 -526h-91q-14 313 -14 342l4 96h-4q-15 -83 -33 -138l-97 -300h-92l-58 526h79l30 -296q8 -75 9 -137h4q14 83 31 137l94 296h98l14 -296q1 -12 1 -137h4q15 77 37 137l111 296h77zM471 723l1 -3l-108 -129h-69l86 132h90z" />
    <glyph glyph-name="Wdieresis" unicode="&#x1e84;" horiz-adv-x="774" 
d="M831 686l-256 -686h-114l-20 603h-5q-21 -92 -35 -138l-148 -465h-114l-62 686h89l39 -474l4 -122h4q16 62 34 122l144 474h127l17 -474l1 -122h4q22 77 38 122l171 474h82zM599 883l-14 -95h-86l13 95h87zM449 883l-13 -95h-87l13 95h87z" />
    <glyph glyph-name="wdieresis" unicode="&#x1e85;" horiz-adv-x="592" 
d="M632 526l-204 -526h-91q-14 313 -14 342l4 96h-4q-15 -83 -33 -138l-97 -300h-92l-58 526h79l30 -296q8 -75 9 -137h4q14 83 31 137l94 296h98l14 -296q1 -12 1 -137h4q15 77 37 137l111 296h77zM486 723l-13 -95h-87l13 95h87zM336 723l-13 -95h-87l13 95h87z" />
    <glyph glyph-name="Ygrave" unicode="&#x1ef2;" horiz-adv-x="547" 
d="M601 686l-278 -402l-40 -284h-88l40 284l-165 402h96l125 -318h4l214 318h92zM340 883l68 -132h-70l-89 129l1 3h90z" />
    <glyph glyph-name="ygrave" unicode="&#x1ef3;" horiz-adv-x="410" 
d="M448 526l-214 -499q-43 -99 -89.5 -154t-109.5 -55q-37 0 -57 8l8 57h28q80 0 120 117l-87 526h87l60 -420h4l162 420h88zM256 723l68 -132h-70l-89 129l2 3h89z" />
    <glyph glyph-name="endash" unicode="&#x2013;" 
d="M460 308l-11 -75h-454l10 75h455z" />
    <glyph glyph-name="emdash" unicode="&#x2014;" horiz-adv-x="820" 
d="M825 308l-11 -75h-819l10 75h820z" />
    <glyph glyph-name="afii00208" unicode="&#x2015;" horiz-adv-x="820" 
d="M720 308l-11 -75h-613l11 75h613z" />
    <glyph glyph-name="underscoredbl" unicode="&#x2017;" horiz-adv-x="500" 
d="M456 -71l-8 -53h-455l8 53h455zM443 -164l-8 -53h-455l8 53h455z" />
    <glyph glyph-name="quoteleft" unicode="&#x2018;" horiz-adv-x="182" 
d="M218 686l-51 -124h33l-15 -108h-100l14 99l64 133h55z" />
    <glyph glyph-name="quoteright" unicode="&#x2019;" horiz-adv-x="182" 
d="M177 686l-14 -99l-64 -133h-55l51 124h-33l15 108h100z" />
    <glyph glyph-name="quotesinglbase" unicode="&#x201a;" horiz-adv-x="182" 
d="M151 108l-14 -99l-64 -133h-55l51 124h-33l15 108h100z" />
    <glyph glyph-name="quotereversed" unicode="&#x201b;" horiz-adv-x="182" 
d="M212 686l-15 -108h-33l15 -124h-55l-26 133l14 99h100z" />
    <glyph glyph-name="quotedblleft" unicode="&#x201c;" horiz-adv-x="273" 
d="M322 686l-51 -124h33l-15 -108h-100l14 99l64 133h55zM187 686l-51 -124h33l-15 -108h-100l14 99l64 133h55z" />
    <glyph glyph-name="quotedblright" unicode="&#x201d;" horiz-adv-x="273" 
d="M312 686l-14 -99l-64 -133h-55l51 124h-33l15 108h100zM177 686l-14 -99l-64 -133h-55l51 124h-33l15 108h100z" />
    <glyph glyph-name="quotedblbase" unicode="&#x201e;" horiz-adv-x="273" 
d="M286 108l-14 -99l-64 -133h-55l51 124h-33l15 108h100zM151 108l-14 -99l-64 -133h-55l51 124h-33l15 108h100z" />
    <glyph glyph-name="dagger" unicode="&#x2020;" 
d="M331 686l-44 -193l168 17l-13 -93l-164 18l-65 -605h-94l105 605l-167 -18l13 93l163 -17l10 193h88z" />
    <glyph glyph-name="daggerdbl" unicode="&#x2021;" 
d="M331 686l-44 -193l168 17l-13 -93l-164 18l-4 -175l-45 -179l168 18l-13 -93l-164 17l-10 -193h-88l44 193l-166 -17l12 93l163 -18l5 179l44 175l-167 -18l13 93l163 -17l10 193h88z" />
    <glyph glyph-name="bullet" unicode="&#x2022;" horiz-adv-x="287" 
d="M143 455q46 0 78 -32.5t32 -78.5t-32 -79t-78 -33q-45 0 -77 33t-32 79t32 78.5t77 32.5z" />
    <glyph glyph-name="ellipsis" unicode="&#x2026;" horiz-adv-x="820" 
d="M725 108l-15 -108h-100l15 108h100zM180 108l-15 -108h-100l15 108h100zM453 108l-15 -108h-100l15 108h100z" />
    <glyph glyph-name="perthousand" unicode="&#x2030;" horiz-adv-x="820" 
d="M429 290q-22 0 -37.5 -21.5t-22 -54t-9.5 -59t-3 -48.5q0 -60 38 -60q50 0 65 114q6 42 6 69q0 60 -37 60zM432 349q103 0 103 -119q0 -39 -6 -77t-20.5 -77.5t-44.5 -63.5t-72 -24q-103 0 -103 118q0 128 40.5 185.5t102.5 57.5zM194 639q-22 0 -37.5 -21.5t-22 -54
t-9.5 -59t-3 -48.5q0 -60 38 -60q50 0 65 114q6 42 6 69q0 60 -37 60zM197 698q103 0 103 -119q0 -39 -6 -77t-20.5 -77.5t-44.5 -63.5t-72 -24q-103 0 -103 118q0 128 40.5 185.5t102.5 57.5zM694 290q-22 0 -37.5 -21.5t-22 -54t-9.5 -59t-3 -48.5q0 -60 38 -60
q50 0 65 114q6 42 6 69q0 60 -37 60zM697 349q103 0 103 -119q0 -39 -6 -77t-20.5 -77.5t-44.5 -63.5t-72 -24q-103 0 -103 118q0 128 40.5 185.5t102.5 57.5zM563 686l-476 -686h-62l475 686h63z" />
    <glyph glyph-name="minute" unicode="&#x2032;" horiz-adv-x="157" 
d="M169 686l1 -3l-47 -157h-69l25 160h90z" />
    <glyph glyph-name="second" unicode="&#x2033;" horiz-adv-x="291" 
d="M296 686l1 -3l-47 -157h-69l25 160h90zM169 686l1 -3l-47 -157h-69l25 160h90z" />
    <glyph glyph-name="guilsinglleft" unicode="&#x2039;" horiz-adv-x="273" 
d="M269 526l-141 -200l84 -200h-71l-112 200l167 200h73z" />
    <glyph glyph-name="guilsinglright" unicode="&#x203a;" horiz-adv-x="273" 
d="M149 526l113 -200l-168 -200h-73l142 200l-85 200h71z" />
    <glyph glyph-name="exclamdbl" unicode="&#x203c;" 
d="M343 686h113q-6 -25 -22 -110l-40 -212l-37 -193h-62q47 499 48 515zM153 108l-15 -108h-100l15 108h100zM368 108l-15 -108h-100l15 108h100zM128 686h113q-6 -25 -22 -110l-40 -212l-37 -193h-62q47 499 48 515z" />
    <glyph glyph-name="uni203E" unicode="&#x203e;" horiz-adv-x="500" 
d="M575 844l-7 -53h-500l6 53h501z" />
    <glyph glyph-name="fraction" unicode="&#x2044;" horiz-adv-x="137" 
d="M365 698l-513 -710h-63l514 710h62z" />
    <glyph glyph-name="uni207F" unicode="&#x207f;" horiz-adv-x="299" 
d="M246 735q41 0 59 -23t18 -57l-38 -286h-61q37 251 37 273q0 39 -36 39q-31 0 -52 -30.5t-28 -81.5l-28 -200h-60l50 358h49v-53q6 13 15 25t29.5 24t45.5 12z" />
    <glyph glyph-name="franc" unicode="&#x20a3;" horiz-adv-x="504" 
d="M385 452v-84q10 21 16.5 32.5t20 29t30.5 26t38 8.5q10 0 19.5 -2t14.5 -4l4 -2l-12 -85h-27q-41 0 -74.5 -37t-42.5 -104l-34 -230h-82l43 303h-134l-43 -303h-88l97 686h337l-12 -80h-249l-30 -222h134l10 68h64z" />
    <glyph glyph-name="lira" unicode="&#x20a4;" 
d="M309 698q147 0 147 -140q0 -27 -6 -67h-82q6 35 6 52q0 82 -66 82q-76 0 -93 -110l-15 -92h134l-10 -72h-135l-7 -50h135l-10 -71h-136l-27 -151h249l-12 -79h-382l12 79h60l21 151h-73l10 71h73l7 50h-73l10 72h73l11 76q29 199 179 199z" />
    <glyph glyph-name="peseta" unicode="&#x20a7;" horiz-adv-x="909" 
d="M910 373h-85q0 50 -21 71.5t-53 21.5q-25 0 -46.5 -17.5t-21.5 -46.5q0 -33 20.5 -55.5t50 -37.5t59 -32t50 -49.5t20.5 -79.5q0 -75 -45.5 -117.5t-123.5 -42.5q-76 0 -123 49l-4 -33q-37 -14 -76 -14q-96 0 -96 85q0 12 13 106.5l26 182.5l13 89h-28
q-18 -81 -79 -126.5t-150 -45.5h-72l-40 -281h-88l97 686h150q89 0 137 -43t52 -117h31l21 146h86l-25 -146h129q17 6 34 9q18 3 38 3q75 0 112.5 -47.5t37.5 -117.5zM499 98q0 -37 37 -37h37q-24 38 -24 89q0 21 2 32h85q-3 -16 -3 -32q0 -44 25 -67t64 -23q34 0 55 21.5
t21 53.5t-20.5 56t-50 40.5l-59 34.5t-50 49.5t-20.5 74.5q0 34 12 63h-61q-50 -343 -50 -355zM252 606h-69l-33 -245h69q58 0 96 38t38 100q0 50 -26 78.5t-75 28.5z" />
    <glyph glyph-name="Euro" unicode="&#x20ac;" 
d="M409 698q36 0 66 -10l-10 -71q-27 8 -54 8q-164 0 -230 -182h202l-10 -65h-211q-4 -25 -5 -35q-4 -24 -4 -35h211l-10 -65h-202q16 -182 180 -182q26 0 56 8l-10 -71q-38 -10 -68 -10q-113 0 -175.5 66t-67.5 189h-63l10 65h56q0 11 4 35q1 10 5 35h-56l10 65h63
q78 255 313 255z" />
    <glyph glyph-name="afii61248" unicode="&#x2105;" horiz-adv-x="771" 
d="M685 698l-513 -710h-63l514 710h62zM617 321q-28 0 -48 -22.5t-28.5 -57.5t-12 -62t-3.5 -51q0 -85 52 -85q29 0 49 23t28.5 59t11.5 64t3 53q0 79 -52 79zM216 698q106 0 106 -133v-13h-65v12q0 79 -41 79q-25 0 -43 -23.5t-25.5 -59.5t-10.5 -62.5t-3 -47.5
q0 -85 47 -85q26 0 44 25.5t23 63.5h63q-7 -61 -41 -102.5t-88 -41.5q-53 0 -83 33.5t-30 101.5q0 46 6.5 86.5t21.5 80t45.5 63t73.5 23.5zM617 376q117 0 117 -133q0 -43 -7 -83.5t-23 -81.5t-49 -65.5t-78 -24.5q-117 0 -117 132q0 43 7 84t23 81.5t49 65.5t78 25z" />
    <glyph glyph-name="afii61289" unicode="&#x2113;" horiz-adv-x="397" 
d="M293 735q42 0 63.5 -30t21.5 -81q0 -179 -219 -388l-5 -38q-4 -34 -4 -45q0 -49 19.5 -72.5t51.5 -23.5q36 0 73 30l-10 -73q-43 -26 -86 -26q-120 0 -120 138q0 20 3 42l2 14q-6 -6 -21 -18t-17 -14l10 70q36 33 38 35l35 253q17 119 63 173t102 54zM285 671
q-28 0 -52 -39t-36 -124l-27 -190q152 170 152 296q0 57 -37 57z" />
    <glyph glyph-name="afii61352" unicode="&#x2116;" horiz-adv-x="888" 
d="M758 636q-27 0 -46 -22t-27.5 -56t-11.5 -62t-3 -54q0 -76 50 -76q26 0 44.5 21.5t27 55t12 62.5t3.5 55q0 76 -49 76zM762 698q117 0 117 -135q0 -42 -7.5 -83.5t-24.5 -83t-51 -67t-80 -25.5q-117 0 -117 134q0 129 45.5 194.5t117.5 65.5zM574 686l-97 -686h-69
l-197 437l-33 92l-3 -1q-5 -63 -9 -91l-62 -437h-79l97 686h72l195 -431l32 -92l3 1q7 69 10 91l61 431h79zM830 264l-9 -62h-247l9 62h247z" />
    <glyph glyph-name="trademark" unicode="&#x2122;" horiz-adv-x="820" 
d="M768 686l-57 -404h-52l47 336h-4l-135 -336h-47l-40 336h-4l-47 -336h-47l57 404h79l38 -323h4l130 323h78zM396 686l-7 -49h-109l-50 -354h-52l50 354h-110l7 49h271z" />
    <glyph glyph-name="Omega" unicode="&#x2126;" horiz-adv-x="768" 
d="M436 698q114 0 175.5 -66t61.5 -195q0 -228 -137 -357q6 0 30 2t38 2h25l-12 -84h-238l9 61q50 0 89.5 42.5t61 105t32.5 123t11 106.5q0 89 -38.5 134t-109.5 45q-61 0 -107 -34t-71 -90.5t-37 -119.5t-12 -132q0 -153 116 -180l-9 -61h-237l12 84h25q8 0 30.5 -2
t36.5 -2q-61 70 -61 187q0 74 18.5 147t54.5 138t99 105.5t144 40.5z" />
    <glyph glyph-name="estimated" unicode="&#x212e;" horiz-adv-x="600" 
d="M302 538q117 0 187 -79.5t70 -205.5v-5h-406v-165q58 -53 149 -53q65 0 114.5 29t75.5 80l34 -21q-32 -61 -89.5 -95.5t-134.5 -34.5q-118 0 -187.5 77t-69.5 198t69.5 198t187.5 77zM302 496q-90 0 -149 -54v-152h298v151q-60 55 -149 55z" />
    <glyph glyph-name="oneeighth" unicode="&#x215b;" horiz-adv-x="684" 
d="M523 174q-28 0 -45 -23.5t-17 -55.5q0 -49 44 -49q28 0 44.5 21.5t16.5 58.5q0 48 -43 48zM551 408q47 0 72 -27t25 -69q0 -68 -55 -109q37 -24 37 -70q0 -60 -33.5 -102.5t-94.5 -42.5q-54 0 -79.5 26.5t-25.5 70.5q0 79 63 119q-28 26 -28 69q0 56 33 95.5t86 39.5z
M548 350q-25 0 -39.5 -22.5t-14.5 -52.5q0 -44 37 -44q22 0 38.5 20t16.5 53q0 22 -10.5 34t-27.5 12zM644 698l-513 -710h-63l514 710h62zM228 686l-49 -344h73l-8 -58h-214l8 58h79l37 258h-80l6 43q62 8 119 43h29z" />
    <glyph glyph-name="threeeighths" unicode="&#x215c;" horiz-adv-x="684" 
d="M520 174q-28 0 -45 -23.5t-17 -55.5q0 -49 44 -49q28 0 44.5 21.5t16.5 58.5q0 48 -43 48zM638 698l-513 -710h-63l514 710h62zM548 408q47 0 72 -27t25 -69q0 -68 -55 -109q37 -24 37 -70q0 -60 -33.5 -102.5t-94.5 -42.5q-54 0 -79.5 26.5t-25.5 70.5q0 79 63 119
q-28 26 -28 69q0 56 33 95.5t86 39.5zM545 350q-25 0 -39.5 -22.5t-14.5 -52.5q0 -44 37 -44q22 0 38.5 20t16.5 53q0 22 -10.5 34t-27.5 12zM189 698q47 0 73.5 -24t26.5 -69q0 -76 -62 -111q42 -24 42 -79q0 -61 -37.5 -98.5t-89.5 -37.5t-79.5 26t-27.5 72q0 21 3 38h64
q-3 -20 -3 -32q0 -47 42 -47q28 0 46.5 20.5t18.5 59.5q0 47 -48 47h-29l8 57h30q24 0 41 19.5t17 55.5q0 46 -38 46q-21 0 -36.5 -16t-19.5 -47l-2 -13h-63l3 18q8 52 40.5 83.5t79.5 31.5z" />
    <glyph glyph-name="fiveeighths" unicode="&#x215d;" horiz-adv-x="684" 
d="M521 174q-28 0 -45 -23.5t-17 -55.5q0 -49 44 -49q28 0 44.5 21.5t16.5 58.5q0 48 -43 48zM549 408q47 0 72 -27t25 -69q0 -68 -55 -109q37 -24 37 -70q0 -60 -33.5 -102.5t-94.5 -42.5q-54 0 -79.5 26.5t-25.5 70.5q0 79 63 119q-28 26 -28 69q0 56 33 95.5t86 39.5z
M546 350q-25 0 -39.5 -22.5t-14.5 -52.5q0 -44 37 -44q22 0 38.5 20t16.5 53q0 22 -10.5 34t-27.5 12zM638 698l-513 -710h-63l514 710h62zM297 686l-9 -64h-140l-20 -100q31 27 65 27q38 0 61 -26.5t23 -76.5q0 -80 -38.5 -127t-95.5 -47q-50 0 -78 27.5t-28 77.5q0 9 2 27
h64q-1 -6 -1 -17q0 -26 12.5 -41.5t32.5 -15.5q25 0 45 27.5t20 76.5q0 58 -39 58q-32 0 -60 -43l-55 10l46 227h193z" />
    <glyph glyph-name="seveneighths" unicode="&#x215e;" horiz-adv-x="684" 
d="M517 174q-28 0 -45 -23.5t-17 -55.5q0 -49 44 -49q28 0 44.5 21.5t16.5 58.5q0 48 -43 48zM545 408q47 0 72 -27t25 -69q0 -68 -55 -109q37 -24 37 -70q0 -60 -33.5 -102.5t-94.5 -42.5q-54 0 -79.5 26.5t-25.5 70.5q0 79 63 119q-28 26 -28 69q0 56 33 95.5t86 39.5z
M542 350q-25 0 -39.5 -22.5t-14.5 -52.5q0 -44 37 -44q22 0 38.5 20t16.5 53q0 22 -10.5 34t-27.5 12zM611 698l-513 -710h-63l514 710h62zM325 686l-7 -42q-155 -191 -168 -358h-70q24 163 157 337h-157l9 63h236z" />
    <glyph glyph-name="arrowleft" unicode="&#x2190;" horiz-adv-x="1000" 
d="M306 426l-78 -137h737l-10 -73h-738l40 -137h-43l-173 163l2 21l220 163h43z" />
    <glyph glyph-name="arrowup" unicode="&#x2191;" horiz-adv-x="500" 
d="M326 710l134 -197l-5 -42l-129 58l-103 -737h-74l104 737l-145 -58l6 42l190 197h22z" />
    <glyph glyph-name="arrowright" unicode="&#x2192;" horiz-adv-x="1000" 
d="M787 426l173 -163l-2 -21l-220 -163h-43l78 137h-737l10 73h738l-40 137h43z" />
    <glyph glyph-name="arrowdown" unicode="&#x2193;" horiz-adv-x="500" 
d="M352 710l-104 -737l145 58l-6 -42l-190 -197h-22l-134 197l5 42l129 -58l103 737h74z" />
    <glyph glyph-name="arrowboth" unicode="&#x2194;" horiz-adv-x="1000" 
d="M787 426l173 -163l-2 -21l-220 -163h-43l78 137h-551l35 -137h-43l-173 163l2 21l220 163h43l-73 -137h551l-40 137h43z" />
    <glyph glyph-name="arrowupdn" unicode="&#x2195;" horiz-adv-x="500" 
d="M325 711l134 -197l-5 -42l-129 53l-78 -550l145 58l-6 -42l-190 -197h-22l-134 197l5 42l129 -58l77 550l-144 -53l6 42l190 197h22z" />
    <glyph glyph-name="arrowupdnbse" unicode="&#x21a8;" horiz-adv-x="500" 
d="M332 711l134 -197l-6 -42l-129 53l-77 -550l145 58l-6 -42l-190 -197h-22l-135 197l6 42l129 -58l77 550l-144 -53l6 42l190 197h22zM360 -255l-6 -48h-350l7 48h349z" />
    <glyph glyph-name="partialdiff" unicode="&#x2202;" horiz-adv-x="494" 
d="M284 735q77 0 127 -62.5t50 -188.5q0 -49 -7 -101q-26 -186 -96.5 -290.5t-173.5 -104.5q-68 0 -103.5 47t-35.5 122q0 127 67 209.5t145 82.5q46 0 74.5 -22t37.5 -47h4q10 29 10 97q0 84 -31 136.5t-83 52.5q-55 0 -102 -34l10 74q51 29 107 29zM265 382
q-52 0 -93.5 -68.5t-41.5 -153.5q0 -46 17 -72.5t49 -26.5q51 0 94.5 70t64.5 168q-5 32 -29 57.5t-61 25.5z" />
    <glyph glyph-name="Delta" unicode="&#x2206;" horiz-adv-x="550" 
d="M422 686l119 -648l-5 -38h-531l4 38l300 648h113zM351 590h-4l-229 -506h322z" />
    <glyph glyph-name="product" unicode="&#x220f;" horiz-adv-x="823" 
d="M776 723l-11 -80h-83l-108 -771h-81l108 771h-284l-108 -771h-81l108 771h-82l11 80h611z" />
    <glyph glyph-name="summation" unicode="&#x2211;" horiz-adv-x="713" 
d="M704 723l-11 -78h-429v-4l216 -326l-332 -351l-1 -4h467l-12 -88h-575l9 63l341 364l-231 357l9 67h549z" />
    <glyph glyph-name="minus" unicode="&#x2212;" horiz-adv-x="479" 
d="M440 297l-11 -84h-392l11 84h392z" />
    <glyph glyph-name="uni2215" unicode="&#x2215;" horiz-adv-x="137" 
d="M365 698l-513 -710h-63l514 710h62z" />
    <glyph glyph-name="uni2219" unicode="&#x2219;" horiz-adv-x="273" 
d="M211 399l-15 -111h-101l15 111h101z" />
    <glyph glyph-name="radical" unicode="&#x221a;" horiz-adv-x="549" 
d="M618 857l-303 -1005h-90l-107 441l-81 -30l-12 60l172 68l78 -347q5 -17 10 -74l262 887h71z" />
    <glyph glyph-name="infinity" unicode="&#x221e;" horiz-adv-x="713" 
d="M538 453q60 0 94 -36t34 -92q0 -76 -45 -129.5t-115 -53.5q-89 0 -159 96q-94 -96 -175 -96q-61 0 -94.5 36t-33.5 93q0 74 46.5 128t115.5 54q86 0 158 -97q93 97 174 97zM206 377q-33 0 -60 -28.5t-27 -65.5q0 -29 18 -49t45 -20q31 0 60 21t66 62q-51 80 -102 80z
M528 377q-31 0 -59.5 -20t-67.5 -60q27 -41 50.5 -62t54.5 -21q33 0 59 27.5t26 65.5q0 29 -18 49.5t-45 20.5z" />
    <glyph glyph-name="orthogonal" unicode="&#x221f;" horiz-adv-x="979" 
d="M323 625l-76 -546h541l-11 -79h-625l87 625h84z" />
    <glyph glyph-name="intersection" unicode="&#x2229;" horiz-adv-x="722" 
d="M413 676q103 0 169.5 -64t66.5 -164q0 -25 -58 -448h-82q60 434 60 439q0 71 -45 115.5t-116 44.5q-79 0 -139 -53t-72 -136l-58 -410h-82l58 410q16 114 102 190t196 76z" />
    <glyph glyph-name="integral" unicode="&#x222b;" horiz-adv-x="274" 
d="M319 859l-7 -49q-87 0 -95 -57q-61 -629 -82 -782q-9 -65 -53.5 -88.5t-118.5 -23.5l7 50q84 0 92 58q61 626 83 780q9 65 54 88.5t120 23.5z" />
    <glyph glyph-name="approxequal" unicode="&#x2248;" horiz-adv-x="549" 
d="M509 207l-13 -94q-2 -3 -6.5 -8t-19 -18t-30.5 -22.5t-41 -17.5t-51 -8q-34 0 -96 31q-58 31 -97 31q-36 0 -73 -18.5t-56 -36.5l-19 -19l13 94q2 3 6.5 8t19 18t30.5 22.5t41 17.5t51 8q38 0 96 -31q62 -31 97 -31q36 0 73 18.5t56 36.5zM539 420l-13 -94q-2 -3 -6.5 -8
t-19 -18t-30.5 -22.5t-41 -17.5t-51 -8q-34 0 -96 31q-58 31 -97 31q-36 0 -73 -18.5t-56 -37.5l-19 -18l13 94q2 3 6.5 8t19 18t30.5 22.5t41 17.5t51 8q38 0 96 -31q62 -31 97 -31q36 0 73 18.5t56 37.5z" />
    <glyph glyph-name="notequal" unicode="&#x2260;" horiz-adv-x="549" 
d="M457 484l-54 -82h91l-12 -84h-134l-83 -129h199l-11 -83h-241l-53 -81h-61l53 81h-90l11 83h132l83 129h-197l12 84h240l54 82h61z" />
    <glyph glyph-name="equivalence" unicode="&#x2261;" horiz-adv-x="478" 
d="M470 516l-12 -84h-392l12 84h392zM410 90l-11 -83h-392l11 83h392zM440 303l-11 -84h-392l11 84h392z" />
    <glyph glyph-name="lessequal" unicode="&#x2264;" horiz-adv-x="549" 
d="M512 604l-13 -90l-333 -160l288 -160l-12 -90l-365 196l15 107zM440 83l-12 -83h-392l12 83h392z" />
    <glyph glyph-name="greaterequal" unicode="&#x2265;" horiz-adv-x="549" 
d="M121 604l364 -197l-15 -107l-419 -196l12 90l334 160l-289 160zM439 83l-12 -83h-392l12 83h392z" />
    <glyph glyph-name="house" unicode="&#x2302;" horiz-adv-x="600" 
d="M339 563l190 -253l-44 -310h-450l44 310zM332 472l-193 -187l-32 -225h323l33 238z" />
    <glyph glyph-name="revlogicalnot" unicode="&#x2310;" horiz-adv-x="479" 
d="M452 453l-13 -93h-312l-22 -163h-84l35 256h396z" />
    <glyph glyph-name="integraltp" unicode="&#x2320;" horiz-adv-x="604" 
d="M494 859l-6 -49q-87 0 -95 -57l-124 -1003h-74q96 797 126 997q9 65 53.5 88.5t119.5 23.5z" />
    <glyph glyph-name="integralbt" unicode="&#x2321;" horiz-adv-x="604" 
d="M334 859h74q-92 -751 -126 -997q-10 -65 -54.5 -88.5t-118.5 -23.5l6 49q87 0 95 57z" />
    <glyph glyph-name="commaaccent" unicode="&#xf6c3;" horiz-adv-x="273" 
d="M143 -60l-12 -84l-35 -76h-49l32 69h-34l13 91h85z" />
    <glyph glyph-name="uniFB01" unicode="&#xfb01;" horiz-adv-x="410" 
d="M227 731q35 0 67 -12l-8 -57h-44q-48 0 -54 -48l-12 -88h91l-10 -73h-91l-68 -514q-7 -51 -36 -86t-84 -35q-35 0 -67 12l8 57h44q47 0 53 48l68 518h-46l10 73h46l12 84q7 52 36.5 86.5t84.5 34.5zM399 526l-74 -526h-81l73 526h82zM426 723l-13 -98h-82l13 98h82z" />
    <glyph glyph-name="uniFB02" unicode="&#xfb02;" horiz-adv-x="410" 
d="M227 731q35 0 67 -12l-8 -57h-44q-48 0 -54 -48l-12 -88h91l-10 -73h-91l-68 -514q-7 -51 -36 -86t-84 -35q-35 0 -67 12l8 57h44q47 0 53 48l68 518h-46l10 73h46l12 84q7 52 36.5 86.5t84.5 34.5zM426 723l-101 -723h-81l100 723h82z" />
    <glyph glyph-name="NULL" horiz-adv-x="0" 
 />
    </font>
</defs>
</svg>
