<?xml version="1.0" encoding="utf-8"?>
<!-- Generator: Adobe Illustrator 21.0.0, SVG Export Plug-In . SVG Version: 6.00 Build 0)  -->
<svg version="1.1" id="Слой_1" xmlns="http://www.w3.org/2000/svg" xmlns:xlink="http://www.w3.org/1999/xlink" x="0px" y="0px"
	 viewBox="0 0 666 666" style="enable-background:new 0 0 666 666;" xml:space="preserve">
	<style type="text/css">
		.st0{fill:#abb9c2;}
		.st1{fill:none;stroke:transparent;stroke-width:8;stroke-miterlimit:10;}
	</style>
	<path class="st0" d="M518,451.2c-1.2-8.9-6.3-16.6-14.1-21.1l-91.4-52.6c-11.2-6.4-25.4-4.6-34.5,4.6l-18,18 c-4.8,4.8-12.4,5.2-17.6,1c-14.2-11.4-28.2-24-41.5-37.3c-13.4-13.4-25.9-27.3-37.3-41.5c-4.2-5.3-3.8-12.8,1-17.6l18-18 c9.1-9.1,11-23.3,4.6-34.5l-52.6-91.4c-4.5-7.8-12.2-12.9-21.1-14.1c-8.9-1.2-17.6,1.8-24,8.1l-27.1,27.1 c-18.9,18.9-19.2,53.6-0.9,97.5c17.7,42.3,50.6,88.8,92.9,131s88.7,75.2,131,92.9c21.6,9,41,13.6,57.4,13.6	c16.9,0,30.5-4.8,40.1-14.4l27.1-27.1C516.2,468.9,519.2,460.1,518,451.2L518,451.2z M406.5,388l91.4,52.6c4.5,2.6,7.5,7.1,8.2,12.2	c0.6,4.3-0.6,8.6-3.1,12.1l-121.4-69.3l4.9-4.9C391.8,385.3,400,384.2,406.5,388L406.5,388z M211.8,158.5c5.2,0.7,9.6,3.7,12.2,8.2 l52.6,91.4c3.7,6.5,2.7,14.7-2.6,20.1l-4.5,4.5l-69.7-121c2.8-2.1,6.3-3.3,9.8-3.3C210.3,158.4,211,158.4,211.8,158.5L211.8,158.5z M474.2,493.9c-15,15-45.8,14.4-84.4-1.7c-40.8-17.1-86-49.1-127.1-90.3c-41.1-41.1-73.2-86.3-90.3-127.1 c-16.1-38.6-16.8-69.3-1.7-84.4l20.1-20.1l69.8,121.2l-4.7,4.7c-9.1,9.1-9.9,23.6-1.9,33.6c11.7,14.5,24.5,28.8,38.2,42.5 c13.7,13.7,28,26.5,42.5,38.2c10,8.1,24.5,7.3,33.6-1.9l4.3-4.3l121.6,69.4L474.2,493.9z M474.2,493.9"/>
	<circle class="st1" cx="333" cy="333" r="329"/>
</svg>
