<?xml version="1.0" encoding="utf-8"?>
<!-- Generator: Adobe Illustrator 21.0.0, SVG Export Plug-In . SVG Version: 6.00 Build 0)  -->
<svg version="1.1" id="Capa_1" xmlns="http://www.w3.org/2000/svg" xmlns:xlink="http://www.w3.org/1999/xlink" x="0px" y="0px" viewBox="-117.4 86 623.1 623" style="enable-background:new -117.4 86 623.1 623;" xml:space="preserve">
	<style type="text/css">
		.st0{fill:#abb9c2;}
		.st1{fill:none;stroke:transparent;stroke-width:8;stroke-miterlimit:10;}
	</style>
	<path class="st0" d="M250.6,421.8H143.4c-2.6,0.4-4.6,2.4-5,5c-0.5,3.3,1.7,6.4,5,7h107.3c0.7,0.1,1.3,0.1,2,0c3.3-0.5,5.6-3.7,5-7	C257.1,423.5,254,421.3,250.6,421.8z"/>
	<path class="st0" d="M270.6,391.1H143.4c-2.6,0.4-4.6,2.4-5,5c-0.5,3.3,1.7,6.4,5,7h127.3c0.7,0.1,1.3,0.1,2,0c3.3-0.5,5.6-3.7,5-7	C277.1,392.8,274,390.5,270.6,391.1z"/>
	<path class="st0" d="M229.6,452.6h-86.3c-2.6,0.4-4.6,2.4-5,5c-0.5,3.3,1.7,6.4,5,7h86.3c0.7,0.1,1.3,0.1,2,0c3.3-0.5,5.6-3.7,5-7 C236.1,454.3,233,452.1,229.6,452.6z"/>
	<path class="st0" d="M270.6,329.6H143.4c-2.6,0.4-4.6,2.4-5,5c-0.5,3.3,1.7,6.4,5,7h127.3c0.7,0.1,1.3,0.1,2,0c3.3-0.5,5.6-3.7,5-7	C277.1,331.3,274,329,270.6,329.6z"/>
	<path class="st0" d="M270.6,360.3H143.4c-0.7-0.1-1.3-0.1-2,0c-3.3,0.5-5.6,3.7-5,7s3.7,5.6,7,5h127.3c0.7,0.1,1.3,0.1,2,0	c3.3-0.5,5.6-3.7,5-7C277.1,362,274,359.8,270.6,360.3z"/>
	<path class="st0" d="M325.9,447.1v90.5c0,9.1-7.4,16.4-16.5,16.5H104.6c-9.1,0-16.4-7.4-16.5-16.5v-281c0-9.1,7.4-16.4,16.5-16.5 h153.1v43.1c0,13.8,11.2,24.9,25,25h43.2v74.5l10.3-3.3V302v-0.3v-0.3V301v-2.5v-0.8l-68-68c-1.1-1.2-2.7-1.8-4.4-1.8H104.6v0 c-15.8,0-28.7,12.8-28.7,28.7v281c0,15.8,12.8,28.7,28.7,28.7h202.9c15.8,0,28.7-12.8,28.7-28.7v-95.8L325.9,447.1z M269.9,248.6 l47.4,47.4h-34.6c-7,0-12.7-5.7-12.8-12.8V248.6z"/>
	<path class="st0" d="M404.4,339.9c-11.5-11.5-29.6-11.5-41.1,0L238,465.1l-1.2,1.2l-34,67.2c-1.2,2-0.8,4.7,1.2,6.7 c2,2,4.3,2,6.7,1.2l67.2-34l1.2-1.2L404.4,381C415.8,369.5,415.8,351.3,404.4,339.9z M220.6,523.6l22.9-45.1l22.1,22.1L220.6,523.6z M275.2,494.4l-25.3-25.3l100-100l25.3,25.3L275.2,494.4z M383,386.5l-25.3-25.3l13.4-13.4c7.1-7.1,18.2-7.1,25.3,0 c7.1,7.1,7.1,18.2,0,25.3L383,386.5z"/>
	<circle class="st1" cx="194.1" cy="397.5" r="307.5"/>
</svg>
